<?xml version="1.0" encoding="UTF-8"?>
<svg id="Layer_2" data-name="Layer 2" xmlns="http://www.w3.org/2000/svg" xmlns:xlink="http://www.w3.org/1999/xlink" viewBox="0 0 65.03 65.17">
  <defs>
    <style>
      .cls-1 {
        fill: url(#linear-gradient);
      }

      .cls-2 {
        fill: #db5e6a;
      }
    </style>
    <linearGradient id="linear-gradient" x1="3.55" y1="63.33" x2="53.3" y2="10.09" gradientUnits="userSpaceOnUse">
      <stop offset=".38" stop-color="#dc5a61" stop-opacity=".3"/>
      <stop offset="1" stop-color="#fff" stop-opacity="0"/>
    </linearGradient>
  </defs>
  <g id="Layer_1-2" data-name="Layer 1">
    <g>
      <path class="cls-1" d="M5.46,16.25c0-.34.4-1.18.51-1.58.21-.74.32-1.51.67-2.21l-.08.51h.16c.07-.06.07-.32.1-.39.03-.06.14-.02.14-.08,0-.14-.18-.17-.13-.35s.81-1.11.99-1.3c.91-.95,2.21-1.83,3.39-2.44.25-.13,1.13-.62,1.32-.65.37-.06.37.45.81.3l-.08-.31.24-.08-.71-.08c.22-.14.75-.24.92-.34.05-.03.07-.15.15-.2,1.01-.64,1.78-1.44,2.59-2.3l.08.24.24-.24.2.47c.07-.19-.08-.45-.08-.58,0-.05.13-.04.16-.11.14-.29-.1-.42.4-.76.61-.42,1.14-.88,1.81-1.17.36-.15.57-.37,1-.5.82-.25,1.88-.33,2.74-.26.44.04.98.26,1.42.24.33-.02.65-.17.99-.16l-.87.24c-.09.21.16.12.16.2l-.1.04-.06.23.54-.02.18-.53.39.08-.08.24.39.08v-.47s-.2.16-.2.16l-.28-.31c1.26-.27,2.51-.62,3.77-.93.34-.08.39-.06.71-.17.15-.05.65-.27.73-.09l-.55.24.31-.08.2.47c.19-.09.26-.18.28-.39l.31.08v-.38s.63-.09.63-.09l-.32-.23c.74-.1,1.49-.29,2.25-.24.46.03,1.46.21,1.85.39-.18-.01-.37,0-.55,0v.31c.14-.01.31.03.44,0,.16-.02.06-.25.43-.09-.01-.06-.28-.22-.31-.24.49.03,1.9.46,2.32.7.04.02-.01.27.16.32l.04-.16c1.05.28,2.05.82,3.09,1.13.89.26,1.83.32,2.71.6l-.05.24.28.08-.08-.39.43.08-.06.19.12.12.66.09-.16-.24,1.97.32-.46.09-.17.38c.3.21.71-.22.77-.23.67-.14,2.67.97,3.13,1.5.13.15.63,1.06.66,1.24.07.42-.28.32-.3.34-.14.15.06.21.16.24,0,.08,0,.16,0,.24-.04,0-.1-.08-.16-.08.02.08-.06.15-.07.21-.04.17.06.08.15.11,0,0,.04.16.08,0l.67.31.04-.19.16-.04c.02.08.03.2.09.27.33.37.77.74,1.14.99.52.36,1,.93,1.6,1.2l-.03.46h.44s-.24.31-.24.31l.55-.16-.24-.08.12-.16c.21.25,1.27.59,1.38.79-.11-.04-.31-.02-.5-.1-.25-.1-.35-.32-.61-.3l-.08.55c.05-.29-.52-.68-.55-.24.5-.11.31.09.34.14.01.03.21.07.13.26l.55-.24-.08-.24c.2.07.25.23.15.41-.05.09-.18.02-.15.14.35.09.23-.22.31-.27l.24-.04.12.78.71.4-.2-.39s.59-.04.63-.24c.33.24.63.35.91.71.56.71,1.28,1.51,1.68,2.26.24.45.42.78.48,1.29-.21-.1-.11.04-.13.08-.06.11-.3.42-.26.47l.15-.07s.18.54.33.38c-.13-.29-.04-.59-.08-.87.12.06.36,2.21.39,2.52-.18,0-.08-.21-.09-.23-.07-.04-.26.04-.22-.17l-.47.27c.08.27.25.16.39.24.1.06.12.16.16.2l-.24.04.24.2c.02.18.02.27.2.39,0-.18.06-.21-.12-.27l.31-.2c-.14.51.14.68.23,1.14-.21.33-.64-.08-.54.36.18-.05.29.04.35-.15l.19.06.09-.15c.21.56.47,1.21.75,1.74.08.16.58.78.51.86-.33-.37-.52.11-.74.09s-.26-.13-.44-.24c-.02.31.19.52.5.48.05,0,.04-.13.11-.15.76-.23.58.16.97.59l-.39-.04c.11.26,0,.36-.08.59l.55.04-.15.43-.56.12.63.08c.02-.31.49-.72-.08-.71l.16-.08-.24-.08c-.02-.11.14-.12.21-.13.55-.07.67.45.89.84,0,0-.11.02-.16-.05-.06-.09-.02-.28-.15-.26l-.24.47.31.04c-.38.21-.17.11-.13.27.02.08-.02.18.02.23.03.04.47.37.51.32.12-.23-.29-.67-.29-.75,0-.05.19-.19.13-.28.91,1.59,1.13,3.75.67,5.52-.07.25-.65,2.02-.75,2.05.1-.2-.12-.43-.13-.51,0-.12.31-.39-.03-.51-.04.36-.41.37-.32.87.11.04.07-.32.23-.16.07.07-.01.39.24.32l-.24,1.58c0-.3-.07-.64,0-.95l-.55.16c-.07.33.28,0,.39.08l.08.31-.24.16.31.24c-.03.99-.23,1.95-.16,2.96.07,1.02.45,1.93.4,3-.06,1.23-1.02,4.17-1.89,5.04-.5.5-.45.47-.87,1.03-.1.14-.76.92-.87.82-.03-.02.06-.19-.08-.16.05.26-.19.53-.39.67-.24.17-.54.11-.48.43l-.24-.08c-.13.26.17.47.14.74-.02.13-.28.47-.35.67-.32.9-.42,1.89-.82,2.77-.22-.03.02-.46,0-.47l-.32.03-.07.28-.13-.16h-.26s.01.31.01.31c.32-.03.12.28.5.32l.11-.15c-.04.38-.33.76-.53,1.09-.07.11-.2.14-.23.2-.16.24-.23.69-.58.92.06-.12.07-.32.13-.46s.24-.04.18-.25c-.27-.07-.33.15-.56.2l.09.59s.13-.06.16-.08c-.28.58-.77.92-1.18,1.38-.03.01-.36.03-.38.02s-.02-.1-.07-.14c-.08-.05-.24-.06-.26-.08-.03-.03.13-.23-.04-.31l-.16.39-.12-.24c-.33-.05-.19.4-.25.47h-.23s0,.24,0,.24l.24-.08c-.08.15-.09.43-.31.39l-.16-.31c0,.23-.31.18-.23.42.13.38.36.07.54-.05.04-.03.14.02.15.02.05-.07.05-.42.1-.45s.19.02.28-.03c.04-.02.33-.48.34-.06l-.24.05c.12.44-.53.63-.87.78-.53.23-1.09.35-1.62.58l-.12-.15.24-.08-.08-.12.24.08c-.03-.34-.32-.13-.47-.31l.24-.51c-.1,0-.23.02-.32-.04-.08-.05-.03-.22-.16-.2.1.16-.29.34-.16.47.18.18.24-.29.4-.12-.09.23-.19.33-.08.59l-.24-.04c.1.07.1.27.18.34.09.09.3.04.3.18l-.95.32.16-.2c-.19-.17-.36-.39-.63-.28-.05-.06.12-.39-.16-.32l.24.59c-.45.18-.24.14-.32.46-.01.05-.11.05-.15.12-.03.06,0,.19-.04.25-.07.1-.47.08-.56.31l-.2-.16c.02.49-.4.74-.67,1.02-.83.87-2.06,2.19-3.11,2.68.07-.08.11-.24.18-.29.09-.08.29-.08.29-.14,0-.25-.21-.05-.32-.04l-.16-.24.08.31-.39-.04.32.27-.5-.08-.28.43c.12.15.09.1.21.05.16-.06.42-.18.58-.25-.25.28-.72.48-1.1.55.04-.03.06-.09.14-.09l-.07-.3c-.15-.02-.04.15-.08.23-.01.03-.51.09-.57.07-.07-.02-.19-.17-.21-.14l-.16.47c.18.04.22-.17.37-.21.1-.03.41,0,.58-.02-.69.56-2.39.65-3.27.63-1.93-.05-3.06-.21-5.02.26-.31.07-1.61.6-1.79.44-.02-.18-.11-.22-.17-.41-.03-.1.08-.15-.15-.12.1.36-.24.41-.47.59l.17.27h.38c-.59.14-1.1.48-1.73.4l-.08-.39-.22.71c-2.24.57-4.32-.29-6.25-1.34.06-.21.38.07.52.08.11,0,.24-.04.34-.09v-.38s-.3,0-.3,0l.08-.16-.47.31c.11-.25-.02-.32-.2-.47l-.16.16-.35-.09.47.43c-.25.07-.48-.35-.79-.36l.31-.31c-.45.42-.72.02-1.16-.14-.31-.11-.63-.24-.96-.26-.02-.01,0-.06,0-.07.08,0,.16,0,.24,0,.02-.27-.44-.68-.69-.46-.08.08-.12.23.02.3l.04-.24h.31s-.16.32-.16.32l.24-.08s-.01.12,0,.16c-.54,0-1.04-.28-1.58-.24-.01-.15.17-.03.3-.1.03-.02.01-.21.26-.13l-.16.16.47.08c-.01-.16-.22,0-.1-.22-.27-.06-.15-.27-.22-.49-.21.05-.04.23-.15.35-.35.38-1.13.3-1.62.28-1.97-.06-4.21-.63-5.72-1.93-.34-.29-1.86-1.92-1.8-2.27.02-.13.19-.24.2-.34.04-.22-.23-.57-.06-.82h-.63c-.16.17.41.35.04.39-.23-.21-.32-.51-.52-.75-.53-.63-1.11-1.07-1.79-1.52-.26-.18-.59-.39-.89-.49l.16-.12-.16-.16.24-.2c-.21-.1-.4.03-.51.04-.05,0-.11-.09-.16-.09-.09,0-.13.17-.28.13l.07-.22h-.15s0-.17,0-.17l.16-.08c-.19,0-.25-.14-.24-.32l-.39.2c.24.15.34.11.39.43-.21.19-2.34-1.54-2.53-1.85-.08-.13-.05-.17-.07-.28.08.03.12.11.24.08-.11-.44.34-.05.32-.39-.46.1-.36.03-.61-.22-.32-.33-.42.22.04.23.05.05,0,.22.01.3-.7-.29-1.56-2.29-1.73-3.04-.23-1.09-.12-2.24-.5-3.28-1.11-3.06-3.5-4.95-3.76-8.54-.17-2.28,1.05-3.77,1.18-5.95.04.11.38-.14.39-.16.14-.19-.19-.11-.16-.23l.2-.08.13.39h.39s-.16-.23-.16-.23l.55.24-.26-.28c-.07-.04-.25.1-.13-.19-.27-.06-.15.28-.31.31-.08-.15-.11-.31-.16-.47.31.08.8.09.87-.32l-.39.24.24-.39c-.23-.03-.31.12-.33.13-.02,0-.33-.12-.12.17.03.04.17-.04.14.09l-.47-.16c-.03.11.05.16.08.24-.09-.02-.14.05-.16-.11-.06-.39.12-.33.16-.41.06-.16-.22-.53-.31-.42.02.33-.09.71.16.99-.33.06-.02.45-.24.59.08-.77-.11-1.75,0-2.49.02-.17.27-.07.1-.31.42-.32,0-.22-.01-.24-.02-.08.06-.21-.08-.19l-.08.31c-.06-.49-.21-.92-.24-1.42.05.16.16.37.2.55l-.04-.43.16-.08c-.27-.18-.18-.31-.16-.59l.16.24.24-.16.04.32.03-.38-.62-.17c.07.24-.01.47,0,.71-.3-1.02-.14-1.68.08-2.68-.01.07,0,.16,0,.24l.2-.08.04.24.13-.16c.27.06.52.12.74-.11-.07-.38-.17.17-.32.04-.05-.04.3-.15-.29-.21-.1,0-.19.05-.29.06l-.13-.16c.03.09-.08.15-.08.16.07-.31.06-.55.18-.89.17-.51.52-1.25.85-1.67.05-.07.18-.22.16,0l-.16.28h.19s.12.32.12.32l-.17-.23c-.13.08-.36,0-.31.23.11-.05.71.22.63-.04-.04-.14-.23-.29-.16-.51l.16.16v-.47c.26-.06.1.17.2.24.06.04.39.1.43.07l-.24-.35.24-.04-.09-.23-.38.07c-.12-.21.66-1.05.87-1.18-.07.12-.07.26-.24.36.27.05.38-.46.79-.44l-.08-.23h.23s0-.32,0-.32c.14.09.26-.01.31-.16,0,0,.07.04.06.1-.02.13-.26.27-.22.45.6,0,.51-.14.55-.63.02,0,.28-.1.39,0l-.31-.2.2-.28s.08.32.28.24c-.15-.22.1-.32.08-.55l-.35.24c-.09,0,.08-.35-.3-.24-.05.02-.05.12-.07.14-.14.08-.12-.09-.45.26.18-.59.76-1.3,1.03-1.89-.01.55.48.11.79.32l-.24-.31c.32.09.52-.15.67.24l.04-.24.31.16-.59-.55-.04.16c-.14.05-.19-.13-.27-.13-.06,0-.23.17-.36.13l.24.16-.46-.07-.09.15ZM37.16,1.19h-.16s.12.16.12.16l.04-.16ZM39.29,1.74l-.67-.24c0,.22-.38,0-.19.31.01.02.21.07.26.09l.08-.16c.3-.01.56.51.52,0ZM40.55,2.22c-.26.04-.47-.22-.67-.24s-.53.16-.78.07l-.04.24-.24-.04.67.28.12-.16v.24s.39,0,.39,0l-.08-.31c.09-.07.57.17.63-.08ZM20.91,2.3c-.3-.09-.15-.33-.54-.15v.38c.3.04.29-.22.5-.08l.04-.16ZM21.21,2.15l-.38-.06c.25.16.1.37.39.47l-.24.12c.34-.08.17.22.39.32l-.17-.85ZM41.26,2.45l-.46-.07-.33.55c.38-.12.29.29.63.24-.17-.48.17-.35.16-.71ZM20.36,2.69l-.16.04v.51s.32,0,.32,0l-.04-.31c.06.21.17.1.35.16.06-.34-.51-.09-.47-.39ZM18.99,2.96c-.32-.19-.51.13-.52.44.36-.05.58.04.87.24v-.47c-.18.17-.21-.13-.34-.21ZM26.26,3.39l-.18-.38c-.19.11-.27.36-.51.31l.28.15.19-.15-.08.23.32.04-.16-.2h.14ZM21.78,3.4l.08-.24c-.54.24.5.75.63.63l-.2-.31-.08.16c-.06-.2-.42-.22-.44-.24ZM35.27,3.95l.04-.4c.09-.13.28.08.4-.08.07-.1,0-.2-.08-.24-.06-.02,0,.11-.1.15-.33.15-.45.04-.57.48l.31.08ZM54.59,13.57h-.24s.08-.47.08-.47l-.31.08-.08-.32-.08.24c-.14.04-.18-.11-.29-.13-.07-.02-.18.06-.26.02-.06-.03-.85-.84-.9-.91-.11-.16-.16-.36-.2-.55l-.28.08c-.15-.1.04-.27-.19-.24l.23-.31-.24.16c-.06-.25.29-.13.24-.39-.2.13-.32.17-.55.08l.02.2.21.07-.19.12c-.72-.68-1.52-1.28-2.32-1.86-5.34-3.89-12.63-6-19.37-5.56-.91.06-1.81.31-2.72.32l.31-.16-.16-.24-.24.08-.24-.24.16.31h-.34s-.13.16-.13.16l.08-.35-.16-.04c-.04.19-.29.23-.12.48.16.23.69-.28.83.07-.63-.03-1.19.32-1.81.16l-.04.24c-.19.02-.43-.04-.61,0-.48.11-1.24.53-1.87.63.08-.04.47-.25.47-.28l-.43-.27c-.21.22.31.13.2.23-.33.29-.61-.02-.63,0l.08.24-.32-.08c.11.3.38.2.63.16-.42.23-1.01.47-1.5.55.19-.1.39-.21.55-.36l-.32-.07-.19-.36c-.11.2-.2.4-.12.63l-.19-.17-.4.17-.2-.16-.16.16c-.06.31.27.08.42.1.27.04.17.13.6.06-.39.21-.85.41-1.3.55-.02-.15-.13-.5-.36-.47l.16.28-.15.12-.12-.24c-.25.08-.14.16-.17.19-.32.47-.19-.08-.21-.1-.14-.14-.16.13.02-.33l-.47.16c.02-.2,0-.38-.24-.4l.18-.07.29.38.05-.16.35.09-.24-.47c-.24.28-.57-.07-.79-.03-.08.02-.29.12-.24.27h.32s.04.39.04.39l.2-.24c-.08.28.3.34.08.71l.16-.31.16.19-.16.44.24.08c-.66.24-1.26.65-1.85,1.02-.62.39-1.57.97-2.11,1.42-.13.11-.21.35-.38.43-.14.06-.29.03-.44.12-.19.11-.6.97-.94,1.11l-.12-.16.16-.08-.16-.04c.2-.31.52-.32.14-.64-.02-.02-.12.02-.14,0-.1-.11-.05-.32-.31-.35l-.32.59.24-.04c.05.15-.16.21-.14.34.03.19.33.45.19.76-.16.34-1.37,1.29-1.7,1.62-.63.84-1.3,1.72-2.01,2.49-.19.21-.02.35-.56.39l-.07-.15-.12.32.3.04c.13.26-.93,1.58-1.01,1.46.02-.15,0-.26-.16-.24l.16-.12-.31-.04c-.02-.21,0-.13.12-.16.22-.05.05-.13,0-.13-.1,0-.24.08-.36.05l.16.16h-1.02s.53.39.53.39l.46-.31.43.55-.71.24.28.16.12-.16-.08.39c.17-.07.22-.28.33-.42.05-.07.16-.25.14-.01-.85,1.4-1.5,2.91-2.11,4.44-.15.38-.24.78-.41,1.12.04-.21.02-.43.16-.63l-.32-.08c.38.24.62-.8.55-.87h-.24s.08.31.08.31h-.39s-.08-.24-.08-.24v.55s.24.08.24.08l-.39.08.07.14-.38.17.47.24-.47.28.47-.04-.47.24c.08.26.35.01.55.16-.06-.2.12-.33.16-.4-.33,1.59-.78,3.05-1.02,4.7-.24,1.66-.18,3.49-.48,5.12-.03.15.15.06.17.23.09.71,0,1.68.07,2.45.48,5.67,3.27,11.75,7.18,15.81l-.16.04.08.2c-.69.17-.23.25-.24.28-.07.19-.34.1-.39.28.34.06.36-.01.55-.24l.24.32-.08-.32.15.07.09-.15.16.16c-.1-.39-.46-.16-.39-.63.39.41.86.9,1.27,1.29.27.26,1.76,1.45,1.81,1.62-.15-.05-.26.05-.35-.24l-.2.2.16.12c-.04.16-.17.18-.31.16l.08-.24c-.3-.09-.5.36-.6,0l-.35.08-.24-.55v.32s-.47-.08-.47-.08v.36s-.55.23-.55.23l.16.24s-.31.06-.16.2c.11.1.45-.56.69-.62.17-.04.63.12.89-.01v.24s1.03,0,1.03,0l-.08-.24.31.16c-.01-.1.02-.23,0-.32.56.21.34.69.86.8l-.15.62h.51c.07.25.12.58-.19.64l.07.22c.13.01.07-.18.21-.23s.35,0,.5-.01l-.47-.24.47-.28c-.12-.28-.36-.32-.53-.46-.02-.02-.2-.27.02-.21,3.56,2.49,7.68,4.41,12.01,5.1,2.68.43,5.36.42,8.06.18l-.47.08.32.08s-.21.45,0,.47c0-.44.23-.49.63-.47.08-.32-.36-.03-.39-.24,1.97-.12,3.89-.67,5.79-1.18.13.08-.06.1-.12.12-.26.09-.57.09-.71.35l.24.08.08-.24.12.39-.04-.31h.63s-.39.24-.39.24c.51.09.62-.24.79-.63-.08-.08-.62.09-.39-.12l2.96-1.22.19.27c-.25.07-.08.16-.16.35h.47s0-.24,0-.24l-.16.04-.08-.16c.24-.07.07-.14.13-.33.03-.08.4-.4.5-.34l-.04.32.28-.24.08.24c-.03-.22.16-.12.29-.18.04-.02.12-.25.42-.13l-.31-.23.74-.09.12.16-.24-.47.23-.07v.15c.12.03.08-.12.17-.19.29-.25.51.07.55.04v-.55s-.24.04-.24.04c.36-.28,1.12-1.01,1.1-.12l.08-.16h.47c-.1-.18-.51.04-.47-.32l.14.06.45-.46c-.07.28.14.37.4.46l.12-.15c-.15.02-.2-.07-.16-.2.02-.07.19.01.16-.12l-.16-.12.2-.2c.18.41.3-.16.38-.22.12-.09.3.02.29-.41.03-.03.48.58.63.39-.04.17-.08.25.08.36l.27-.12.12.16-.27-.63-.28.16v-.32s.79,0,.79,0l-.31-.51c.4-.17.13-.23.17-.46.07-.35.95-1.3,1.41-1.13.2.25-.06.54.31.6l-.16-.43.16-.12c-.11.18.13.3.15.45.01.1-.23.31-.14.5.18-.03.07-.24.19-.32.16-.11.34-.09.52-.07,0,.18,0,.41.24.39l.16-.47h-.87s.08-.32.08-.32l-.24-.16.23.04-.08-.43.24.04c-.16-.21-.36-.07-.55-.04-.16-.34.09-.25.24-.43.49-.61.95-1.11,1.42-1.74.25-.34.52-.66.79-.99-.01.03.03.12,0,.18-.04.08-.56.53-.27.61l.08-.14.12.06c-.06-.4.13-.13.16-.16.15-.18-.2-.12-.16-.24l.47-.08c-.08.14-.03.26.16.24v-.31s-.47-.08-.47-.08c.21.04.12-.19.21-.24.11-.06.44-.09.58-.16l-.31-.2c.14-.03.33-.27.12-.35-.04-.02-.42.63-.51.75-.05.06-.13.09-.16.12.41-.74.87-1.46,1.41-2.1.3-.35.14-.5.8-.35v-.24s-.55.08-.55.08l.33-.78c.44.06,1.06.02.78-.56.26.13.62-.26.87-.12.16.09.12.42.55.27v-.31s.32.24.32.24c.07-.38-.38-.31-.46-.41-.04-.05,0-.17-.02-.21-.01-.03-.42.03-.58-.01-.21-.05-.48-.2-.68-.31.05.36-.43.62-.24,1.02-.27.02-.28.01-.2-.24.11-.35.42-.96.59-1.26-.03.24,0,.21.2.31l-.04-.31.39-.28-.31-.2c.03.24-.17.36-.24.47.04-.4.43-1.16.57-1.59.12-.35.21-.73.29-1.09.21.05-.05.45,0,.55l.51.08.08-.16-.2-.04c-.1-.18.02-.33-.01-.45-.03-.11-.18-.15-.14-.29.37.24.43-.44.51-.47.16-.07.14.19.12.28-.02.12-.44.31.07.43l-.16-.24c.1,0,.21,0,.32,0-.02.06-.09.38-.08.39.15.11.16-.3.39-.08l.08-.24-.08.39c.23.02.32-.22.24-.39h.24s-.24-.48-.24-.48c-.35.25-.06.37-.55.39.02-.05.1-.14.08-.16l-.24.08.08-.55h-.32s.16-.08.16-.08c-.05-.18-.24-.17-.39-.16l.02.3.14.09c-.15-.22-.44.55-.39.2.14-1.14.81-2.41.78-3.62l.24-.05-.16-.27.33-3.04c.07-.07.47.14.39-.16l-.32.04c-.16-.11-.06-2.22-.07-2.61-.07-1.55-.33-3.27-.66-4.78-.38-1.77-.96-3.51-1.7-5.16l.39-.3c-.39-.13,0-.18.08-.35l-.47.16.23-.28-.08-.2-.31.08.08-.31-.47.07c-.17-.58-.68-1-.4-1.65-.08-.09-.44-.09-.46-.11-.11-.08-.09-.27-.13-.35-.01-.02-.15-.04-.17-.17-.04-.19.07-.59.12-.79l-.31.16.08-.24-.2.07c-.06-.26-.14-.04-.26-.08-.06-.02-.49-.69-.57-.8-.07-.1-.22-.12-.31-.26-.13-.21-.16-.57-.17-.82l-.2.16c-.53-.26-.38-.72-.75-1.02l.47-.16-.28-.23.03.15s-.12,0-.15,0ZM37.63,3.79l-.23-.16v.3s-.32.13-.32.13l.39.2v-.39s.4.16.4.16c0-.2-.17-.66-.24-.24ZM39.68,4.35c-.2.06-.44-.21-.59-.08-.09.08,0,.21-.06.3-.03.05-.17-.03-.14.09l.79.16.08-.24-.24-.12.16-.12ZM46.46,4.9c-.62,0-.24.72.16.47l.04-.16.12.24-.31.16c.35.03.65-.26.26-.46-.25-.13-.18.06-.42.07l.16-.31ZM47.96,5.45l-.04-.16-.12.16h.16ZM16.97,5.77h-.47s.2.62.2.62l.04-.16h.24s0-.47,0-.47ZM46.53,5.78s-.36-.05-.46-.1c-.11.2.3.13.16.32-.03.04-.3-.23-.24.08l.35-.24.04.31.47.08c.07-.25-.22-.14-.3-.26-.03-.05,0-.16-.03-.2ZM45.04,5.92c-.19-.07-.41.44-.39.47.25.07.66.37.71-.07-.3.02-.34-.12-.32-.4ZM18.14,7.17c.02-.09.08-.22.05-.31-.07-.2-.45-.33-.43,0,.18-.12.45.01.24.2l-1.1-.2-.08.32h.79s-.47.16-.47.16c-.03.12.04.17.12.24.23.2.17-.03.26-.08.21-.11.33.03.33-.28l.31-.05ZM50.68,6.63v.08c.05-.03.05-.05,0-.08ZM51.12,7.81l-.12-.16h-.12s0,.16,0,.16h.24ZM51.88,8.08c-.04-.06-.32-.26-.37-.06-.01.05.35.07.16.31l.16-.04v.23s-.39.16-.39.16l.32-.04c.02.62.81.22.63-.04-.23-.12-.26.06-.47.08-.01-.19.1-.43-.02-.61ZM13.35,8.83s.09-.18-.05-.23l-.28.2.24.16c-.15,0-.44-.04-.2.19l.43-.23v.24c.28-.29.32,0,.63,0,0-.45-.62-.2-.78-.32ZM52.59,9.58c-.24-.1-.47-.09-.45-.43l-.31.2c.19.22.55.07.47.43l.08-.16c.25.1.24.24.16.47l.47.16.08-.24v.39s.24-.12.24-.12l-.16-.2s.36.21.47-.04c.09-.2-.38,0-.24-.35.21-.07.14.13.17.14.04.02.13-.08.21-.05.02,0,.11.24.25.22.08-.41-.52-.39-.55-.63l-.16.04-.04.51h-.31s-.05.16-.05.16l-.24-.31h.26s.05-.24.05-.24c-.01-.02-.3.15-.36.15-.04,0-.03-.11-.06-.12ZM51.2,9.39h-.24c.17.26-.17.37-.16.63l.43-.24.13.23.23-.07-.21-.23h-.26s.08-.32.08-.32ZM10.98,10.34c-.28-.03-.17-.12-.2-.32-.34.12-.1.2-.14.3,0,.01-.17.17-.19.17-.29.07-.12-.32-.35-.04l.36.17.51-.29ZM52.38,10.1c-.25.07-.71-.23-.82.07l-.2-.03.23.13v.14s.09-.24.09-.24h.16s.08.24.08.24v-.32c.14-.01,0,.13.19.16.15.02.34.04.28-.16ZM8.69,10.58v-.16s-.16.12-.16.12l.16.04ZM11.84,11.05l.08-.24-.39.16.09.35-.17.12.51-.31c.19.17-.14.15-.12.2.14.32.55-.28.47-.35l-.47.08ZM52.26,11.05v.08c.05-.03.05-.05,0-.08ZM7.44,11.66v-.14s-.33.47-.33.47l.87-.24c-.08-.3-.42,0-.54-.09ZM12.24,11.68h-.16v.08s.16,0,.16,0v-.08ZM10.36,12.14c-.04-.05.11-.37-.09-.38l-.2.47-.2-.31-.07.31.23.17-.32-.08.39.28-.31.2c.21.06.39.26.39.47l.24-.13-.09-.85.16-.09-.15-.05ZM9,12l-.47.16.16.23-.24.08c.27-.13.31.22.51.16.18-.06.03-.21.04-.32l-.24.04c.1-.04.37-.23.24-.35ZM7.59,12.47h-.55c-.03.13.1.05.14.09.02.02-.12.14.09.18l-.07.36.39-.63ZM7.1,13.34l-.54-.09.23.17c.05.46-.53.18-.54.62.23.07.15-.2.28-.23.1-.02.41.11.58-.02v-.46ZM55.53,13.42c-.19-.07-.2.16-.15.23.02.02.29.07.39.13.12.08.13.22.18.25.02.02.49.05.54-.1l-.24.04.07-.2-.15-.27c-.21.09-.61.26-.63-.08ZM7.76,13.87c-.08-.08-.08-.42-.41-.37l.24.16v.47s.55,0,.55,0c.07-.27-.28-.16-.37-.26ZM8.61,13.58l-.39.11c.17.12.14.33.2.51.02.07.15.12.18.22.04.13-.12.33.17.42l-.08-.39.24.16.08-.24-.52-.24.08-.31.2.32-.16-.55ZM58.29,13.57l-.47.08v.36s.24.04.24.04c.04.13-.12.06-.13.09-.02.05.02.22-.02.3h.32s-.16-.12-.16-.12c.09-.16.1-.23.32-.2l-.32-.2.24-.35ZM58.12,14.62c-.07-.04-.14-.02-.22-.02.17.17-.12.3-.31.24-.05.22.08.15.24.16-.22.37.19.53-.08.79h.39s0-.32,0-.32h.32s-.24.24-.24.24c.72.1.21-.3.56-.44-.02-.29-.23-.26-.4-.39-.1-.07-.23-.25-.25-.26ZM6.55,14.76l-.55.07v.16s.47-.16.47-.16v.24s-.55.12-.55.12l.27.27.28-.07-.24-.16c.43-.07.25.1.34.21.12.15.25.02.18.42.46-.42.04-.35-.08-.55-.08-.14-.08-.38-.13-.54ZM8.18,14.76c-.08.05.04.11.08.15.08-.05-.04-.1-.08-.15ZM8.29,15.15l-.32.05-.2-.36c-.17.07-.02.27-.04.31-.03.04-.46.12-.47.32l.28-.16c.52.02-.07.52.5.48-.03-.33.35-.27.24-.63ZM57.04,15.22s-.04-.23-.17-.23l-.04.24h-.57c-.08.16-.04.43.08.53.02.01.09-.05.12-.04s.11.26.41.12c-.01-.44.31-.33.48-.66-.06-.12-.24.08-.3.03ZM57.5,16.25c-.36.07-.52.18-.22.46.25-.07.46-.26.72-.14l.09-.16.2.24-.24.04v.28c.36.1.22-.25.36-.31.04.03.07.3.2.16.05-.06-.34-.46-.37-.46-.18-.06-.77.19-.82.15l.08-.24ZM7.85,16.86c-.09-.21,0-.37-.15-.52l-.08.24-.35-.16c-.09.36.24.22.39.36.1.09.07.27.2.35.28-.24,0-.22,0-.26ZM6.56,17.75c-.14-.02-.23,0-.31.12l.31.04v-.16ZM58.85,18.78l-.24.05-.24-.28c-.09.24.16.33.16.35-.05.22-.3.28-.39.43.35.1.28-.33.55-.31-.01.21-.24.28-.08.51l.16.04.24-.28-.23-.21.07-.3ZM60.34,19.64c-.05.04-.36-.43-.55-.32-.08.22.13.14.15.16.12.18-.28.19-.31.39.64.03-.02.31-.08.37-.14.15-.29.44-.31.66l.16-.24.16.08c-.17-.3.13-.19.08-.47.35.05.11.4.47.32l-.24-.79c.35.14.26-.07.55-.08v-.23c-.14-.03-.04.13-.07.16ZM60.58,22.56c.43.14.79-.47.18-.61-.16-.04-.33-.01-.5-.02v.24c.3-.07.45-.27.71.04.08.16-.38.25-.39.35ZM61.76,22.17l-.28.16.04.24c.13-.03.11-.29.24-.39ZM59.79,22.4v-.16s-.08,0-.08,0v.16s.08,0,.08,0ZM4.19,22.88l-.08-.55-.15.44-.48.04.16.24-.24-.05-.23-.27.08.47h.55s0-.28,0-.28l.4-.04ZM1.83,23.19c.35.02.56-.12.39-.47-.15,0-.05.2-.11.32-.05.09-.2-.02-.28.03-.12.07-.31.59,0,.52v-.39ZM3.17,23.11l-.04-.16-.75.2.24.08v.48s-.16.07-.16.07l.24.59h.23c-.03-.39-.07-.76-.15-1.17l.39-.08ZM60.71,24.4c-.08-.1-.32-.15-.44-.23-.08-.06-.04-.21-.16-.19,0,.19.07.49.17.65.08.13.23.15.26.21.04.07-.11.3.08.4-.02-.27.26-.64.09-.84ZM4.25,24.09c-.1-.04-.61-.13-.53.13l.39-.08.08.24-.32-.08c.17.45.54.48.95.63v-.31s-.11.15-.11.15l-.44-.07.16-.16-.16-.08.16-.23c-.12.04-.16-.13-.18-.13ZM1.91,24.3c-.28-.02-.65.07-.43.4.08.12.27-.03.12.34l.23.13-.16.23h.32c.04-.22-.1-.37-.32-.39.21-.23.15-.31,0-.55l.24-.16ZM4.43,25.32h-.12s.04.16.04.16c-.06.05-.52-.19-.55,0,.23-.04.2.28.24.31,0,0,.11-.06.18-.04.32.07.38.18.45-.31l-.19.04-.05-.16ZM63.26,25.8l-.51-.07-.2.47c.18.08.93-.17.71-.39ZM61.92,26.03c-.22.09-.33-.24-.35-.24-.39.11-.05.3-.03.59,0,.13-.03.24-.09.35l.24.08.04-.24.12.16v-.39s.39.31.39.31c0-.19.15-.35-.04-.47l-.08.16-.27-.09.08-.24ZM64.51,26.13l-.38-.09c-.03.33-.04.49.19.71.3-.05.34-.49.18-.62ZM3.34,27.04l-.17-.46c-.06.23-.06.36.08.55l-.24.04.43.2-.04-.16.4-.05.07-.59h-.31c.08.1,0,.41,0,.44.02.08.18-.02.15.12l-.38-.1ZM63.73,26.9c-.08.07-.13-.27-.24-.24l.16.71-.55.08c-.16-.31.04-.19.07-.28.02-.06-.05-.31,0-.42-.21-.02-.32.22-.24.39l-.39-.04-.16.52.32-.04c.13-.59.6-.16.07.08l.24-.04-.08.47c-.09.08-.47-.25-.39.08.25-.15.46.22.55.16.02-.02-.13-.42,0-.55.13-.04.03.15.13.16.16.03.33-.16.46.07l-.04-.31.31.16c-.25-.33-.07-.72-.16-1.1-.14-.03-.05.13-.08.16ZM1.99,26.74l-.46.2c.07.09.15.17.19.28.06.16-.17.2.15.32l-.2-.59.31-.2ZM1.83,27.14l.16-.12-.12-.12-.04.24ZM64.76,27.06c-.24-.05-.12.08-.16.19-.05.13-.1.27-.15.4.23,0,.37-.17.32.2l-.16-.16-.16.31.39.08v-.87s-.08-.16-.08-.16ZM3.17,27.37l-.55-.16.16.47h-.17c0,.19-.31.03-.22.2.19.36.33-.28.63-.12l-.16-.31.31-.08ZM4.26,27.84l-.03-.54-.26.17.06.14c-.36-.03-.35.34-.4.39-.08.08-.37-.11-.3.17l.63-.08c0,.16-.21.36.08.32v-.32s.16-.08.16-.08l-.24-.04.3-.13ZM61.13,27.61l-.2.08.12,1.11.47-.4-.47-.32.04-.15.2-.05c-.15-.06-.19-.1-.16-.28ZM62.25,28.54s-.02-.1-.02-.14h-.08c-.07.3-.29.33-.55.35l.47.12v.31s.32-.08.32-.08l-.16-.23c.07-.05.64.11.55-.12-.1-.26-.43-.15-.54-.22ZM3.09,29.5l-.2-.62-.35.07.31.24-.55.04c-.01.24.29.02.48.07.2.05.08.26.31.21ZM61.45,28.87l-.16.12.31.2c-.3-.04.02.24-.24.32l-.16-.31v.39c.51.11.43-.24.71-.43l-.04-.2-.39.08-.04-.16ZM63.66,28.87c-.27,0-.53-.02-.63.28l.39.04v.24s.32-.08.32-.08c.05-.28-.13-.03-.24-.2l.16-.27ZM3.96,29.5c-.19.11-.24.02-.39-.08v.32s-.2-.16-.2-.16c-.13.24.34.3.51.39l.08-.47ZM61.9,30.43c.05-.12,0-.29-.09-.3-.11,0-.24.33-.43.24l.24.12c-.06.13-.17.05-.21.06-.41.16,0,.33.11.27.03-.01.38-.37.39-.39ZM3.88,32.66v-1.81s-.2.59-.2.59c.08.14.13.3.12.47-.01.22-.29.77.08.75ZM62.24,31.08l-.32.59.31.12.24-.28-.16-.2-.24.24.16-.47ZM3.48,31.32l-.55.35.15.28h-.24c.04.17.25.12.39.16-.11-.31.07-.54.24-.79ZM63.42,31.39c-.47.02-.15.79-.63.71l.16.39.19-.08.06.14c.21-.04.34-.11.1-.27l-.28-.06c.23-.07.13-.07.08-.28l.24-.04-.08-.27.24.16-.08-.39ZM61.53,32.03c-.14-.12-.23.18-.24.26l.17.28c.3,0,.56-.11.54-.46l-.2.23c-.07-.13-.22-.11-.31-.16s.06-.13.03-.16ZM3.01,32.66l-.24-.04.2.2.04-.16.24.24c.08-.13-.26-.61-.24-.24ZM62.71,32.97l-.63.16.31.08c.03.13-.11.05-.13.09-.05.08.01.24-.26.34l.2-.04.04.24c.41-.15.18-.49.24-.66.05-.14.25-.07.23-.21ZM63.18,33.13c-.29-.18-.42-.13-.63.15l.47.32.16-.23-.31-.24.12.16.2-.16ZM3.41,33.13l-.47.2.16.36.23-.08-.24.31.24-.04c-.13,1.19.63.49.55-.2l-.09.3-.3.09.16-.47-.24.08.06-.22-.15-.06.08-.27ZM2.22,33.29c-.22-.06-.1.01-.13.08-.11.22-.02.39-.42.32l.1.18.29-.02.12.39.2-.35-.16-.2.24.08-.24-.47ZM1.02,33.79c-.21-.07-.36-.04-.34.21.07.15.35.09.28.31l-.32.16c.46.05.31-.34.71-.43.04-.2-.15-.08-.3-.14-.02,0-.02-.1-.04-.1ZM.87,35.11l-.3-.17c.05.32-.28-.09-.38.21-.06.18-.15,1.37-.09,1.44l.32-.04-.16.08c.22.34-.04.34-.06.39-.01.05.05.25-.02.36l.55-.12c-.17-.57-.07-.07-.39-.04.13-.37.09-.62.47-.83-.2-.19-.28-.37-.16-.63l-.23-.04c-.06-.27.25-.23.16-.55l.31.16-.02-.22ZM3.19,36.11s-.03-.15-.15-.21c-.05-.02-.48-.11-.5-.09.11.13.11.4.31.39v.16s-.16.08-.16.08l.54.07c.05-.31.28-.19.41-.38-.12-.08-.39.03-.46-.01ZM61.63,36.42c.09.04.61.03.53-.25-.03-.12-.62-.17-.59.03l-.36-.07c0,.14.23.11.33.16.06.03.07.12.08.13ZM2.46,36.91c-.05-.25-.29-.05-.39-.11-.13-.07-.16-.4-.32-.44l-.24.71c.29-.07.56.33.85-.02.02-.02-.14-.18.1-.14ZM61.84,37.31l-.47-.08.08.31h-.24s.04.32.04.32l-.43-.08.08.32-.24-.16.08.39c.24-.17.06.14.31.08v-.39c.19.15.16-.19.47-.08l-.16-.08c-.03-.19.2-.17.23-.44l.2.05.04-.16ZM1.36,37.39h-.24c0,.16.06.35-.16.32v.08c.47.05-.11.44.24.4.05.1-.34.09-.16.24,0,0,.24.04.24-.05v-.57s.39-.01.39-.01l-.12-.2-.2.05v-.24ZM.8,38.81c.16-.37.14-1.03-.31-1.18l.08.71.24-.08c.09.1-.32.47,0,.55ZM2.7,37.63c-.32-.01-.2.37-.32.55l.55.16v-.24s.16.08.16.08l-.07-.23.15-.08-.22-.07c-.05.23-.18.25-.41.23l.16-.39ZM3.48,38.65l.16-.71c-.21.04-.11.3-.16.39,0,.01-.18-.09-.23.04l.24.08-.24.2.08.16c.18,0,.35-.06.32.16h.08c.23-.52-.12-.23-.24-.32ZM1.28,39.36c-.41,0,.02.35.07.45.08.14-.02.37.24.34l-.08-.24.24-.16c-.3,0-.45-.08-.47-.39ZM3.25,39.91l-.55-.16c-.25.59.43.53.16,1.1.33-.05.11-.43.55-.4.05-.3-.44-.05-.55-.36.08-.37.15.1.27.04.08-.04.14-.14.12-.24ZM4.75,40.31l-.08-.55-.39.28.24-.04-.31.55c.3.02.22.22.35.4l.28-.39-.32-.24h.24ZM4.9,42.04h-.39s0,.23,0,.23l-.39.12.31-.04-.08.31,1.01-.17c.08-.24-.03-.37-.27-.37-.05,0-.23.42-.35.3l-.08-.24.24-.16ZM59.86,42.75l-.39-.15-.08.47h.24s-.08.16-.08.16l.43.08c.11-.17.26-.19.2-.44l-.23-.05v-.23c-.15-.03-.06.12-.1.15ZM61.92,42.83c-.21-.07-.13.12-.17.14-.05.04-.29-.21-.23.09l.38.1.02.38h.32c.06-.27-.15-.06-.16-.08-.06-.14.24-.24.24-.47l-.39.08v-.24ZM3.54,43.29l-.1-.3-.59.24c.15.28.35.56.71.47l-.07-.15.15-.09-.24-.12.14-.05ZM5.85,43.54c-.51,0-.19.89.04.87l.12-.15-.24-.04.16-.28h-.24s.24-.08.24-.08l-.08-.32ZM59.63,43.54h-.16s.12.16.12.16l.04-.16ZM4.9,43.78h-.24v.08s.24,0,.24,0v-.08ZM59.71,43.78h-.24s0,.24,0,.24l.24-.24ZM60.52,43.87c-.05.04-.05.17-.13.22l-.59-.31.16.7.74.17c.28-.32.48-.39.44-.87-.14.01-.29-.03-.42,0-.05.01-.05.12-.07.13-.03.02-.11-.05-.12-.04ZM6.4,44.8c-.35-.06-.38.01-.55.28.22.17.41.12.63.28-.04-.18.04-.29-.15-.35l.07-.2ZM4.83,45.51c-.22-.02-.31-.2-.55-.08l.24.08-.16.31c.09.05.51,0,.54.01.11.08.25.57.25-.09l.47-.12c-.29-.04-.53-.06-.75-.27l-.04.16ZM5.96,46.26s-.02-.14-.07-.12l-.36.16.31.24-.07.31h.91s.04-.31.04-.31l-.32.24c.05-.25-.25-.3-.44-.51ZM59.06,46.8c-.1-.04-.18-.05-.28-.02l-.09.38.31-.24c-.12.52-.05.29.13.41.07.05.07.21.18.22l.08-.35-.15-.06.06-.22c-.18.08-.24-.12-.26-.13ZM4.83,47.4l-.2-.39.04.24-.39.08-.06-.1.1.5.11-.28.4-.04ZM6.51,47.69c-.15-.25-.03-.64-.58-.6l.31.16-.16.51c.03.21.35.14.25.54-.02.08-.52.02-.44.45.08.41.51.11.7.15.07.02,0,.23.21.15v-.31s-.24.08-.24.08l-.04-.31-.13.31-.38.09v-.32s.24.16.24.16l-.05-.24.48-.15-.04-.24.24.24c.14-.59-.2-.4-.37-.66ZM57.43,47.88c-.04-.29.04-.45-.31-.55l-.16.31.27-.08.04.16-.32.16h.39s-.08.32-.08.32l.2-.24.04.15.19-.07.2.16c-.01-.21-.05-.3.16-.36l-.16-.12.24-.24-.3.1-.02.37-.24-.24-.16.16ZM4.75,48.35c-.33-.09-.31.3-.24.5l.4.08c.18.09-.16.25-.16.36.22,0,.37-.08.43.16l.12-.31-.24.08c.15-.5-.17-.49-.47-.75l.16-.12ZM57.66,48.59c-.12-.13-.5.42-.19.55l.43-.16-.08.31.71-.08c.06-.25-.15-.09-.24-.21-.06-.07-.06-.28-.19-.35-.17-.04-.17.24-.23.24-.12,0-.25-.18-.2-.32ZM6.17,50.79c0-.18.08-.54.07-.68,0-.12-.13-.19-.13-.23,0-.07.19-.15.2-.23,0-.02-.14-.41-.21-.44-.1.25-.24.32-.2.62l-.35.56.47.04v.32s.16.04.16.04ZM6.72,49.93v-.24s-.24.2-.24.2l.24.04ZM58.45,49.77h-.3s-.09.27-.09.27l.23.2-.24.16.55-.08c.05-.22-.08-.15-.24-.16l.08-.39ZM57.19,50.95c.05-.14.18-.36.16-.5,0-.05-.12-.05-.13-.08-.05-.09.03-.23-.11-.21.02.17-.09.17-.23.16v.23s.19-.16.19-.16l.12.23-.24.12.16.12c-.22-.1-.37.26-.31.32.14.14.22-.31.39-.24l-.08.24c.62.04.53-.13.71-.59l-.16-.12c.05.28-.28.2-.08.47h-.39ZM8.37,50.4c-.31-.02-.16.24-.22.37-.09.22-.29.32-.18.58h-.24s-.04-.31-.04-.31l-.08.16-.27-.08c0,.26.27.18.36.47.05.15-.06.41-.04.5,0,.03.42.31,0,.48l.31.12v.55c.19.02.23-.08.16-.23l.23-.05-.32-.18-.24-1.08.24-.04v-.16s-.24-.08-.24-.08c.37.04.32-.28.4-.55l.39.08-.24-.16.06-.12c-.2-.08-.1-.09-.06-.28ZM10.03,52.14c-.1-.27-.34-.08-.55-.08l.24.08-.08.31h.39s-.16-.2-.16-.2v-.08s.16-.04.16-.04ZM55.93,53.16l.06-.67-.17-.12.04.2-.3.13c-.03.14-.05.4.12.45h.27ZM9.87,52.53c-.19-.07-.14.1-.18.13-.11.07-.26-.06-.21.18h.39s0,.32,0,.32l.24-.24.08.24c.14-.53-.25-.3-.32-.63ZM53.25,52.77c-.26.02-.48-.15-.64.12-.08.14,0,.21-.02.26,0,.01-.11.02-.13.08-.05.16-.01.33-.08.49l.51-.47.04-.39.31-.08ZM55.22,53.48h-.24c.21.26-.13.5-.13.67,0,.1.15.22.13.31-.02.11-.32.06-.24.28.88-.3.31-.67.47-1.26ZM11.02,53.79c-.08.05.04.11.08.15.08-.05-.04-.1-.08-.15ZM53.33,54.26c-.05-.3-.28-.46-.55-.31.02.56.05.28.28.46.06.05.11.16.11.24.24-.04-.1-.38-.08-.39h.24ZM9.71,54.26c.15.03.26-.09.24-.24l-.24.24ZM52.38,54.9l-.31-.32.08.47c.23-.15.36.11.55.24.14-.3-.03-.21-.05-.25s.04-.09.02-.12c-.01-.02-.27-.36-.29-.34v.32ZM13.63,55.32c-.13-.06-.42-.24-.36.04.44-.04.15.32.48.44l-.08.19h.24s0-.55,0-.55c-.17.06-.22-.11-.26-.13ZM17.59,56.96l-.43-.24-.12.16.24.12-.16.36c.32-.1.24.16.47.16l-.32-.28.24-.04.07-.23ZM15.08,57.58c-.16-.18-.23-.3-.24-.55l-.08.31-.39-.24c.11.15.15.21.08.39l.63.08ZM48.67,57.42h-.16c.16.25.02.45,0,.71h.47s-.16-.32-.16-.32l.24.08c.06-.27-.39-.13-.4-.47ZM16.96,57.87s-.4-.07-.5.1c-.14-.27,0-.38-.43-.47l.24.24-.39-.08.16.31-.31.12c.53.41.85-.16,1.34-.04l.08-.31c-.21-.07-.13.11-.17.14ZM18.63,57.5c-.21-.07-.13.12-.19.14-.11.04-.48-.09-.52-.06l.16.47.14-.04c-.08-.09-.09-.16.05-.12.25.08.3.51.44.39.02-.02-.2-.44.16-.39v.55s.7-.13.63-.31h.08c-.02.19.16.22.32.24l-.16.31c.27-.05.37.1.55.24l.08-.35c-.23-.06-.08-.18-.09-.19-.02-.03-.56-.28-.62-.29-.22-.04-.48.13-.72,0l.16-.28h-.47s0-.32,0-.32ZM46.99,57.95c.04-.07.03-.14.03-.22l-.47.16.2.08.04.16h-.24s-.04.16-.04.16l-.2-.16.14.25-.06.14c.13.07.27-.19.31-.16.01,0-.01.11.01.13.02.02.29-.07.37.04.05.07-.05.24.09.22v-.63s-.28-.08-.28-.08c-.12-.12.07-.06.09-.1ZM47.88,58.21l-.54.27c.1.19.12.36.34.43l.12-.2-.16-.08c.26-.12.21-.18.24-.43ZM14.37,58.52c-.21.11-.47-.12-.46.21,0,.09.35.55.42.56l.2-.06-.32-.43.16-.28ZM43.7,59.08v-.24s-.09.14-.09.14l-.46.02.13.24h.81c-.05-.31-.38-.14-.39-.16ZM15.87,59.08c-.17.06-.38-.02-.53.05-.21.1-.12.37-.49.18.04.14-.01.36.16.39l.08-.16c.2.43-.13.07-.16.35.08.18.49-.03.4.35l.31-.03c-.05-.24-.29-.37-.16-.67l-.32.08c.08-.36.12-.27.3-.35.02,0,.01-.11.05-.11.12,0,.41.23.36-.09ZM20.04,59.23l-.15.04v.51c.11.07.28,0,.34,0,.06.01.07.24.29.15l-.16-.2.24-.04-.24-.08.08-.31-.27.16-.12-.24ZM43.62,59.55c-.31,0-.46-.21-.59.15l-.04-.16c-.12,0-.25.13-.39.23l.36.24.04-.16.43.08.06-.14.14.06v-.31ZM23.52,59.71c-.33-.08-.8-.03-.55.39-.23-.07-.39-.08-.55.12l.15.12c-.01-.18.03-.17.18-.14.26.05.14.26.37.22l-.08-.55s.44.07.47-.16ZM19.64,59.86s-.16-.12-.27-.12c-.25,0-.43.53-.43.76l.17-.22c.25-.02.42-.05.47-.32l.23.07v-.31c-.21-.08-.14.13-.17.15ZM23.81,59.81l-.22-.02.16.12-.24.04.39.08-.16.12.08.24-.32.04c.2.37.66,0,.54-.34,0-.02-.22-.26-.24-.27ZM44.53,60.02v.08c.05-.03.05-.05,0-.08ZM40.03,60.32c-.03-.05.05-.17-.08-.21-.4.01-.75.13-.82.55l.24.08s-.12-.39.08-.39l.04.23c.18-.08.26.09.32-.15l.04.31h.32c-.08-.11.02-.25,0-.34-.01-.06-.11-.06-.12-.08ZM44.41,60.1h-.16s0,.16,0,.16l.16-.16ZM25.09,60.18l-.47.16.24.39c.15-.03.11-.12.08-.24l.23.07.13-.23-.04.24.95-.08-.99-.31-.19.23.08-.24ZM44.53,60.18v.08c.05-.03.05-.05,0-.08ZM44.89,60.26l-.23-.08-.16.47c.08.08.48-.29.39-.39ZM45.28,60.34v-.16s-.08,0-.08,0v.16s.08,0,.08,0ZM22.96,60.57c-.37.11-.46-.24-.79-.24l.18.16.06.32-.39-.24.04.32.16-.08c.21.21.54.24.83.24l-.24-.08c-.05-.24.23-.09.16-.39ZM41.02,60.5h-.32s.16.16.16.16l-.63-.04c.07.15.36.09.39.13.02.02.01.38.2.46l.28-.07c-.06-.26-.27-.34-.08-.63ZM19.65,61.05l.16-.12-.31-.2-.08.24.24.08ZM26.46,60.94s0-.16-.06-.13l-.51.39c.23-.13.31.02.4.24l.08-.16.31.16-.16.31h.32c-.02-.28-.11-.35-.28-.55l.12-.24c-.07,0-.14.01-.21-.03ZM38.03,60.81h-.24v.16s.24,0,.24,0v-.16ZM29.35,60.97l-1.02-.08.39.08-.08.2.48-.12-.08.24.24-.05.07-.27ZM24.46,61.05l-.39-.08.16.28c-.22.12-.28.15-.23.43l.12-.24.27.24c-.04-.27-.14-.41.08-.63ZM25.8,61.13c-.03-.22-.92-.16-.79.08l.55.04v.32s.15.04.15.04l.24-.16-.28-.24.12-.08ZM18.7,61.52c.21-.29-1.15-.25-1.26-.47,0,.22.22.36.39.24l-.08.16.55-.08v.24s.39-.08.39-.08ZM31.4,61.05l-1.1.08.08.24h.2c.08-.24.37-.23.59-.24.08.08-.45.63.24.39l-.08-.2c.22.08.27-.11.02-.13l.06-.14ZM32.11,61.29l-.16.24c.46-.1.22.42.79.32.03-.28-.39-.16-.41-.47l-.19.06-.04-.15ZM20.76,61.6l-.12-.16h-.12s0,.16,0,.16h.24ZM41.97,61.76l-.36-.16c-.05.26-.5.34-.51.08l-.16.16.31.09-.08.15h.24c-.07.13-.1.27.08.32l.08-.63s.39.2.39,0ZM35.98,61.84c-.45.07-.33.59-.12.87l.12-.16-.15-.03.09-.35h.22s-.24-.09-.24-.09l.08-.24ZM28.8,62.07c-.26.03-.43,0-.63-.16v.52s.16.08.16.08l-.16.12.47.16v-.31s-.24.16-.24.16l-.08-.47s.55.27.47-.08ZM24.86,62.31l-.16-.12c-.19.13-.38.07-.31.36l.22-.06c.01.26.15.05.24.08.03,0,.24.46.41.3.11-.1-.05-.22-.14-.29-.2-.15-.27-.12-.49-.22l.24-.04ZM36.9,62.42c-.09-.05-.2-.06-.29-.11-.04.52.09.89.62.54-.04-.39-.17-.23-.23-.28-.05-.04-.07-.14-.11-.16ZM27.54,62.55c-.31-.06-.02.31-.15.47l.31.09-.16.23h.19s.2-.55.2-.55l-.16.24-.24-.08c.21-.3-.16-.17,0-.39ZM31.55,64.21l-.15.03v.51c.17.05.29-.15.42-.14.18,0,.42.38.6.1-.31-.08-.69-.22-.88-.5Z"/>
      <path class="cls-2" d="M51.86,31.8c-.29-1.63-1.58-2.83-3.12-3.09l-.33-1.85c.22-.13.42-.28.61-.46.74-.71,1.07-1.69.89-2.69-.11-.62-.4-1.18-.85-1.61.11-.46.08-.94-.09-1.4-1.23-3.28-3.95-6-7.66-7.66-3.7-1.65-8.15-2.14-12.52-1.37-4.38.77-8.39,2.74-11.3,5.56-2.92,2.83-4.55,6.31-4.59,9.82,0,.61.21,1.18.61,1.63-.16.46-.19.96-.11,1.45.17.99.82,1.8,1.76,2.22.11.05.23.09.34.13l.35,2.01c-1.37.77-2.17,2.34-1.88,3.97l.03.15c.19,1.08.82,1.97,1.67,2.53-.14.45-.17.93-.09,1.4.13.74.52,1.38,1.1,1.83l.47,2.67c.5,2.85,3.23,4.77,6.08,4.26l24.3-4.27c2.85-.5,4.77-3.23,4.26-6.08l-.41-2.34c.61-.69.87-1.59.71-2.49-.1-.57-.35-1.08-.74-1.49.48-.77.69-1.71.52-2.68l-.03-.15ZM50.38,32.06l.03.15c.13.76-.13,1.51-.64,2.02-.33.33-.76.56-1.23.64l-11.48,2.02,3.9-5.51,6.76-1.19c1.25-.22,2.44.62,2.66,1.87ZM24.78,34.22l.14.1.89.63-1.31,1.87-2.9-2.03,3.18-.56ZM32.63,37.89l-5.34-3.74s0,0,0,0l-.42-.29,11.98-2.11-4.09,5.76s0,0,0,0c0,0,0,0,0,0l-.88,1.25-1.25-.88ZM14.39,27.06c.03-3.1,1.5-6.2,4.13-8.75,2.7-2.61,6.43-4.44,10.52-5.16s8.22-.27,11.65,1.26c3.34,1.5,5.78,3.92,6.87,6.82.2.54-.15,1.15-.71,1.25l-31.36,5.52c-.57.1-1.1-.35-1.1-.93ZM14.86,29.46c.29.06.6.06.89,0l31.36-5.52c.41-.07.8-.25,1.12-.51.1.16.17.34.2.52.09.49-.08.98-.46,1.34-.38.37-.93.54-1.45.47-.26-.03-.51-.09-.77-.1-.29-.01-.57.01-.85.06-1.32.23-1.94.86-2.44,1.36-.44.44-.78.79-1.64.94s-1.3-.06-1.86-.32c-.64-.3-1.44-.68-2.76-.45s-1.94.86-2.44,1.36c-.44.44-.78.79-1.64.94s-1.3-.06-1.86-.32c-.64-.3-1.44-.68-2.76-.45-1.32.23-1.94.86-2.44,1.36-.44.44-.78.79-1.64.94-.85.15-1.3-.06-1.86-.32-.64-.3-1.44-.68-2.76-.45-.52.09-.98.26-1.39.52-.49.31-1.12.36-1.65.13-.48-.21-.8-.61-.89-1.11-.02-.14-.03-.27-.02-.4ZM17.18,32.54c.38-.09.73-.25,1.07-.45.34-.2.72-.3,1.11-.33.66-.06,1.07.13,1.56.36.64.3,1.44.68,2.76.45s1.94-.86,2.44-1.36c.44-.44.78-.79,1.64-.94.85-.15,1.3.06,1.86.32.64.3,1.44.68,2.76.45s1.94-.86,2.44-1.36c.44-.44.78-.79,1.64-.94s1.3.06,1.86.32c.64.3,1.44.68,2.76.45,1.32-.23,1.94-.86,2.44-1.36.44-.44.78-.79,1.64-.94.3-.05.61-.06.91,0,.29.06.59.09.89.07l.26,1.46-6.82,1.2h0s0,0,0,0l-15.56,2.74h0s0,0,0,0l-7.54,1.33-.25-1.44s.1-.02.15-.03ZM15.44,38.2c-.22-1.25.62-2.44,1.87-2.66l2.2-.39,4.75,3.33c.16.11.37.16.56.12s.37-.15.49-.31l1.74-2.48,3.24,2.27-12.15,2.14c-.39.07-.8.03-1.17-.1-.75-.27-1.34-.92-1.49-1.77l-.03-.15ZM17.08,41.7c.43.08.88.08,1.31,0l13.63-2.4,1.61,1.13c.33.23.81.15,1.04-.18l1.15-1.62,12.97-2.28c.42-.07.82-.22,1.19-.42.08-.04.16-.09.23-.14.02-.02.05-.05.08-.06.04,0,.06.05.08.08.11.16.19.35.23.54.14.7-.26,1.37-.89,1.67-.36.18-.77.22-1.16.14-.48-.1-.97-.11-1.49-.02-1.32.23-1.94.86-2.44,1.36-.44.44-.78.79-1.64.94s-1.3-.06-1.86-.33c-.64-.3-1.44-.68-2.76-.45-1.32.23-1.94.86-2.44,1.36-.44.44-.78.79-1.64.94-.85.15-1.3-.06-1.86-.32-.64-.3-1.44-.68-2.76-.45s-1.94.86-2.44,1.36c-.44.44-.78.79-1.64.94s-1.3-.06-1.86-.32c-.64-.3-1.44-.68-2.76-.45-.52.09-.98.26-1.39.52-.45.28-1.02.36-1.52.18-.44-.16-.81-.49-.96-.94-.05-.13-.07-.27-.08-.41,0-.04,0-.39.05-.38ZM50.31,41.2c.36,2.04-1.01,3.99-3.04,4.34l-24.3,4.27c-2.04.36-3.99-1.01-4.34-3.04l-.31-1.76c.64.07,1.29-.06,1.88-.38.01,0,.02-.01.04-.02.05-.03.11-.06.16-.09.25-.16.53-.26.85-.32.85-.15,1.3.06,1.86.32.64.3,1.44.68,2.76.45s1.94-.86,2.44-1.36c.44-.44.78-.79,1.64-.94s1.3.06,1.86.32c.64.3,1.44.68,2.76.45s1.94-.86,2.44-1.36c.44-.44.78-.79,1.64-.94.85-.15,1.3.06,1.86.32.64.3,1.44.68,2.76.45,1.32-.23,1.94-.86,2.44-1.36.44-.44.78-.79,1.64-.94.22-.04.45-.05.67-.03.21.02.42.08.63.1.46.05.94-.01,1.38-.16l.29,1.68h0Z"/>
    </g>
  </g>
</svg>