<?xml version="1.0" encoding="UTF-8"?>
<svg id="Layer_2" data-name="Layer 2" xmlns="http://www.w3.org/2000/svg" xmlns:xlink="http://www.w3.org/1999/xlink" viewBox="0 0 64.2 64.34">
  <defs>
    <style>
      .cls-1 {
        fill: #ffda3e;
      }

      .cls-2 {
        fill: url(#linear-gradient);
        opacity: .64;
      }
    </style>
    <linearGradient id="linear-gradient" x1="19.57" y1="66.11" x2="44.74" y2="-2.65" gradientUnits="userSpaceOnUse">
      <stop offset="0" stop-color="#ffda3e"/>
      <stop offset="1" stop-color="#ffda3e" stop-opacity="0"/>
    </linearGradient>
  </defs>
  <g id="Layer_1-2" data-name="Layer 1">
    <g>
      <path class="cls-2" d="M58.73,15.9l-.46.07.23-.15c-.13.04-.29-.13-.35-.13-.08,0-.13.18-.27.13l-.04-.15-.58.54.31-.16.04.23c.15-.38.35-.15.66-.23l-.23.31c.3-.2.79.23.78-.31.26.58.83,1.29,1.01,1.87-.32-.34-.31-.18-.45-.25-.02-.01-.02-.12-.07-.14-.38-.11-.21.23-.3.23l-.35-.23c-.03.23.22.32.08.54.19.08.22-.25.27-.23l.19.27-.31.19c.12-.1.36,0,.39,0,.04.48-.05.62.54.62.04-.18-.2-.31-.22-.44,0-.06.06-.09.06-.1.05.14.17.24.31.15v.31s.23,0,.23,0l-.08.23c.41-.03.51.48.78.43-.17-.09-.17-.23-.23-.35.2.13.98.96.86,1.17l-.38-.07-.09.23.23.04-.23.35s.36-.03.42-.07c.11-.07-.05-.3.2-.24v.47s.16-.15.16-.15c.07.22-.11.37-.15.51-.08.26.51-.01.62.04.06-.22-.17-.14-.3-.23l-.16.23.12-.32h.19s-.15-.27-.15-.27c-.02-.22.1-.07.15,0,.32.42.67,1.15.84,1.65.11.33.11.57.17.88,0,0-.11-.06-.08-.16l-.12.16c-.1,0-.19-.06-.29-.06-.58.06-.24.16-.29.2-.14.12-.24-.41-.31-.04.21.23.46.17.73.11l.13.16.04-.23.19.08c0-.08.01-.16,0-.23.21.99.38,1.64.08,2.65.01-.23-.07-.47,0-.7l-.61.17.03.38.04-.31.23.16.16-.23c.03.28.12.41-.16.58l.16.08-.04.43c.03-.18.15-.39.19-.54-.03.49-.18.92-.23,1.4l-.08-.31c-.14-.02-.05.11-.08.19,0,.02-.43-.08-.01.24-.17.24.07.14.1.31.1.73-.09,1.7,0,2.46-.22-.14.1-.52-.23-.58.24-.27.14-.65.16-.97-.09-.11-.37.25-.3.41.03.09.21.02.16.41-.02.17-.07.09-.16.11.02-.08.11-.12.08-.23l-.47.15c-.03-.13.11-.05.13-.09.21-.29-.1-.16-.12-.17-.02,0-.1-.16-.33-.13l.23.39-.39-.23c.07.4.55.39.86.31-.05.16-.08.31-.16.47-.16-.03-.04-.37-.31-.31.11.28-.06.15-.13.19l-.26.28.54-.23-.15.23h.38s.12-.39.12-.39l.19.08c.03.12-.29.04-.15.23.01.02.35.27.39.16.13,2.16,1.33,3.62,1.17,5.88-.26,3.54-2.62,5.41-3.72,8.43-.37,1.03-.26,2.17-.5,3.24-.16.74-1.02,2.72-1.7,3.01.02-.08-.04-.25.01-.3.46-.01.36-.55.04-.23-.24.24-.14.32-.6.22-.02.34.42-.05.31.39.11.03.16-.05.23-.08-.02.11,0,.15-.07.27-.19.3-2.29,2.01-2.5,1.83.05-.32.15-.28.39-.43l-.39-.19c.02.18-.04.31-.23.31l.15.08v.15s-.14.01-.14.01l.07.22c-.14.05-.18-.12-.27-.12-.04,0-.11.09-.16.09-.11,0-.3-.14-.51-.04l.23.19-.16.15.16.12c-.3.1-.62.31-.88.48-.66.45-1.24.89-1.76,1.51-.19.23-.28.53-.51.74-.36-.04.2-.22.04-.39h-.62c.17.25-.09.59-.06.81.02.11.18.21.2.34.05.34-1.45,1.95-1.78,2.24-1.49,1.29-3.7,1.85-5.64,1.91-.48.02-1.25.09-1.6-.28-.12-.12.05-.29-.15-.35-.07.22.05.42-.22.48.12.23-.08.06-.09.22l.47-.08-.15-.15c.24-.08.22.11.25.13.12.07.3-.05.29.1-.53-.04-1.03.24-1.56.23.01-.03-.01-.11,0-.16l.23.08-.15-.31h.31s.04.23.04.23c.14-.07.1-.22.02-.3-.24-.23-.7.19-.68.45.08,0,.16,0,.23,0,0,.02.02.06,0,.07-.33.03-.64.15-.95.26-.44.16-.7.55-1.15.14l.31.31c-.3,0-.53.42-.78.35l.47-.43-.34.08-.16-.16c-.17.15-.3.22-.2.47l-.47-.31.08.15h-.31s.01.38.01.38c.1.05.22.1.33.09.14-.01.45-.28.51-.08-1.91,1.04-3.95,1.89-6.17,1.33l-.21-.7-.08.39c-.62.07-1.13-.26-1.71-.39h.38s.16-.27.16-.27c-.23-.18-.56-.23-.47-.58-.23-.03-.12.03-.15.12-.06.19-.15.23-.17.41-.17.16-1.46-.36-1.77-.43-1.94-.46-3.06-.31-4.96-.26-.87.02-2.55-.07-3.23-.62.17.03.48,0,.57.02.15.04.18.25.36.21l-.16-.47s-.14.12-.21.14c-.05.01-.55-.05-.56-.07-.04-.08.06-.25-.08-.23l-.07.3c.08,0,.1.06.14.09-.38-.07-.84-.27-1.09-.54.16.07.42.19.57.25.12.04.09.09.2-.05l-.28-.43-.5.08.31-.27-.39.04.08-.31-.16.23c-.1-.01-.31-.21-.31.04,0,.06.2.07.29.14.06.06.11.21.18.29-1.04-.48-2.26-1.79-3.07-2.65-.27-.28-.69-.53-.66-1.01l-.19.15c-.08-.23-.48-.21-.55-.31-.05-.06-.01-.2-.04-.25-.04-.07-.13-.06-.15-.12-.07-.31.13-.27-.31-.45l.23-.58c-.28-.07-.1.25-.16.31-.26-.11-.44.1-.62.27l.15.19-.93-.31c0-.14.2-.09.29-.17.07-.07.08-.26.17-.33l-.23.04c.11-.25.01-.35-.08-.58.15-.17.22.29.39.12.13-.13-.25-.31-.16-.47-.12-.02-.07.14-.15.2-.09.06-.21.04-.31.04l.23.51c-.15.18-.43-.02-.47.31l.23-.08-.08.12.23.08-.12.15c-.52-.23-1.08-.35-1.6-.58-.33-.15-.98-.33-.85-.77l-.24-.05c0-.42.29.03.33.06.09.05.23,0,.28.03s.05.38.1.45c0,0,.1-.04.14-.02.19.12.41.42.54.05.08-.24-.23-.19-.22-.41l-.15.31c-.23.03-.23-.24-.31-.39l.23.08v-.23s-.22,0-.22,0c-.06-.06.09-.51-.24-.46l-.12.23-.16-.39c-.16.07-.02.27-.04.3-.02.02-.18.03-.26.08-.05.03-.05.13-.07.13s-.35,0-.37-.02c-.41-.46-.89-.79-1.17-1.36.03.02.14.09.15.08l.08-.58c-.23-.05-.29-.27-.55-.2-.06.21.11.11.18.25s.08.33.13.45c-.34-.23-.41-.67-.57-.91-.04-.06-.16-.09-.23-.2-.2-.33-.48-.7-.52-1.07l.11.15c.37-.04.18-.35.5-.32v-.3s-.25,0-.25,0l-.13.16-.07-.28-.32-.03s.22.44,0,.47c-.39-.87-.49-1.84-.81-2.74-.07-.19-.33-.52-.34-.66-.03-.26.26-.47.13-.73l-.23.08c.06-.32-.23-.26-.47-.43-.2-.14-.44-.41-.39-.66-.14-.03-.05.13-.08.15-.11.09-.76-.68-.86-.81-.41-.55-.36-.52-.85-1.01-.87-.86-1.81-3.76-1.87-4.98-.05-1.05.32-1.95.4-2.96.07-1-.13-1.94-.16-2.92l.31-.24-.23-.16.08-.31c.12-.07.46.25.39-.08l-.54-.16c.07.3,0,.64,0,.93l-.23-1.56c.25.08.16-.24.23-.31.17-.16.12.2.23.16.1-.49-.27-.5-.31-.86-.33.12-.02.38-.03.5,0,.08-.22.31-.13.51-.1-.03-.68-1.78-.74-2.02-.45-1.75-.24-3.88.66-5.45-.05.08.13.22.13.27,0,.08-.41.51-.29.74.05.05.48-.27.51-.31.03-.05,0-.15.02-.23.03-.16.24-.06-.13-.27l.31-.04-.23-.47c-.13-.01-.09.17-.15.26-.05.07-.15.04-.16.05.22-.38.34-.9.88-.82.08,0,.23.01.21.12l-.23.08.15.08c-.56,0-.1.39-.08.7l.62-.08-.55-.12-.15-.42.55-.04c-.09-.23-.19-.33-.08-.58l-.39.04c.38-.42.2-.81.95-.58.07.02.06.15.11.15.3.04.51-.17.49-.47-.17.11-.2.22-.43.24s-.41-.45-.74-.09c-.07-.09.43-.7.51-.85.28-.52.53-1.16.74-1.71l.08.15.19-.06c.07.19.17.1.35.14.1-.43-.33-.03-.53-.36.08-.45.36-.62.22-1.12l.31.19c-.18.06-.12.09-.12.27.18-.12.17-.21.2-.39l.23-.19-.23-.04s.06-.13.16-.19c.14-.08.31.03.39-.24l-.47-.27c.03.2-.15.12-.22.17-.02.01.08.22-.09.22.03-.31.27-2.43.39-2.49-.04.27.05.57-.08.86.14.15.29-.36.32-.38l.14.07c.04-.05-.2-.36-.26-.47-.02-.04.08-.18-.13-.08.07-.5.24-.84.48-1.28.4-.74,1.1-1.53,1.66-2.23.28-.35.57-.47.9-.7.04.19.59.21.62.23l-.2.39.7-.39.12-.77.24.04c.08.06-.05.36.3.27.03-.12-.1-.04-.15-.14-.1-.18-.05-.33.15-.41l-.08.23.54.23c-.07-.19.12-.23.13-.25.03-.05-.16-.25.33-.14-.03-.43-.59-.05-.55.23l-.08-.54c-.25-.03-.36.2-.6.3-.18.07-.38.05-.49.09.1-.2,1.15-.53,1.36-.78l.12.15-.23.08.54.16-.23-.31h.43s-.03-.45-.03-.45c.59-.27,1.07-.83,1.58-1.18.36-.25.8-.61,1.12-.98.05-.06.07-.18.09-.26l.16.04.04.19.66-.31c.04.16.07,0,.08,0,.09-.02.19.06.15-.11-.01-.06-.09-.12-.07-.2-.06,0-.12.07-.15.08,0-.08,0-.16,0-.23.1-.03.29-.09.16-.23-.02-.02-.36.08-.3-.33.03-.17.52-1.07.65-1.22.46-.53,2.43-1.63,3.09-1.48.05.01.46.44.76.23l-.16-.38-.46-.09,1.95-.31-.15.23.65-.09.11-.11-.06-.19.43-.08-.08.39.27-.08-.05-.23c.87-.28,1.79-.34,2.68-.6,1.03-.3,2.02-.84,3.05-1.11l.04.15c.17-.05.12-.29.16-.32.42-.24,1.81-.66,2.29-.7-.03.02-.3.18-.31.23.36-.16.27.06.42.09.13.02.29-.02.43,0v-.31c-.18,0-.37-.01-.55,0,.39-.18,1.38-.36,1.83-.39.75-.05,1.48.14,2.22.23l-.31.23.61.09v.38s.32-.08.32-.08c.02.21.08.3.27.39l.19-.47.31.08-.54-.23c.08-.18.57.03.72.08.32.11.37.09.7.17,1.24.3,2.47.65,3.72.92l-.27.31-.19-.15v.47s.39-.08.39-.08l-.08-.23.39-.08.17.53.53.02-.06-.23-.1-.04c0-.07.25.02.16-.19l-.86-.23c.33,0,.64.14.97.16.44.02.97-.2,1.4-.24.84-.07,1.89,0,2.7.25.43.13.64.35.99.5.67.29,1.19.74,1.79,1.16.49.34.26.47.39.75.03.06.15.06.15.11,0,.13-.15.39-.08.58l.19-.47.23.23.08-.23c.8.85,1.56,1.64,2.56,2.27.08.05.1.17.15.2.17.1.7.2.91.34l-.7.08.23.08-.08.31c.44.14.43-.36.8-.3.19.03,1.06.52,1.3.65,1.17.61,2.45,1.47,3.35,2.41.18.19.93,1.1.98,1.29s-.12.21-.13.35c0,.06.11.02.14.08.03.07.02.33.1.39h.16s-.08-.51-.08-.51c.34.69.45,1.45.66,2.18.11.39.5,1.22.51,1.56l-.09-.14ZM27.56,1.33l.12-.15h-.16s.04.15.04.15ZM25.93,1.73l.08.15c.05-.03.25-.07.26-.09.19-.3-.18-.09-.18-.3l-.66.23c-.04.51.22,0,.51,0ZM24.79,2.27l-.08.31h.39s0-.23,0-.23l.12.16.66-.28-.23.04-.04-.24c-.25.08-.57-.09-.77-.07s-.41.28-.66.23c.06.24.53.01.62.08ZM43.6,2.42c.2-.14.2.12.5.08v-.38c-.39-.18-.25.06-.54.15l.04.15ZM43.09,2.97c.22-.1.05-.39.39-.31l-.23-.12c.29-.1.15-.31.39-.47l-.37.06-.17.84ZM23.63,3.12c.33.05.24-.35.62-.23l-.32-.54-.46.07c-.01.35.33.22.16.7ZM43.63,3.04c.19-.05.29.05.35-.16l-.04.31h.31s0-.5,0-.5l-.16-.04c.04.3-.52.05-.47.39ZM45.11,3.12v.47c.28-.19.5-.29.86-.23-.01-.31-.2-.63-.52-.44-.13.08-.16.37-.34.2ZM38.42,3.36l-.15.19.31-.04-.08-.23.19.15.28-.15c-.24.04-.32-.21-.51-.31l-.18.38h.14ZM42.27,3.59l-.08-.16-.19.31c.13.12,1.15-.38.62-.62l.08.23s-.38.04-.43.23ZM29.7,3.82c-.12-.43-.24-.33-.56-.47-.1-.04-.04-.17-.1-.15-.08.03-.15.13-.08.23.11.16.3-.05.39.08l.04.39.31-.08ZM10.17,13.39l.03-.15-.27.23.47.16c-.36.3-.22.76-.74,1.01l-.19-.15c0,.24-.04.6-.17.81-.08.14-.23.16-.3.26-.08.11-.5.77-.56.79-.11.04-.19-.18-.25.08l-.2-.07.08.23-.31-.15c.06.2.16.59.12.78-.02.13-.16.15-.17.17-.04.08-.02.27-.12.35-.02.01-.37.02-.45.1.27.64-.23,1.06-.4,1.63l-.46-.07.08.31-.31-.08-.08.2.23.27-.47-.15c.09.17.46.22.08.35l.38.3c-.73,1.63-1.3,3.35-1.68,5.1-.32,1.5-.58,3.19-.65,4.72-.02.39.08,2.47-.07,2.58l-.31-.04c-.08.29.31.09.38.16l.32,3-.16.27.24.05c-.03,1.2.63,2.45.77,3.57.04.35-.24-.41-.39-.2l.14-.09.02-.3c-.15,0-.34-.02-.39.15l.16.08h-.31s.08.55.08.55l-.23-.08s.06.1.08.16c-.49-.02-.19-.14-.54-.39l-.24.47h.23c-.08.17.01.41.24.39l-.08-.39.08.23c.23-.22.24.19.39.08.02-.01-.06-.33-.08-.39.1,0,.21,0,.31,0l-.16.23c.51-.12.09-.3.07-.42-.01-.09-.04-.34.12-.28.09.04.14.7.51.47.04.14-.11.18-.14.29-.03.13.09.27-.01.45l-.2.04.08.16.5-.08c.05-.1-.21-.5,0-.54.08.35.17.73.29,1.07.14.42.52,1.18.57,1.57-.06-.11-.27-.23-.23-.47l-.31.2.39.27-.04.31c.19-.1.22-.07.19-.31.18.3.48.89.59,1.24.08.25.07.26-.2.24.19-.4-.28-.65-.23-1.01-.19.1-.46.25-.67.3-.16.04-.56-.01-.57.01-.02.04.02.16-.02.21-.07.1-.52.03-.45.41l.31-.23v.3c.43.15.38-.18.54-.27.24-.13.6.25.86.12-.28.57.34.61.77.55l.32.77-.54-.08v.23c.65-.16.5,0,.79.34.53.63.99,1.34,1.39,2.07-.02-.03-.1-.06-.15-.12-.1-.11-.47-.76-.51-.74-.21.08-.02.32.12.35l-.31.19c.14.07.47.09.57.15.09.05,0,.27.21.24l-.47.08v.31c.19.02.24-.09.16-.23l.47.08c.04.11-.31.06-.15.23.02.03.21-.24.16.16l.12-.06.08.14c.28-.08-.23-.52-.27-.6-.03-.06.01-.15,0-.18.26.32.53.64.78.97.46.62.91,1.12,1.4,1.71.15.18.39.09.24.43-.19-.03-.39-.17-.54.04l.23-.04-.08.43.23-.04-.23.16.08.31h-.86s.16.47.16.47c.24.02.24-.21.24-.39.18-.01.36-.03.51.07.11.08,0,.28.18.32.08-.18-.15-.39-.14-.49.01-.14.26-.26.14-.44l.16.12-.16.43c.36-.06.11-.34.31-.59.45-.16,1.33.77,1.39,1.11.04.23-.22.28.17.45l-.31.51h.78s0,.31,0,.31l-.27-.15-.27.62.12-.16.27.12c.16-.11.12-.19.08-.35.15.18.59-.41.62-.39,0,.42.17.31.29.41.07.06.2.63.37.22l.19.2-.15.12c-.03.13.14.04.16.12.04.13,0,.22-.16.2l.11.15c.25-.1.46-.18.39-.46l.44.45.14-.06c.04.35-.37.13-.47.31h.47s.08.16.08.16c-.02-.88.73-.16,1.09.12l-.23-.04v.54s.26-.28.54-.03c.08.07.05.22.16.19v-.15s.23.07.23.07l-.23.47.12-.16.73.09-.31.23c.3-.12.37.11.41.13.13.06.32-.04.29.18l.08-.23.27.23-.04-.31c.1-.07.47.25.49.33.07.19-.11.26.13.33l-.08.16-.16-.04v.23s.47,0,.47,0c-.07-.19.09-.28-.16-.35l.19-.27,2.92,1.2c.23.2-.31.04-.39.12.17.39.28.71.78.62l-.39-.23h.62s-.04.31-.04.31l.12-.39.08.23.23-.08c-.14-.26-.44-.26-.7-.35-.06-.02-.24-.04-.11-.12,1.88.51,3.77,1.05,5.72,1.17-.04.21-.47-.08-.39.23.39-.02.63.03.62.47.21-.02-.04-.43,0-.47l.31-.08-.47-.08c2.67.24,5.31.25,7.96-.18,4.27-.68,8.34-2.58,11.86-5.04.21-.06.04.19.02.21-.17.14-.4.17-.52.45l.47.27-.47.23c.15.02.36-.04.5.01s.07.24.2.22l.07-.22c-.3-.06-.26-.39-.19-.64h.51s-.15-.61-.15-.61c.52-.11.3-.58.85-.79-.02.08.01.22,0,.31l.31-.15-.08.23h1.01s0-.23,0-.23c.25.13.71-.03.88.01.24.06.57.71.68.61.15-.14-.16-.16-.16-.19l.16-.23-.55-.23v-.35s-.46.08-.46.08v-.31s-.24.54-.24.54l-.34-.08c-.1.36-.29-.09-.59,0l.08.23c-.14.02-.27,0-.31-.15l.15-.12-.19-.2c-.09.28-.2.18-.35.23.05-.17,1.51-1.34,1.78-1.6.4-.39.86-.87,1.25-1.28.06.46-.29.24-.39.62l.16-.15.09.15.15-.07-.08.31.23-.31c.19.22.21.29.54.23-.05-.18-.32-.08-.39-.27-.01-.03.45-.11-.23-.27l.08-.19-.15-.04c3.86-4.01,6.61-10.01,7.08-15.61.06-.76-.01-1.71.07-2.42.02-.16.19-.08.17-.22-.3-1.61-.24-3.42-.47-5.06s-.68-3.06-1.01-4.64c.03.07.21.19.16.39.2-.14.47.1.54-.16l-.47-.23.47.04-.47-.27.47-.23-.38-.17.07-.14-.39-.08.23-.08v-.54s-.08.23-.08.23h-.38s.08-.31.08-.31h-.23c-.06.06.17,1.1.54.86l-.31.08c.14.2.11.41.16.62-.17-.34-.26-.74-.41-1.11-.6-1.5-1.24-3-2.08-4.38-.01-.23.09-.06.14.01.1.14.16.34.32.42l-.08-.39.12.16.27-.16-.7-.24.43-.54.45.3.52-.38h-1.01s.15-.16.15-.16c-.12.03-.26-.05-.35-.05-.05,0-.22.08,0,.13.12.03.15-.05.12.16l-.31.04.15.12c-.17-.03-.17.09-.16.24-.08.11-1.13-1.19-1-1.44l.3-.04-.12-.31-.07.15c-.54-.03-.36-.17-.55-.38-.7-.76-1.36-1.62-1.98-2.46-.32-.33-1.52-1.26-1.68-1.6-.14-.31.15-.57.18-.75.02-.13-.19-.19-.14-.33l.23.04-.31-.58c-.26.03-.21.24-.31.35-.02.02-.11-.02-.14,0-.37.32-.07.32.13.63l-.15.04.15.08-.12.15c-.34-.14-.74-.98-.93-1.09-.15-.09-.3-.05-.43-.11-.17-.08-.24-.32-.38-.43-.53-.44-1.47-1.01-2.08-1.4s-1.18-.77-1.83-1.01l.23-.08-.16-.43.16-.19.16.31c-.22-.37.16-.43.08-.7l.19.23.04-.39h.31c.05-.15-.15-.25-.24-.27-.21-.04-.54.31-.78.03l-.23.47.34-.08.05.16.28-.38.18.06c-.24.01-.25.19-.23.39l-.47-.16c.17.45.16.18.02.32-.02.02.11.57-.21.1-.02-.03.09-.11-.16-.19l-.12.23-.15-.12.15-.27c-.22-.02-.33.32-.35.47-.45-.14-.9-.34-1.28-.55.43.07.33-.01.6-.05.15-.02.47.21.41-.1l-.16-.16-.19.16-.39-.16-.19.16c.08-.23,0-.42-.12-.62l-.19.36-.32.07c.16.14.36.25.55.35-.49-.08-1.07-.32-1.48-.54.25.04.51.14.62-.15l-.31.08.08-.23s-.3.29-.62,0c-.11-.1.4-.02.2-.23l-.43.27s.39.23.47.27c-.62-.1-1.37-.51-1.85-.62-.18-.04-.42.02-.6,0l-.04-.24c-.62.16-1.17-.18-1.79-.16.14-.35.67.16.82-.07.16-.25-.08-.28-.12-.47l-.16.04.08.35-.13-.15h-.34s.15-.31.15-.31l-.23.23-.23-.08-.16.23.31.15c-.9,0-1.79-.25-2.68-.31-6.65-.44-13.85,1.64-19.12,5.48-.79.57-1.58,1.17-2.29,1.84l-.19-.12.21-.07.02-.2c-.23.09-.34.05-.54-.08-.06.26.29.14.23.39l-.23-.16.23.31c-.23-.03-.04.14-.19.23l-.27-.08c-.04.19-.09.38-.2.54-.05.08-.84.87-.89.9-.08.04-.19-.03-.26-.02-.11.03-.14.17-.28.13l-.08-.23-.08.31-.31-.08.08.47h-.23s-.1.02-.15,0ZM26.82,3.98l.39-.15v.39s.39-.19.39-.19l-.3-.13v-.3s-.24.16-.24.16c-.07-.42-.24.04-.23.23ZM25.18,4.41l-.23.12.08.23.78-.16c.03-.13-.11-.05-.14-.09-.06-.09.03-.22-.06-.3-.14-.12-.38.14-.58.08l.16.12ZM18.49,5.15c-.23,0-.17-.2-.41-.07-.38.2-.09.49.26.46l-.31-.16.12-.23.04.15c.39.25.77-.46.16-.47l.16.31ZM17.01,5.38l-.12-.15-.04.15h.16ZM47.45,6.16h.23s.04.16.04.16l.2-.62h-.47s0,.47,0,.47ZM18.24,5.9c-.08.11-.36,0-.29.26l.47-.08.04-.31.35.23c.06-.31-.2-.04-.23-.08-.14-.19.26-.11.15-.31-.1.04-.41.05-.45.09-.03.03,0,.15-.03.19ZM19.42,6.24c.05.44.45.14.7.07.02-.03-.2-.53-.39-.46.03.27-.02.41-.31.39ZM46.6,7.13c0,.31.11.17.32.28.09.05.03.28.25.07.08-.07.14-.12.11-.23l-.47-.16h.78s-.08-.31-.08-.31l-1.09.2c-.21-.18.05-.32.23-.2.02-.33-.35-.2-.42,0-.03.08.03.21.05.3l.3.05ZM14.17,6.63v-.08c-.05.03-.05.05,0,.08ZM13.97,7.71v-.15s-.12,0-.12,0l-.12.15h.23ZM12.96,8.57c-.21-.02-.24-.19-.47-.08-.18.25.6.65.62.04l.31.04-.39-.16v-.23s.16.04.16.04c-.19-.24.17-.26.15-.31-.05-.19-.32,0-.37.06-.12.17-.01.41-.02.6ZM50.25,9.04c.31,0,.35-.29.62,0v-.23s.43.23.43.23c.24-.23-.04-.2-.2-.19l.23-.16-.27-.19c-.13.05-.04.22-.05.23-.16.12-.76-.13-.77.32ZM12.22,9.58c-.06,0-.34-.17-.35-.15l.05.23h.26s-.23.31-.23.31l-.05-.16h-.31s-.04-.5-.04-.5l-.15-.04c-.03.23-.62.22-.55.62.14.02.23-.22.25-.22.08-.03.17.08.21.05.03-.02-.04-.22.16-.14.14.35-.32.15-.23.35.11.25.45.02.47.04l-.15.19.23.12v-.39s.08.23.08.23l.47-.16c-.08-.22-.09-.36.16-.46l.08.16c-.08-.36.28-.21.47-.43l-.31-.2c.03.33-.21.32-.44.42-.03.01-.03.12-.06.12ZM13.74,9.58h-.26s-.21.23-.21.23l.22.07.13-.22.43.23c.01-.26-.32-.36-.15-.62h-.23s.08.31.08.31ZM53.87,10.49l.35-.17c-.23-.28-.06.11-.34.04-.01,0-.18-.16-.18-.17-.04-.1.2-.18-.13-.3-.02.19.09.29-.19.31l.5.28ZM12.77,10.13c.19-.03.05-.17.19-.16v.31s.08-.23.08-.23h.16s.08.23.08.23v-.14s.23-.13.23-.13l-.2.03c-.11-.3-.56,0-.81-.07-.06.2.13.19.28.16ZM55.78,10.4l-.15-.12v.16s.15-.04.15-.04ZM52.04,10.83c-.08.07.33.67.47.35.02-.05-.3-.02-.12-.19l.51.31-.16-.12.09-.34-.39-.16.08.23-.47-.08ZM12.61,10.98v-.08c-.05.03-.05.05,0,.08ZM56.32,11.61l.86.23-.31-.47v.14c-.13.1-.47-.2-.55.09ZM52.12,11.61h.15s0-.08,0-.08h-.15s0,.08,0,.08ZM53.83,12.04l.16.08-.08.83.24.13c0-.21.18-.41.39-.47l-.31-.19.39-.27-.31.08.23-.16-.07-.3-.19.31-.2-.47c-.2,0-.05.32-.09.37l-.14.05ZM55.54,12.19l-.23-.04c0,.11-.14.25.04.31.2.07.23-.28.5-.16l-.23-.08.15-.23-.47-.16c-.13.12.14.31.23.35ZM57.1,12.93l-.07-.36c.21-.04.07-.16.09-.18.04-.04.17.04.14-.09h-.54s.39.62.39.62ZM57.19,13.62c.17.13.48,0,.57.02.13.03.05.3.28.22,0-.43-.58-.15-.54-.61l.23-.17-.54.09v.45ZM8.76,13.32l-.15.27.07.2-.23-.04c.04.14.51.11.53.1.05-.04.05-.17.17-.25.09-.06.37-.1.38-.13.05-.07.04-.3-.15-.23-.02.33-.42.16-.62.08ZM56.17,13.94h.54s0-.47,0-.47l.23-.16c-.33-.05-.33.29-.41.37-.1.1-.44,0-.37.25ZM55.54,13.94l.19-.31.08.31-.51.24.08.23.23-.15-.08.39c.29-.09.13-.28.17-.41.03-.1.15-.15.17-.22.06-.17.03-.38.2-.5l-.38-.11-.16.54ZM6.89,13.75l-.31.19c.21-.03.22.03.31.2l-.16.11h.31c-.04-.08,0-.25-.02-.3-.01-.03-.17.03-.13-.09l.22-.04v-.35s-.46-.08-.46-.08l.23.35ZM6.58,14.69c-.17.13-.38.09-.4.38.34.14-.16.53.55.43l-.23-.23h.31s0,.31,0,.31h.39c-.26-.25.14-.41-.08-.78.15,0,.28.06.23-.16-.19.06-.48-.06-.31-.23-.08,0-.14-.01-.22.02-.02,0-.15.18-.25.25ZM57.6,15.11c-.12.2-.53.13-.07.55-.08-.39.06-.27.17-.41.08-.11-.1-.28.33-.21l-.23.15.28.07.27-.26-.54-.12v-.23s.47.16.47.16v-.15s-.54-.07-.54-.07c-.04.16-.04.4-.13.54ZM56.05,14.72s.16-.1.08-.15c-.04.05-.16.1-.08.15ZM56.25,15.58c.56.05-.01-.45.5-.47l.28.16c-.01-.21-.43-.28-.46-.32-.03-.04.12-.23-.04-.3l-.19.36-.31-.05c-.11.36.27.3.23.62ZM7.59,14.99c.17.33.49.22.48.65.29.13.37-.11.4-.12.03-.02.1.05.12.04.12-.1.16-.37.08-.51h-.57s-.04-.25-.04-.25c-.12,0-.13.2-.17.23-.06.04-.24-.15-.3-.03ZM7.51,16.28s-.63-.2-.81-.15c-.03,0-.41.4-.36.46.13.15.16-.13.19-.15.14.06,0,.41.35.31v-.27s-.23-.04-.23-.04l.2-.23.09.16c.26-.12.47.07.71.14.29-.27.14-.38-.22-.45l.08.23ZM56.44,16.9c.12-.08.1-.26.2-.35.15-.13.48,0,.39-.35l-.35.16-.08-.23c-.16.15-.05.31-.15.52-.02.04-.29.03,0,.26ZM57.72,17.68l.31-.04c-.08-.12-.17-.14-.31-.12v.16ZM6.18,18.84l-.23.21.23.27.15-.04c.16-.23-.07-.29-.08-.5.27-.02.19.4.54.31-.09-.15-.34-.21-.39-.43,0-.02.24-.11.16-.35l-.23.28-.23-.05.07.3ZM4.55,19.24v.23c.29.01.2.23.54.08l-.23.78c.36.08.12-.27.47-.31-.05.28.25.17.08.47l.15-.08.16.23c-.02-.21-.17-.5-.31-.65-.06-.06-.71-.34-.08-.37-.03-.19-.42-.2-.3-.38.02-.03.22.05.15-.16-.19-.12-.49.35-.54.31-.03-.02.06-.19-.08-.16ZM4.01,21.92c.26-.31.4-.11.7-.04v-.23c-.16,0-.33-.02-.49.02-.6.14-.25.75.18.61-.02-.1-.47-.19-.39-.35ZM3.46,22.27l.04-.23-.27-.15c.12.1.1.36.23.39ZM5.25,22.12v-.15h-.08s0,.15,0,.15h.08ZM60.45,22.62v.27s.54,0,.54,0l.08-.47-.23.26-.24.05.16-.23-.47-.04-.15-.43-.08.54.39.04ZM62.4,23.29c.31.07.11-.44,0-.51-.07-.05-.22.06-.27-.03-.07-.12.03-.33-.11-.32-.16.35.04.49.39.47v.39ZM61.46,22.9c-.08.4-.12.77-.15,1.16h.23s.24-.58.24-.58l-.14-.07v-.47s.22-.08.22-.08l-.74-.19-.04.15.39.08ZM4.36,24.92c.19-.1.04-.32.08-.39.03-.05.18-.08.26-.21.1-.16.18-.45.17-.64-.12-.02-.08.13-.16.19-.12.08-.36.12-.44.22-.16.2.11.57.09.83ZM59.83,23.91l.15.23-.16.08.16.16-.43.07-.11-.15v.31c.4-.15.76-.18.93-.62l-.31.08.08-.23.39.08c.08-.26-.42-.17-.52-.13-.02,0-.06.17-.18.13ZM62.55,24.14c-.15.24-.21.32,0,.54-.21.03-.35.17-.31.39h.31s-.16-.23-.16-.23l.23-.13c-.15-.37.04-.22.12-.34.22-.33-.15-.42-.43-.39l.23.16ZM59.78,25.16l-.19-.04c.06.48.13.37.44.3.07-.02.17.05.18.04.04-.03.01-.35.24-.31-.03-.19-.48.05-.55,0l.04-.16h-.11s-.05.16-.05.16ZM2.45,25.85l-.2-.46-.5.07c-.22.22.53.47.7.39ZM3.15,25.93l-.27.08-.08-.16c-.19.12-.04.28-.04.47l.39-.31v.39s.12-.16.12-.16l.04.23.23-.08c-.05-.11-.09-.22-.08-.35.01-.29.35-.48-.03-.59-.02,0-.13.33-.35.24l.08.23ZM.7,26.4c.23-.22.22-.38.19-.7l-.37.09c-.15.13-.11.56.18.61ZM60.53,26.79c-.03-.13.13-.04.15-.11,0-.03-.07-.33,0-.43h-.31s.07.58.07.58l.4.05-.04.16.43-.2-.23-.04c.14-.19.13-.32.08-.54l-.17.45-.37.09ZM1.21,26.4c-.09.38.09.77-.16,1.09l.31-.15-.04.31c.13-.22.3-.05.46-.07.09-.01,0-.2.13-.16.13.13-.02.53,0,.54.09.06.29-.31.54-.16.07-.33-.3,0-.39-.08l-.08-.47.23.04c-.52-.24-.06-.66.07-.08l.32.04-.15-.51-.39.04c.08-.17-.03-.4-.24-.38.06.11-.01.36,0,.42.03.09.22-.02.07.28l-.54-.08.15-.7c-.11-.03-.15.3-.23.23-.03-.02.06-.19-.08-.16ZM62.55,26.59l-.19.58c.31-.11.09-.16.15-.31.04-.11.12-.18.19-.27l-.46-.19.31.19ZM62.36,26.56l-.12.12.15.12-.04-.23ZM.19,26.87v.86s.39-.08.39-.08l-.16-.31-.15.15c-.05-.36.08-.19.31-.19-.05-.13-.1-.27-.15-.4-.04-.11.08-.23-.16-.18l-.08.15ZM61.38,27.1l-.16.31c.3-.16.44.47.62.12.09-.17-.23,0-.22-.19h-.17s.15-.48.15-.48l-.54.16.31.08ZM60.29,27.61l-.23.04.16.08v.31c.29.04.07-.15.08-.31l.62.08c.07-.28-.22-.09-.3-.17-.06-.05-.04-.41-.4-.38l.06-.14-.26-.17-.03.53.3.13ZM3.7,27.53l.2.05.04.14-.47.31.47.39.12-1.09-.2-.08c.03.17-.01.21-.16.27ZM2.22,28.39c-.09.23.47.06.54.12l-.16.23.31.08v-.31s.47-.12.47-.12c-.26-.02-.48-.06-.55-.35h-.08s.01.12-.02.13c-.1.07-.43-.04-.53.22ZM61.46,28.92c.18-.04.48.16.47-.07l-.54-.04.31-.23-.34-.07-.2.61c.22.05.11-.16.31-.2ZM3.5,28.66l-.38-.08-.04.19c.28.19.2.54.7.43v-.39s-.16.31-.16.31c-.26-.08.07-.36-.23-.31l.31-.19-.15-.11-.04.16ZM1.52,28.77c-.1.17-.28-.08-.23.2l.31.08v-.23s.39-.04.39-.04c-.1-.29-.35-.28-.62-.27l.16.27ZM60.37,29.59c.17-.09.64-.15.51-.39l-.19.16v-.31c-.16.1-.2.19-.39.08l.08.47ZM3.48,30.43c.12.06.52-.11.11-.27-.05-.02-.15.07-.21-.06l.23-.12c-.19.09-.32-.24-.43-.23-.09,0-.14.18-.09.29.01.03.36.38.39.39ZM60.45,31.49c-.01-.16.04-.32.12-.46l-.2-.59v1.79c.37.01.1-.53.08-.74ZM2.92,31.15l-.24-.23-.15.19.24.27.31-.12-.31-.58.16.47ZM60.99,31.69c.14-.04.35.01.39-.15h-.23s.15-.27.15-.27l-.54-.35c.17.24.34.47.23.78ZM1.52,31.38l.23-.16-.08.27.23.04c-.05.21-.15.2.08.27l-.28.06c-.24.16-.11.23.1.27l.06-.14.19.08.16-.39c-.47.08-.16-.68-.62-.7l-.08.39ZM3.49,31.77c-.09.04-.23.03-.3.16l-.19-.23c-.02.35.24.46.54.46l.17-.27c-.01-.09-.1-.38-.24-.26-.03.02.12.11.03.15ZM60.99,32.47l.23-.23.04.16.19-.2-.23.04c.03-.37-.32.11-.23.23ZM2.52,32.76c.05.16-.17.51.24.65l.04-.23.19.04c-.27-.1-.21-.26-.26-.34-.02-.04-.16.03-.13-.09l.31-.08-.62-.16c-.01.13.18.07.23.2ZM2.02,32.86l.12-.16-.31.23.16.23.46-.31c-.21-.28-.33-.33-.62-.15l.19.16ZM60.92,32.97l-.15.06.06.22-.23-.08.15.47-.3-.09-.09-.3c-.08.68.68,1.37.54.19l.23.04-.23-.31.23.08.16-.35-.47-.19.08.27ZM61.77,33.33l.23-.08-.16.2.2.35.12-.39.29.02.1-.18c-.39.07-.3-.1-.41-.31-.03-.06.09-.13-.13-.08l-.23.47ZM63.16,33.46c-.15.06-.33-.05-.29.14.4.1.25.48.7.43l-.31-.16c-.07-.22.21-.16.28-.31.02-.24-.13-.27-.33-.2-.01,0-.02.09-.04.1ZM63.33,34.88l.31-.16c-.09.32.21.28.16.55l-.23.04c.13.26.04.43-.15.62.37.21.33.45.46.82-.32-.03-.22-.52-.39.04l.54.12c-.07-.1,0-.3-.02-.35-.01-.05-.27-.05-.05-.38l-.16-.08.31.04c.06-.08-.03-1.25-.09-1.43-.1-.3-.42.1-.38-.21l-.29.17v.22ZM60.6,35.66c.12.19.36.07.4.38l.53-.07-.15-.08v-.15c.2,0,.2-.26.31-.39-.02-.02-.45.07-.49.09-.12.05-.11.18-.15.2-.06.04-.33-.06-.45.01ZM3.44,35.83c.11-.05.33-.02.33-.16l-.36.07c.03-.2-.54-.15-.58-.03-.08.28.44.29.52.25.01,0,.02-.1.08-.13ZM61.87,36.58c.28.34.55-.05.84.02l-.23-.7c-.16.04-.18.36-.31.43-.11.06-.34-.13-.39.11.23-.03.08.12.09.14ZM3.19,36.99l.2-.05c.03.27.26.25.23.44l-.15.08c.31-.11.28.23.47.08v.39c.25.06.07-.25.31-.08l.08-.39-.23.16.08-.31-.43.08.04-.31h-.23s.08-.31.08-.31l-.47.08.04.15ZM62.86,37.14l-.19-.05-.12.2h.38s0,.58,0,.58c0,.08.22.05.23.05.18-.14-.2-.14-.15-.23.34.04-.23-.34.23-.39v-.08c-.22.03-.16-.15-.16-.31h-.23s0,.24,0,.24ZM63.41,37.77l.23.08.08-.7c-.45.15-.47.8-.31,1.17.32-.08-.09-.44,0-.54ZM61.69,37.53c-.22.02-.35,0-.4-.22l-.22.07.15.08-.07.23.15-.08v.24s.55-.16.55-.16c-.12-.18,0-.56-.31-.54l.16.39ZM60.53,38.47h.08c-.04-.21.14-.16.31-.16l.08-.16-.23-.19.23-.08c-.05-.13-.22-.03-.23-.04-.05-.08.05-.34-.16-.38l.15.7c-.11.08-.46-.2-.23.31ZM62.47,39.25l.23.16-.08.23c.26.03.17-.2.24-.34.05-.1.47-.44.07-.44-.02.31-.17.38-.47.39ZM61.11,39.63c.12.06.19-.4.27-.04-.11.31-.59.06-.54.35.44-.03.22.34.54.39-.27-.57.4-.51.16-1.09l-.54.16c-.02.1.04.19.12.23ZM59.75,39.79l-.31.23.27.39c.13-.17.05-.37.35-.39l-.31-.54.23.04-.39-.27-.08.54h.23ZM59.59,41.66l-.08.23c-.12.12-.29-.3-.35-.3-.24,0-.35.14-.27.37l1,.16-.08-.31.31.04-.38-.12v-.23s-.39,0-.39,0l.23.16ZM5.02,42.05v.22s-.24.05-.24.05c-.05.24.09.26.2.43l.42-.08-.08-.15h.24s-.08-.47-.08-.47l-.38.15s.05-.18-.08-.15ZM3.07,42.51l-.39-.08c0,.23.29.33.23.47,0,.01-.22-.19-.15.08h.31s.02-.37.02-.37l.37-.1c.06-.3-.17-.05-.22-.09-.03-.03.05-.21-.16-.14v.23ZM60.84,42.79l-.23.12.14.09-.07.15c.35.09.56-.19.7-.47l-.58-.23-.1.3.13.05ZM58.35,43.29l.23.08h-.23s.16.27.16.27l-.23.04.12.15c.23.03.55-.86.04-.85l-.08.31ZM5.37,43.14l.12-.15h-.16s.04.15.04.15ZM59.36,43.29h.23s0-.08,0-.08h-.23s0,.08,0,.08ZM5.49,43.45v-.23s-.23,0-.23,0l.23.23ZM4.34,43.35s-.02-.12-.07-.13c-.13-.03-.28,0-.41,0-.04.48.16.54.44.86l.73-.16.16-.7-.58.31c-.08-.04-.08-.17-.13-.22-.02-.01-.09.05-.12.04ZM57.95,44.43c-.19.06-.11.17-.15.35.22-.16.41-.11.62-.27-.17-.26-.2-.33-.54-.27l.07.2ZM59.4,44.77c-.22.21-.46.24-.74.27l.47.12c0,.66.14.17.25.09.02-.02.44.03.53-.01l-.15-.31.23-.08c-.24-.12-.32.06-.55.08l-.04-.15ZM57.88,46.17l-.31-.23.04.31h.9s-.07-.3-.07-.3l.3-.24-.35-.16c-.05-.02-.03.07-.07.12-.19.21-.49.26-.44.5ZM5.64,46.33l.06.22-.14.06.08.35c.11,0,.11-.17.18-.21.18-.12.25.11.13-.41l.31.23-.09-.38c-.1-.03-.18-.03-.28.02-.02,0-.08.2-.26.13ZM59.84,46.83l.11.27.1-.49-.06.1-.39-.08.04-.23-.19.39.4.04ZM57.41,47.73l.23-.23-.04.23.47.15-.04.24.23-.16v.31s-.38-.09-.38-.09l-.12-.3-.04.31-.23-.08v.31c.2.07.13-.14.2-.15.19-.04.62.25.69-.15.08-.42-.41-.37-.44-.44-.1-.4.21-.33.24-.53l-.16-.51.31-.16c-.54-.03-.42.34-.57.59s-.5.07-.36.65ZM7.36,47.11l-.23.23-.02-.37-.29-.1.23.23-.16.12c.21.06.17.15.16.35l.2-.16.18.07.04-.15.19.23-.08-.31h.39s-.31-.16-.31-.16l.04-.16.27.08-.16-.31c-.35.1-.27.26-.31.54l-.15-.15ZM59.67,47.85c-.3.26-.62.25-.47.74l-.23-.08.12.31c.06-.24.21-.15.43-.16,0-.11-.34-.26-.16-.35l.4-.08c.06-.2.09-.59-.24-.5l.16.12ZM7.08,48.28c-.07,0-.06-.27-.23-.23-.13.07-.13.27-.19.34-.09.11-.3-.05-.24.2l.7.08-.08-.31.43.16c.3-.13-.07-.67-.19-.55.05.14-.08.31-.2.31ZM58.27,50.11v-.31s.47-.04.47-.04l-.35-.55c.04-.3-.1-.36-.2-.61-.08.02-.21.41-.21.43,0,.08.2.16.2.23,0,.04-.12.11-.13.23-.01.14.08.49.07.67l.15-.04ZM57.8,49.25l-.23-.19v.23s.23-.04.23-.04ZM6.58,49.52c-.15,0-.28-.06-.23.16l.54.08-.23-.16.23-.2-.09-.25h-.3s.08.38.08.38ZM7.35,50.3c.2-.27-.13-.19-.08-.47l-.15.12c.18.45.09.62.7.58l-.08-.23c.17-.07.25.37.39.23.06-.06-.09-.41-.31-.31l.16-.12-.23-.12.12-.23.19.15v-.23c-.14,0-.26,0-.23-.16-.13-.02-.05.11-.1.21-.02.03-.12.03-.13.08-.02.14.11.36.16.49h-.39ZM55.88,50.03l.06.12-.23.16.39-.08c.08.27.03.58.39.55l-.23.08v.16s.24.04.24.04l-.24,1.07-.31.17.23.04c-.06.14-.02.25.16.23v-.54s.31-.12.31-.12c-.42-.18-.01-.45,0-.48.02-.09-.08-.34-.04-.5.09-.29.36-.21.35-.47l-.27.08-.08-.16-.04.31h-.23c.12-.25-.09-.35-.17-.57-.05-.13.09-.39-.21-.37.04.19.14.19-.06.27ZM54.45,51.51v.08s-.16.19-.16.19h.39s-.08-.31-.08-.31l.23-.08c-.21,0-.45-.19-.55.08l.16.04ZM9.25,52.47c.16-.05.15-.31.11-.45l-.3-.13.04-.19-.17.12.05.66h.26ZM54.14,52.48l.08-.23.23.23v-.31s.39,0,.39,0c.05-.24-.1-.11-.21-.18-.05-.03,0-.2-.18-.13-.07.32-.45.1-.31.62ZM11.94,52.17l.04.38.51.47c-.07-.15-.04-.33-.08-.48-.02-.06-.12-.06-.13-.08-.02-.05.06-.12-.02-.26-.16-.26-.38-.1-.63-.11l.31.08ZM10.16,54.04c.08-.22-.21-.16-.23-.27-.02-.09.13-.21.13-.31,0-.17-.34-.4-.13-.66h-.23c.16.59-.4.95.47,1.24ZM53.25,53.26s.16-.1.08-.15c-.04.05-.16.1-.08.15ZM11.79,53.57s-.32.35-.08.39c0-.08.05-.19.11-.24.23-.18.26.09.28-.46-.27-.14-.5.01-.55.31h.23ZM54.38,53.34c-.03.14.09.26.23.23l-.23-.23ZM12.49,53.88s-.27.31-.28.33c-.01.02.04.07.02.12s-.19-.04-.05.25c.18-.12.32-.38.54-.23l.08-.47-.31.31v-.31ZM50.49,54.74v.54s.23,0,.23,0l-.08-.19c.32-.12.03-.47.47-.44.06-.28-.23-.1-.36-.04-.04.02-.09.18-.26.13ZM46.9,56.45l.23.04-.31.27c.23,0,.15-.26.47-.16l-.15-.35.23-.12-.12-.15-.42.24.07.22ZM49.94,56.76c-.07-.19-.03-.24.08-.39l-.39.23-.08-.31c0,.25-.08.36-.23.54l.62-.08ZM15.76,57.15l.23-.08-.15.31h.47c-.02-.26-.16-.45,0-.7h-.15c0,.34-.45.2-.39.47ZM47.29,57l.08.31c.48-.12.8.44,1.32.04l-.31-.12.15-.31-.39.08.23-.23c-.43.09-.29.2-.43.46-.1-.17-.47-.08-.49-.1-.04-.03.04-.2-.17-.13ZM45.81,57.07h-.47s.16.27.16.27c-.23.12-.49-.04-.71,0-.05,0-.59.26-.61.29-.01.02.14.13-.09.19l.08.34c.18-.13.28-.28.54-.23l-.16-.31c.16-.02.33-.05.31-.23h.08c-.07.18.59.34.62.31v-.54c.35-.05.14.37.16.39.14.11.18-.31.43-.39.14-.04.13.03.05.12l.14.04.16-.47s-.4.1-.51.06c-.06-.02.01-.21-.19-.14v.31ZM17.9,57.31l-.27.08v.62c.15.02.04-.14.09-.22.08-.11.35-.02.36-.04.03-.02,0-.12.01-.13.05-.04.19.22.31.15l-.06-.14.13-.25-.19.16-.04-.16h-.24s.04-.16.04-.16l.2-.08-.47-.16c0,.08-.02.14.03.22.02.03.21-.02.09.1ZM17.16,57.89l-.16.08.12.19c.22-.07.24-.24.34-.43l-.53-.27c.03.26-.02.31.23.43ZM50.18,58.05l-.31.43.2.06c.06,0,.41-.46.41-.55,0-.33-.24-.1-.45-.21l.16.27ZM20.67,58.47h.8s.13-.23.13-.23l-.46-.02-.09-.14v.23s-.34-.14-.39.15ZM48.89,58.41s.03.1.05.11c.18.08.21,0,.29.34l-.31-.08c.13.3-.11.42-.15.66l.3.03c-.08-.38.31-.17.39-.35-.02-.28-.35.08-.15-.35l.08.16c.17-.04.12-.25.15-.39-.36.18-.28-.08-.49-.18-.15-.08-.36,0-.52-.05-.05.31.24.09.35.09ZM44.29,58.71l-.27-.15.08.31-.23.08.23.04-.16.19c.22.09.23-.14.28-.15.06-.01.23.06.34,0v-.51s-.15-.04-.15-.04l-.12.23ZM21.13,59.1l.14-.06.06.14.42-.08.04.15.35-.23c-.14-.1-.27-.23-.39-.23l-.04.16c-.13-.36-.28-.16-.58-.15v.31ZM41.45,59.1l-.08.54c.23.04.11-.17.37-.22.15-.03.19-.04.18.14l.15-.12c-.16-.2-.32-.19-.54-.12.24-.41-.22-.47-.55-.39.03.23.43.12.47.15ZM44.65,58.94v.31s.23-.07.23-.07c.05.28.21.3.46.32l.16.22c0-.23-.18-.74-.43-.75-.1,0-.22.15-.26.12-.03-.02.05-.22-.16-.15ZM40.45,59.31c-.12.33.34.71.53.34l-.31-.04.08-.24-.16-.12.39-.08-.24-.04.16-.12-.22.02s-.23.25-.24.27ZM20.24,59.33v-.08c-.05.03-.05.05,0,.08ZM24.56,59.62c-.02.09.07.22,0,.33h.31s.04-.31.04-.31c.06.23.13.06.31.14l.04-.22c.2,0,.06.37.08.39l.23-.08c-.08-.42-.42-.53-.81-.54-.13.04-.05.16-.08.21,0,.02-.11.02-.12.07ZM20.51,59.49v-.16s-.15,0-.15,0l.15.15ZM39.51,59.64l-.19-.23-.98.31.93.08-.04-.23.12.23.23-.07c-.04.11-.08.2.08.23l.24-.39-.47-.16.08.23ZM20.24,59.49v-.08c-.05.03-.05.05,0,.08ZM20.28,59.87l-.16-.47-.23.08c-.08.1.31.47.39.39ZM19.58,59.56v-.15s-.08,0-.08,0v.15h.08ZM41.69,60.19l-.23.08c.28,0,.61-.02.82-.23l.16.08.04-.31-.39.23.06-.31.18-.15c-.32,0-.42.34-.78.23-.08.3.2.15.16.39ZM23.63,60.34l.27.07c.19-.08.18-.44.2-.46.03-.03.32.02.38-.12l-.62.04.15-.15h-.31c.19.28-.02.37-.08.62ZM45.03,60.19l-.08-.23-.31.19.15.12.23-.08ZM37.87,60.19l.12.24c-.17.2-.25.26-.28.54h.31s-.16-.31-.16-.31l.31-.16.08.16c.08-.22.16-.36.39-.23l-.51-.39c-.06-.02-.02.11-.06.13-.07.04-.14.03-.21.03ZM26.66,60.19h.23s0-.16,0-.16h-.23s0,.16,0,.16ZM35.3,60.45l.24.05-.08-.23.47.12-.08-.2.39-.08-1.01.08.07.26ZM40.13,60.89l.27-.23.12.23c.05-.28-.02-.3-.23-.43l.15-.27-.39.08c.22.22.12.35.08.62ZM38.85,60.42l-.27.23.23.15.16-.04v-.31s.54-.04.54-.04c.13-.24-.74-.3-.78-.08l.12.08ZM46.12,60.81v-.23s.55.08.55.08l-.08-.15c.17.12.38-.02.39-.23-.11.22-1.45.18-1.24.47l.39.08ZM33.26,60.41c-.25.03-.2.21.02.13l-.08.19c.68.23.15-.31.23-.39.22,0,.51,0,.58.23h.19s.08-.24.08-.24l-1.09-.08.06.14ZM32.46,60.64l-.18-.06c-.02.31-.43.18-.4.46.56.1.32-.41.78-.31l-.16-.23-.04.15ZM43.94,60.81v-.15s-.12,0-.12,0l-.12.15h.23ZM23.16,60.96l.08.62c.18-.05.14-.19.08-.31h.24s-.07-.15-.07-.15l.31-.08-.15-.15c-.01.26-.45.18-.51-.08l-.35.15c0,.2.37-.01.39,0ZM28.76,61.28l-.23.08h.22s.08.36.08.36l-.15.03.11.15c.21-.27.33-.79-.12-.85l.08.23ZM36.24,61.35l-.08.47-.23-.15v.31s.47-.16.47-.16l-.16-.12.15-.08v-.51c-.19.17-.36.18-.61.16-.08.34.42.03.47.08ZM39.9,61.55c-.21.1-.28.08-.48.22-.09.07-.25.18-.14.29.17.16.38-.29.4-.3.08-.02.22.18.23-.08l.22.06c.07-.29-.12-.23-.31-.36l-.16.12.23.04ZM27.67,61.77c-.06.04-.18-.11-.22.27.52.35.66-.02.61-.54-.09.05-.2.06-.29.11-.04.02-.05.12-.1.16ZM37.02,62.13l-.23.08-.16-.23.2.55h.19s-.16-.24-.16-.24l.31-.08c-.13-.16.16-.52-.15-.46.16.22-.21.1,0,.39ZM32.19,63.88c.18.27.42-.09.6-.1.12,0,.25.19.41.14v-.51s-.15-.03-.15-.03c-.18.28-.56.42-.86.5Z"/>
      <g>
        <path class="cls-1" d="M51.14,34.48c-.13-.17-.33-.27-.54-.27h-1.63l2.25-10.11c.08-.37,0-.76-.2-1.08-.2-.3-.51-.51-.87-.57l-2.63-.46c-.12-.02-.23-.02-.35,0v-6.02c.01-.4-.13-.79-.41-1.07-.25-.26-.58-.4-.94-.4h-2.66c-.75.02-1.35.63-1.35,1.38l-.05,1.67-1.23-.29c-.36-.08-.74-.02-1.06.19-.31.2-.52.53-.59.9l-.17.89c-.08-.03-.17-.05-.26-.07l-2.92-.49.03-.72c.01-.37-.12-.73-.38-1-.26-.27-.61-.42-.98-.42h-.66l.85-2.83c.11-.35.08-.73-.1-1.06-.17-.32-.45-.56-.8-.66l-2.6-.82c-.35-.11-.72-.08-1.05.09-.32.17-.56.46-.66.81l-1.69,5.61-.06-1.87c-.02-.73-.63-1.32-1.36-1.31h-2.74c-.37,0-.72.15-.98.41-.26.27-.4.62-.38.99l.14,4.11-3.08.51c-.7.11-1.2.75-1.14,1.46h-2.05c-.75,0-1.36.61-1.36,1.36v4.19l-.72-.53c-.28-.21-.64-.3-.99-.25-.36.05-.68.25-.89.55l-1.22,1.71c-.44.61-.33,1.45.26,1.92l3.56,2.73v.55h-3.38c-.21,0-.42.1-.54.27-.13.17-.17.39-.11.6l3.55,12.16c.81,2.75,3.34,4.65,6.21,4.66h21.26c2.87-.01,5.4-1.9,6.21-4.66l3.55-12.16c.06-.21.02-.43-.11-.6ZM47.16,23.86h.02v-.07l.12-.47,2.61.48-2.32,10.41h-2.94l2.52-10.34ZM43.18,15.9s.01-.06,0-.06h2.61s.03.02.02.1v7.86l-1.64,6.63-1.39-1.69,1.55-9.28c.12-.71-.33-1.4-1.03-1.57l-.18-.04.06-1.94ZM40.23,18.56l2.04.48.72.19-1.36,8.12-1.48-1.8c-.25-.3-.61-.48-1-.51-.04,0-.08,0-.12,0l1.2-6.47ZM39.03,26.39h.07s4.67,5.67,4.67,5.67l-.53,2.14h-.94l-4.06-4.85-1.04-1.22,1.83-1.75ZM40.48,34.16v.05h-2.73l.39-2.85,2.35,2.8ZM35.5,20.02l2.75.46-.66,4.85v.04s0,0,0,0v.06s-.01.02-.01.02h0s0,.04,0,.04l-.1.52-1.2,1.15c-.52.49-.57,1.3-.1,1.84l.62.74-.84,4.47h-.97l.55-14.18ZM34.22,17.87l-.63,16.33h-2.72l.63-16.33h2.72ZM30.51,12.43l2.6.85-.97,3.23h-.64c-.73,0-1.33.58-1.36,1.31l-.03.73h-1.43l1.83-6.12ZM30.06,19.92l-.55,14.29h-1.41l-.5-14.29h2.45ZM26.1,15.83l.64,18.37h-2.74l-.63-18.37h2.74ZM22.19,21.37l.44,12.84h-2.1l-1.25-12.36,2.91-.48ZM15.87,23.32h2.18l.74,7.34-2.93-2.15v-5.19ZM11.8,29.8l1.19-1.72,6,4.4.18,1.73h-1.69l-5.67-4.41ZM46.4,46.86c-.64,2.17-2.64,3.67-4.9,3.68h-21.26c-2.27,0-4.26-1.5-4.9-3.68l-3.29-11.29h37.65l-3.29,11.29Z"/>
        <path class="cls-1" d="M17.97,45.61c.39,1.31,1.58,2.2,2.94,2.21h3.8c.38,0,.68-.3.68-.68s-.3-.68-.68-.68h-3.8c-.75,0-1.42-.49-1.63-1.21l-1.37-5.09c-.1-.36-.47-.58-.83-.48-.36.1-.58.47-.48.83l1.37,5.1Z"/>
        <path class="cls-1" d="M27.44,47.81h.68c.38,0,.68-.3.68-.68s-.3-.68-.68-.68h-.68c-.38,0-.68.3-.68.68s.3.68.68.68Z"/>
      </g>
    </g>
  </g>
</svg>