<?xml version="1.0" encoding="UTF-8"?>
<svg id="Layer_2" data-name="Layer 2" xmlns="http://www.w3.org/2000/svg" viewBox="0 0 66.05 65.62">
  <defs>
    <style>
      .cls-1 {
        fill: #ffda3e;
      }
    </style>
  </defs>
  <g id="Layer_1-2" data-name="Layer 1">
    <g id="s5heUc">
      <g>
        <path class="cls-1" d="M31.39.03l-.11.21c.15.13.48-.59.53,0h.1c0-.05-.01-.15.02-.18.09-.08,1.82,0,2.15.03.1,0,.23.15.42.16,1.13.09,2.21-.11,3.33.33v.3s.27-.3.27-.3c1.32.31,2.89.41,4.17.8.91.28,1.77,1.16,2.77,1.09v.32c.08-.03.16-.08.25-.07,2.64.51,7.69,3.55,9.34,5.55.38.45.98.76,1.45,1.13.39.31.93,1.14,1.3,1.51.42.42.86.45,1.15,1.13.05.11-.03.27-.02.28.05.03.2-.04.32.08,1.06,1.04,3.14,4.52,3.79,5.94.24.53.66,1.19.44,1.73l.43.11-.09.27.2.1v.27c-.19-.12-.36.02-.43.21l.42-.11c-.02.71.58,1.24.8,1.8.24.62.28,1.32.51,1.93.03.08.25,1.04.25,1.09-.01.11-.21.2-.17.26.02.03.36-.03.21.48l.21-.05c-.19.97.29,1.91.42,2.82.29,1.97.24,4.92.11,6.98-.05.77-.46.88-.52,1.39-.06.61.07,1.35-.05,1.99-.3,1.58-1.32,4.14-1.83,5.77-.02.07-.32.29-.4.56-.21.75-.36,1.23-.98,1.82-.16.15-.12.89-.56.98l.21.26-.32-.11c-.07.22-.13.58-.23.77-.16.28-.49.23-.4.61l-.32-.11c-.07.19.18.27.18.37,0,.25-.93,1.39-.6.27l-.53.37.32.16c-.07.32-.29.38-.11.74h-.3c-.01.4-.24.69-.46.99-.37.52-1.09,1.43-1.52,1.87s-1.01.68-1.33,1c-.21.21-.39.67-.63.96s-1.92,1.62-2.23,1.8c-.24.14-.68.14-.73.17-.01,0,.12.13-.05.31-.46.48-.94.58-1.43.8-.37.17-.48.48-.7.79-.17-.3-.12-.34-.48-.21l.21.16c-.38.66-1.08.69-1.64,1.11-.13-.43-.75-.22-.48.21-.62-.14-.77.51-1.35.72-.25.09-.53,0-.56.02,0,0,.08.16.05.21-.08.13-.7.32-.89.37-1.76.45-3.47.95-5.25,1.38-.33.08-1.49.58-1.71.38-.2-.18-.04-.51-.36-.44v.42s-.43-.11-.43-.11l.11.21-1.38-.1.32.32c-.85.05-1.82-.08-2.65-.05-1.2.05-2.36.52-3.56-.05-.25-.12-.25-.4-.52-.32-.05.01-.05.17-.08.18-.23.12-.65-.1-.88-.12-.99-.08-1.66-.07-2.66-.27-.87-.17-3.01-.54-3.7-.96-.19-.11-.41-.42-.44-.43-.2-.05-.49.02-.78-.05-1.58-.39-3.11-1.34-4.55-2.08l.21-.52c-.57-.1-1.03.05-1.33-.53l-.21.21-3.29-2.33-.16-.43h.64s-.64-.11-.64-.11l.32-.11-.42-.11.42-.11-.11-.32c-.3-.05-.21.35-.59.31-.22-.02-.25-.21-.37-.26s-.26.06-.3.04c-.05-.03-.34-.78-.55-.88l.42-.05-.21.21h.32s0-.42,0-.42c-.4.18-1.23.08-1.17-.42l-.16.21-.9-.8c.32-.07.08-.22.21-.48l-.42.32c-.27-.35-.64-1.09-.91-1.37-.35-.37-.66-.44-1.09-1.03-1.3-1.78-3.24-4.79-3.99-6.82-.1-.26-.55-1.59-.57-1.77-.04-.35.31-.44-.18-.44-.04-.46-.33-.72-.16-1.18l-.21.11c-.62-1.84-.89-3.77-1.27-5.67.04-.99-.09-1.98-.11-2.97,0-.1,0-.26.11-.11l.21.37c.04-.41-.27-1.04-.28-1.38-.05-1.43.37-3.07.57-4.42.03-.22-.26-.5.14-.46l-.21-.11.21-.32-.21-.05.32-.48.11.53c-.1-.37.41-.61.05-.85l-.37.21v-.21c.39.04.02-.3.21-.58l.32.05-.32-.27,1.08-3.64h.3c-.27-.34-.11-.62.03-.99,1.17-3.02,2.82-6.11,4.89-8.57.03-.04.11-.12.16-.1l.16.11c-.16-.58.23-.48.38-.71.08-.12.05-.34.13-.43s.68-.22.71-.25c.01-.01-.1-.18-.06-.31s1.23-1.33,1.45-1.53c.6-.55,1.33-.94,1.85-1.55l-.05.42c.44-.27.1-.71.74-.42,0-.07-.02-.18.01-.23.43-.66.63-.88,1.38-1.41.62-.44,1.41-.83,1.97-1.12s.93-.76,1.52-1.01c.21-.09.46-.01.63-.11.02-.01.34-.58.42-.21.06.28-.31.03-.21.37l.85-.26c.14-.09.1-.46.21-.63.07-.11,1.62-.76,1.9-.86C23.87,1.12,27.5.21,30.48.03c.3-.02.6,0,.9,0ZM23.33,1.72l-.3.05-.08.26c-.31-.41-.71.19-1.01.37l.42.48-.11-.42h.32s-.11-.32-.11-.32l.63.1.22-.53ZM2.55,27.27c.11-.03.21-.06.32-.11-.17.47.04.82.53.85-.1.76-.34,1.52-.42,2.28-.12,1.05-.2,2.64-.1,3.71.1,1.12.53,1.86.15,2.95-.17.5-.28.7.38.82-.39.31.13.68.18,1.02.02.16-.1.34-.07.5.16.79.51,1.57.42,2.4l.21-.21c-.1.36.25.34.35.56.06.13-.05.27,0,.37,0,.02.32.18.29.35l-.42.21.31-.03c.16.37.48.71.32,1.19.45-.1.29.3.45.66.88,1.97,2.41,4.53,3.74,6.22.51.65,1.49,1.23,1.53,2.12h.42s-.42.53-.42.53l.58-.32c.42.39.8.83,1.22,1.22.67.62,2,1.54,2.5,2.16.11.14.16.25.15.43l.16-.21c.41.34.88.72,1.33,1,1.33.82,3.23,1.92,4.66,2.45.54.2,1.24.26,1.8.53.29.14.82.65.92.67.11.03.75.04,1.06.1,1.03.17,2.06.45,3.08.63,6.76,1.2,14.05-.29,19.99-3.6.63-.35.48-.29.99-.7.23-.18,1.78-1.26,1.89-1.25.08,0,.15.12.21.17.24-.11.04-.35.15-.48.15-.19.47-.18.68-.27.15-.06.05-.4.61,0l-.32-.37,4.61-4.51c.88-1.74,2.22-3.25,2.9-4.94.1-.25.26-.62.55-.46-.23-.71.34-1.35.58-2.02.84-2.31,1.37-4.35,1.84-6.75.03-.15.2-.13.21-.2.04-.38-.05-1.01.02-1.38.04-.24.28-.3.32-.54.06-.35-.18-.8-.17-.94.01-.13.2-.33.22-.58.02-.28-.23-1.08-.26-1.44-.19-2.18-.36-4.05-.8-6.14-.03-.14-.17-.26-.16-.43l.22-.26c-.45-.02-.26-.39-.35-.66s-.22-.44-.28-.78c-.01-.09-.05-.37.09-.2l.16.37.16-.42-.21.21c.1-.46-.34-.36-.44-.49-.27-.38-.59-1.83-.82-2.34-.48-1.1-1.17-2.35-1.73-3.44-.06-.12-.35-.39-.41-.56l.53.11c-.36-.44-.86-.07-.95-.79l.32-.11c-.47.03-.37-.31-.45-.39-.06-.06-.25-.04-.35-.14-.13-.13-.08-.47-.37-.43l.21-.31c-.39-.05-.49-.11-.42-.53l.16.22.37-.11-.05.32c.15-.08.38.32.48.21.23-.25-.5-.6-.53-.64-.19-.24.33-.14.21-.42-.28.12-.5.05-.42.42l-.42-.11.11.42h-.21c-.4-.75-.99-1.38-1.49-2.07-.35-.49-.16-.18-.37-.36-.17-.15-.31-.34-.48-.49-.04-.09.16,0,.21-.13.23-.63-.35-1.78-.31-.56-.46-.12-.77.27-1.06-.32l.53.21v-.95c-.38-.11-.17.5-.48.43-.03,0-.41-.41-.48-.46-.05-.04-.16.02-.19,0-.11-.09-.14-.42-.45-.39-.12-.17.61-.7.74-.53v-.32s-.42,0-.42,0l.05.32c-.29-.47-.35-.87-1.01-.69-.25-.09,0-.49-.26-.37-.09.04-.27.25-.09.32l.52.42.05-.21c.4.12,0,.48-.21.64l-.02-.41-.41-.12-.05.32-.26-.26.42-.26c-.39-.19-.55.33-.58.32-.33-.14.15-.38.05-.52-.25,0-.3-.3-.42-.38-.22-.14-.7.01-1.03-.12-.15-.06-.21-.29-.34-.42-.11-.11-.31-.14-.32-.15-.05-.06-.04-.27.15-.2.41.14.57.62,1.01.52.02-.39-.53-.1-.42-.63l-.16.21c-.37-.23-1.19-.95-1.22-.1-.81-.13-1.28-.66-2-.86v-.41s-.44.11-.44.11v-.53s-.16.21-.16.21l-.95-.42.05-.21c-.2-.04-.32.16-.5.19-.53.11-.79-.26-1.3-.19l.11-.21-1.8-.32.1-.53-1.12.22-.36-.22.05.21-1.64-.43.22-.58-.37-.27c-.32-.05.03.2-.11.21-.3.02-.04-.23-.26-.21v.42c-1.35-.15-2.71-.07-4.06-.14-1.17-.07-1.45.11-2.57.25-2.46.29-4.46.44-6.86.97-.21.05-.36.27-.47.29-.17.03-.25-.26-.46-.2v.41c-.35.17-.78.15-1.09.23-.05.01-.65.48-.79.52-.22.06-.29-.22-.53-.13-.33.13-.3.47-.59.7-.46.36-1.22.25-1.4.38-.11.08-.02.26-.13.34-.09.07-.44.02-.59.1-.18.09-.91.92-1.15.74l-.11-.42c0,.16-.03.34-.12.47-.36.5-1.84,1.42-2.42,1.82-.41.28-.51.74-1.17.57l.21.16-.11.11c-.31-.14-.2.19-.38.36-.14.14-.33.22-.48.37-.44.46-.74,1.16-1.48,1.23l.05.43c-.41.35-.88.8-1.22,1.22-2.32,2.82-4.07,6.13-5.2,9.54-.19.57-.43,1.1-.6,1.62-.1.32-.11.96-.2,1.28-.03.1-.12.2-.17.3l-.83.19c-.17.13-.08.32-.1.48-.2.06-.44.03-.43.32-.37-.17.07-.31.08-.33.03-.07-.08-.17-.08-.24,0-.03.37-.16.21-.49.23.17.52-.02.53-.32l-.64-.11.11.32-.53.16.32.27c-.16.28-.56.23-.32.63h-.32c.08-.43.31-.71.1-1.17-.31.05-.16.56-.22.63h-.31s.36.76.36.76l.7.1-.11.42c.47.09.14-.64.21-.74l.32.11c.01-.1-.01-.22,0-.32ZM55.24,11.58v-.32s-.42.11-.42.11v.52c.36.18.42-.27.58-.21l.11.32c.23-.09.13-.56.05-.64-.29-.28,0,.42-.32.21ZM10.75,55.13s.01-.13.02-.19l-.16-.11c.02.29-.29.3-.53.32l.53.11-.42.42.85.11c-.08-.14-.01-.45-.06-.53-.04-.06-.19-.08-.22-.12Z"/>
        <path class="cls-1" d="M39.66,16.56c2.88.2,4.75,2.54,4.29,5.41-.06.4-.33.7-.25,1.09.08.28,1.34.99,1.67,1.31,1.66,1.62,1.96,4.95.37,6.71-.37.42-1.53,1.12-1.72,1.46-.63,1.16-.94,3.31-1.4,4.64-.32.92-.85,1.85-1.17,2.75-1.93,5.41-3.79,10.83-6.02,16.13-1.68,2.42-3.83,1.56-4.95-.82-2.48-5.26-4.7-11.73-6.71-17.25-.56-1.53-.93-3.83-1.59-5.19-.31-.63-2.02-.68-2.39-1.96-.1-.36-.12-1.03-.05-1.39.11-.54.8-.89.83-1.4s-.56-1.36-.63-2.03c-.06-.53-.07-1.69,0-2.21.11-.84,1.56-2.77,2.21-3.3.46-.37.76-.13.86-.95.12-1.05-.25-1.61.26-2.71.34-.73,1.7-1.93,2.39-2.38,1.21-.77,4.55-1.77,4.1-3.7-.21-.9-1.65-1.25-.61-2.57.88-1.12,2.85-.56,4.01-.19,2.22.7,3.81,1.73,5.21,3.59,1.06,1.4,1.61,3.15,1.28,4.92ZM21.53,29.92c.5.19.88.38,1.43.43,4.8.41,10.11-.41,14.95.11,1.56-.16,3.57.16,5.07-.13s2.1-2.19,1.58-3.44c-.28-.68-1.68-1.66-2.41-1.73-.88-.08-1.07.38-1.74.69-1.14.54-4.63,1.87-5.77,1.74-.91-.11-1.26-.76-1.12-1.63.18-1.09,2.73-1.17,3.6-1.38,1.21-.28,2.61-.62,3.59-1.39,1.53-1.2,1.8-2.8.17-4.07-1.66-1.29-3.05.16-4.08-.27s.3-1.96.52-2.45c1.4-3.23-3.33-5.22-5.34-6.72-.41.39,0,.92.04,1.33.2,1.61-1.04,3.37-2.36,4.2-1.18.74-4.42,1.58-4.79,2.84-.69,2.29,2.77,1.81,4.03,1.7s3.36-.68,4.53-.61c1.34.08,1.63,1.84.42,2.28-2.07.35-4.1.86-6.22.88-1.41.01-2.44-.24-3.88.15-.92.24-1.99,1.85-1.9,2.75.1,1,1.86,2.27,1.74,3.37-.15,1.37-1.41.72-2.06,1.36ZM25.03,32.79l.1.48,2.29,2.06,2.49-2.39-.36-.16h-4.51ZM40.82,32.79h-4.66c-.05.19.08.21.16.32.34.45,1.73,1.84,2.17,2.18.08.06.13.16.25.14l.39-.25,1.69-2.39ZM33.26,33.12c-.83.46-4.26,3.09-4.18,3.94.02.24,1.97,2.16,2.31,2.46.25.22,1.54,1.32,1.75,1.32l3.55-3.34c.66-.49-.03-1.25-.42-1.7-.47-.55-1.34-1.3-1.91-1.8-.15-.13-1.02-.89-1.1-.88ZM28.74,44.98c.16.04.18-.04.27-.1.39-.27,2.19-2.19,2.17-2.59-.02-.44-.69-1.03-1.01-1.34s-2.48-2.29-2.65-2.29c-.42,0-.72.52-.64.92l1.86,5.4ZM37.53,44.87c.38-1.67,1.52-3.62,1.78-5.27.21-1.32-.7-1.1-1.46-.51-.28.22-1.68,1.53-1.88,1.78-.11.14-.08.35-.17.46-.63.78-1.24.75-.39,1.79.26.31,1.44,1.45,1.75,1.65.13.08.21.13.37.1ZM31.01,48.43c.5.46,1.65,1.5,2.33,1.42.49-.06,3.16-2.23,3.12-2.58-.4-.93-1.15-1.43-1.84-2.08-.28-.26-1.1-1.32-1.46-1.25-.71.63-1.61,1.21-2.3,1.83-1.37,1.23-1.13,1.48.15,2.66ZM33.03,53.17l-.47.55.58,1.33c.41-.61.84-1.56-.11-1.88Z"/>
      </g>
    </g>
  </g>
</svg>