<?xml version="1.0" encoding="UTF-8"?>
<svg id="Layer_2" data-name="Layer 2" xmlns="http://www.w3.org/2000/svg" viewBox="0 0 65.33 64.9">
  <defs>
    <style>
      .cls-1 {
        opacity: .24;
      }

      .cls-1, .cls-2 {
        fill: #7dc68d;
      }
    </style>
  </defs>
  <g id="Layer_1-2" data-name="Layer 1">
    <g>
      <g id="uGIZGQ">
        <g>
          <path class="cls-2" d="M9.57,25.3s.32-.34.8-.1l-.15.3c.25-.11.25-.38.55-.3v.8s.1-.2.1-.2c.26-.04.37.04.41.3l.3-.25-.3-.1c.29-.37.63-.03.86,0,.71.07.75-.08,1.46.29.35.18.13.19.26.28.1.07.34.03.42.12.04.05-.01.21.08.28.15.12.61.14.81.23s.21.5.49.56c.14-.26-.4-.26-.09-.61.29-.22,1.01.1.84.31l-.2.1.25.1.05-.3h.3s-.09.46-.09.46l.19.09-.12.24c-.39,0-.57.02-.69.42.35-.04.11-.32.6-.1l.1-.2.1.3c0-.24.57-.41.2-.6l-.2.3.1-.5.75.6.3-.5c.24.54.49.31.88.43.36.11.4.28.58.41.06.04.19-.04.19-.03.11.16,0,.75.03.78.06.07.36.13.44.32.1.23-.19.5.14.6l.1-.2.3.35-.35-.05-.05.3h-.6s0-.25,0-.25c-.48.04-.61-.41-1.07-.44l-.19.2c-.52-.44-1.51-.26-1.97-.57-.14-.09-.17-.29-.22-.32-.12-.07-.36.02-.52-.03-.14-.04-.12-.26-.24-.29-.12-.03-.33.05-.42-.01-.06-.04-.21-.57-.11-.69-.63.21-1.36.33-1.51-.5l-.15.3-.45-.2.1-.3-.28.09c-.29-.7-.69-.42-1.12-.53-.12-.03-.97-.47-.91-.56.49-.1.1-.48-.3-.3v-.41c-.24.1-.37-.12-.45.2-.24-.22-.49-.45-.45-.8.18-.04.06.17.1.2ZM15,27.21l-.25-.1-.09.19-.26-.09.2.55-.2.15.5.1v-.3s.3.1.3.1l-.1-.35-.2.05.1-.3ZM16.7,29.02v-.2s-.3.1-.3.1v.1s.3,0,.3,0ZM17.96,29.12v.1c.07-.03.07-.07,0-.1ZM20.07,30.33v.1c.07-.03.07-.07,0-.1Z"/>
          <g>
            <path class="cls-2" d="M9.55,32.85l.16.39.55-.2-.1-.2h.3s.01.39.01.39c.08.1.66-.03.39.31.35.05.15-.14.15-.3s.13.03.15,0c.18-.22-.56-.34-.15-.4l.44.21v.29s-.29-.05-.29-.05l.35.25c.15-.43.6-.26.95-.2l-.1.4.6-.2-.05.2h.75s.02.49.02.49c.33.07.46.16.49.51v-.3c.39.14.38-.27.65-.2.04,0,.04.15.13.19.44.19.53.17.87.2.03,0,.26.27.34.3.12.04.31-.03.44.05v.25s.19,0,.19,0l.05-.2.45.25-.4.25c.23.02.52.02.5.3l.3-.5v.8s-.3-.15-.3-.15c.36.5.34-.04.45-.04l.85.3s.02.28,0,.29c-.18.23-.18-.26-.3-.2v.3s.5.1.5.1c-.18.06-.45-.02-.5.2l.3.25-.4.25c0-.45-.59-.35-.61-.7l-.26.51c-.6-.06-1.11-.1-1.61-.45-.07-.05.02-.24-.24-.16.07.18-.09.39-.25.4-.03,0-.14-.31-.45-.2l.1-.7.2.1c.09-.26-.16-.16-.2-.28-.06-.19.12-.36-.27-.39-.15-.01-.29.07-.44.07l.4.21-.09.44-.75-.04-.07-.31-.15.2-.2-.4-.19.19c-.52-.35-1.37-.43-1.37-1.2h-.2c-.3.68-.6-.48.1-.4-.16-.59-.18-.15-.27-.1-.27.17-.42-.06-.24.4-.27-.23-.38-.21-.7-.1.17-.17-.3-.52-.45-.6-.43-.24-.58,0-.83-.58-.1-.23.13-.47-.23-.38l.49-.14ZM12.63,33.85v.1c.07-.03.07-.07,0-.1ZM13.08,34.15l-.2-.2v.2s.2,0,.2,0ZM12.73,34.05v.1c.07-.03.07-.07,0-.1ZM13.69,34.35l-.3-.05v.55s.4.1.4.1l.2-.5-.4.3.1-.4ZM16.8,35.76v-.2h-.1v.2h.1Z"/>
            <path class="cls-2" d="M9.61,32.54c.07.03.07.07,0,.1v-.1Z"/>
          </g>
          <g>
            <path class="cls-2" d="M22.03,23.09c.16.09.32.11.5.1-.13.33-.29.16-.5,0,.01-.02-.01-.07,0-.1Z"/>
            <path class="cls-2" d="M21.83,23.29c.05.01.17.15.3.1,0,.07-.11.17-.1.2-.17-.06-.22-.07-.4-.1l.1-.2s.07,0,.1,0Z"/>
            <path class="cls-2" d="M22.64,23.59c-.09.4-.25.42-.5.1.05.02.24.08.3.05l-.15-.25c.09.11.24.07.35.1Z"/>
            <path class="cls-2" d="M22.13,23.69s-.09-.04-.1-.1c.03.01.07.09.1.1Z"/>
            <path class="cls-2" d="M19.92,22.49c-.25,0-.26.05-.35-.2-.14.4-1.01.28-1.07-.19l-.18.09c-.13-.19,0-.43,0-.54-.01-.07-.17-.05-.19-.13-.02-.05.09-.15,0-.29-.09-.15-.57-.48-.51-.05l.4.1-.2.35.2.05-.2.1.3.35c-.17.22-.4-.2-.43-.22-.13-.06-.54-.07-.72-.23-.1-.08-.04-.24-.08-.28-.07-.07-.33-.05-.48-.18s-.17-.42-.35-.55l-.05.4c-.37.11-.35-.13-.48-.2-.22-.11-.42.13-.42-.51l-.3.2.1-.3c-.4.04-.94-.18-1.15-.5-.57.5-1.08-.31-.15-.1l.1-.7-.35.51h-.25s.2-.2.2-.2c-.27-.13-.33.2-.35.2-.07-.01-.5-.24-.58-.3-.22-.18-.54-.83.02-.7l-.2.2.4.3-.2-1.01c-.22.02-.17.36-.21.4-.01.01-.12-.09-.17-.07-.02.01-.02.15-.09.17-.22.05-.51-.06-.74.1l-.2-.4-.15.4c-.21-.16-.72-.25-.89-.39-.1-.09-.03-.24-.13-.32-.15-.11-.59-.12-.74-.25-.16-.14-.12-.44-.23-.53-.19-.16-.85.02-.63-.63l.15.4c.49-.2.59-.15,1.06-.12.37.02.81-.16.65.52.27.09.32.08.5-.15l-.18-.07.08-.38.1.3.1-.2.4.1-.19.11.09.34c-.43.14.05.62-.51.36-.07.07.34.37.4.12l.21-.52.2.1v-.3c.05-.05,1.22.32,1.37.39.17.07.18.31.53.23v.29s.41-.2.41-.2l-.1.3.3-.2c.41.92,1.57.54,2.31,1.01l-.1.4c.56.02.17-.49.83-.1.07.04.07.17.09.18.04.02.58-.08.79.12.07.35-.36.19-.4.4l.6.2.1-.4.5.25c-.27.08-.21.2-.2.45l.35-.5c.61.2.89.58,1.41.9l-.05-.25.2-.05s0,.45.02.56c.01.06.26-.01.08.25.27.09.3-.36.45-.38.28-.04,1.55.64,1.89.78.12.46.52.74.96.92l.02.43-.51.21.3.35-.4-.1c.16.4-.04.43-.4.4l.2-.3c-.06-.01-.14.01-.2,0,0-.01-.08-.08-.04-.2.04-.14.34-.16.14-.63-.05-.11-.28-.06-.19-.33.03-.09.25.02.2-.15-.47-.07-.55.48-.7.8-.04-.02-.11-.14-.1-.2l-.1.05c-.03.16.11.18.2.25-.08.14-.07.08-.2.1-.03,0-.04-.05-.1,0-.14,0-.28-.08-.4-.05l.3.25s-.06.1-.13.08l-.27-.49-.4.3v-.49s-.35-.11-.35-.11c-.28.15.02.32-.1.5-.46-.25-.38-.37-.45-.8.07,0,.13,0,.2,0-.17-.48.48-.33.2.1l.5-.2.09.34.31.06c-.23-.5.19-.35.2-.8l-.86.39-.15-.19.2-.1-.5-.1.3-.4-.28-.08-.07.18-.35-.2c-.1.26.18.17.18.25.02.22-.04.46.02.76ZM16.1,20.37l-.05-.6-.45.25c.49-.07.16.4.5.35Z"/>
          </g>
          <g>
            <path class="cls-2" d="M55.32,43.1c-.06-.01-.14.01-.2,0-.07-.09.16-.49-.2-.4l.1.4c-.14.07-.49.06-.58.12-.12.08-.04.55-.32.33.42-.89.93-1.76,1.01-2.77.3.06.36.29.7.09v-.3s-.4-.15-.4-.15l.15-.23.15.08s.06-.6.12-.74.22-.15.25-.2c.18-.38.05-1.02.55-1.12.22-.04.37.02.59.04.02-.47-.14-.4-.47-.32-.42.09.15-.43.16-.46.12-.26.17-.56.26-.82s.39-.32.05-.55l.21-.11-.11-.29.3-.05-.2.45c.39.31.74.48.6,1.05l-.11-.19-.3.09.3-.25-.1-.25-.15.08-.05-.28-.11.19-.19-.09.2.6-.2-.3c-.28.07-.02.44.2.4.04.15-.38.06-.2.3.01.01.15-.07.2-.04.52.27.56,1.36-.1,1.15.07.25-.14.27-.2.38-.04.07.02.23-.02.3-.09.14-.71,0-.47.4.09.14.46-.02.08.52l.25-.2.45.2-.3.1.2.14c-.2.2-.09.57-.12.71-.01.06-.17.04-.18.12-.06.3.26.58-.23.76-.17.06-.56-.02-.78.08-.07.37.14.32.37.45.04.02.04.13.05.13.05.02.54-.23.23.23-.1.15-.61.08.05.45l-.15.25c-.15-.06.03-.43-.39-.39-.31.34-.45.3-.26.79l-.35-.2.05.2c-.37.1-.28-.21-.5-.3l-.2.4-.5-.6.6.15.28-.32c.03-.11-.07-.17-.08-.23.3.06.09.11.3.2l-.35-.5c-.16.08.03.23.05.3ZM56.63,41.29l.2-.9c-.1.03-.32.44-.33.5-.06.23.06.48.04.64-.01.06-.4.1-.2.27.09.08.5-.27.6-.35,0-.22-.14-.23-.3-.15ZM56.02,41.69l-.8.05.55.36.25-.4Z"/>
            <path class="cls-2" d="M24.04,29.42h-.2s-.02-.14,0-.2l.2.2Z"/>
            <path class="cls-2" d="M24.75,29.22s-.02-.07.05-.1h.15c.06.18-.09.18-.1.2-.03-.03-.1-.11-.1-.1Z"/>
            <path class="cls-2" d="M24.85,26.51c-.24-.06-.18.18-.2.2-.28.01-.55-.12-.12-.22l-.08-.18.4.2Z"/>
            <path class="cls-2" d="M24.35,27.71c-.23-.19-.23.07-.3.1.02-.27-.06-.26.25-.4l.05.3Z"/>
            <path class="cls-2" d="M23.64,28.02c.02-.17.08-.33,0-.5.38-.04.29,0,.3.3-.06.03-.2-.05-.2.05,0,.09.13.05.2.05,0,.1,0,.2,0,.3-.03.03-.22-.17-.3-.2-.01.13,0,.27,0,.4l-.35-.3.15.3h-.3s.2-.7.2-.7l.2.2-.2.1c.09.02.24-.02.3,0Z"/>
            <path class="cls-2" d="M24.04,27.92s-.07,0-.1,0c0-.03,0-.07,0-.1.03-.01.07.01.1,0,0,.03,0,.07,0,.1Z"/>
            <path class="cls-2" d="M24.85,26.51c-.03-.5-.02-.5.13-1.01.03-.09-.04-.2,0-.27.09-.18.55-.44.78-.33.11-.24-.46-.23-.1-.46.09-.06.23.04.33.02s.17-.13.3-.14c.35-.02.34.35.67.28.03-.3,0-.53-.25-.7l-.12.2h-.54c.02-.43.52-.28.65-.7.25.35.53.07.81-.1l.1.2c.2-.25.64-.34.85-.46.14-.08.22-.46.61-.34v.35s-.23.05-.23.05l-.08.31-.2-.3-.11.45.21.16-.3.15v.2s.17.07.17.07l-.07.18.3.05-1.08.58c-.14.71-.72,1.38-1.41,1.6l-.02.33.2.16-.7.1-.05-.3-.05.3-.3-.1-.1.3h.4s-.05.3-.05.3c-.18-.13-.33-.3-.55-.2.01-.33.39-.32.2-.7l-.13.25-.17-.04-.02.48c-.72.05-.25,1.04.32,1.08,0,.53-.33.41-.66.64l-.15-.2.1.5c.13.03.12-.12.2-.2,0,0,.07.07.1.1-.05.13-.07.27-.1.4l-.25-.3-.05.2-.3-.05.4.55-.3-.1-.22.69c-.32.09-.55.23-.89.12.1-.2.17-.35-.05-.5l-.1.21c-.44-.04-.47-.48-.56-.85.26-.3.63-.15.97-.27l.24.21c-.05-.21.19-.18.2-.2.1.26.19,0,.2,0,.33-.09.45.04.3-.4l-.4.05c.25-.13.43-.13.51-.45l-.3-.1.3-.25c-.18-.08-.21-.32-.4-.15,0-.07,0-.14,0-.2.19-.05.19-.02.3-.2.18-.3.07-.37-.08-.66,0-.09.29-.24.38-.35.1,0,.2,0,.3,0,.04-.02-.1-.16-.1-.2ZM26.16,25.3v-.2h-.1v.2h.1ZM25.95,25.2h-.2v.1h.2v-.1Z"/>
            <path class="cls-2" d="M55.22,45.31c-.13.19-.32.39-.3.6l-.2-.2c-.09.22.02.92-.02,1.05-.03.11-.48.19-.28.66h-.4c.02.54-.41.94-.91,1,.22-.27.24-.38,0-.66l-.5.16.3-.6-.3-.1h.8c.11-.31-.32-.21-.39-.32v-.39s.69.1.69.1l-.2-.6c.52-.01,1.02.43.7-.4l-.45.3-.35-.3-.15.5-.35-.25.2-.2-.2-.19c.09-.32.43-.32.69-.48l-.07-.43.18-.22.6.16c.02-.27.1-.41.36-.5l.34.34c-.23.2-.05.77-.09.86,0,.01-.28-.15-.3.1.45.16.4-.57.7-.3l-.1.05c0,.08,0,.17,0,.25ZM54.11,46.52l-.3.05.25.25.05-.3Z"/>
            <path class="cls-2" d="M55.42,45.11s-.07-.07-.1-.1c.03.02.12.01.1.1Z"/>
            <path class="cls-2" d="M55.42,45.11s.19-.18.3.06l-.2.65c-.21.18-.3-.43-.3-.5.03-.05.16-.06.2-.2ZM55.52,45.21l-.05.3.15-.15v-.15h-.1Z"/>
            <path class="cls-2" d="M51.6,47.52l-.49.32.08.38.2-.5.6.3-.2.2.7-.2c-.26.53.29.73.3,1.06.02.47-.21.23-.33.25-.1.02,0,.33-.37.09l.3.25-.35.35.05-.3-.3.05c-.03-.21.05-.5,0-.69-.02-.09-.33-.04-.19-.26.01-.02.31.04.19-.31l-.55.3c-.42-.53-.35-1.05.14-1.46l.2.15Z"/>
            <polygon class="cls-2" points="10.56 39.18 10.67 39.58 10.37 39.48 10.47 39.78 9.77 39.88 9.66 39.58 10.56 39.18"/>
            <path class="cls-2" d="M43.5,18.46c.07.03.07.07,0,.1v-.1Z"/>
            <polygon class="cls-2" points="52.2 47.32 52 47.17 52.15 47.02 52.2 47.32"/>
            <rect class="cls-2" x="22.94" y="39.18" width=".2" height=".1"/>
            <path class="cls-2" d="M24.2,29.22c.07.03.07.07,0,.1v-.1Z"/>
            <g>
              <path class="cls-2" d="M42.45,32.44c-.06.05-.11.12-.2.1.07-.03.15-.07.2-.1Z"/>
              <path class="cls-2" d="M44.36,37.47s-.07-.01-.1,0l.1-.1v.1Z"/>
              <path class="cls-2" d="M41.34,33.85l-.2.05c.05-.08.13-.11.2-.15.01.03-.01.07,0,.1Z"/>
              <path class="cls-2" d="M42.55,32.44s-.08-.01-.1,0c.03-.03.06-.08.1-.1-.01,0,.01.1,0,.1Z"/>
              <path class="cls-2" d="M42.55,32.34c.41-.27.56.01.4-.7.9-.1,2.71-.43,2.71.9l-.2-.05.2.3c-.31-.07-.1.12-.3.15l-.1-.3v.5s.35-.2.35-.2l.1.2.05-.4.1.2c.18-.25.61-.18.78.03.13.15.55,1.23.04,1.2l.08.18-.8.1.4.1-.1.5-.2-.3-.4.25c.27-.08.5.37.69.24.08-.06.21-.56.11-.69h.5s-.1,1-.1,1l-.2-.05c.11.32.2,1.48-.3,1.26l.1.3-.3-.1c-.12.26.22.18.2.25-.01.06-.52.62-.57.64-.49.17-.42-.28-.59-.18l-.16.39-.45-.08c-.11.38-.75.13-1.04.03-.39-.13-1.26-.48-1.11-.95l-.15.2c-.67-.41-.51-1.13-.81-1.7-.06-.12-.3-.23-.19,0v.4c-.19-.25-.41-.84-.36-1.14.03-.17.67-.27.4-.98l.4-.25c-.1-.03-.31.1-.4.15-.02-.05-.2-.06-.21-.25-.02-.47.24-.53.46-.85l.09.19c.32,0,.45-.24.56-.29.33.34.28-.08.3-.1.03-.03.21.06.2-.05,0-.08-.16-.06-.2-.05ZM43.45,32.44c.05-.41-.27-.54-.3-.1l.3.1ZM42.9,32.34v.1c.07-.03.07-.07,0-.1ZM42.91,32.68s-.24-.16-.26-.14l.1.91c.1-.18.42.11.39.23l-.44.58.15-.2c-.4-.01-.22-.53-.3-.81l-.15.5-.35-.1c.1.2.37.15.3.5l.2-.2c.13.42-.22.38-.3.7l-.3-.2.1.4-.2-.2-.1.5c.29.11.28-.17.37-.19.31-.07.36.18.4.19.13.03.49-.1.59-.06.16.06.19.38.45.37-.03.21-.34.18-.49.13-.27-.09-.14-.15-.32-.23l-.1.4h.6c-.12.19-.36.05-.4.4.29.02.58.07.6-.3l.2.2c-.03-.48.61.09.71-.3l-.6-.1c.64.12,1.05-.36,1.61-.51l-.02-.69h-.18s0-.21,0-.21l.3-.05c-.07-.17-.25-.05-.28-.08-.13-.11-.15-.55-.25-.65-.04-.04-.18-.02-.23-.07-.23-.23-.2-.47-.55-.56l.2-.1c.19-.23-1.19-.21-1.01.4l.4-.1c-.24-.33.26-.33.19.09l-.54.19c-.22-.2-.21-.43-.49-.64ZM46.12,33.24v.1c.07-.03.07-.07,0-.1ZM41.94,33.35h-.2s.1.3.1.3h.1s0-.3,0-.3ZM41.54,33.45h-.2v.1h.2v-.1ZM46.22,33.55v.1c.07-.03.07-.07,0-.1ZM44.36,37.37c-.04-.06-.12-.25-.2-.2l-.2.2v.2c.09-.04.21-.06.3-.1h.1l.1-.05s-.08-.03-.1-.05ZM44.51,37.17v.1c.07-.03.07-.07,0-.1ZM44.61,37.47v.1c.07-.03.07-.07,0-.1ZM44.31,37.77v.1c.07-.03.07-.07,0-.1Z"/>
            </g>
            <g>
              <path class="cls-2" d="M52.79,36.88l.02.38h.29s0,.31,0,.31h-.3c.32.32.33.56.31,1h.29s-.1.81-.1.81l-.3-.1c.19.16-.16,1.44-.21,1.5-.05.05-.35-.03-.44.11l-.14.66-.41.05c-.03.16.29.14.3.25.02.2-.56.2-.65-.05l-.25.3-.3-.86c-.61.25-.46-.33-1.01-.24l.2-.55-.3-.05c.06-.62.08-1.31.37-1.88.32-.64.82,0,.93-.13.01-.27-.05-.46-.3-.55.1-.5.58-.36.5-.75l.6.2v-.29s.5-.01.5-.01l-.3-.2.69.11ZM51.3,38.37c-.07.1,0,.1,0,.1-.05.16-.14.31-.1.5l-.6-.1.3.3c-.37.05-.6.59-.1.6v-.45s.3-.05.3-.05l.1.25-.3-.05v.3s.4,0,.4,0l.1.3.1-.6.2-.05c-.3-.06-.19-.38-.1-.6l-.3.05v-.3s.2.1.2.1l.2-.4c-.17-.02-.18-.1-.35,0-.04.02-.03.08-.05.11ZM51.85,38.57v.1c.07-.03.07-.07,0-.1ZM52.8,38.58h-.6c-.02.28.26.41.5.4l-.1.4.6-.2c.03-.31-.27-.31-.5-.3l.1-.3ZM52.4,39.48l-.3-.1v.3l.3-.1v-.1ZM51.8,40.18l-.2.05.25.25-.05-.3ZM52.2,40.99l-.05-.2-.25.25.3-.05Z"/>
              <path class="cls-2" d="M51.3,38.47s0-.1,0-.1c.09-.04.09.14,0,.1Z"/>
            </g>
            <path class="cls-2" d="M39.33,23.79v.4s.5.11.5.11c.15-.88.7-.43,1.21-.25.19.07.48.08.63.15.21.11.42.64.88.5.07.26-.27.23-.3.37-.04.16,0,.4.02.57l.38.16.1-.3c.03.21-.05.69-.19.84-.15.16-.09-.07-.28.26-.21.37-1.18,1.19-1.39.5l-.15.3-.2-.3.1.4-.15-.2-.19.28c-.37-.12-.93-.32-1.16.12l.35.1c-.32,0-.63.02-.94-.06-.22-.06-.22-.22-.26-.22-.06,0-.17.1-.29.07-.1-.03-.61-.74-.72-.79-.22-.12-.08.32-.25.15l-.2-.45c.29-.09.17.18.2.2.1.08.22.03.2-.15-.03-.34-.18-.26-.3-.45l.4-.1-.2-.2h-.5s.11-.49.11-.49h.29c.04-.18-.17-.06-.2-.18-.03-.13.02-.3,0-.44l.25.2.45-.21c-.26-.64.87-.61,1.3-.51l.12-.38.39-.02ZM40.64,25.4l-.4-.1-.15.42h-.36s.2.44.2.44c-.16.08-.25,0-.2.25.27-.25.4-.14.7,0v-.4s.6.25.6.25l-.2.3.5.35c0-.44.76-1,.11-1.22l.09-.29-.65.41-.11-.21-.24.11.1-.3Z"/>
            <path class="cls-2" d="M50.79,28.32l.3-.1-.3.4.45.2.1-.2c.47.6.32.55-.31.7l.06.4.5-.1h-.4c-.08-.41.7-.36.7-.15,0,.02-.24.2-.1.35-.31-.03-.38-.03-.5.25l.6-.15-.07.18.18.08c-.23.32.27,1.19-.35.95l-.16-.31c-.02.18-.03.24.07.4.02.03.17-.06.12.1-.63.07-1.07-.16-1.61-.4l.3-.2-.3-.1.05-.3.56-.05-.55-.53-.25.08.3.1c.07.24-.17.19-.26.41-.68-.14-.74-.45-1.06-.95-.07-.11-.24-.14-.26-.18-.12-.22.09-.51-.42-.73l.2-.35c-1.11.14-.49-1.88.2-.91.1-.16-.1-.43.14-.4.51.07,1.15.35,1.56.65.26.19.69.53.51.85ZM49.38,28.53c-.45-.22-1.14.09-.34.29l-.04.36.23.15-.05-.5c.13-.06.11.43.3.2.06-.08.01-.32-.17-.32l.07-.17Z"/>
            <path class="cls-2" d="M27.36,40.38s.07-.07.1-.1c-.03.03-.07.1-.1.1Z"/>
            <path class="cls-2" d="M27.06,40.59c.29.08.18.12.3.2.01.06.09.08.1.1.02.04.1.09.1.1-.02.11-.18.08-.2.1.02-.11-.09-.09-.1-.1s0-.16-.2-.1c0-.09-.01-.22,0-.3Z"/>
            <path class="cls-2" d="M27.77,39.98c.17.26.19.47.3.74.05.11.28,0,.1.57l-.6-.3c.02-.09-.06-.07-.1-.1-.04-.02-.06-.08-.1-.1-.01-.06,0-.14,0-.2l.2.1c.02-.12-.03-.31,0-.4.01-.04.15-.17.2-.3Z"/>
            <path class="cls-2" d="M27.56,40.28s-.08-.02-.1,0c0,0-.01-.1.05-.1.04.02.07.06.05.1Z"/>
            <path class="cls-2" d="M26.96,39.78v-.1s.07,0,.1,0l-.1.1Z"/>
            <polygon class="cls-2" points="27.36 39.88 27.46 39.88 27.52 40.08 27.36 39.88"/>
            <path class="cls-2" d="M27.06,40.49l.1-.1-.1.1Z"/>
            <path class="cls-2" d="M27.26,40.38s.07,0,.1,0l-.05.1c-.06,0-.04-.06-.05-.1Z"/>
            <path class="cls-2" d="M27.26,40.99s-.01.12.1.1c-.01.02.19.34-.2.3.01-.15-.16-.27-.18-.37-.01-.08.08-.12.08-.13,0,.16.15.08.2.1Z"/>
            <path class="cls-2" d="M27.06,40.59c-.61-.16-.68.2-.1.15-.29.31.19.54,0,.81l.4.05c-.18.09-.68.13-.8,0-.25-.26.42-.13.4-.25-.07-.15-.23-.06-.3-.11-.1-.08-.12-.23-.27-.32-.19-.11-.45-.04-.63-.28-.2-.28.11-.6.08-.93l-.6-.28-.2-1.74.4.1c.17-.28-.09-.51-.09-.65,0-.18.25-.48.21-.74l.69-.12-.2.2.35.2v-.3c.14.16.34.28.43.48.21.43-.15.75.52.84.07.1-.3.82.31.7-.09.26-.3.09-.41-.04-.23-.28-.06.83-.1.94l-.15-.2-.25.2c.32.07.48-.02.7.25,0,.07-.32.14-.4.15.02-.08-.08-.07-.1-.1-.03-.04-.06-.07-.1-.1-.02-.01-.02-.1-.05-.1l-.05.1-.1.3s.16-.1.2-.1c.01,0,.06.09.1.1.02,0,.03.09.06.1.16.01.53-.41.85-.2-.05.09-.06.21-.1.3-.03-.05-.13-.08-.11-.2-.07,0-.14.09-.2.1,0,0-.02-.01-.1,0-.32.05-.77.24-1,0l.1.4.35-.29.45.09c.04.09-.01.21,0,.29h-.1c.11-.34-.48-.1-.4,0l.3.1s0,.07,0,.1Z"/>
            <path class="cls-2" d="M26.96,39.68h-.1s.02-.08,0-.1c.02.02.08-.02.1,0v.1Z"/>
            <path class="cls-2" d="M26.86,39.58s-.12.01-.1-.1h.1s-.02.08,0,.1Z"/>
            <path class="cls-2" d="M30.96,26.33c.14.14.26.88-.08.78l.19.11c-.09.44-.15.83-.39,1.22-.07.12-.38.16-.3.48l-.34-.2c-.21.2-.26.32-.57.2.05.17.05.48,0,.63-.05.13-.32,0-.09.47-.52.14-1.34.96-1.61.1.3.19.16-.07.2-.1.1-.07.16.27.27.3.14.03.48-.1.53-.25l-.3-.15.2.2h-.4c.08-.09.01-.24.03-.28.02-.05.22.05.17-.12l-.7-.1-.1.5c.03-.22-.05-.53,0-.73.03-.12.34-.13.38-.33.03-.13-.13-.37-.08-.54l.3.15-.1.35c.23,0,.22-.33.23-.35.02-.02.23.1.27-.35l-.3.2c-.22-.89.64-.92.87-1.24.22-.29-.09-.59.53-.42v-.35c.26-.09.29-.06.5.1l-.1-.3c.28-.08.52-.17.78.02ZM28.52,29.52v.1c.07-.03.07-.07,0-.1Z"/>
            <path class="cls-2" d="M31.28,46.32l-.2.25.18.06-.08.29.31-.39,1.15.7-.16.5c.69-.16.51.45.77.61.22.14.51-.05.64.13.24.48.12,1.06-.51.97l.1-.2-.24.19c-.73-.07-1.16-.4-1.74-.77-.11-.07-.3-.06-.37-.11-.11-.08-.03-.3-.11-.41s-.38-.09-.55-.37c-.11-.17.01-.33,0-.33-.06-.03-.23.03-.38-.03-.06-.03-.3-.46-.48-.47l.1-.4.2.2c.07-.77.87-.31,1.36-.4ZM31.08,46.92v-.2h-.1v.2h.1ZM29.83,46.82v.1c.07-.03.07-.07,0-.1Z"/>
            <path class="cls-2" d="M40.44,19.37h.2c.05.16-.1.19-.1.2l-.1-.2Z"/>
            <path class="cls-2" d="M45.77,45.61s-.08.01-.1,0c-.01,0,.01-.09,0-.1,0,0,.12-.01.1.1Z"/>
            <path class="cls-2" d="M56.12,31.64h-.2s.08-.16.1-.2l.1.2Z"/>
            <path class="cls-2" d="M45.77,47.32v.2s-.07.01-.1,0c0-.04-.1-.14-.1-.2.07,0,.13,0,.2,0Z"/>
            <path class="cls-2" d="M56.02,31.43l-.29.09c-.28-.36-.05-.92-.61-.9.3.39-.45.12-.55,0-.14-.17-.32-1.03-.46-1.33-.08-.16-.46-.21-.3-.68l.49.09.36-.39.25.3.3-.35c-.64-.48-.7-.14-1.1.09-.16.09-.36-.03-.46-.02-.08.01,0,.29-.15.14l-.2-.45c.2,0,.36.08.3-.2l-.55-.09c-.15-.24-.16-.54-.35-.77-.51-.61-1.3-1.25-1.85-1.87-.23-.26-.38-.79-.86-.91-.06-.11.03-.33.1-.43.18-.27.36,0,.19-.66l-.37.55c.07.61-.49.42-.44-.14h-.29c.44-.4-.07-.66,0-1.05,0-.05.41-.22.3-.47l-.25.3c-.23-.12-.37-.21-.36-.5h-.6c-.15.65.65.35.5,1l-.3-.1-.1.3c.05-.34-.19-.03-.36-.19-.13-.12-.1-.35-.21-.42-.28-.16-1.25-.3-1.58-.59-.12-.1-.04-.28-.06-.31-.03-.03-.47.06-.73-.03-.21-.07-.75-.41-.96-.47-.22-.07-.49-.08-.72-.11v-1.1c-.11.08-.56.01-.59.03-.02.01-.03.13-.09.18-.09.06-.28.06-.32.12-.05.08,0,.44-.26.57l-.76-.08.1-.3c-.32-.1-.25.19-.45.21-.29.03-1.47.05-1.7,0-.08-.02-.06-.19-.14-.2-.1-.02-.9.04-.94,0l.05-.3-.45.2-.05.2c-.22-.21-.53-.2-.78-.31-.12-.05-.02-.33-.48-.09l.21.16-.11.35.18-.07.42.27c-.43.14-.77.06-1.21,0l.2-.3-.3-.3-.3.3-.1-.4c.21.12.9-.3.45-.4-.2.55-.38.07-.65.35l.18.74-.39.11.05-.2h-.15c-.06.12-.17.51-.23.57-.38.35-.41-.18-.61-.16l-.42.4-.75-.41.1.4c-.37-.16-.57.1-.9,0,.27.64-.98,1.11-1.45,1.01l-.06.29h-.7s.2.25.2.25l-.47.24c-.18.02-.09-.3-.43-.19.1.63-.4.63-.8,1.01v-.59s.4-.12.4-.12v-.6s.55.1.55.1l.05-.2-.17.05c.08-.36-.53-.38-.58-.05l-.17-.28-.18.08c-.14-.46-.43-.66.3-.8-.01.12.04.27-.03.38-.03.05-.22-.05-.17.12l.6.2c-.03-.21.01-.28.2-.35l-.5-.5c.26-.34.34.15.7.05l-.2-.4.18.08.07-.18.45.2-.1-.4.3.1-.1-.3.3.1c-.02-.18-.01-.33.2-.3l-.8-.4.2-.1v-.2c-.47-.1-.19-.5-.79-.4l-.11.4-1.2-.5.05-.2c.44.33.63-.34.13-.28-.2.02-.48.28-.57.23-.3-.13-.43-.47-.61-.71l.2-.2-.3.05.2-.2c-.43-.06-.32.1-.2.4-.25-.02-.58.12-.63-.17l-.18.07-.1-.6c.56-.02.97-.26.2-.4v.3s-.7,0-.7,0l.2.15c-.19.54-.34.01-.7-.1l.29-.16-.1-.39c-.06-.06-.56.1-.65.08-.07-.02-.01-.2-.19-.19-.39,0-.61.2-1.06-.09l.2-.15-.35-.35-.1.2c-.16-.07-.08-.46-.35-.4l.2-.2c-.1.02-.38-.07-.4.07-.05.33.09.22-.3.13l.2-.2c-.24,0-.49.15-.73.1-.07-.01-.08-.18-.19-.23-.29-.14-.55-.28-.8-.4-.14-.07-.38-.03-.46-.09-.03-.02-.23-.57-.23-.63,0-.02.38-.15.21-.36-.11-.13-.39.42-.6.3l.1.3c-.27.1-.16-.19-.27-.21-.09-.01-.21.07-.29.06-.32-.06-.41-.24-.65-.4.09-.24.69.04.6-.35-.42.26-.42-.11-.75-.3l-.1.2-.25-.1.1-.24-.2-.26.5.1-.2-.55c.07-.24.85-.27.81.15.29-.24,1.06-.19,1,.3l.3-.2v.6c.14.02.31-.04.44,0,.07.02.13.52.31,0,.18.17.33.22.55.1l-.1.3.3-.1.1.4c.25-.02.05-.66.34-.59.22.05.31.09.16.29h.5s-.07.18-.07.18l.18.08-.1.24.46.09c.07-.31.28.05.25-.29h.1c0,.42.61.05.55.6l.65-.2c.03.28.11.67.46.6.08-.34.63-.25.66.1l-.3.05.21.25.37-.3.63.11c-.16.37-.37.24-.2.7.1-.16.37-.11.39-.12.14-.14-.02-.5.42-.38l-.2.2c.42.04.45.43,1,.2l-.1.4h.4s-.1.3-.1.3l.8-.1c-.13.23-.49.2-.4.6h.7s0-.3,0-.3c.27.22.52-.02.74,0,.06,0,.68.85.97.46l-.25-.15c.4,0,.61.03.9.31l-.04-.21h.35s.05.3.05.3l1.1-.1c.01.53.49.5.91.4l-.1.3c.35-.03.12-.33.6-.1l.05-.5c.23.01.33.41.6,0l.1.2.1-.2.41.39,1.45-.08-.05.3c.19-.35.51-.87.81-.4l.23-.08.06.18.39-.21.56.61h.2s-.2-.35-.2-.35c.5-.11.82.47,1.36.55l.05-.6h.3s-.2.2-.2.2h1.65c0,.2.26.34.26.36,0,.2-.27.29.11.39l-.26.42-.55-.37.18.61c.38.04.96.15,1.03-.3l-.3.05.2-.85.3.3-.05-.3c.6-.12.65.18.72.2.33.08.78,0,1.14.21-.12.24-.01.47-.3.55l.3.06v.29s-.3-.2-.3-.2l-.05.3-.15-.2v.29c.48.26.66-.01,1-.29l.07.28-.17.07c.11.12.08.38.26.45.66.25.1-.63.59-.69l.07.17.18-.07v.3c.18,0,.05-.21.29-.25.22-.04.49.14.72.15l-.3.4.34.11.06-.2h.19s-.03.17.07.2c.12.03.66.11.73.15.06.03.88.67.91.73.11.2.12.47.2.68l-.3-.15c-.13.39-.04.31.1.6.08.04.47-.38.3-.55l.3.05-.3-.2c-.06-.45.39.02.6,0-.08.19-.29.04-.2.4.86-.14.58.12.86.4.11.11.32.11.46.25.19.19.2.61.32.74.1.1.3.04.38.2s.17.9.2.93l.3-.1.1.56-.2.15c.22.06.36-.05.4-.25,0-.04-.17-.03-.18-.1-.02-.07.07-.31-.02-.45.16.01.15.24.29.36.21.17.59.18.6.49,0,.14-.14.28-.05.46.09.16.59.44.76.55l-.2.45c.72-.4.98.76,1.01,1.31l.2-.2c.13.34.34.6.4.97.04.26-.26.49.2.54l-.2.15v.2c.38.07,0,.37.22.63l.48.18c-.21.4.1.48.14.64.08.27.44,1.81.35,1.91-.35-.05-.39.2-.39.51l.2-.3.11.19.19-.09c.04.33-.4.19-.3.55,0,.03.27.26.3.35l.1-.4-.12.78-.63.13.05-.2-.3.1-.32-.59-.39.34.21.2-.21.35h.3s-.07.18-.07.18l.18.07-.31.6c.28.09.24.4.3.65l-.4-.2-.3,1c-.22-.11.05-.41-.4-.3.28-1.27-.26-2.63.2-3.87l-.15.03-.05-.18c.13-.12.7.04.6-.3l-.4.1.2-.1c-.01-.49-.3-.05-.35.2-.04-.24-.27-.17-.32-.23-.1-.1-.33-1.15-.33-1.38.18,0,.03.35.3.2.01,0-.13-.23.05-.3.17.12.36.15.55.2s.19,0,.2,0c.15.03.34.19.5.15-.21-.18-.44-.21-.4-.55-.11,0-.15.12-.2.2ZM22.28,15.45v.1c.07-.03.07-.07,0-.1ZM25,15.85v.1c.07-.03.07-.07,0-.1ZM25.1,16.65v.1c.07-.03.07-.07,0-.1ZM27.76,17.36v-.2s-.2.15-.2.15l.2.05ZM28.17,18.46c.07-.13-.16-.35-.2-.3-.07.13.16.35.2.3ZM37.92,19.27c-.27-.09-.17.15-.21.18s-.35-.2-.49.07l.2.35.2-.3.55.2-.02-.15.28-.05c.03-.13-.28-.21-.34-.21-.09,0,0,.32-.26.21l.1-.3ZM40.44,19.37c-.2.08-.36.07-.3.3l.4-.1c-.02.07-.1.28-.05.3l.55-.1c-.49.09-.17-.22-.3-.5-.17-.07-.24.07-.3.1ZM39.03,19.57l-.05-.2c-.04.22-.43.01-.35.25.11.33.4.46.7.56.06-.34-.23-.2-.25-.22-.09-.05.01-.36-.25-.29l.2-.1ZM42.55,19.67h-.35s.05.3.05.3l-.2.1.5-.4ZM41.94,19.87h-.2s0,.2,0,.2l.2-.2ZM31.69,21.48v-.2h-.1v.2h.1ZM54.36,27.62l-.15.15.05.05c.06-.06.2-.13.1-.2ZM55.67,31.84v.1c.07-.03.07-.07,0-.1ZM56.02,32.04h-.2s0,.2,0,.2l.2-.2Z"/>
            <path class="cls-2" d="M45.77,45.61v-.3s.9-.2.9-.2l-.4-.2c.66-.04,1.38.06,1.3.89l-.39.16c.01.09-.05.24.05.25.36.05.15-.17.35-.2l-.37.88-.6.63c-.13.02-.33-.02-.43-.1-.02-.02-.24-.43-.32-.47-.03-.02-.46,0-.64-.24l-1.15.61c.47-.16.54.37,1,.29l.21-.56.41.06c0,.07-.1.17-.1.2-.07,0-.14-.15-.2-.05l.11.25s.16,0,.19,0c0,.07-.08.14-.1.2-.02.09-.28.33.1.35-.13-.09,0-.2,0-.25.12.05.19-.11.16.15-.01.1.02.18-.11.25l-.45-.2c.03.29-.12.11-.18.13-.03.01-.02.13-.1.16-.22.07-.43-.14-.3.29l.17.12c-.31,0-.54.17-.83,0-.06-.04-.06-.18-.14-.2-.48-.1-.85.17-.85-.66,0-1,1.56-2.04,2.32-2.53.21-.09.22.06.3.16-.17-.08-.06.04,0,.1,0,0-.02.09.05.1l.05-.1ZM46.14,45.94c-.11-.1-.33-.12-.48-.12l.4.2-.1.3c.28.04.35-.21.18-.38ZM45.51,46.52v.1c.07-.03.07-.07,0-.1ZM46.22,47.12v.1c.07-.03.07-.07,0-.1Z"/>
            <path class="cls-2" d="M13.59,40.79c-.27.02-.23,0-.1-.2.07-.01.11,0,.1-.1.05-.06.11-.12.1-.2l.1.05-.2.45Z"/>
            <path class="cls-2" d="M45.67,47.83s-.11,0-.1-.1c.08,0,.1.02.1.1Z"/>
            <path class="cls-2" d="M13.59,40.49s-.08.06-.1.1c-.06.01-.14,0-.2,0l.07-.15-.17.05v-.2c.19-.03.35,0,.4.2Z"/>
            <path class="cls-2" d="M45.77,47.32s.06-.1.14-.11c.04.18.24.19.26.21.01.01-.01.1.04.16.04.05.15.03.16.04.31.46-.5-.05-.6-.1l.1-.05-.1-.15Z"/>
            <path class="cls-2" d="M16.6,42.19l.15-.2.25.2c.05.08-.15.16-.2.2,0,0,0-.07-.1,0-.06-.05-.14-.02-.1-.2Z"/>
            <path class="cls-2" d="M46.17,51.14c-.01.06.02.16,0,.2-.05-.03-.25-.14-.2-.2.06-.01.15.02.2,0Z"/>
            <polygon class="cls-2" points="55.63 38.77 55.92 38.68 55.97 38.88 56.12 38.68 55.82 38.98 55.97 39.28 55.72 38.88 55.52 39.08 55.52 38.58 55.63 38.77"/>
            <path class="cls-2" d="M16.8,42.4s.07.17.15.2c.14-.21.16-.35.45-.3l-.2-.3c.23.12.35.24.6.1v.5s.11-.19.11-.19c.51,0,.4.28.69.39.04.19-.23.05-.29.11-.04.04,0,.29,0,.39.51-.04.31-.8.8-.7l-.2.15.4.05.15.5c.41-.5.68.4,1.01.31l.09-.19.45.1.11.55c.35.17.04-.14.25-.25l.75.35-.2.2.25.25.3-.4c.14.34.59.34.37.69l.69.52-.02-.68c-.15-.12-.55-.13-.66-.24-.1-.1-.06-.3-.12-.4-.07-.12-.25-.12-.29-.24-.05-.16.02-.34-.01-.48-.03-.11-.3,0-.2-.27l.3.1-.21-.45.2-.1-.09-.25.56-.2-.06-.4-.3.5-.1-.5c-.32-.09-.15.26-.29.36-.11.07-.28.05-.4.04v-.9s-.21.1-.21.1v-.6c.34,0,.37.61.6.25-.06-.2-.46-.23-.49-.26-.06-.07.02-.3-.02-.43-.08-.3-.29-.36-.1-.76l-.3.3c-.06-.21.09-.46.07-.64-.04-.24-.5-.56.13-.57v.4c.21,0,.44-.08.4.2l.25-.2-.15.25c.19.34.88-.04,1.21.05v-.35s-.3.05-.3.05l.3-.5-.14.19-.4-.1-.16.21c.04-.33-.35-.22-.48-.32-.22-.18-.02-.16-.54-.49-.27-.17-.46-.65-.08-.75l-.18-.07-.02-.28.4-.16-.25-.35-.15.2v-.3s.5.1.5.1l.1-.35-.3.15v-.54s-.2-.11-.2-.11l.15-.36c.35-.44,1.06.41,1.16.3v-.4s-.15.2-.15.2l-.45-.41.2-.5-.81.15v-.7s.3.05.3.05c-.26-.23-.3-.23-.3-.6l.5.3v-.6s-.4-.1-.4-.1l.51-.17v-1.74c.18.04.41-.21.53-.2.06,0,.67.52.88.56l-.02,1.02c-.36,0-.44.35-.6.46-.12.08-.3.04-.44.16-.04.03-.38.58-.35.6.49.06.44-.28.53-.37.13-.13.56-.09.48-.63l.59.25-.19.76-.16-.21-.34.11.1.3-.6.2.3.1-.3.4h.4c.04.38-.44.49.1.61-.05.29-.31.38-.1.7l-.9.05c.42.1.29.59.43.73.02.02.51.27.57.23l-.1.24c.29.09.12.57.2.86l.2-.1.09,1.45-.39.26.59.21.3,1.05-.49.3c.05.1.31.07.38.02.05-.03-.05-.22.12-.17.11.33-.16.43-.24.61-.04.09-.11.63-.36.49-.07.33.22.17.4.2-.05.08-.35.39-.45.38l-.35-.28-.09.35.49.2v.25c-.1.03-.15-.45-.3-.05-.11.28.51-.04.2.45.32-.37.11-.67.8-.6-.25-.25-.08-.57-.1-.7.04,0,.12.1.19.1.04-.04.1-.45.26-.2.29.44.43,1.19.45,1.71l-.2-.3c-.03.41-.47-.04-.19.54l-.2.07v.19s.3.3.3.3l.44-.31c.18,0,.51.22.62.35.22.25.41.99.59,1.18.16.16.46-.02.36.35-.01.05-.28.01-.2.2.13.25.86.03.8.6,0,.03-.18.47-.2.49-.12.17-.38-.06-.3.27.49-.02.37-.36.41-.4.25-.25,1.39.89,1.68,1.03l.02.88h.3s-.1-.2-.1-.2c.61-.13.94.23,1.41.5l-.15.3c.14-.23.59-.19.35.1l.5.1-.2.6c-.21-.07.13-.6-.3-.5.26.4-.16.52-.29.87l.03.14c.32.1.39.31.73.37.1.02.25.09.23-.07l-.3-.15.2-.15-.39-.11v-.29s.55-.21.55-.21l.05.2.2-.15c.05-.07-.76-.44-.35-.45.26.08.66.51.84.59.87.41,1.91.69,2.71,1.11.38.2.72.21,1.13.31l-.2.4.6.2.1-.3c.06.36-.22.68.15.9.08-.26.2-.22.45-.2.04-.46-.16-.38-.5-.3-.04-.6.29-.61.8-.49v.29s.11-.3.11-.3c.26.26.57-.04.65.3l.61-.3.05.4.1-.4.4.1v.3s-.3-.05-.3-.05l.42.54c.48-.11.76.39,1.08-.18l-.4-.2h.9s-.3-.3-.3-.3l.56-.1.2.1.05.41c.41-.31.54-.27,1-.1l-.2.45c.43.18.44.46.8-.05l.04.19.36-.09.15.3.04-.6h-.29s.1-.41.1-.41h-.3s.1.4.1.4l-.34.09c-.26-.23-.34-.63-.77-.59-.25-.29.74-.82.85-.3.23-.47.21-.24.51-.21.03,0,.1-.34.45-.19l-.1.4c.36,0,.85-.04.81-.5l.2.07.05.23c.32-.22.55-.12.45-.6.51,0,.58.42.9-.2.02.01.07-.01.1,0,.09.04.08,0,.1,0,.04,0,.11.07.15.09l.1-.29.1.2.23-.12-.02-.18h.35c-.08-.29-.58-.06-.8,0,.19-.2.45-.23.66-.4.12.46.53.02.35-.3l.6-.2c.12.25-.19.17-.2.26s.03.65.1.7l.39-.07.02-.33.29-.07.02-.28h.39s0,.29,0,.29l-.3-.1v.2s.4.4.4.4l.2-.2v-.9s.2.2.2.2l.1-.5-.3-.1.26-.5c.62.24.53-.22.81-.62.19-.13.63.33.64.46,0,.03-.35.09-.2.45-.18.04-.06-.17-.1-.2-.17-.14-.24.79-.2.9.16.04.06-.12.13-.17.09-.06.25-.01.27-.03.05-.05-.18-.58.1-.6.01.32.32.49.1.8l.6.15-.25.25-.05-.2h-.2c.1.34-.21.31-.31.45-.14.19.02.41-.45.56l-.25-.1.05-.3-.15.3v-.4s-.7-.1-.7-.1l.1,1.11-.6-.2c.29.27.09.49.2.8-.53.15-.45-.48-.9-.4v.5s-.5-.1-.5-.1l-.09.36-.71.04.35-1,.35.15-.25-.45c-.27.16-.38.47-.75.3l-.2.76-.59.02-.11-.18c.02.23-.05.4-.3.4l.86.08.14-.18.05.28.15-.08c.17.37.01.83-.4.6l-.1.4c-.37.03-.51-.13-.2-.35-.3-.1-.5.21-.2.45l-.45.1-.06-.25-.19-.05v.28c-.26-.05-.59.22-.76.22-.15,0-.26-.18-.3-.19-.13,0-.24.53-.55.39l.1.2-.75-.1c-.12.18-.47.43-.76.25l.4-.75-.6-.1v.4s-.2-.2-.2-.2l-.09.46.19.14c-.38.21-.36-.18-.7-.2l-.1.25.2.25h-.6c.09-.42-.26-.19-.35-.5l-.3.58c-.29.01-.47-.27-.59-.34-.49-.29-.25.14-.57-.04l.2.3h-.4s.1-.6.1-.6l-.29.11.07.17-.33.33h-.2s-.15-.2-.15-.2v.19s-.4-.09-.4-.09l.1-.2h-1.21c.19-.38-.14-.61-.1-1.01l-.39.35.29.56-.2-.2-.11.19c-.13.12-1.02-.49-.9-.79-.43-.09-.03.4-.1.5-.33.03-.34-.23-.42-.28-.03-.02-.36.09-.49.03-.17-.08.1-.32.12-.33.1-.05.34.26.29-.12l-.4-.3c-.15-.04-.08.14-.17.2-.36.26-.26-.04-.48-.11-.55-.18-1.61.03-2.16-.55-.26-.27-.39-.41-.68-.69-.05-.04,0-.22-.09-.28-.36-.25-.89-.05-1.18-.09-.04,0-.45-.32-.6-.41-.28-.18-.55-.54-.64-.61-.12-.09-.54-.1-.62-.22-.04-.06,0-.21-.04-.25-.05-.05-.46-.06-.59-.12l.1-.2h-.4c.06-.35.79,0,.8-.25l-.2-.45-.1.3c-.42-.15-.4-.36-.9-.2-.06-.17.53-.04.3-.3-.26-.29-.49-.03-.66,0-.44.07-.66-.22-1.05-.3l.1-.3-.24.09c-.16-.38-.61-.14-.36-.58-.41.03-.45-.31-.7-.3l.1.2h-.3s-.2-.2-.2-.2l.2-.14c-.06-.13-.14-.31-.15-.45,0-.16.28-.29,0-.41-.19-.08-.08.27-.25.45-.05.06-.38.28-.41.25l-.1-.6c-.28-.02.18.51-.15.4-.58-.2-.76-.76-1.34-.72l-.12-.49-.3.1-.31-.7c-.42.26-.66.05-1.1,0-.12-.33.31-.38.39-.58.1-.25.15-.58.01-.82.41-.09.1.66.2.8l.18-.07.32.17-.04-.61-.36-.09.05-.18.15.03v-.45s-.25,0-.25,0l.05-.2c-.36-.23-.39,1.06-.6,1.16l.2.15c-.58-.17-.27.37-.7.4l-.05-.3c-.45.26-.42-.15-.57-.27-.04-.03-.79-.14-1.03-.34-.25-.22-.1-.5-.75-.5l.09-.6.3-.05-1.01-.19-.1-.46h-.3s-.05.51-.05.51c-.12.3-.88-.45-.92-.51-.1-.18.06-.33.06-.5l-.3.1.1-.19c-.11-.02-.21-.05-.3-.11,0-.03,0-.07,0-.1.21-.29.36.03.4-.5.11-.05.28-.04.39-.11l.06-.39c.18.43.29.23.58.3.09.02.08.18.2.23.64.25,1.05,0,1.18.67,0,.01-.13.1,0,.1v.1h-.5s-.11.25-.11.25l.2.15c-.18,0-.44.03-.4.3.3-.37.73-.08.98-.17.17-.06.11-.23.12-.23.02.02.08-.02.1,0ZM22.34,31.84h-.2s0,.3,0,.3h.1s.1-.3.1-.3ZM23.23,41.18c0-.19.18-.63-.09-.7l-.15.6-.35-.2-.06.7.26.1v-.49s.4-.02.4-.02ZM14.69,41.09c-.3-.1-.11.15-.15.16-.13.03-.14-.12-.25.24l.4-.4ZM16.05,41.89v.1c.07-.03.07-.07,0-.1ZM24.14,43.2v-.2h-.1v.2h.1ZM23.89,43.1v.1c.07-.03.07-.07,0-.1ZM25.2,48.73v.1c.07-.03.07-.07,0-.1ZM28.17,49.23c-.83-.14-.48-.03-.72.28-.02.02-.15-.05-.18-.03-.23.18-.08.48.2.45l.09-.36.61-.04v-.3ZM29.37,50.44c.16-.48-.69-1.13-.9-.65-.11.23.64.14.7.4.1.18-.24.13-.25.13-.1-.06.02-.21-.15-.18l-.1.5c.27.1.16-.18.26-.2.08-.02.3.08.44,0ZM50.44,49.74v.1c.07-.03.07-.07,0-.1ZM30.18,50.04l-.3-.1c-.03.15.04.21.15.3l.15-.2ZM50.49,49.94h-.2v.1h.2v-.1ZM32.09,51.55l-.29.17.08.29-.19.14.4-.05-.2-.3.2-.25ZM32.99,51.85c.16.23.18.49.31.73.07.12.23.03.19.18-.17.07-.68-.02-.6.3l.4-.1.1.3.02-.39.24-.12.05.2h.2c-.02-.24.2-.27.4-.3l-.27-.41-.29.1-.09-.18-.45.09c.19-.22.3-.17.3-.5l-.25.2-.55-.4c.05.15.2.16.3.3l-.3.05.15.15h.15s0-.2,0-.2ZM32.19,51.75v.2s.4,0,.4,0v-.2s-.4,0-.4,0ZM31.34,52.55v.1c.07-.03.07-.07,0-.1ZM35.11,52.55c-.32.04-.58,0-.7.35l.2.09-.2.46c.27.04.25-.01.36-.2l.24.1c-.03-.23.01-.27.2-.35l-.5-.25.4-.2ZM37.13,53.63c-.06-.03.05-.22-.12-.18-.24.21-.1.46-.12.49-.03.05-.49.21-.39.52l.2-.2.11.19.39-.09-.2-.2c.37.09.31-.27.5-.5-.12,0-.27.04-.38-.03ZM45.26,53.46h-.2v.1h.2v-.1ZM40.44,54.06l.2-.15-.15-.15-.05.3ZM38.63,54.06h-.5s.09.19.09.19l-.18.11c.18.01.54-.11.6-.3Z"/>
            <path class="cls-2" d="M52.2,46.62v.3s-.3,0-.3,0c-.03-.18.11-.33.3-.3Z"/>
            <path class="cls-2" d="M46.47,51.04c-.05.05-.09.22-.1.3h-.1l-.1-.2c.12-.04.16-.06.3-.1Z"/>
            <path class="cls-2" d="M13.89,40.89c-.09.03-.21.07-.3.1.01-.06,0-.14,0-.2.07.07.25.06.3.1Z"/>
            <polygon class="cls-2" points="25.55 28.02 25.55 28.22 25.25 28.22 25.25 28.02 25.55 28.02"/>
            <path class="cls-2" d="M13.08,41.89c-.13-.01-.27.01-.4,0l.3-.3-.5.2.3-.4c-.36-.14-.6-.4-.5-.81l-.36.08-.15-.28-.11.19c-.51-.16.05.19.12.4l.29-.09-.36.41-1.26-.67c.06-.27.12-.4.41-.34l-.1-.19c.36.01.5-.35.85-.41.25-.04.1.1.05.2.4,0,.31-.37.8-.1-.01.18-.26.07-.41.24-.09.1-.11.33-.19.46l.3-.05-.1-.25h.4s-.2-.2-.2-.2l.39.08.02-.17h.14c.26.13.18.52.28.67.03.05.17.02.17.03.02.02.19.48.2.5.06.21.01.32,0,.5l-.5-.2c-.04.18.15.06.19.11.02.03-.13.26-.09.39Z"/>
            <polygon class="cls-2" points="43.25 20.17 43.3 20.57 43.05 20.32 43.25 20.17"/>
            <path class="cls-2" d="M13.99,41.09c-.01-.12.01-.13-.1-.2.13-.04.25-.11.4-.05-.09.1-.18.2-.3.25Z"/>
            <polygon class="cls-2" points="45.87 51.35 45.87 51.55 45.57 51.45 45.56 51.35 45.87 51.35"/>
            <path class="cls-2" d="M29.93,29.02c.07.03.07.07,0,.1v-.1Z"/>
            <path class="cls-2" d="M23.84,42.3c-.07,0-.14.01-.2,0,.02-.03-.01-.14,0-.2.04-.04.19.12.2.2Z"/>
            <path class="cls-2" d="M16.4,41.89l.3-.1-.1.4-.2-.1.1-.05s-.1-.04-.1-.05c0-.03,0-.07,0-.1Z"/>
            <path class="cls-2" d="M48.83,49.94c.07.03.07.07,0,.1v-.1Z"/>
            <path class="cls-2" d="M13.59,41.79c0,.2.03.38-.15.5l-.25-.1c.2-.21-.08-.24-.1-.3.12.01.26,0,.35.1-.03-.15.03-.21.05-.3-.02.11.07.08.1.1Z"/>
            <g>
              <path class="cls-2" d="M34.6,32.04s-.14.08-.1.2c-.04-.04-.29-.28-.3-.3.11-.04.27,0,.4-.1.01.06-.02.16,0,.2Z"/>
              <path class="cls-2" d="M30.88,33.14c-.01-.06-.14-.15-.1-.25l.3.05c.03-.17-.24-.09-.27-.24-.03-.14.02-.71.22-.77l.66-.09v.3s-.2-.1-.2-.1l-.2.6c.2-.03,0-.31.3-.1-.03-.29.25-.58.54-.5.04.01.19.51.47,0-.12-.03-.21.18-.25,0-.03-.14-.1-.6-.02-.69.05-.06.25.05.17-.22l-.2-.1c.3-.06.59-.2.9-.25.11-.02.2.12.25.11.13-.01.32-.27.54-.14.03.02.05.15.13.22.17.14.39-.06.29.46l1.01-.1-.1.3.25-.07.14.13c-.13.38.03.68.1,1.05.17-.03.02-.23.2-.2l.11.34-.21.16.3-.3.1.25-.5.15c-.02-.13.02-.29,0-.4-.12.02-.27-.02-.4,0l.09.28-.39.32c.32-.05.16.23.2.43.02.08.32.08.2.37-.22-.23-.67-.34-.6-.7l-.3.4.1-.8c-.41.18-.55-.19-.89-.32l.09-.18s-.92.28-1.15.27c-.24-.01-.23-.23-.34-.27-.21-.07-.5,0-.73-.21-.05.6-.15.98-.81.8.01.06,0,.14,0,.2h-.3s-.1-.35-.1-.35c.13,0,.24.11.4.15ZM34.2,31.94c-.1.03-.19.12-.3.1l.5.3-.25.2.4.21.15-.21.05.2.25-.3c-.33.06-.35-.07-.5-.2h.2s-.08-.15-.1-.2c.04-.07.23-.37.2-.4l-.45.2-.1-.2c-.18.14-.15.13-.05.3Z"/>
              <path class="cls-2" d="M33.8,35.86c.24-.06.79.03.6-.4l.36.09.24-.19-.1.3c.39-.1.63.26.5.73-.01.04-.51.56-.6.32l.3-.35-.4-.1v.7s-.86.1-.86.1l-.15-.2-.15.4-.25-.1c.16-.39.07-.33-.15-.6l-.25.1.16.29-.11.21c-.08-.38-.8,0-1.05-.15-.09-.06-.14-.27-.25-.36-.09-.08-.28-.03-.45-.14-.85-.56-1.2-1.79-1.11-2.77l.26.61.5-.1-.06-.4h1.31c-.24.37.26.95.21,1.24-.02.13-.6.57-.81.27l.2.4-.4.1c.15.08.55-.02.64,0,.08.02.07.2.11.2.15-.01,1.51-.94,1.56-.55l-.25.35.3-.2c.08.03.11.16.15.2-.16.04-.34.04-.5.1l.4.05v.45s.15-.4.15-.4l.55.05c-.21-.24-.38-.07-.6-.25ZM33.19,35.76v-.2h-.1v.2h.1ZM32.64,36.56v.1c.07-.03.07-.07,0-.1ZM32.79,36.77h-.3v.1h.3v-.1Z"/>
              <path class="cls-2" d="M35.41,35.36c-.51-.21-.89.23-1.08-.35l.38-.4c.48-.07.76.29.7.76Z"/>
              <path class="cls-2" d="M36.41,34.25c-.18.37-.16.83-.38,1.18-.07.1,0,.18-.23.13l-.1-.4h.3s0-.61,0-.61l.2.1.2-.4Z"/>
              <path class="cls-2" d="M36.16,33.85c.07.03.07.07,0,.1v-.1Z"/>
            </g>
            <path class="cls-2" d="M13.59,41.69s-.09-.02-.1,0c0-.03,0-.07,0-.1l.1.1Z"/>
            <path class="cls-2" d="M13.23,41.69c.07.03.07.07,0,.1v-.1Z"/>
            <path class="cls-2" d="M13.99,41.09s0,.07,0,.1c-.08.04-.23-.06-.2.2l-.2-.15c.09-.19.31-.11.4-.15Z"/>
            <path class="cls-2" d="M13.49,41.09c-.01-.1.05-.08.1-.1-.01.07,0,.11-.1.1Z"/>
            <g>
              <path class="cls-2" d="M39.33,41.89v.1s-.21.06-.2-.1h.2Z"/>
              <path class="cls-2" d="M39.33,41.99c.26.15.44.42.7.57.03.36-.34.74-.3.13-.27-.02-.47.29-.39.54.09.28.81.24.78.72-.01.17-.74.12-.79.45.39-.11.49.16.8.25l-.8.91c-.44-.09-1.29.52-1.46.05h-.25s.1.24.1.24c-.2.18-.29.34-.6.26l.15-.2-.45.05.2.15h-.39s-.12-.44-.12-.44l.31-.22-.2-.15-.1.2-.25-.5-.15.3.2.1-.75-.1-.05.23c-.08.24-.47-.21-.4-.33h.3c-1.02-.23-1.25-1.44-1.06-2.31l.25.1-.2.2.2.05-.2.25.6-.2.1.6.1-.2h.3s-.1.3-.1.3h.7s-.39-.21-.39-.21l-.21-.9c.24-.02.51.04.74,0,.02,0,.14-.28.32-.18.09.05-.02.26.25.18-.17-.37,0-.42.2-.7l-.4-.2c-.01.41-.11.65-.5.81-.03-.71-.23-.09-.25-.1-.08-.03-.22-.21-.1-.3l.56-.2h-.4c.06-.23-.06-.38.2-.45l-.1-.25-.1.2-.2-.2c.1.02.2-.08.28-.08.39-.03.22.32.47.29.46-.24.62-.52,1.16-.21l-.1-.4c.27.14.58.02.85.09.19.05.15.19.22.21.22.05.5-.03.73,0l-.2.3.4-.2-.1.3.4.05-.2.15.3-.1v.4c-.26-.02-.32-.28-.6-.4-.22-.09-.19,0-.2,0-.14-.03-.26-.12-.45-.11-.18.01-.12.15-.23.21-.07.04-.25-.03-.31.02-.12.09.02.6-.03.67-.03.05-.35.12-.29.22.33.18.47.41.9.4v-.4s-.15.2-.15.2l-.45-.3h.5s0-.4,0-.4l.5.2c-.01-.29-.08-.45.2-.6ZM36.31,41.89h-.2v.1h.2v-.1ZM37.33,43.68c-.05-.03-.07-.22-.17-.28-.09.35-.45.16-.75.2l.1.6c-.23.04-.51-.21-.6.1l.39.13.07.18c.07-.4.54,0,.89-.03.22-.02.49-.23.77-.17-.02-.36-.06-.6-.41-.75-.11-.05-.25.04-.28.02ZM37.27,45.01v.1c.07-.03.07-.07,0-.1Z"/>
              <path class="cls-2" d="M35.31,42.7l-.15.3-.15-.15c.09-.11.15-.18.3-.15Z"/>
              <path class="cls-2" d="M35.76,41.79c.07.03.07.07,0,.1v-.1Z"/>
            </g>
          </g>
        </g>
      </g>
      <path class="cls-1" d="M31.56.06l-.08.19.16.08-.31.51h.31s0-.31,0-.31h.23s-.16-.28-.16-.28l.16-.19.08.31h.39s0-.3,0-.3c.21-.17.32.03.43.04.16.02.36-.19.34.1h.15s.05-.16.05-.16c.38-.04.34.29.36.31.07.07.36-.11.42.33h.2s-.08-.32-.08-.32c.18.09.24-.03.35-.16v.39s.08-.15.08-.15c.06.02.12.09.18.05.07-.03.03-.3.45.02l.16-.16.35.08c.02.13-.21.09-.24.2-.06.21.47.34.63.35l.04-.31.9.51-.31.04c.16.57.33.06.41.01.03-.02.27.08.38-.09.08.28-.14.21-.23.39l.35-.07.12.23c.21-.22.26-.07.46-.04s.29-.16.21.12l.28.08c.07.27-.41.02-.12.31.22-.16.43,0,.67,0,0-.15-.06-.28.16-.24l-.08.43c.22.22.37-.18.31.35.15.02.02-.15.13-.24.24-.21.61.06.58-.23l.3.2v.34c.25.08.14-.24.36-.24l.12.24.16-.31-.08.31c.21-.01.3-.05.35.16l.08-.16.27.16v-.31c.2.27.28.27.63.24l.04-.31.35.16-.28.23.08.15c.13-.08.33-.03.45-.08.13-.05.1-.32.38-.23l-.16.16.16.2-.23-.04.08.2c.16.14.3-.13.42-.11.08.01.35.26.49.3l.12-.2-.16-.08.19-.11.2.19c-.14.19-.15.22-.16.46.39.05.12.17.16.2.14.13.12-.21.35-.16s.11.29.35.24v-.47c-.2-.08-.13.14-.21.16-.09.02-.28-.08-.42,0l.16-.78c.16.02.16.39.25.45.08.05.26,0,.34.1.11-.31-.48-.17-.35-.55h.51s-.04.31-.04.31l.55.08.08-.23v.39s.31-.24.31-.24l-.08.31.78-.07.08.51c-.24.07-.08.08-.07.27l.12-.16.08.16c.34-.03.26-.48.66-.48.03.35-.22.45-.16.79-.04.05-.39-.12-.31.16l.43-.16.08.16.35-.08-.08.16.39-.16v.31s.79,0,.79,0l-.16.47.47-.39c.08.22-.2.16-.23.28-.05.17.21.38.23.35l.08-.39.24.27c-.11.08-.2-.02-.16.2.33-.05.29.4.63.24l-.08.31c.35-.07.22.31.47.32l-.31.31h.63c-.21.41.16.38.23.49.03.04-.07.16-.03.22.07.12.39.08.2.39h.3c.03.07.02.18.06.23.22.24.39.43.55.59.18.17.47.53.23.76-.07.07-.64.03-.59.31.36-.07.91-.42,1.26-.2-.12.13-.41,0-.53.13-.13.14.02.46-.33.38-.06.05.25.28.31.11,0-.33.14-.36.43-.43l.12.16c.02-.28.29-.34.39-.08l-.16.08c.29.01.08.56.55.47l.04-.24.12.31.12-.23.04.31h.31s-.08.39-.08.39h.71s-.16.24-.16.24c.66-.06,1.08.47,1.54.77.75.48,2.22,1.23,2.58,2.06.06.13.03.25.05.38h.23s-.24.63-.24.63l.27-.39c.31.26-.12.18-.04.47l.39-.08c-.12.49.37.37.16.86h.24c-.09.15-.19.23-.16.43.04.27.61.18-.11.49l-.27-.22.08.47c.12.03.04-.1.14-.15.11-.06.48-.2.57-.13l.15.83-.16-.04c-.11.38.29.38.24.75l-.16-.31c-.48.09-.05.27-.02.34.03.06-.04.27.02.37l.23-.08-.08.39.31-.08-.23.47c.15-.03.31.82.32.98.04.52.03.12.14.41.13.34-.11.86.25,1.01l-.16.31.16.04c.1.19-.16.14-.16.2,0,.12.12.16.13.24,0,.04-.16.27-.05.43l.23-.16-.47.63.79-.55c-.17.15-.42.6-.23.78.04.03.23-.16.31.04l-.16.35c.24-.06.27.18.47.27-.16.25-.36.16-.59.04-.2.12.02.34-.04.55l.08-.35c.24-.18.41.21.32.43.16-.07.27-.14.39.04l-.23.04c-.03.22.17.27.3.14s-.11-.35.17-.3l.08.47-.29-.02-.1.18h.35s.04.55.04.55h.39s-.08-.19-.08-.19l.16-.04.09.27c-.11.09-.21,0-.16.2l.31.08h-.55s0,.24,0,.24l.31-.08-.16.39c.08.06.69-.05.63.24h-.39c-.02.13.2.08.22.19.02.09-.15.34.02.52-.3.07-.11-.43-.31-.47l.08.39-.35.07-.05.24.31-.08-.04.16h.16c.02-.18.35-.32.36-.37.03-.14-.13-.38,0-.57.39.2.12.58.16.94l.31-.08c0,.11-.07.2-.05.32.04.18.2.09.2.23-.37.1-.2-.35-.51-.39l.04.12-.23.04v.24s.31.04.31.04l-.24.08c-.08.18.36.49.39.31.04-.21-.23-.02-.16-.27l.2.08-.05.43.16.08-.07.28.47.12c-.15.21-.42.14-.47.43l.31-.04-.39.43.43-.23.11.19c-.23.31.19.27.08.44,0,.01-.18-.11-.23.04l.16.23c-.24.17-.28.38-.23.66h.23c-.08.18-.01.33-.02.5,0,.05-.09.11-.09.18-.01.1.07.23.03.38-.09.33-.44.11-.46.14-.02.02.03.16-.02.22s-.23.02-.3.14l.16.19-.31.12.31.12c-.07.53-.73.88-.24,1.33l-.47.08.08.39-.31-.08.31.2c-.16.35-.56.32-.62.72l.23.11-.16.23h.16s0,.16,0,.16c-.36-.06-.3.34-.55.47-.04-.16.12-.53-.16-.47-.11.37-.04.73.35.78.1.45-.17.32-.32.47-.03.03-.01.31-.04.41-.02.05-.22.15-.15.45l.23.04c-.24.28-.16.75-.25,1.01-.02.05-.54.36-.07.2v.39c-.22-.04-.39-.09-.55.12l.39-.04-.16.39.24-.04c.37.4-.23.41-.16.75l.16-.08c.22.32-.16.49-.16.52-.02.16.16.34.17.54,0,.14-.26.1-.16.35l.23-.16c-.1.22-.21.4-.08.63-.1.08-.59-.19-.63.04-.02.08.24.51.39.35.05.08-.19.5-.16.66,0,.05.13.05.14.07.16.44-.19.54-.06.92l-.31-.08.05.24-.28.08.39.08c-.03.44-.5.26-.47.71l-.23-.05c-.15.22-.09.36-.4.4v.27s.32.04.32.04c.07.28-.38.5-.39.55-.02.08.25.32.16.51l-.31-.16c.02.25-.32.4-.37.49-.04.07,0,.19-.05.27-.07.1-.34.47-.41.5l-.08-.16-.35.12.31.2h-.31s.16.08.16.08l-.12.16-.27-.16.08.39h-.41s-.15.38-.15.38h-.38s.08.32.08.32h-.63s.16.31.16.31l-.27-.16-.12.19.16.08-.12.12-.35-.16.08.31h-.47s.24-.31.24-.31l-.52.25c-.23.2.16.5.13.53l-.31-.16-.12.39-.2-.24c.12.39-.16.4-.22.48-.02.03.12.22-.06.3-.11-.2-.28-.14-.12-.39l-.24.12c-.17.13.08.25.05.36s-.21.24-.2.39l-.19-.23-.2.28c.23.06.16.21.16.43l-.39-.16.16.12-.43.67-.35-.27.29-.23-.22-.2.04.23c-.24-.17-.62.6-.32.47.08-.03.12-.21.28-.16.04.03-.2.22-.23.28-.12.2.28-.05.16.15s-.42.37-.49.65l-.3.02.16.2c-.16.2-.32.19-.55.12l.08.16-.46.09v.31s-.16-.08-.16-.08v.24c.05.06.48-.13.39.16l-.36.07-.03.32-.23-.08v.31s-.24,0-.24,0l-.04-.31-.07.39-.52.23.04.16.2-.16.15.12c-.31.2-.41.36-.39.75l-.23-.08c.12.41-.36.31-.32.71-.3.08-.09-.4-.16-.47l-.2.07-.15-.07.12.31-.28.16.05.23c-.21.1-.12-.28-.31-.16-.01,0,.1.18-.04.31-.1.1-.27.08-.35.2l.31-.04.07.22c-.26.15-.66.39-.78.64l-.15-.04-.04-.51c-.23.12,0,.4-.05.46-.03.03-.14.03-.18.09s.03.18-.09.24l-.27-.16v.24c-.33-.15-.45.31-.82.32l-.09-.17-.27.09.16-.39-.23.08c-.07-.32.1-.29.23-.47l-.36.07s0-.23-.31-.15c-.21.06.05.58.19.47v-.39c.21.24.14.83.39.86-.05.18-.24.16-.39.16l.16-.35c-.2-.12-.27.32-.55.12v.24s-.55-.08-.55-.08l.39.23-.42.08-.09-.17c-.25.2-.51,0-.82,0l.08.31c-.27.05-.06-.24-.31-.08l.04-.39-.28.39s-.34-.18-.49-.16c-.08,0-.23.5-.68-.15.15.27-.07.61-.2.24-.16.08-.8.36-.96.37-.23.02-.46-.12-.73.02l-.08-.24-.04.22-.39.09-.2-.24c-.04.22-.05.38-.28.47l.04-.23h-.24s-.04.31-.04.31l-.39-.15-.14.22-.38-.03.16.04c.02.46-.6.07-.71.16l.08.31c-.28-.2-.38.06-.55.12-.11.04-.23-.04-.31,0-.1.05-.23.48-.47.32-.17-.11-.11-.52-.47-.08l.16.08-.12.27-.08-.16h-.12c.09.32-.81.41-.86.38-.04-.02-.04-.27-.2-.23-.19.09-.01.27-.04.31-.01.02-.28-.02-.39.08l-.08-.15-.08.39-.16-.04.16-.35-.42.02-.11.11.06.19h-.24s.16.23.16.23l-.78-.23.08.39-.2-.07c-.08.24-.56.02-.82.15l.31-.16c-.1-.51-.35-.04-.62,0l-.16-.55.23-.08h-.31c.08.32-.25.31-.16.63l-.16-.06v-.17s-.66-.09-.66-.09l-.13.31-.54-.07v-.23s.31,0,.31,0v-.39s-.2.16-.2.16l-.04-.1-.31-.06c-.01.13.17.09.23.2.14.24-.57.11-.66.05-.1-.07.03-.27-.12-.24l-.2.39c-.13-.12-.37-.1-.49-.18-.2-.14-.03-.72-.38-.14-.22-.08-.22-.2-.31-.36-.02-.03-.1-.03-.1-.04-.02-.04.18-.43-.18-.18-.06.04-.05.19-.11.19-.21,0-.72-.35-.75-.62-.43.43-.52-.2-.94,0l.08-.23-.39.08.16-.23c-.31.11-.48,0-.75-.16l-.11.16v-.31s-.67-.24-.67-.24l.12.31h-.55s.24-.16.24-.16l-.13-.24-.46.24c-.07.02-.01-.12-.07-.14-.07-.03-.67-.05-.87-.09-.16-.03-.26-.24-.69-.16-.04,0-.34.51-.37-.23-.26.12-.28.33-.63.23,0-.14.2-.06.32-.19.03-.03.14-.29.15-.32s-.1-.03-.12-.07c-.15-.25-.11-.29-.48-.36l-.19.62h.39s.04-.39.04-.39l.12.47h-.39s0,.24,0,.24c-.3-.08-.25-.19-.24-.47-.14,0-.09.19-.23.27-.26.15-.49-.29-.79-.27l.16.39c-.17.05-.21-.15-.31-.19-.15-.05-.52-.05-.71-.13.08-.31.34.04.39,0l.16-.55-.2-.08-.16.39-.31-.39c-.18.07.03.54-.04.71h-.39c.21-.2.02-.39.16-.63-.33-.06-.52.07-.78.23l-.08-.24-.04.31c-.24-.19.02-.46-.04-.71-.26.09-.63,0-.74.31l-.2-.12.31-.27c-.41.05-.81.04-1.18-.16l.16-.12-.08-.51c-.3-.05-.06.14-.11.24-.06.1-.18.08-.28.08l.08-.39-.17.2-.15.04-.05-.24-.5-.08.07-.73.24-.2-.39-.08.08.31h-.46s-.01-.47-.01-.47l-.2.16-.04-.31c-.35-.08-.21.2-.39.31l.08-.55-.31-.16.24-.08h-.39s.24-.08.24-.08l-.31-.08.16-.31-.39.08c.02-.13-.03-.3,0-.42.02-.06.26-.04.16-.21-.01-.02-.27-.19-.31-.16v.15c-.39-.11-.18-.62-.54-.56v-.31s-.32.08-.32.08l.08-.34c-.3-.09-.04-.21-.12-.36-.09-.17-.52-.24-.51-.47l-.23.16c.13-.29-.2-.65-.55-.47l.07-.2c-.27-.14-.13-.72-.54-.35,0-.29-.35-.02-.17-.35l-.39-.15c-.2-.26.15-.58-.23-.72l.08-.27c-.23.12-.38.17-.31.47h-.08c-.1-.31-.59-.03-.31-.66l-.24-.17.16-.27c-.35-.11-.57-.15-.94-.08l.08-.47h-.5s-.09-.16-.09-.16l-.2.16.08-.39c-.46.17-.36-.16-.71-.16l.24-.23c-.28.1-.29-.12-.37-.15-.07-.03-.2.01-.27-.02-.17-.08-.26-.29-.53-.22.19-.26.18-.33.16-.63l-.55.12-.08-.6s-.22.24-.31.16c-.13-.11.15-.18.18-.25.04-.09.06-.2.05-.3l-.27.16-.12-.16.16-.16c-.2.04-.39.17-.55-.04.33-.12.23-.37.23-.67-.28.1-.14.35-.2.55l-.31-.59-.2-.12c.12-.28.44.26.63.12-.41-.16-.37-.44-.52-.67-.11-.17-.3.04-.07-.47l-.28-.16.16.23h-.28s-.04-1.1-.04-1.1l-.23.16c-.15-.48.08-.38.14-.48.01-.02,0-.4,0-.42-.02-.09-.38-.21-.3-.44l.47-.16-.39-.07-.08.15c-.07-.29.22-.2.22-.51,0-.4-.53-.46.01-.83l-.23-.08.31-.24-.39-.04.23-.08-.16-.16.23-.12-.23-.08v-.31s-.24.16-.24.16c-.05-.06.2-.35.15-.5,0-.03-.21-.12-.15-.37l.31.08.06-.2-.3-.2c.09-.14.24-.07.15-.35-.03-.08-.61-.12-.08-.4l-.31-.32v-1.29s-.23.08-.23.08l.12-.32h.16s.04-.15.04-.15c-.45-.04-.3-.23-.39-.44-.07-.16-.24-.19-.29-.34-.08-.28.04-.69.05-.98l-.24-.04c.12-.3-.13-.56,0-.94l-.19.24-.2.47c-.03-.2.1-.39.09-.59-.01-.24-.2-.29-.21-.39-.01-.07.08-.22.05-.27-.03-.04-.27,0-.34-.18l.03-.61-.23.08v-.71s-.24.08-.24.08c-.12-.28.3-.27.23-.43-.25-.3-.21.04-.39.12l.07-.36c.15-.1.46.18.39-.07-.07-.29-.32-.17-.45-.29-.16-.14.15-.59-.17-.37l.39-.16-.08-.31-.08.24c-.38,0-.12-.47-.24-.71l.39.08-.32-.51c.15-.23.23-.17.24-.51h-.18c-.22-.17.24-.15.33-.38.12-.3-.11-.54.17-.45l.09-.18.14.07-.16-.2.24-.04-.31-.27.31-.04c.08-.21-.15-.13-.16-.21-.04-.22.14-.54,0-.81l.62-.24-.31-.08v-.39c.26.18.41.63.79.55.05-.2-.41-.29-.46-.41-.03-.09.08-.2.06-.3l-.23.08v-.16c.29,0,.24-.39.55-.32l-.31-.23h.47s-.31-.24-.31-.24c.24.02.19-.25.29-.32.11-.07.63-.06.18-.27l.24-.04-.16-.55.31.08c.09-.2-.24-.33-.24-.35.01-.16.27-.26.08-.51l.31.31v-.63s.24.08.24.08c-.07-.1-.1-.89-.07-.93.04-.06.39-.1.31-.41l.31.16c-.11-.17.02-.34,0-.5,0-.06-.24-.02-.16-.25.1-.3.28.19.39.2-.13-.51-.39-1.03,0-1.49l-.31-.08.39-.16-.07-.23h.31c.05-.31-.19.03-.31-.2l.16-.08-.24-.51c.31,0-.01.35.47.23-.14-.18-.21-.25-.08-.47-.25-.07-.07.2-.27.16-.08-.02-.03-.13-.04-.2l.39-.24c-.3-.21-.35-.57,0-.75l.16.16c.05-.28-.15-.31-.32-.44l.16-.66c.26.13-.17.61.16.71.1-.27.17-.41.08-.7l.31-.08-.18-.08-.05-.16c.38.09.35-.58.47-.81.05-.09.22,0,.15-.21l-.23.08c-.04-.12.2-.97.39-.78.15.15-.23.14-.16.27l.2.27.04-.47.39.23c.02-.18-.22-.33-.22-.35,0-.14.15-.31-.01-.51l.55-.08-.31-.16c.02-.17.25-.11.3-.18.11-.13-.18-.29.33-.14l.04-.24.2.16-.08-.31.16.16.19-.16.04.15h.15s.04-.23.04-.23l.27.16c-.01-.34-.28-.57-.31-.94l.4-.03.07-.28.39.08-.06-.12.18-.12.12.23.16-.47.23.16.08-.2-.16-.19.31.08.08-.47.47.31c-.12-.27.03-.48.2-.7l.27.23v-.31s.3.14.3.14c0-.18.23-.14.29-.22.04-.06-.03-.17,0-.24,0-.02.3-.29.32-.3.23-.13.7-.11.97-.17l-.39-.19c.06-.16.53.07.32-.35.45-.05.26-.29.47-.55h.16s.08.23.08.23l.07-.28c.25.15.86-.36.32-.39l.24-.35-.31.23c-.01-.42.26-.25.38-.33.03-.02.16-.39.25-.48.07-.07.19-.03.22-.07.04-.04,0-.16.03-.2.04-.05.5-.08.61-.1l-.31-.55.31.08-.04-.31c.11-.22.32-.06.36-.08l-.08-.39.16.16.2-.16.2.23c.02-.25-.04-.71.32-.63l-.16-.23.51-.39c.06.39.48-.13.43-.31.16.09.13.31.47.24l-.16.2.23.12c-.01-.35.26-.36.24-.7h-.23c-.02-.2.05-.29-.17-.35l.28-.35.12.2-.16.12h.39c0-.19-.16-.34.04-.47l.08.16c.15-.06.37-.04.35-.24h.08c-.04.28.36.08.55.23.03-.39-.32-.05-.39-.23l.46-.16.08.47c.32-.1.24.16.47.16.08-.31.09-.55,0-.86l-.47.39c.05-.39.39-.68.79-.51.13.09.07.23-.04.28-.03.01-.06-.32-.2-.16-.05.06.04.21.13.23l.42-.07-.08-.47.59-.16c.16,0,.14.2.25.24.05.02.57.07.61.05l.11-.44.16.31c.15.02.04-.19.08-.24.01-.02.32.13.47-.08-.08.33.31.29.55.31l-.47-.16.12-.31c.12.32.39.23.67.16l-.08.23c.23-.05.53.2.63-.08l-.31-.24.31-.08.08.24c.11-.45.7-.37.56.12l.3.04-.23.12.31.12-.16.31.47-.24-.08-.31.31.31c-.08-.18.14-.25.14-.28,0-.04-.08-.11-.05-.18,0-.02.35-.18.3-.33h.15c-.05.2.32.23.43.2.22-.07.24-.32.29-.35.06-.04.55.16.69-.09l-.16.47-.23-.08.16.31.55-.59-.23-.08.24-.24.38.12.17-.38.22.07c.23-.38.88-.57,1.31-.5.14.02.25.24.43.2v-.39c.17.16.26.12.47.08l-.24-.31.51-.24.04.55.31-.16.08.24.24-.31-.24-.08c0-.3.41-.3.63-.23l-.24.27c.14.13.34-.15.32-.31l-.24-.28c.23-.13.36-.13.63-.08ZM37.37,1.94c-.02-.09.06-.2-.08-.12-.27.15-.38-.03-.39.15.18.23.38.17.63.12l-.16.23h.46s0,.31,0,.31l.39-.16-.16-.15.23-.23c-.25-.04-.57-.37-.82-.32-.09.02,0,.2-.12.16ZM28.11,2.41c-.32-.21-.51-.1-.86-.08l.08.31h-.31s-.08.71-.08.71c.39-.02.25-.54.33-.62.02-.03.14,0,.19-.04.06-.05.06-.15.18-.18.2-.05.4.11.48-.11ZM22.69,2.96c-.08-.24-.36-.06-.55-.08l.16.31c-.18-.08-.25.15-.27.15-.1,0-.23-.14-.36-.03l-.07.28.31-.16-.16.39c.21.1.24-.15.28-.16.15-.02.28.08.42.08.02-.45-.46.02-.47-.27.14-.28.45-.1.47-.12.01-.02-.02-.12.01-.16.04-.07.11-.07.12-.09.02-.04-.11-.16.11-.14ZM31.56,4.06l.12-.31c-.35.58-.95.19-1.41.25-1.05.13-2.05.27-3.06.45-.33.06-.76.07-1.09.17-.07.02-.05.1-.05.15l-.27-.16-.16.16-.43-.08-.04-.23-.12.31.31.16h-.86s.08.16.08.16c-.26-.06-.35-.07-.51.16l-.16-.23-.39.37-.51-.13v.39s-.12-.16-.12-.16l-.04.24-.39-.08.08.23-.43-.24c-.11.27-.46.18-.67.4l-.12-.39-.27.31.31.12h-.31s-.2.28-.2.28l-.23-.08-.04.31-.08-.31c-.06.13-.84-.23-.63.08.02.02.24-.05.15.24l-.55-.16.08.47-.55-.31c-.06.18.31.36.31.43,0,.04-.13.17-.19.04l-.19-.16c-.01.22-.2.3-.4.32l.08.23-.47-.23s.09.39-.12.31c-.27-.1.32-.66-.24-.63-.28.18.14.21.12.27-.27.19-.22.3-.16.59l-.31-.08.16.31-.28-.32h-.5c-.09.35.53,0,.47.28l-.17.35-.31-.04-.08.28-.23-.08v.46s-.24.09-.24.09c.03-.23,0-.27-.24-.24l.08-.16h-.24s.08.27.08.27l-.16-.04.08.39-.23-.16-.08.55c-.29.08-.24-.09-.43-.16l.12.39-.39-.16c.05.25-.54.87-.47.32l-.32.03-.07.32-.23-.04.16.23c-.24-.04-.15.28-.25.38-.11.1-.39.06-.53.02-.03.23.04.13.18.16.18.03-.04.38-.1.31l.04-.24c-.27.04-.29.26-.2.47h-.3s-.09.32-.09.32l-.31-.08.16.12-.86,1.06c-.05.05-.14-.31-.31-.16-.17.14.31.16.16.31-.09.09-.49-.12-.52.32h-.34c.35.5-.04.37-.11.46-.03.04-.12.46-.21.59-.21.28-.67.24-.54.76-.11.04-.07-.31-.23-.16-.08.07-.01.36-.02.38-.14.26-.69.26-.59.75.02.1.18.14.14.28h-.31s-.12.37-.12.37l-.51-.13c.06.17.23.24.39.24l-.08.39-.15-.08c.05.25-.09.29-.31.32l.16.23-.31.12.16.12h-.39s0,.47,0,.47l-.16.04.16.19-.19.15-.2-.07v.24s.23-.08.23-.08l-.04.24h-.28s.16.2.16.2c-.6.16-.33,1-.79,1.26.21.29-.13.56-.39.66v.08c.41.04.04.22,0,.3-.1.23-.45.8-.47.85-.06.17.04.33.03.46-.01.1-.32.89-.35.96-.18.35-.08.76-.1.79-.16.2-.28.37-.24.63l-.29.33c.48.11-.1.39-.15.6l.16.22c-.05.58-.38,1.27-.46,1.83-.04.26.11.76-.17,1,.32.09.08.27.02.49-.03.11-.02.23-.02.34l-.23-.08c-.08.3.17.33.23.59-.45.16.12.41-.15.79l.15.07-.07.28-.23-.08v.24s.31.08.31.08c-.28-.03,0,.43-.31.59l.24.23c-.02.07-.36.13-.32.47,0,.07.13.02.21.07.4.26.05.42.02.72-.01.15.05.28.06.41,0,.1-.07.22-.06.29.01.09.2,0,.16.13l-.16.04c.41.12.1.35.16.43l.15-.08c.15.38.03.35-.31.43.06.15.42-.05.47.31l-.16.2c.19-.03.17.19.24.31l-.24.04c.41.18.24.79.4,1.17l-.16.12c.49.07-.01.57.31.83l-.16.08.16.43c-.08.05-.3-.1-.23.16h.3c0,.25.2.54.25.75.06.27-.38-.17-.32.2.37-.03.47.41.53.69.02.11-.07.24-.03.34s.21.11.26.18c.12.18.13.64.18.78.02.06.12.05.15.12.1.3.26.6.16.88l.16-.04c-.17.3-.02.14.09.2.14.07.26.38-.01.31l-.08-.16-.24.2c.25.1.31.34.55.2-.13.23.1.19.14.24.02.03-.1.17-.03.31.06.11.28.13.29.21.03.19-.29.53.15.58l-.16.15.39.08-.24.31h.31c-.06.08.07.67.09.7.03.03.16-.01.2.03.04.03.11.38.41.42.02.24-.26.18-.16.51l.22-.07c.15.28.57.5.41.86.22-.04.33-.1.47.12l-.47.12h.55c0,.25.09.61.39.55l-.08.23.23-.07c.15.17.2.47.29.62.13.22.37.5.52.7.01.02.12-.04.14-.02l.08.08-.08.51.2-.31c.14.06.2.65.51.39-.14.36.07.44.39.55l-.16.39.35-.16.2.55.12-.16.04.31.23-.08.08.28.16-.04-.08.23c.44-.16.71.53.96.76.02.02.45.23.54.32s.19.29.24.41l.23-.07.08.39.16-.16v.31s.39-.16.39-.16v.24s.24-.08.24-.08l-.08.23c.36-.07.39.14.57.26.1.07.33.12.36.15.05.06,0,.19.02.21s.16-.06.23-.03c.37.13.86.73,1.06,1.05l.08-.23.04.31.35-.16c.16.08.08.3.14.38.09.11.54.17.69.1l-.08.31.43.16c.07-.21.15-.17.35-.16l-.24.23.43.24.04-.39.43.47.07-.16.75.31-.16.31c.19,0,.28-.08.35-.23.18.18.55.35.51.63l.31-.31c-.2.25.32.61.25.19l.15-.04v.24c.41-.23.44.12.62.19.41.17,1.37.2,1.61.51l.31-.08.22.39.38-.15-.16.23c.1,0,.18.07.28.08.28.04-.13-.25.15-.23.44.03.39.32.55.39.21.09,0-.33.27-.23l-.04.24.23-.09.04.16c.13.04.03-.15.12-.16.37-.03.56.25.9.24l-.12-.23c.59.12,1.44.49,1.97.31.14.26.77.04,1.09.31l.04-.24c.3.13.49.24.78,0v.24s.39-.16.39-.16l-.08.23c.27-.08.27-.21.55,0l.08-.31c.55.53.46.08.85.04.12-.01.2.09.33.08.34-.02.48-.22.89.04.08-.2.62-.25.91-.2.11.02.21.08.31.12v-.24s.24.16.24.16v-.24c.28-.06.06.15.08.16.19.1.11-.16.27-.17.27-.02.55.14.83.09l-.23-.16.36-.07.03.15.2-.15.16.16.19-.08c.06.07-.13.47.16.39.04-.62.47-.51.94-.47l-.16-.23.31-.08v.24c.38.08.07-.2.39-.31-.02.24.3.04.47.31l-.23-.32.12-.15c.13.18.42.21.62.14.1-.03.11-.18.18-.23.17-.11.34.03.4,0,.03-.02.15-.31.33-.3l.08.39c.04-.22-.02-.67.2-.24l.24-.39c.55.32.33.1.45-.05.04-.05.14-.04.18-.1.12.3.39.26.59.04l-.16-.12c.39.12.36-.13.47-.19.16-.1.46,0,.59-.28l-.04.31c.23-.22.36-.12.63-.11l.51-.67.08.23c.17-.01.28-.17.2-.31l.28.07c.03-.3.45.09.74,0l-.04-.63.23-.15.59.15-.31-.16c-.05-.29.4-.16.55-.16l.08.16c0-.23.11-.36-.08-.55.15-.14.37.09.39.08s.21-.33.16-.39l.15.07.09-.3c.43-.13.04.33.39.31l.08-.55.23.24c0-.13-.02-.27.04-.39.04-.07.43-.41.53-.38.09.02.27.16.29.15l.24-.55h.16s.02.14.02.14l.22-.06-.31-.16.24-.08-.08-.23c.21-.03.2,0,.27.16l.27-.16-.03-.23c.13,0,.33.41.43.31.16-.15-.31-.16-.16-.31.03-.03.21.12.28,0-.04-.34.23-.38.15-.63l.28.16v-.38s.39-.09.39-.09c.03-.13-.29-.02-.12-.24.12-.15.23.07.35.08-.05-.21.35-.81.49-.92.13-.1.44-.01.51-.2.04-.11-.16-.3.09-.55s.6-.5.87-.82c.15-.18.59-.99.64-1.02.06-.04.21,0,.3-.05.05-.03.05-.28.15-.38.42-.39.16-.18.42-.63.11-.19.25-.26.38-.41.08-.1-.04-.32.31-.28l-.08-.23c.07.11.43-.07.46-.09.06-.07-.08-.35.17-.3l-.24-.16c.16-.1.06-.3.08-.31.12-.06.31.11.47-.28.02-.05-.31-.08-.23-.27l.23.08.12-.24.2.16c-.29-.4-.09-.48.16-.78l-.24-.04c.43-.14.19-.44.24-.51.02-.03.24,0,.32-.14.09-.16,0-.36.03-.49.06-.19.3-.43.28-.7l.15.08c.2-.31.1-.64.16-.97,0-.05.11-.05.13-.09.04-.06.02-.17.04-.19.07-.06.37.06.46-.13l-.23-.31.39-.16c-.23-.06-.1-.15-.14-.34l.3-.13s-.41-.1-.32-.55c.02-.08.18,0,.24-.09.12-.21-.03-.63,0-.65l.31-.13c-.19-.47-.12-.55.24-.86.05-.15-.1-.1-.13-.14-.12-.16-.05-.26-.03-.44l.08.31c.4-.13-.04-.75,0-.78l.39.08v-.23c-.18.12-.34,0-.39-.2l.24-.04.08-1.1.16.08c.02-.36.25-.51-.08-.78l.27.08.06-.15.22.06c.08-.21-.14-.13-.16-.21-.02-.11.01-.23,0-.34l-.16.31c-.38-.19.25-.38,0-.78h.39s-.47-.24-.47-.24h.55s-.31-.2-.31-.2l.23-.16-.31-.04.04-.32c.09-.14.69.12.47-.31l-.27.16v-.52s.16-.19.16-.19l-.31.08.08-.27-.16-.08c-.04-.17.09-.07.15-.18s-.04-.29.24-.37l-.12-.2-.12.16c-.06-.21-.31-.44-.04-.61l.28.06c-.36-.34-.49-.71-.44-1.2,0-.09.19-.2.05-.36l.24-.04-.31-.16.23-.04v-.12s-.16-.08-.16-.08l.08-.26-.23-.13.23-.04-.23-.08.23-.08-.24-.2.16-.31-.24-.16c.22-.11.31-.26.31-.51l-.31.31.06-.22-.14-.04.15-.51-.28-.08-.03-.43.24.04v-.31s-.23.08-.23.08c-.15-.38-.03-.36.31-.43l-.47-.2.16-.12-.39-.31.31.04v-.31s-.31-.09-.31-.09c.1-.2-.06-.28-.08-.43,0-.03.32-.41.24-.58-.12.08-.32.32-.47.16-.13-.14.16-.17.16-.2,0-.02-.08-.33-.1-.34-.08-.06-.27,0-.3-.17l.31-.16h-.39s-.16-.71-.16-.71l.24-.04-.47-.47.31.04-.08-.39-.24-.04c-.07-.09-.03-.54-.15-.7-.05-.07-.17-.02-.25-.1-.09-.09-.23-.41-.16-.54l-.23-.04.23-.16c.09-.19-.16-.14-.16-.2,0-.09.16-.3-.1-.41-.08-.03-.18.09-.25-.02-.02-.03-.13-.58-.04-.63l-.39-.08c-.04-.23.24-.1.16-.39-.39.14-.29-.15-.4-.33-.17-.29-.34-.28,0-.69-.21.02-.38.18-.55-.04l.31-.35-.27.23.04-.27-.39-.16.07-.35h-.23s0-.39,0-.39l-.23.08.16-.31c-.5.11-.31-.09-.34-.14-.12-.21-.38-.25-.21-.57l-.39-.08.16-.47c-.4.12-.72,0-.63-.47l-.23.08c-.02-.28-.28-.61-.55-.71l.16-.12-.08-.2-.23.16c.14-.44-.1-.48-.47-.39l.24-.23h-.31s.16-.08.16-.08v-.23s-.31-.16-.31-.16l.24-.08-.47.08c.07-.3-.13-.2-.23-.28-.13-.11-.14-.29-.39-.28l-.02-.37-.37-.1c.06-.42-.17-.2-.28-.46-.07,0,.02.25-.2.16l-.12-.31-.27.07.14-.27c-.02-.28-.45-.02-.37-.23.04-.11.48-.75.39-.83-.42-.13-.15.4-.35.47-.09,0,.01-.13-.08-.16-.2-.06-.04.18-.19.16l-.16-.63c-.17.25-.47.28-.78.23l.24-.23h-.39c.15-.21-.07-.52-.29-.54-.25-.03-.02.33-.22.23-.31-.16-.09-.44-.12-.47l-.19.07-.11-.11.07-.28-.11.15c-.77-.04-.46-.27-.67-.57-.1-.14-.5,0-.4-.36l-.39.16.08-.23c-.17.09-.38.03-.55-.04-.27-.1.25-.12,0-.24s-.47-.17-.71-.04l.16-.27c-.27-.09-.56-.56-.82-.52l-.08.16c-.13-.12-.36-.38-.51-.43-.11-.04-.68.34-.47-.2l-.59.05c-.18-.45-.6-.11-.78-.44l-.2.07.08-.23-.2.08-.04-.23-.2.16-.2-.23.04.39-.67-.55c.1.15-.25.17-.35.15-.06,0-.04-.15-.09-.15-.07,0-.18.12-.27.05-.05-.04-.05-.17-.09-.19-.02-.02-.46.03-.59-.03-.11-.05-.32-.35-.34-.37s-.24.18-.48.14c-.56-.09-.24-.41-.37-.54-.24-.22-.09.23-.08.28.04.27-.25,0-.37-.03-.23-.04-.72.04-.73-.25l-.12.16c-.32-.18-.71-.11-1.08-.18-.18-.03-.34-.16-.5-.19-.56-.1-1.35.23-1.79-.27l-.04.24c-.28-.23-.61.05-.82-.24l-.09.16h-1.13s.04-.16.04-.16l-.31.16-.04-.16-.31.23ZM52.05,8.85l-.23-.31-.31.35c.05.24.17.34.39.44l-.16-.43.31-.04ZM62.94,31.21l-.06-.22-.15.19c-.28-.11-.25.52-.16.75.27-.13-.09-.42.31-.48l-.06-.21.12-.03ZM2.75,32.87c.09-.08-.3-.56-.63-.35-.07.04-.09.18-.16.24-.07.07-.25.12-.24.15.09.3.41-.26.51-.2l.51.16Z"/>
    </g>
  </g>
</svg>