<?xml version="1.0" encoding="UTF-8"?>
<svg id="Layer_2" data-name="Layer 2" xmlns="http://www.w3.org/2000/svg" xmlns:xlink="http://www.w3.org/1999/xlink" viewBox="0 0 65.11 64.06">
  <defs>
    <style>
      .cls-1 {
        fill: url(#linear-gradient);
      }

      .cls-2 {
        fill: #de853d;
      }
    </style>
    <linearGradient id="linear-gradient" x1="56.44" y1="-240.71" x2="94.55" y2="-191.64" gradientTransform="translate(-86.26 227.46) rotate(11.92)" gradientUnits="userSpaceOnUse">
      <stop offset="0" stop-color="#fff" stop-opacity="0"/>
      <stop offset=".74" stop-color="#de853d" stop-opacity=".6"/>
    </linearGradient>
  </defs>
  <g id="Layer_1-2" data-name="Layer 1">
    <g>
      <path class="cls-1" d="M9.56,10.75c.08-.33.63-1.06.82-1.43.36-.67.62-1.4,1.1-2.01l-.18.48.16.03c.08-.04.13-.3.18-.36.04-.05.14.01.15-.05.02-.14-.14-.21-.05-.37s1.02-.91,1.23-1.06c1.07-.74,2.52-1.32,3.8-1.68.27-.08,1.23-.37,1.42-.36.37.02.27.51.72.46v-.32s.23-.03.23-.03l-.67-.22c.24-.09.78-.08.97-.14.05-.02.1-.13.19-.16,1.11-.41,2.02-1.03,2.99-1.7l.03.25.28-.18.09.5c.11-.17.01-.45.04-.58.01-.04.13-.02.17-.07.19-.25-.01-.43.54-.66.68-.29,1.29-.62,2-.77.38-.08.63-.25,1.08-.28.85-.07,1.9.07,2.71.31.42.12.9.45,1.33.52.33.05.66-.03.99.05l-.89.05c-.13.19.13.15.11.22l-.1.02-.11.21.52.09.28-.48.37.16-.13.21.37.16.1-.46-.22.11-.2-.36c1.28,0,2.57-.09,3.85-.13.34-.01.39.03.73-.02.16-.02.68-.13.72.07l-.58.12h.32s.09.49.09.49c.2-.04.29-.12.35-.33l.29.14.09-.37.62.04-.26-.29c.74.06,1.5.02,2.23.23.44.13,1.38.51,1.72.76-.17-.05-.36-.07-.54-.11l-.06.31c.14.02.29.09.43.1.16.01.11-.23.43,0,0-.06-.23-.27-.26-.29.47.13,1.75.84,2.11,1.16.03.03-.07.26.09.34l.07-.14c.96.48,1.83,1.21,2.77,1.73.81.44,1.72.69,2.51,1.14l-.09.22.25.14v-.4s.41.17.41.17l-.1.17.09.14.62.22-.1-.26,1.85.71h-.47s-.24.33-.24.33c.25.27.74-.07.79-.07.68,0,2.39,1.48,2.73,2.1.1.18.4,1.16.39,1.34-.02.42-.34.25-.36.27-.16.11.01.21.1.26-.02.07-.03.16-.05.23-.04-.01-.08-.09-.14-.11,0,.08-.09.13-.11.19-.07.16.04.09.13.14,0,0,0,.17.08.02l.59.44.07-.18h.16c0,.08,0,.2.03.27.24.43.6.87.9,1.2.43.46.78,1.11,1.31,1.49l-.12.44.42.09-.29.26.57-.04-.21-.12.15-.13c.15.29,1.12.83,1.18,1.05-.1-.06-.3-.08-.46-.19-.22-.15-.27-.39-.53-.41l-.19.52c.11-.27-.37-.76-.49-.34.51,0,.29.15.3.2,0,.03.19.11.08.28l.58-.12-.03-.25c.18.11.2.27.06.43-.07.08-.18-.02-.18.1.33.16.27-.16.36-.2h.24s-.04.8-.04.8l.6.53-.11-.42s.58.08.66-.1c.27.3.54.47.74.87.4.8.93,1.73,1.17,2.54.14.48.24.84.21,1.36-.18-.14-.11.02-.14.05-.08.1-.38.35-.35.41l.16-.04s.06.56.24.44c-.06-.3.08-.58.1-.86.1.08-.1,2.22-.14,2.53-.17-.04-.03-.22-.04-.24-.06-.05-.26-.02-.18-.21l-.51.17c.02.28.21.2.33.31.09.08.08.18.12.22h-.24s.19.23.19.23c-.01.18-.04.27.11.42.04-.17.1-.19-.06-.29l.35-.13c-.24.47,0,.69-.01,1.15-.27.28-.61-.21-.6.24.18,0,.27.1.37-.07l.17.1.11-.13c.09.59.2,1.27.37,1.84.05.17.41.87.32.95-.25-.42-.53,0-.74-.07s-.23-.18-.37-.33c-.08.29.08.54.39.56.05,0,.07-.12.14-.13.79-.07.53.28.82.77l-.37-.12c.05.27-.06.35-.2.56l.53.15-.24.38h-.57s.59.21.59.21c.09-.3.62-.6.07-.71l.17-.04-.21-.12c0-.11.15-.08.23-.08.55.04.56.57.7.99,0,0-.11,0-.15-.08-.04-.1.03-.27-.1-.29l-.33.41.3.1c-.41.13-.18.08-.18.24,0,.08-.06.17-.03.23.02.05.38.46.43.41.17-.2-.15-.71-.13-.79.01-.05.22-.15.19-.24.56,1.73.33,3.87-.48,5.5-.12.23-1.04,1.83-1.15,1.84.13-.17-.03-.44-.02-.53.02-.12.38-.31.08-.5-.11.34-.48.27-.48.78.1.06.13-.29.26-.1.06.08-.09.38.17.35l-.55,1.48c.07-.29.07-.64.19-.92l-.57.04c-.13.3.27.06.37.16v.32s-.25.1-.25.1l.26.3c-.23.96-.62,1.84-.76,2.84s.05,1.97-.23,2.99c-.31,1.18-1.84,3.84-2.87,4.51-.59.38-.54.36-1.05.82-.13.11-.92.73-1.01.62-.02-.03.1-.17-.04-.17,0,.27-.29.47-.52.57-.27.12-.55,0-.55.32l-.21-.13c-.18.23.07.49-.02.75-.04.13-.37.4-.47.58-.5.81-.8,1.75-1.36,2.53-.21-.08.11-.44.1-.46l-.32-.03-.13.26-.09-.18-.26-.05-.05.3c.32.04.06.3.42.42l.14-.13c-.12.36-.47.67-.74.95-.09.09-.22.1-.27.14-.21.2-.37.62-.75.78.08-.1.13-.29.22-.41s.24.01.23-.21c-.24-.13-.35.08-.58.08l-.04.59s.13-.03.17-.04c-.39.51-.94.73-1.43,1.1-.03,0-.36-.05-.37-.06s0-.11-.04-.15c-.07-.07-.22-.11-.24-.14-.02-.04.17-.2.02-.31l-.23.35-.07-.25c-.31-.12-.26.35-.33.4l-.22-.04-.05.23.24-.03c-.11.13-.17.4-.39.32l-.09-.34c-.04.22-.34.11-.31.36.05.4.33.14.54.06.04-.02.13.05.14.05.07-.06.14-.39.19-.42s.18.06.28.03c.04-.01.42-.4.34.01h-.24c.03.45-.64.5-1,.58-.56.12-1.13.12-1.69.24l-.08-.17.25-.03-.05-.13.21.13c.04-.33-.28-.2-.39-.4l.33-.45c-.1-.02-.23-.03-.3-.1-.07-.07.02-.22-.11-.22.06.17-.35.27-.25.43.14.21.29-.23.41-.03-.14.21-.25.29-.2.56l-.22-.09c.08.09.05.28.1.36.07.1.28.1.25.23l-.98.11.19-.16c-.15-.21-.27-.45-.56-.4-.04-.07.2-.35-.09-.34l.11.62c-.47.09-.26.09-.4.38-.02.05-.11.02-.17.09-.04.05-.04.18-.09.24-.09.08-.48-.01-.6.19l-.16-.19c-.08.48-.54.63-.86.86-.98.67-2.45,1.71-3.57,1.97.09-.06.16-.21.23-.25.1-.06.3-.01.31-.08.05-.24-.19-.09-.3-.1l-.11-.26v.32s-.36-.12-.36-.12l.25.33-.47-.18-.36.36c.08.17.07.11.19.09.16-.02.44-.09.61-.13-.3.22-.8.32-1.19.31.05-.02.08-.07.16-.06v-.31c-.14-.05-.08.14-.13.21-.02.02-.51-.02-.56-.05-.07-.03-.14-.21-.18-.18l-.25.43c.17.07.25-.12.4-.13.1,0,.4.09.57.1-.78.41-2.46.14-3.31-.06-1.86-.45-2.93-.83-4.93-.78-.31,0-1.69.25-1.83.06.02-.18-.06-.24-.08-.44-.01-.1.11-.13-.12-.15.02.37-.32.35-.58.48l.11.29.37.09c-.6,0-1.17.23-1.77.03v-.4s-.35.65-.35.65c-2.3.09-4.14-1.16-5.8-2.59.1-.19.35.14.49.18.11.03.24,0,.35-.02l.09-.37-.31-.06.11-.14-.52.21c.15-.22.04-.31-.1-.5l-.19.13-.32-.15.37.52c-.25.02-.39-.44-.69-.51l.37-.24c-.52.31-.7-.13-1.1-.37-.28-.17-.56-.36-.88-.45-.02-.01.02-.05.01-.07.08.02.15.03.23.05.07-.25-.29-.76-.58-.59-.1.06-.16.2-.04.29l.09-.22.31.06-.22.27.24-.03s-.04.12-.03.15c-.52-.1-.95-.48-1.48-.55.02-.15.17,0,.31-.04.04-.01.06-.2.28-.08l-.18.12.44.17c.02-.15-.22-.04-.05-.23-.25-.12-.09-.29-.11-.52-.21,0-.08.21-.22.31-.42.29-1.16.06-1.63-.06-1.9-.47-3.96-1.48-5.15-3.05-.27-.35-1.41-2.25-1.29-2.57.05-.12.23-.19.27-.29.08-.21-.11-.6.11-.8l-.61-.13c-.19.13.32.42-.04.39-.18-.25-.2-.56-.35-.83-.38-.72-.86-1.27-1.42-1.85-.22-.23-.49-.5-.77-.66l.18-.08-.12-.18.27-.14c-.18-.14-.4-.05-.51-.06-.05,0-.09-.11-.13-.12-.09-.02-.17.14-.29.07l.11-.2-.14-.04.03-.15.17-.04c-.19-.04-.22-.19-.17-.36l-.42.11c.21.19.31.18.29.5-.24.14-1.95-1.98-2.08-2.32-.05-.14-.01-.18-.02-.28.07.05.1.13.21.13-.01-.45.34.02.39-.32-.47,0-.36-.05-.54-.34-.25-.38-.45.13,0,.23.04.06-.05.21-.05.3-.62-.42-1.05-2.55-1.05-3.31,0-1.11.34-2.2.19-3.29-.46-3.2-2.38-5.53-1.91-9.07.3-2.25,1.79-3.45,2.37-5.54.02.11.4-.06.41-.07.17-.16-.16-.15-.1-.26l.21-.04.04.4.37.08-.1-.26.49.34-.19-.33c-.06-.05-.26.04-.09-.21-.25-.12-.2.24-.37.24-.05-.17-.04-.32-.06-.49.29.14.76.25.91-.13l-.43.15.31-.33c-.21-.08-.33.06-.35.06-.02,0-.29-.19-.15.14.02.04.17,0,.11.12l-.43-.25c-.06.1.02.16.03.25-.08-.04-.15.02-.14-.14.03-.39.19-.29.24-.37.1-.14-.1-.56-.21-.47-.05.33-.23.68-.05.99-.34-.01-.11.43-.35.52.24-.73.25-1.72.5-2.42.06-.16.27-.01.16-.28.47-.23.04-.21.04-.24,0-.08.11-.19-.04-.2l-.14.29c.04-.49-.01-.93.06-1.43.01.16.08.39.08.58l.05-.43.17-.04c-.23-.23-.11-.34-.03-.61l.11.26.26-.1-.03.32.1-.37-.56-.29c.02.24-.11.46-.15.69-.08-1.05.21-1.66.63-2.59-.03.07-.03.16-.05.23l.21-.04v.24s.15-.13.15-.13c.25.11.48.22.74.04,0-.38-.2.13-.31-.03-.04-.05.32-.08-.24-.26-.09-.03-.2,0-.3,0l-.09-.18c.01.1-.11.13-.11.14.13-.28.17-.52.35-.83.27-.46.76-1.11,1.17-1.45.07-.06.22-.18.15.03l-.21.24.19.03.05.34-.11-.26c-.15.05-.35-.07-.34.16.12-.02.64.36.62.09-.01-.15-.16-.33-.05-.53l.12.18.1-.46c.26-.01.06.18.15.28.05.06.35.18.4.16l-.16-.39h.24s-.04-.23-.04-.23h-.39c-.07-.24.86-.89,1.08-.98-.09.11-.12.24-.3.3.26.1.46-.37.86-.26l-.03-.24.22.04.07-.3c.12.12.26.04.34-.09,0,0,.06.05.04.11-.05.12-.31.2-.3.39.58.12.52-.03.66-.5.02,0,.29-.04.38.08l-.27-.26.25-.23c.05-.01.02.33.22.29-.1-.25.17-.29.19-.52l-.39.16c-.08-.03.15-.32-.25-.29-.05,0-.07.11-.1.12-.15.05-.1-.11-.49.16.3-.54,1.01-1.11,1.38-1.63-.13.53.45.21.7.47l-.16-.35c.29.15.54-.04.6.37l.09-.22.27.22-.46-.66-.07.14c-.15.02-.16-.16-.24-.18-.06-.01-.26.12-.37.05l.2.2-.44-.16-.12.12ZM43.44,2.62l-.15-.03.08.18.07-.14ZM45.39,3.59l-.61-.37c-.05.21-.37-.07-.24.26,0,.02.19.11.24.14l.11-.14c.29.05.44.61.51.1ZM46.52,4.31c-.26-.01-.41-.31-.61-.37s-.54.04-.77-.09l-.09.23-.22-.09.59.41.15-.13-.05.23.38.08v-.32c.09-.05.51.28.62.05ZM27.43.36c-.27-.14-.08-.35-.49-.26l-.09.37c.29.1.34-.15.51.03l.07-.14ZM27.75.29l-.35-.13c.21.21.03.38.29.54l-.25.07c.35,0,.12.24.32.39V.29ZM47.16,4.69l-.43-.17-.43.46c.4-.04.23.34.56.36-.07-.5.24-.31.3-.66ZM26.81.63h-.16s-.1.5-.1.5l.31.06.03-.31c.01.22.14.13.31.23.12-.32-.48-.19-.38-.48ZM25.43.61c-.27-.25-.52.02-.6.32.36.02.56.16.79.41l.1-.46c-.21.13-.18-.17-.29-.27ZM32.4,2.52l-.1-.41c-.21.06-.34.29-.56.2l.24.2.22-.11-.13.21.3.1-.11-.22h.14ZM28.05,1.61l.13-.21c-.57.12.33.83.48.74l-.13-.35-.11.14c-.01-.2-.36-.3-.37-.32ZM41.03,4.91l.12-.38c.11-.11.26.14.4,0,.09-.08.05-.2-.03-.25-.06-.04-.03.11-.13.13-.35.07-.44-.05-.65.35l.29.14ZM57.83,18.22l-.23-.05.17-.44h-.32s-.01-.31-.01-.31l-.12.21c-.15,0-.15-.14-.25-.19-.07-.03-.18.02-.26-.04-.05-.04-.66-.99-.69-1.07-.07-.18-.09-.38-.08-.57l-.28.02c-.13-.13.1-.25-.14-.27l.29-.26-.26.1c0-.26.31-.07.31-.33-.23.09-.34.1-.55-.04l-.02.2.19.11-.21.08c-.56-.81-1.21-1.55-1.87-2.28-4.39-4.87-11.04-8.42-17.68-9.37-.89-.13-1.82-.07-2.7-.25l.34-.09-.1-.26-.25.03-.18-.28.09.34-.34-.07-.16.12.15-.33-.14-.07c-.08.17-.33.16-.22.44.1.26.73-.13.79.24-.61-.15-1.22.07-1.79-.22l-.09.22c-.19-.02-.41-.13-.59-.13-.49.01-1.31.26-1.94.23.08-.03.51-.14.51-.17l-.36-.36c-.25.17.28.19.14.27-.38.22-.58-.15-.61-.13l.03.24-.29-.14c.04.32.33.27.58.28-.45.14-1.07.25-1.57.23.2-.06.42-.13.61-.23l-.3-.13-.11-.39c-.15.17-.28.35-.24.59l-.15-.2-.42.08-.16-.19-.19.12c-.12.29.25.13.39.19.25.1.14.16.58.18-.42.12-.91.23-1.38.27.01-.15-.03-.51-.25-.53l.1.3-.17.08-.07-.25c-.26.03-.17.13-.2.15-.41.39-.17-.12-.18-.14-.11-.17-.18.09.09-.31l-.49.06c.06-.19.09-.37-.15-.43l.19-.03.2.43.08-.15.32.15-.13-.51c-.29.22-.54-.19-.76-.19-.08,0-.31.06-.29.21l.31.07-.04.39.24-.19c-.14.25.22.39-.07.7l.22-.27.11.22-.25.39.21.12c-.69.1-1.36.37-2.01.61s-1.72.62-2.34.95c-.15.08-.27.3-.46.34-.14.03-.28-.03-.45.02-.21.07-.78.81-1.14.88l-.08-.18.17-.04-.14-.07c.26-.26.57-.2.26-.59-.02-.03-.12,0-.13-.03-.08-.13.01-.32-.23-.4l-.43.51h.24c.02.17-.2.18-.21.31,0,.19.23.5.02.78-.22.3-1.6.97-1.98,1.22-.78.69-1.61,1.4-2.46,2-.23.16-.09.34-.62.26l-.04-.16-.18.28.29.1c.07.28-1.23,1.34-1.29,1.21.05-.14.06-.25-.1-.26l.18-.08-.3-.1c.02-.21.03-.12.15-.13.23,0,.08-.12.02-.13-.09-.02-.25.03-.36-.02l.12.18-1-.21.43.48.51-.21.31.62-.74.09.23.21.15-.13-.16.37c.18-.04.28-.23.4-.34.07-.06.21-.21.14.02-1.12,1.19-2.06,2.52-2.96,3.88-.22.34-.4.71-.63,1.01.08-.19.1-.41.28-.58l-.29-.14c.32.31.76-.65.71-.73l-.23-.05v.32s-.37-.08-.37-.08l-.03-.24-.11.53.21.13h-.4s.04.15.04.15l-.41.09.41.33-.52.17.47.06-.51.13c.02.27.34.09.5.27-.01-.21.19-.29.23-.35-.64,1.48-1.38,2.8-1.95,4.35-.57,1.56-.89,3.35-1.52,4.88-.06.14.13.09.12.25-.06.71-.34,1.63-.43,2.39-.7,5.61.77,12.08,3.73,16.83h-.16s.04.21.04.21c-.71.02-.27.19-.29.22-.11.17-.35.02-.44.19.32.12.35.06.58-.12l.17.35v-.32s.12.1.12.1l.11-.13.12.18c-.02-.4-.41-.25-.25-.69.3.48.66,1.05.97,1.52.21.31,1.41,1.77,1.42,1.95-.13-.08-.26,0-.3-.3l-.23.15.13.15c-.07.14-.2.14-.34.09l.12-.21c-.27-.15-.56.25-.58-.13h-.35s-.12-.58-.12-.58l-.07.31-.44-.17-.06.35-.59.11.11.26s-.32,0-.2.16c.08.12.55-.45.8-.46.17,0,.59.24.86.17l-.05.23,1,.21-.03-.24.27.22c0-.1.07-.22.07-.31.5.31.19.73.67.95l-.27.57.5.1c.02.27,0,.6-.32.59l.02.23c.13.04.1-.16.25-.18s.34.08.49.09l-.41-.33.51-.17c-.06-.3-.28-.38-.42-.55-.02-.02-.13-.3.06-.2,2.95,3.15,6.56,5.86,10.62,7.42,2.52.97,5.12,1.51,7.79,1.83l-.48-.02.29.14s-.3.4-.1.46c.08-.43.33-.43.71-.33.14-.3-.34-.1-.33-.31,1.94.29,3.92.15,5.87.04.1.1-.08.08-.14.09-.27.04-.57-.03-.76.2l.21.13.13-.21.04.41.03-.31.61.13-.43.15c.47.19.65-.1.89-.45-.06-.09-.62-.04-.36-.2l3.13-.58.13.31c-.25.02-.11.14-.22.31l.46.1.05-.23h-.16s-.05-.16-.05-.16c.25-.01.09-.13.2-.3.05-.08.47-.31.56-.22l-.1.3.32-.17.03.24c.01-.22.18-.09.32-.12.05-.01.17-.22.43-.04l-.26-.29.74.07.09.19-.13-.51.24-.02-.02.15c.1.05.1-.1.2-.15.33-.19.48.17.52.15l.11-.54h-.24c.41-.2,1.3-.76,1.1.1l.11-.14.46.1c-.06-.2-.51-.07-.39-.4l.12.09.53-.35c-.12.26.06.38.29.53l.14-.12c-.15-.01-.18-.11-.11-.23.04-.06.19.05.18-.08l-.13-.15.23-.15c.09.44.33-.1.41-.14.14-.07.28.08.37-.34.04-.02.34.66.53.51-.08.15-.13.22,0,.36l.29-.06.08.18-.14-.67-.3.09.06-.31.76.16-.2-.56c.42-.08.17-.19.26-.41.14-.32,1.19-1.06,1.6-.81.14.28-.17.51.18.64l-.07-.45.18-.08c-.15.16.06.32.05.46-.01.1-.28.26-.24.46.18,0,.12-.22.25-.27.18-.07.35-.01.52.04-.04.18-.09.4.15.43l.25-.43-.84-.18.14-.29-.2-.2.22.09v-.44s.23.09.23.09c-.11-.24-.33-.14-.53-.15-.08-.36.14-.22.32-.37.6-.49,1.15-.88,1.73-1.4.31-.28.64-.54.97-.8-.02.02,0,.12-.04.17-.06.07-.65.4-.39.54l.1-.12.1.08c.03-.4.16-.1.19-.12.18-.14-.16-.16-.1-.26l.48.02c-.11.12-.08.24.1.26l.07-.31-.44-.17c.19.08.15-.16.25-.19.11-.04.44,0,.59-.03l-.27-.26c.14,0,.38-.19.19-.32-.04-.02-.53.53-.65.62-.06.05-.15.06-.18.08.55-.64,1.15-1.24,1.8-1.75.36-.28.24-.46.85-.17l.05-.23-.55-.04.48-.69c.41.15,1.03.24.87-.38.23.18.66-.12.87.06.14.12.02.44.47.38l.07-.3.26.29c.14-.36-.31-.38-.36-.5-.03-.06.04-.17.03-.21,0-.03-.41-.06-.56-.13-.2-.09-.42-.3-.59-.44-.03.36-.54.52-.44.95-.26-.03-.28-.04-.15-.27.18-.32.6-.84.84-1.1-.08.23-.04.21.13.35l.03-.31.44-.19-.26-.26c-.02.24-.24.32-.33.41.12-.38.66-1.04.88-1.43.19-.31.35-.66.51-1,.19.09-.15.42-.11.54l.48.18.11-.14-.19-.08c-.06-.19.08-.31.08-.44,0-.11-.15-.18-.08-.31.31.31.5-.34.6-.36.17-.03.09.22.06.3-.04.11-.49.21-.02.43l-.1-.26c.1.02.2.05.31.06-.03.06-.17.35-.16.37.12.14.22-.26.4,0l.12-.21-.16.37c.22.07.35-.15.31-.33l.23.04-.13-.51c-.4.17-.13.35-.62.27.03-.05.13-.11.11-.14l-.24.03.19-.52-.31-.07.17-.04c0-.18-.2-.21-.35-.23l-.04.3.12.11c-.1-.24-.54.44-.42.11.37-1.08,1.28-2.17,1.5-3.35h.24s-.1-.3-.1-.3l.94-2.88c.09-.05.43.23.41-.08l-.32-.02c-.13-.14.4-2.17.46-2.55.25-1.52.35-3.24.34-4.78,0-1.8-.22-3.61-.6-5.36l.44-.21c-.35-.21.03-.18.15-.33l-.49.06.28-.22-.04-.21h-.32s.14-.28.14-.28l-.47-.02c-.05-.6-.46-1.11-.05-1.68-.06-.1-.41-.18-.42-.2-.09-.1-.03-.28-.05-.37,0-.02-.14-.07-.13-.2,0-.2.19-.56.28-.75l-.34.09.12-.21-.21.03c0-.27-.13-.07-.23-.13-.05-.03-.33-.77-.39-.89-.05-.11-.19-.16-.25-.32-.08-.23-.04-.59,0-.83l-.22.11c-.46-.36-.22-.78-.52-1.15l.49-.06-.22-.28v.15c-.05.02-.12-.03-.15-.02ZM43.36,5.24l-.2-.2-.07.29-.32.06.34.27.08-.38.35.23c.04-.19-.03-.68-.18-.28ZM45.24,6.2c-.21.02-.39-.29-.55-.2-.11.06-.05.2-.13.28-.04.04-.16-.07-.15.06l.73.32.13-.21-.21-.16.18-.08ZM51.72,8.13c-.6-.12-.38.65.06.49l.07-.14.07.25-.34.09c.33.1.68-.12.35-.4-.21-.18-.19.02-.42-.02l.22-.27ZM53.06,8.97v-.16s-.15.13-.15.13l.15.03ZM22.89,2.93l-.46-.1.06.65.07-.14.23.05.09-.45ZM51.6,9s-.34-.12-.43-.19c-.15.18.26.18.09.34-.04.03-.24-.29-.24.03l.39-.16-.03.31.44.17c.12-.23-.18-.18-.24-.31-.02-.05.04-.16.01-.2ZM50.13,8.83c-.17-.11-.49.35-.48.38.23.12.57.49.7.07-.29-.04-.31-.19-.23-.45ZM23.74,4.53c.04-.08.12-.2.11-.29-.03-.21-.37-.41-.42-.09.2-.08.43.11.19.24l-1.03-.42-.14.29.77.16-.49.06c-.05.11,0,.17.06.25.18.25.17,0,.27-.02.23-.06.31.1.38-.21l.31.02ZM55.46,10.68l-.02.08c.06-.02.06-.04.02-.08ZM55.64,11.92l-.08-.18-.11-.02-.03.15.23.05ZM56.33,12.33c-.03-.07-.26-.31-.35-.14-.02.05.33.14.09.34h.16s-.05.22-.05.22l-.41.07.32.02c-.11.61.74.38.62.09-.2-.16-.27,0-.47-.02.03-.18.18-.4.1-.59ZM18.75,5.16s.12-.16,0-.23l-.31.14.2.2c-.15-.04-.42-.13-.23.15l.47-.14-.05.23c.33-.23.31.06.61.13.09-.44-.56-.32-.69-.47ZM56.71,13.93c-.21-.15-.44-.18-.35-.51l-.34.13c.14.25.52.18.37.52l.11-.14c.22.15.18.28.06.49l.42.26.12-.21-.08.38.25-.07-.11-.22s.3.28.47.06c.13-.18-.37-.07-.16-.39.22-.03.11.15.13.17.04.03.15-.05.22,0,.01,0,.05.26.2.27.16-.38-.43-.49-.41-.72h-.16s-.14.5-.14.5l-.3-.07-.08.15-.16-.35.26.05.1-.22s-.32.08-.38.08c-.03,0-.01-.11-.04-.13ZM55.39,13.46l-.23-.05c.11.29-.24.32-.28.58l.47-.14.08.25.23-.02-.16-.27-.25-.06.14-.29ZM16.13,6.14c-.27-.08-.15-.15-.13-.35-.36.04-.14.17-.19.27,0,.01-.2.13-.22.13-.29,0-.05-.34-.33-.11l.31.24.55-.17ZM56.39,14.4c-.26.02-.65-.37-.81-.1l-.19-.07.19.17-.02.14.12-.21.15.03.03.25.07-.31c.14.02-.03.13.15.2.14.05.32.11.31-.1ZM13.86,5.9l.03-.15-.18.08.14.07ZM16.83,7l.12-.21-.42.07v.35s-.17.09-.17.09l.56-.2c.14.21-.17.11-.16.17.07.34.59-.16.53-.25l-.48-.02ZM56.09,15.29l-.02.08c.06-.02.06-.04.02-.08ZM12.42,6.7l.02-.14-.4.39.89-.05c-.01-.3-.41-.08-.51-.2ZM17.08,7.7l-.15-.03-.02.08.15.03.02-.08ZM15.16,7.76c-.03-.06.19-.34-.01-.39l-.29.42-.13-.34-.13.28.19.21-.29-.14.32.35-.34.13c.19.1.32.33.29.54l.26-.08.09-.84.17-.05-.13-.08ZM13.88,7.34l-.49.06.1.26-.25.03c.29-.07.25.28.46.26.19-.02.08-.2.1-.3h-.24c.1-.03.4-.16.3-.31ZM12.4,7.51l-.54-.11c-.06.12.09.07.12.12.01.03-.15.11.05.19l-.14.34.51-.53ZM11.75,8.26l-.51-.2.19.21c-.05.46-.56.07-.66.49.21.12.18-.16.32-.16.1,0,.37.19.57.1l.09-.44ZM58.78,18.26c-.17-.11-.23.11-.19.19.01.03.27.12.35.2.1.1.08.24.12.28.02.02.47.15.54.02h-.24s.11-.19.11-.19l-.09-.3c-.22.04-.65.13-.6-.2ZM12.29,8.9c-.06-.1,0-.43-.33-.45l.2.2-.09.46.53.11c.12-.24-.24-.21-.31-.33ZM13.16,8.8l-.4.03c.14.15.06.35.09.53,0,.07.12.14.13.25.01.13-.19.29.08.44v-.4s.2.2.2.2l.13-.21-.45-.34.15-.29.13.35-.05-.56ZM61.43,18.98l-.48-.02-.06.35.21.08c0,.13-.13.03-.15.06-.03.04-.03.22-.09.29l.31.06-.13-.15c.12-.14.15-.21.35-.13l-.27-.26.3-.3ZM61.04,19.96c-.06-.05-.13-.05-.21-.07.13.2-.18.26-.35.16-.09.2.05.17.2.2-.29.32.07.55-.24.75l.38.08.06-.31.31.07-.28.18c.68.24.26-.25.63-.31.04-.29-.17-.3-.31-.46-.08-.09-.18-.29-.19-.3ZM10.93,9.53l-.55-.04-.03.15.49-.06-.05.23h-.56s.21.31.21.31h.29s-.2-.21-.2-.21c.44.02.22.15.28.27.08.17.24.08.08.44.54-.31.11-.33.04-.55-.05-.15,0-.39-.01-.55ZM12.51,9.85c-.09.04.02.11.05.17.09-.03-.01-.11-.05-.17ZM12.54,10.26l-.32-.02-.12-.39c-.18.04-.07.26-.1.29-.04.03-.47.02-.52.22l.31-.1c.5.13-.17.5.39.57.04-.32.39-.19.36-.56ZM59.88,20.33s0-.24-.12-.26l-.09.22-.56-.11c-.11.12-.13.4-.03.52.01.02.1-.03.13-.01s.06.27.37.2c.08-.43.37-.25.6-.54-.03-.13-.25.03-.3-.03ZM60.11,21.42c-.37,0-.54.07-.31.4.26-.01.49-.16.73.01l.12-.14.14.27h-.24s-.06.26-.06.26c.33.17.26-.2.41-.23.03.03,0,.31.16.19.06-.05-.23-.51-.26-.53-.16-.09-.79.03-.82-.02l.12-.21ZM11.76,11.83c-.05-.22.09-.36-.04-.54l-.12.22-.31-.23c-.17.33.18.26.31.43.08.1.02.28.12.38.32-.17.05-.22.04-.26ZM10.32,12.43c-.14-.05-.22-.05-.33.05l.3.1.03-.15ZM60.9,24.15h-.24s-.17-.33-.17-.33c-.13.22.09.36.08.38-.1.2-.35.21-.47.34.32.17.34-.27.6-.19-.06.2-.3.22-.18.48l.14.07.29-.22-.18-.25.13-.28ZM62.17,25.3c-.06.03-.26-.49-.47-.42-.12.19.1.16.11.19.08.2-.31.13-.38.31.61.16-.09.3-.15.34-.17.12-.37.37-.44.57l.2-.2.14.11c-.1-.32.16-.16.18-.44.33.12.03.41.39.4l-.07-.81c.31.21.27-.02.55.03l.05-.22c-.13-.06-.08.12-.11.14ZM61.81,28.18c.39.23.86-.3.3-.56-.15-.07-.32-.08-.48-.12l-.05.23c.31-.01.49-.17.68.18.04.17-.42.17-.45.26ZM63.04,28.04l-.3.09v.24c.13,0,.16-.26.3-.33ZM61.07,27.87l.03-.15-.08-.02-.03.15.08.02ZM6.97,16.93l.04-.55-.23.39-.47-.06.1.26-.23-.1-.17-.31-.02.48.54.11.05-.27.4.05ZM4.61,16.75c.34.1.57,0,.48-.38-.14-.04-.09.19-.18.29-.07.07-.19-.06-.27-.03-.13.05-.42.51-.11.5l.08-.38ZM5.93,16.94v-.16s-.77.04-.77.04l.21.13-.11.46-.16.04.12.62.22.05c.05-.39.09-.76.09-1.18h.4ZM61.56,29.99c-.06-.12-.28-.21-.38-.31-.07-.07,0-.22-.12-.22-.05.19-.03.5.03.67.05.14.19.2.21.26.03.08-.17.27,0,.4.03-.26.38-.57.26-.8ZM6.78,18.11c-.09-.06-.57-.25-.54.02h.4s.03.25.03.25l-.29-.14c.07.47.42.58.79.81l.06-.31-.14.12-.41-.16.19-.12-.14-.11.2-.2c-.12.01-.13-.16-.15-.17ZM4.46,17.84c-.26-.08-.65-.07-.5.3.05.13.27.02.05.36l.2.17-.2.2.31.06c.08-.21-.02-.38-.22-.45.25-.18.21-.27.11-.53l.26-.1ZM6.7,19.35l-.11-.03v.16c-.07.03-.46-.29-.53-.11.23,0,.14.31.17.35,0,0,.12-.03.18,0,.29.13.34.26.5-.21h-.2s-.01-.16-.01-.16ZM63.75,31.87l-.48-.18-.29.41c.15.11.94.03.77-.24ZM62.4,31.83c-.23.04-.27-.31-.3-.3-.4.02-.11.29-.15.57-.02.12-.08.23-.16.32l.21.13.09-.22.08.18.08-.38.32.39c.04-.18.22-.31.06-.47l-.12.14-.24-.14.13-.21ZM64.89,32.45l-.35-.17c-.09.31-.14.47.04.73.3,0,.43-.41.3-.56ZM5.29,20.79l-.07-.48c-.1.21-.13.33-.04.55h-.24s.38.27.38.27v-.16s.4.04.4.04l.19-.55-.31-.06c.06.11-.08.39-.08.42,0,.08.18.02.12.14l-.35-.17ZM63.98,33.04c-.09.05-.07-.29-.18-.28v.72s-.54-.04-.54-.04c-.09-.33.08-.18.13-.26.03-.06.01-.31.09-.41-.2-.06-.35.14-.31.33l-.37-.12-.26.47.32.03c.25-.54.62-.04.06.09h.24s-.17.45-.17.45c-.1.06-.4-.34-.4,0,.28-.1.4.31.5.27.03-.01-.04-.44.11-.53.14,0,0,.15.09.18.15.06.35-.08.44.17l.03-.31.27.22c-.17-.37.08-.71.07-1.1-.13-.06-.08.12-.11.14ZM4.03,20.23l-.49.1c.05.1.11.19.13.31.03.16-.2.16.08.34l-.07-.62.34-.13ZM3.8,20.58l.18-.08-.09-.14-.09.22ZM64.94,33.4c-.23-.09-.13.05-.2.15-.08.12-.16.24-.23.36.23.05.39-.09.27.26l-.12-.18-.22.27.37.16.18-.84-.04-.17ZM5.05,21.08l-.5-.27.06.49-.17-.03c-.03.17-.31-.05-.26.14.11.39.37-.2.64.01l-.09-.34h.32ZM6.02,21.75l.08-.53-.29.11.03.15c-.35-.1-.4.26-.47.3-.1.06-.34-.19-.33.1l.63.05c-.03.16-.28.31.01.32l.07-.31.17-.04-.22-.09.32-.06ZM61.31,33.2l-.21.03-.11,1.1.54-.29-.39-.4.07-.13h.2c-.13-.1-.16-.14-.1-.31ZM62.2,34.33s0-.1.01-.14l-.07-.02c-.13.27-.35.26-.61.23l.43.22-.06.3h.32s-.1-.27-.1-.27c.08-.04.6.24.56,0-.05-.27-.39-.23-.48-.32ZM4.54,23.13l-.07-.65h-.35s.26.29.26.29l-.54-.07c-.06.23.28.08.45.16.19.09.03.27.26.26ZM61.35,34.49l-.18.08.26.26c-.29-.1-.03.24-.29.26l-.09-.34-.08.38c.47.21.47-.15.78-.28v-.2s-.39,0-.39,0v-.17ZM63.5,34.94c-.26-.06-.51-.13-.67.14l.37.12-.05.23h.32c.1-.27-.13-.07-.19-.25l.21-.23ZM5.38,23.31c-.21.07-.24-.02-.37-.16l-.07.31-.16-.19c-.18.21.26.36.42.49l.17-.44ZM61.47,36.09c.07-.1.06-.28-.03-.31-.11-.03-.3.27-.47.14l.2.16c-.09.12-.17.01-.22.02-.43.07-.08.32.06.29.03,0,.45-.28.46-.3ZM4.66,26.36l.37-1.76-.32.54c.05.15.07.32.02.48-.06.21-.44.69-.07.75ZM61.67,36.79l-.43.51.28.18.29-.22-.11-.22-.28.18.25-.43ZM4.55,24.98l-.6.23.09.3-.23-.05c0,.17.22.17.35.23-.04-.32.18-.51.39-.72ZM62.75,37.34c-.46-.08-.31.73-.76.56l.07.42.2-.04.03.15c.21,0,.36-.04.16-.24l-.26-.12c.24-.02.14-.04.13-.25h.24s-.02-.27-.02-.27l.2.2v-.4ZM60.79,37.57c-.11-.14-.25.12-.29.21l.11.3c.29.07.57,0,.62-.34l-.24.19c-.04-.14-.19-.16-.27-.22s.08-.12.06-.14ZM3.82,26.18l-.22-.09.15.23.07-.14.18.28c.11-.11-.13-.64-.18-.28ZM61.74,38.73l-.64.02.29.14c0,.13-.12.03-.15.06-.06.07-.04.24-.32.28h.2s0,.24,0,.24c.43-.06.28-.44.37-.59.07-.12.25-.02.27-.15ZM62.17,38.98c-.25-.23-.38-.21-.64.02l.39.4.2-.2-.26-.29.08.18.22-.11ZM4.1,26.72l-.5.09.08.38.24-.03-.29.26h.24c-.37,1.14.51.62.58-.07l-.15.28-.31.02.25-.43-.24.03.11-.2-.13-.09.14-.25ZM2.92,26.63c-.21-.1-.1,0-.14.05-.15.19-.1.37-.47.22l.06.19.29.04.03.41.27-.3-.12-.23.21.12-.13-.51ZM1.65,26.88c-.19-.11-.34-.11-.37.13.04.16.32.16.21.36l-.34.09c.43.14.37-.26.78-.28.08-.19-.13-.11-.26-.2-.02-.01,0-.1-.02-.1ZM1.23,28.13l-.25-.23c-.02.32-.26-.14-.41.13-.09.16-.42,1.3-.39,1.38l.31.03-.18.05c.14.37-.11.32-.13.37-.02.05,0,.25-.09.34h.56c-.05-.59-.05-.09-.38-.12.2-.33.22-.58.62-.71-.15-.23-.2-.41-.02-.64l-.22-.09c0-.27.29-.17.27-.5l.27.22.03-.22ZM3.28,29.58s0-.15-.1-.23c-.04-.03-.44-.21-.46-.19.09.15.03.41.22.45l-.03.15-.17.04.51.18c.11-.3.31-.12.47-.29-.1-.1-.39-.05-.44-.11ZM59.98,41.85c.08.06.59.16.57-.13,0-.12-.56-.29-.57-.09l-.34-.14c-.03.14.2.15.29.23.05.04.04.13.05.14ZM2.41,30.2c0-.25-.27-.11-.36-.19-.11-.1-.07-.42-.22-.49l-.38.64c.29,0,.48.44.83.16.02-.02-.1-.2.12-.12ZM60.01,42.76l-.44-.17v.32s-.22-.05-.22-.05l-.02.32-.41-.17v.32s-.19-.2-.19-.2v.4c.27-.12.02.15.28.14l.08-.38c.15.18.19-.15.47.02l-.14-.11c.01-.19.23-.13.32-.38l.19.09.07-.14ZM1.24,30.44l-.23-.05c-.03.16-.01.35-.22.28l-.02.07c.44.15-.19.41.15.43.03.1-.35.02-.2.2,0,0,.23.08.24,0l.13-.56.38.07-.07-.22h-.2s.05-.22.05-.22ZM.41,31.7c.24-.32.35-.97-.06-1.21l-.07.71.24-.03c.07.12-.41.39-.11.54ZM2.49,30.94c-.3-.08-.27.32-.42.47l.5.27.05-.23.14.11-.02-.24.16-.05-.2-.11c-.1.21-.23.21-.44.14l.23-.35ZM3.05,32.1l.3-.66c-.21,0-.17.27-.24.35,0,0-.15-.13-.23,0l.21.12-.27.14.04.17c.17.03.35.02.28.22l.07.02c.33-.45-.07-.25-.16-.35ZM.76,32.34c-.39-.09-.05.34-.02.45.04.15-.1.36.17.38l-.03-.24.26-.1c-.29-.07-.42-.17-.38-.48ZM2.56,33.28l-.5-.27c-.36.52.31.6-.07,1.1.33.02.19-.39.62-.27.11-.28-.42-.14-.46-.46.16-.34.13.13.26.09.09-.03.16-.1.16-.2ZM3.94,33.97l.04-.55-.44.19h.24s-.42.48-.42.48c.29.08.17.26.26.46l.35-.32-.26-.3.23.05ZM3.73,35.68l-.38-.08-.05.22-.4.04.31.03-.14.29,1.02.05c.13-.21.05-.37-.18-.42-.05-.01-.31.37-.4.22l-.03-.25.26-.11ZM56.97,47.64l-.35-.23-.17.44.23.05-.11.14.4.17c.15-.14.29-.14.29-.38l-.21-.09.03-.22c-.13-.06-.07.11-.11.13ZM58.95,48.14c-.19-.11-.15.09-.19.11-.06.03-.24-.26-.24.04l.35.17-.06.37.31.06c.12-.25-.13-.09-.14-.11-.03-.15.28-.18.33-.41h-.4s.05-.24.05-.24ZM2.15,36.62l-.03-.31-.62.11c.09.3.23.62.59.6l-.04-.16.16-.05-.2-.16.14-.02ZM4.34,37.33c-.5-.11-.37.83-.14.85l.15-.13-.22-.09.21-.24-.23-.05.25-.03v-.32ZM56.59,48.36l-.15-.03.08.18.07-.14ZM3.38,37.37l-.23-.05-.02.08.23.05.02-.08ZM56.61,48.61l-.23-.05-.05.23.28-.18ZM57.38,48.87c-.06.03-.09.16-.17.18l-.51-.43v.72s.69.31.69.31c.34-.26.54-.28.61-.75-.13-.02-.28-.09-.41-.08-.06,0-.08.11-.1.11-.04,0-.09-.07-.11-.06ZM4.62,38.67c-.32-.12-.37-.06-.59.15.18.2.37.2.55.4,0-.18.1-.27-.07-.37l.11-.18ZM2.95,39.04c-.22-.06-.26-.26-.52-.19l.21.12-.22.27c.08.06.5.1.52.12.09.1.13.61.26-.04l.48-.02c-.27-.09-.5-.17-.67-.42l-.07.14ZM3.89,40c-.03-.06.01-.14-.04-.13l-.38.08.25.3-.13.28.88.19.1-.3-.35.16c.1-.23-.18-.34-.32-.59ZM55.36,51.41c-.08-.06-.17-.09-.27-.07l-.16.35.35-.16c-.23.48-.11.28.04.43.06.06.02.22.13.25l.15-.32-.13-.08.11-.21c-.19.04-.21-.17-.23-.18ZM2.56,40.88l-.11-.42v.24s-.41,0-.41,0l-.04-.11v.5s.16-.25.16-.25l.4.05ZM4.13,41.5c-.1-.28.1-.62-.44-.7l.27.22-.26.46c-.01.21.31.2.13.58-.04.07-.51-.09-.52.35,0,.41.47.21.65.29.07.03-.04.22.17.19l.06-.31-.25.03.02-.31-.19.27h-.39s.06-.3.06-.3l.2.2v-.24s.5-.05.5-.05v-.24s.19.28.19.28c.26-.55-.12-.43-.22-.72ZM53.55,52.12c.02-.29.13-.43-.19-.6l-.22.27.28-.02v.16s-.33.09-.33.09l.38.08-.14.29.24-.19v.16s.21-.03.21-.03l.17.2c.03-.2,0-.3.23-.31l-.13-.15.28-.18-.31.03-.1.36-.18-.28-.18.12ZM2.29,41.78c-.31-.16-.36.23-.34.44l.38.17c.16.13-.21.21-.23.31.21.05.38,0,.39.24l.18-.28-.24.03c.25-.45-.07-.51-.31-.82l.18-.08ZM53.64,52.86c-.09-.15-.57.31-.3.5l.45-.06-.14.29.71.07c.11-.24-.13-.12-.19-.25-.04-.08,0-.28-.12-.37-.16-.07-.21.2-.28.18-.12-.03-.21-.23-.13-.35ZM3.16,44.45c.03-.18.19-.5.21-.64.01-.12-.09-.21-.08-.25.01-.07.22-.11.24-.19,0-.02-.05-.43-.12-.47-.15.23-.3.26-.32.56l-.46.47.45.13-.06.31.14.07ZM3.88,43.72l.05-.23-.27.14.22.09ZM54.16,54.17l-.3-.05-.14.23.18.24-.26.11.55.04c.09-.2-.05-.17-.2-.2l.16-.37ZM52.69,55.06c.08-.12.25-.31.26-.45,0-.05-.1-.07-.11-.1-.03-.1.07-.22-.06-.22-.01.17-.13.15-.26.11l-.05.22.22-.11.07.25-.25.07.13.15c-.19-.15-.42.17-.37.24.1.16.28-.25.43-.15l-.12.21c.6.16.54-.02.81-.43l-.13-.15c0,.29-.31.14-.17.44l-.38-.08ZM5.39,44.52c-.3-.09-.21.2-.29.32-.13.19-.35.25-.29.52l-.23-.05.03-.31-.11.14-.25-.14c-.06.25.22.22.25.53.01.16-.15.39-.14.48,0,.03.35.39-.1.47l.28.18-.11.53c.18.06.24-.03.21-.19h.23s-.27-.23-.27-.23v-1.1s.23,0,.23,0l.03-.15-.21-.12c.35.11.37-.21.5-.46l.37.16-.2-.2.08-.1c-.18-.12-.08-.1,0-.28ZM6.64,46.54c-.04-.28-.31-.15-.52-.19l.21.12-.14.29.38.08-.11-.22.02-.08h.16ZM51.01,56.95l.19-.64-.14-.15v.2s-.32.06-.32.06c-.06.13-.13.38.02.46l.26.06ZM6.41,46.89c-.17-.1-.15.07-.2.09-.12.05-.24-.11-.24.13l.38.08-.06.31.28-.18.03.25c.24-.49-.18-.35-.18-.68ZM48.49,56.02c-.25-.03-.43-.25-.64-.02-.11.12-.04.2-.07.25,0,.01-.11,0-.14.05-.08.15-.08.32-.18.46l.6-.36.12-.37.32-.02ZM50.26,57.11l-.23-.05c.15.3-.23.45-.26.62-.02.09.1.24.06.33-.05.11-.32-.01-.29.22.91-.11.44-.59.72-1.13ZM7.26,48.35c-.09.04.02.11.05.17.09-.03-.01-.11-.05-.17ZM48.26,57.49c.02-.3-.18-.5-.47-.42-.1.54,0,.28.18.51.05.06.07.18.06.26.24.02-.02-.39,0-.4l.23.05ZM5.9,48.54c.14.06.27-.04.28-.18l-.28.18ZM47.21,57.91l-.24-.37-.02.48c.25-.1.33.19.49.34.2-.26,0-.21,0-.26s.05-.08.05-.11c0-.02-.19-.4-.21-.39l-.07.31ZM9.48,50.38c-.11-.09-.36-.32-.36-.03.44.06.08.34.37.53l-.12.17.23.05.11-.53c-.18.02-.2-.15-.23-.18ZM13,52.77l-.37-.33-.15.13.2.16-.23.31c.33-.03.2.2.43.25l-.25-.33h.24s.12-.19.12-.19ZM10.43,52.86c-.12-.21-.17-.34-.12-.58l-.14.29-.33-.31c.08.17.11.23,0,.4l.6.21ZM43.09,59.6l-.15-.03c.1.28-.07.44-.14.69l.46.1-.09-.34.21.12c.12-.25-.35-.21-.29-.54ZM12.19,53.53s-.37-.15-.51,0c-.08-.29.08-.37-.32-.55l.18.28-.37-.16.09.34-.33.05c.43.51.86.02,1.31.24l.14-.29c-.19-.11-.15.08-.19.1ZM13.89,53.51c-.19-.11-.15.09-.22.1-.11.02-.45-.18-.49-.17l.06.49h.14c-.06-.11-.05-.18.08-.11.23.13.18.55.34.47.02-.01-.1-.47.23-.35l-.11.54s.71.02.68-.18l.07.02c-.05.18.11.24.26.3l-.22.27c.27,0,.33.17.49.34l.15-.32c-.22-.11-.04-.19-.05-.21-.02-.03-.49-.39-.54-.41-.2-.08-.49.03-.7-.14l.21-.24-.46-.1.06-.31ZM41.35,59.77c.06-.06.05-.13.07-.21l-.49.06.18.12v.16s-.23-.05-.23-.05l-.07.15-.16-.19.08.27-.09.13c.11.09.3-.13.34-.09,0,.01-.04.1-.01.13.01.02.3-.01.35.11.03.08-.1.23.04.23l.13-.61-.25-.13c-.09-.14.08-.05.11-.08ZM42.16,60.2l-.58.15c.06.21.04.37.25.49l.16-.17-.14-.11c.27-.07.24-.13.32-.37ZM9.54,53.63c-.23.06-.43-.21-.49.11-.02.09.23.61.29.63l.21-.02-.22-.49.21-.24ZM37.93,60.19l.05-.23-.11.12-.45-.08.08.26.79.16c.01-.3-.34-.21-.35-.23ZM10.89,54.48c-.18.02-.36-.1-.53-.06-.22.06-.2.33-.52.08,0,.15-.09.34.07.41l.11-.14c.1.46-.14.04-.22.31.04.19.48.07.32.42l.31.03c0-.24-.2-.41-.01-.68h-.32c.15-.32.17-.22.36-.27.02,0,.04-.11.07-.1.11.03.35.31.37-.01ZM14.91,55.49h-.16s-.11.5-.11.5c.09.09.27.05.33.08.05.02.01.25.25.21l-.11-.22h.24s-.21-.12-.21-.12l.14-.29-.3.1-.07-.25ZM37.75,60.63c-.3-.07-.4-.3-.61.03v-.16c-.12-.03-.27.08-.44.15l.3.3.07-.14.4.17.09-.12.13.08.06-.3ZM18.19,56.66c-.31-.15-.77-.19-.62.27-.2-.12-.36-.16-.56,0l.13.15c.03-.18.06-.16.21-.1.25.1.08.28.31.29l.04-.55s.41.16.49-.06ZM14.4,56.01c-.05.02-.13-.15-.23-.17-.25-.05-.53.43-.58.65l.21-.18c.25.03.42.04.52-.22l.21.12.06-.31c-.19-.12-.16.1-.19.11ZM18.46,56.82l-.21-.06.13.15h-.24s.37.15.37.15l-.18.08.03.25-.32-.03c.11.4.64.13.59-.22,0-.02-.16-.3-.18-.31ZM38.54,61.28l-.02.08c.06-.02.06-.04.02-.08ZM34.11,60.64c-.02-.06.08-.15-.03-.22-.39-.07-.75-.03-.91.36l.21.13s-.04-.41.16-.37v.23c.18-.04.22.14.33-.08l-.03.31.31.06c-.05-.12.07-.24.07-.33,0-.06-.1-.08-.1-.1ZM38.41,61.33l-.15-.03-.03.15.18-.12ZM19.62,57.44l-.49.06.15.43c.16,0,.14-.1.12-.21l.21.12.17-.2-.09.22.93.12-.9-.5-.23.19.12-.21ZM38.51,61.43l-.02.08c.06-.02.06-.04.02-.08ZM38.83,61.58l-.21-.13-.25.43c.06.1.52-.19.46-.3ZM39.2,61.73l.03-.15-.08-.02-.03.15.08.02ZM17.47,57.39c-.38.03-.4-.33-.72-.39l.14.19v.32s-.34-.31-.34-.31l-.03.31.17-.04c.16.25.48.34.76.4l-.21-.12c0-.24.25-.04.23-.35ZM35.03,61.02l-.31-.06.12.18-.6-.17c.03.16.33.16.35.2.01.02-.06.37.1.49h.28c0-.28-.19-.4.05-.64ZM14.16,57.17l.17-.08-.26-.26-.13.21.21.13ZM20.79,58.46s.03-.15-.03-.14l-.58.28c.25-.08.3.08.34.31l.11-.14.27.22-.22.27.31.06c.03-.28-.04-.36-.16-.59l.17-.21c-.07-.01-.14-.02-.2-.07ZM32.06,60.71l-.23-.05-.03.15.23.05.03-.15ZM23.6,59.08l-.98-.29.37.16-.12.18.49-.02-.12.21h.24s.13-.24.13-.24ZM18.83,58.16l-.37-.16.09.3c-.24.08-.31.09-.32.37l.16-.21.22.29c.01-.27-.05-.42.21-.6ZM20.12,58.51c.01-.22-.86-.35-.78-.08l.53.15-.07.31.14.07.26-.1-.22-.29.13-.05ZM13.14,57.43c.27-.24-1.07-.48-1.13-.72-.04.22.14.39.33.31l-.11.14.55.04-.05.23h.4ZM25.57,59.58l-1.09-.15.03.25.19.04c.12-.21.41-.15.62-.11.06.09-.57.52.15.43l-.04-.21c.2.12.29-.05.05-.12l.09-.13ZM26.21,59.96l-.2.2c.47,0,.13.45.7.47.08-.27-.35-.23-.3-.54l-.19.02v-.15ZM15.12,57.93l-.08-.18-.11-.02-.03.15.23.05ZM35.69,62.44l-.31-.22c-.1.25-.56.23-.51-.03l-.18.12.28.15-.1.13.23.05c-.09.11-.16.24,0,.32l.21-.6s.33.28.38.08ZM29.85,61.28c-.45-.03-.44.51-.29.82l.14-.13-.14-.06.16-.32.22.04-.21-.12.12-.21ZM22.83,60.04c-.26-.03-.42-.08-.58-.28l-.1.5.13.1-.18.08.43.25.06-.31-.26.1.02-.48c.05-.04.48.37.48.02ZM18.96,59.46l-.13-.15c-.21.08-.38-.01-.38.29h.23c-.04.24.14.07.21.11.02.01.13.5.33.37.12-.08,0-.23-.08-.31-.17-.18-.24-.17-.43-.32h.24ZM30.63,62.04c-.08-.07-.18-.1-.26-.16-.15.5-.09.89.49.65.04-.39-.12-.26-.16-.32-.04-.05-.04-.15-.07-.17ZM21.51,60.24c-.29-.13-.08.29-.24.42l.28.15-.2.2.19.04.31-.5-.2.2-.21-.13c.27-.24-.12-.2.08-.38ZM25.07,62.68h-.15s-.11.5-.11.5c.15.09.32-.08.44-.05.17.05.33.45.57.22-.29-.14-.63-.35-.75-.67Z"/>
      <g>
        <path class="cls-2" d="M30.88,34.16c-.39-.08-.77.17-.85.55-.08.39.17.77.55.85s.77-.17.85-.55-.17-.77-.55-.85Z"/>
        <path class="cls-2" d="M32.81,11.11l-.7-.15c-1.55-.33-3.07.67-3.4,2.21-.15.73-.02,1.48.37,2.1l-6.84,11.31c-.11.1-.19.23-.22.37l-8.87,14.66s0,.01-.01.02c-.39.7-.36,1.55.07,2.23.44.67,1.21,1.04,2.01.97,0,0,.02,0,.02,0,26.75-3.45,30.46-3.92,30.54-3.93.41.6,1.04,1.03,1.77,1.18,1.55.33,3.07-.67,3.4-2.21l.15-.7c2.71-12.84-5.53-25.36-18.27-28.05ZM26.11,22.94c1.82.05,3.1,1.73,2.74,3.46-.33,1.55-1.85,2.54-3.4,2.21-.82-.17-1.51-.69-1.92-1.42l2.58-4.26ZM33.74,41c-.29-.58-.38-1.24-.25-1.88.33-1.55,1.85-2.54,3.4-2.21,1.53.32,2.55,1.83,2.21,3.41l-5.37.69ZM40.59,40.11c.21-2.2-1.27-4.17-3.39-4.62-2.32-.49-4.61,1-5.1,3.32-.17.8-.11,1.62.17,2.37l-17.21,2.22c-.27.02-.51-.1-.66-.32-.15-.23-.16-.5-.03-.73l8.35-13.8c.61.74,1.46,1.27,2.43,1.47,2.32.49,4.61-1,5.1-3.32.49-2.32-1-4.62-3.33-5.1l3.21-5.31c.24.13.51.23.79.29l.7.15c9.68,2.04,15.89,11.58,13.84,21.25l-.15.7c-.06.28-.08.56-.05.84l-4.68.6ZM49.53,39.56h0c-.16.77-.93,1.27-1.7,1.11-.45-.1-.84-.41-1.02-.84-.12-.27-.15-.57-.09-.86l.15-.7c2.21-10.47-4.48-20.74-14.95-22.95l-.7-.15c-.29-.06-.55-.21-.75-.43,0,0,0,0,0,0-.32-.34-.45-.82-.35-1.27.16-.77.93-1.27,1.7-1.11l.7.15c12.11,2.56,19.71,14.31,17.17,26.35l-.15.7Z"/>
        <path class="cls-2" d="M41.08,26.91c-.86-1.33-2.64-1.7-3.97-.84-1.33.86-1.7,2.64-.84,3.97.87,1.33,2.64,1.7,3.97.84,1.33-.86,1.7-2.64.84-3.97ZM39.46,29.68s0,0,0,0c-.66.43-1.55.25-1.98-.42-.43-.66-.25-1.55.42-1.98.66-.43,1.55-.25,1.98.42.43.66.25,1.55-.42,1.98Z"/>
        <path class="cls-2" d="M24.63,36.42c-.65-1-1.98-1.28-2.98-.63-1,.65-1.28,1.98-.63,2.98.65,1,1.98,1.28,2.98.63h0c1-.65,1.28-1.98.63-2.98ZM23.21,38.19c-.33.22-.78.12-.99-.21-.22-.33-.12-.78.21-.99.33-.22.78-.12.99.21.22.33.12.78-.21.99Z"/>
        <path class="cls-2" d="M42.7,33.72l-1.4-.3c-.39-.08-.77.17-.85.55s.17.77.55.85l1.4.3c.39.08.77-.17.85-.55s-.17-.77-.55-.85Z"/>
        <path class="cls-2" d="M37.2,21.23c-.1-.38-.49-.61-.88-.51l-3.1.81c-.38.1-.61.49-.51.88.1.38.49.61.88.51l3.1-.81c.38-.1.61-.49.51-.88Z"/>
        <path class="cls-2" d="M33.42,32.17l-.81-3.1c-.1-.38-.49-.61-.88-.51-.38.1-.61.49-.51.88l.81,3.1c.1.38.49.61.88.51.38-.1.61-.49.51-.88Z"/>
        <path class="cls-2" d="M26.96,31.87l-1.4-.3c-.39-.08-.77.17-.85.55-.08.39.17.77.55.85l1.4.3c.39.08.77-.17.85-.55s-.17-.77-.55-.85Z"/>
      </g>
    </g>
  </g>
</svg>