<svg width="336" height="276" viewBox="0 0 336 276" fill="none" xmlns="http://www.w3.org/2000/svg">
<path d="M236.549 193.125L236.436 191.655L251.298 190.476L250.683 183.675L243.155 184.353L243.025 182.9L252.011 182.092L252.901 191.816L236.549 193.125Z" fill="#096641"/>
<path d="M333.365 175.453C333.365 175.453 326.775 187.713 291.255 193.238C278.238 195.257 269.593 195.887 263.878 195.871C254.002 195.839 252.836 193.868 252.836 193.868L251.833 182.835L333.381 175.453M335.939 173.74L333.219 173.983L251.671 181.365L250.198 181.494L250.327 182.964L251.331 193.997L251.363 194.32L251.525 194.611C252.124 195.612 254.504 197.292 263.829 197.325C270.694 197.341 279.987 196.452 291.433 194.676C327.277 189.103 334.336 176.664 334.627 176.131L335.923 173.724L335.939 173.74Z" fill="#096641"/>
<path d="M19.0874 190.104L11.7373 177.472L9.66496 177.714L9.61639 191.202L0.954834 192.22L1.08435 156.488L15.6228 154.792C18.4237 154.469 20.8198 154.679 22.7949 155.422C24.7701 156.181 26.2433 157.361 27.2147 158.96C28.1861 160.559 28.6718 162.417 28.6718 164.517C28.6718 166.891 27.9919 169.088 26.6481 171.107C25.3043 173.127 23.3292 174.677 20.7226 175.76L28.8823 188.957L19.1036 190.104H19.0874ZM9.66496 171.56L15.04 170.93C16.6266 170.736 17.8246 170.219 18.6179 169.347C19.4112 168.474 19.816 167.327 19.816 165.89C19.816 164.452 19.4274 163.515 18.6341 162.82C17.8408 162.126 16.659 161.884 15.0724 162.061L9.69734 162.691L9.66496 171.543V171.56Z" fill="#096641"/>
<path d="M43.1941 158.54L43.1617 165.76L54.7698 164.404V171.123L43.1455 172.48L43.1131 180.315L56.2431 178.78L56.2107 185.759L34.4192 188.295L34.5487 152.563L56.3402 150.027L56.3078 157.005L43.1779 158.54H43.1941Z" fill="#096641"/>
<path d="M68.1913 183.465C66.1352 182.851 64.4838 181.785 63.2696 180.266C62.0392 178.748 61.3916 176.826 61.343 174.483L70.5712 173.401C70.7007 174.71 71.1541 175.663 71.9312 176.277C72.7083 176.874 73.712 177.117 74.9587 176.971C76.2377 176.826 77.2576 176.406 78.0023 175.727C78.7471 175.049 79.1195 174.177 79.1195 173.127C79.1195 172.238 78.828 171.543 78.2452 171.043C77.6624 170.542 76.9338 170.138 76.0758 169.864C75.2177 169.589 73.9873 169.314 72.4007 169.024C70.1017 168.587 68.2399 168.087 66.7828 167.537C65.3257 166.988 64.0791 166.084 63.0429 164.824C62.0068 163.564 61.4887 161.803 61.4887 159.557C61.4887 156.23 62.703 153.484 65.1152 151.319C67.5275 149.155 70.6522 147.846 74.5053 147.394C78.4233 146.941 81.5803 147.507 83.9764 149.122C86.3725 150.721 87.6353 153.193 87.7972 156.537L78.4233 157.635C78.3585 156.488 77.9376 155.632 77.1605 155.067C76.3834 154.501 75.3958 154.275 74.1816 154.421C73.1292 154.534 72.2873 154.921 71.6397 155.551C70.9922 156.181 70.6684 157.037 70.6684 158.087C70.6684 159.234 71.2026 160.074 72.2873 160.591C73.3721 161.108 75.0558 161.609 77.3548 162.094C79.6537 162.611 81.5155 163.144 82.9403 163.677C84.3811 164.226 85.6116 165.114 86.6477 166.342C87.6839 167.57 88.2019 169.266 88.2019 171.398C88.2019 173.53 87.6677 175.34 86.6315 177.133C85.5954 178.926 84.0897 180.412 82.1308 181.623C80.1718 182.835 77.8566 183.594 75.1853 183.917C72.5788 184.224 70.2474 184.063 68.1913 183.465Z" fill="#096641"/>
<path d="M119.642 142.645L119.61 149.623L110.188 150.721L110.09 179.475L101.429 180.493L101.526 151.739L92.1035 152.838L92.1359 145.859L119.659 142.645H119.642Z" fill="#096641"/>
<path d="M146.501 168.927L133.226 170.477L131.072 177.036L122.006 178.102L135.007 140.868L145.044 139.705L157.786 173.934L148.606 175L146.501 168.943V168.927ZM144.3 162.465L139.928 149.898L135.525 163.483L144.3 162.465Z" fill="#096641"/>
<path d="M170.77 136.684L170.689 158.055C170.689 160.188 171.191 161.787 172.243 162.804C173.279 163.838 174.818 164.226 176.841 164C178.865 163.757 180.419 162.998 181.504 161.722C182.589 160.446 183.139 158.734 183.139 156.601L183.22 135.23L191.882 134.212L191.801 155.535C191.801 158.734 191.104 161.496 189.745 163.871C188.385 166.229 186.571 168.103 184.272 169.492C181.99 170.881 179.448 171.737 176.647 172.06C173.846 172.384 171.337 172.125 169.119 171.285C166.917 170.445 165.168 168.975 163.889 166.907C162.61 164.84 161.979 162.207 161.995 159.008L162.076 137.685L170.738 136.684H170.77Z" fill="#096641"/>
<path d="M216.458 167.085L209.108 154.453L207.035 154.695L206.987 168.183L198.325 169.201L198.455 133.469L212.993 131.773C215.794 131.45 218.19 131.66 220.165 132.403C222.14 133.162 223.614 134.342 224.585 135.941C225.556 137.54 226.042 139.398 226.042 141.498C226.042 143.872 225.362 146.069 224.018 148.088C222.675 150.108 220.7 151.658 218.109 152.757L226.269 165.954L216.49 167.101L216.458 167.085ZM207.052 148.541L212.427 147.911C214.013 147.733 215.211 147.2 216.004 146.328C216.798 145.455 217.203 144.308 217.203 142.871C217.203 141.433 216.814 140.496 216.021 139.802C215.227 139.123 214.046 138.865 212.459 139.042L207.084 139.672L207.052 148.524V148.541Z" fill="#096641"/>
<path d="M253.986 156.391L240.71 157.942L238.557 164.5L229.49 165.567L242.491 128.332L252.529 127.169L265.27 161.399L256.09 162.465L253.986 156.408V156.391ZM251.768 149.93L247.413 137.362L243.009 150.948L251.768 149.93Z" fill="#096641"/>
<path d="M301.438 157.167L292.776 158.168L278.367 137.815L278.287 159.864L269.625 160.866L269.754 125.134L278.416 124.133L292.825 144.583L292.906 122.436L301.568 121.419L301.438 157.151V157.167Z" fill="#096641"/>
<path d="M333.899 117.671L333.866 124.649L324.444 125.748L324.347 154.501L315.685 155.519L315.782 126.766L306.36 127.864L306.392 120.886L333.915 117.671H333.899Z" fill="#096641"/>
<path d="M146.016 192.414L136.609 229.228L126.118 230.456L120.517 207.598L114.559 231.797L104.068 233.024L95.1797 198.342L104.456 197.26L109.492 222.67L115.919 195.919L125.455 194.805L131.445 220.101L136.707 193.48L146.032 192.398L146.016 192.414Z" fill="#096641"/>
<path d="M159.469 197.825L159.437 205.046L171.045 203.689V210.409L159.421 211.766L159.389 219.601L172.518 218.066L172.486 225.044L150.695 227.581L150.824 191.849L172.616 189.312L172.583 196.291L159.453 197.825H159.469Z" fill="#096641"/>
<path d="M187.332 194.579L187.3 201.799L198.908 200.442V207.162L187.284 208.519L187.251 216.354L200.381 214.819L200.349 221.798L178.557 224.334L178.687 188.602L200.478 186.066L200.446 193.044L187.316 194.579H187.332Z" fill="#096641"/>
<path d="M227.062 218.696L215.163 204.303L215.114 220.085L206.452 221.087L206.582 185.355L215.243 184.337L215.195 200.022L227.111 182.964L237.294 181.769L223.452 200.879L237.683 217.436L227.094 218.664L227.062 218.696Z" fill="#096641"/>
<path d="M95.4712 115.296L95.4226 130.949L90.5495 131.515L90.5819 123.713L88.1534 131.805L83.9764 132.29L81.5965 124.762L81.5641 132.565L76.6748 133.13L76.7234 117.477L82.7136 116.783L86.1135 125.78L89.4972 115.991L95.4712 115.296Z" fill="#096641"/>
<path d="M108.86 127.024L103.663 127.622L102.886 130.077L97.7539 130.675L103.517 114.343L109.152 113.681L114.786 128.672L109.637 129.269L108.876 126.992L108.86 127.024ZM107.678 123.47L106.286 119.27L104.861 123.793L107.678 123.47Z" fill="#096641"/>
<path d="M129.195 119.416C128.741 120.272 128.061 120.983 127.171 121.564C126.28 122.146 125.212 122.501 123.949 122.646L122.006 122.873V127.848L117.101 128.413L117.149 112.76L123.982 111.969C125.892 111.743 127.349 112.066 128.369 112.922C129.389 113.778 129.891 115.022 129.891 116.653C129.891 117.639 129.664 118.559 129.195 119.416ZM124.937 117.235C124.937 116.282 124.435 115.846 123.431 115.975L122.039 116.136V119.012L123.415 118.85C124.435 118.737 124.937 118.204 124.937 117.235Z" fill="#096641"/>
<path d="M137.516 122.323L142.227 121.774V125.489L132.611 126.604L132.659 110.951L137.548 110.386L137.5 122.323H137.516Z" fill="#096641"/>
<path d="M149.918 112.857V114.78L154.758 114.214V117.913L149.901 118.479V120.692L155.406 120.046V123.955L144.996 125.166L145.044 109.513L155.438 108.302V112.211L149.918 112.857Z" fill="#096641"/>
<path d="M173.037 111.597C172.842 111.307 172.583 111.097 172.227 110.967C171.871 110.838 171.45 110.806 170.948 110.87C170.009 110.983 169.281 111.371 168.762 112.05C168.244 112.728 167.985 113.584 167.985 114.65C167.985 115.878 168.261 116.75 168.827 117.3C169.394 117.833 170.284 118.043 171.466 117.897C172.599 117.768 173.506 117.203 174.202 116.201L170.301 116.653V113.18L178.266 112.26V117.17C177.57 118.414 176.631 119.529 175.449 120.498C174.251 121.467 172.745 122.065 170.932 122.275C169.313 122.469 167.904 122.291 166.723 121.758C165.525 121.225 164.618 120.401 163.986 119.254C163.355 118.123 163.031 116.783 163.047 115.232C163.064 113.681 163.371 112.26 164.019 110.983C164.666 109.707 165.573 108.657 166.771 107.85C167.969 107.042 169.361 106.541 170.964 106.363C173.004 106.121 174.672 106.428 175.951 107.268C177.23 108.108 177.991 109.352 178.217 111.032L173.069 111.63L173.037 111.597Z" fill="#096641"/>
<path d="M189.081 120.03L186.167 114.747H186.15L186.134 120.369L181.245 120.934L181.293 105.281L188.563 104.441C189.825 104.296 190.91 104.393 191.801 104.732C192.691 105.071 193.371 105.604 193.808 106.331C194.245 107.058 194.472 107.898 194.472 108.867C194.472 109.917 194.181 110.87 193.598 111.759C193.015 112.647 192.173 113.31 191.088 113.794L194.456 119.4L189.081 120.03ZM186.15 111.484L188.093 111.258C188.563 111.21 188.919 111.048 189.146 110.806C189.388 110.563 189.502 110.224 189.502 109.756C189.502 109.336 189.388 109.029 189.146 108.819C188.903 108.609 188.563 108.528 188.109 108.593L186.167 108.819V111.468L186.15 111.484Z" fill="#096641"/>
<path d="M200.786 117.784C199.556 117.235 198.601 116.395 197.872 115.248C197.16 114.101 196.803 112.776 196.803 111.242C196.803 109.707 197.176 108.286 197.888 106.977C198.617 105.669 199.588 104.603 200.819 103.779C202.049 102.955 203.393 102.454 204.866 102.277C206.339 102.099 207.667 102.277 208.897 102.842C210.111 103.391 211.083 104.231 211.779 105.362C212.491 106.509 212.831 107.85 212.831 109.368C212.831 110.886 212.459 112.324 211.747 113.633C211.034 114.941 210.063 116.007 208.833 116.847C207.602 117.687 206.258 118.188 204.817 118.349C203.344 118.527 202 118.333 200.786 117.784ZM207.084 112.566C207.618 111.872 207.877 111 207.893 109.95C207.91 108.9 207.634 108.06 207.116 107.494C206.598 106.929 205.837 106.703 204.866 106.816C203.878 106.929 203.117 107.333 202.599 108.027C202.065 108.722 201.806 109.594 201.806 110.676C201.806 111.759 202.065 112.55 202.583 113.116C203.118 113.681 203.862 113.907 204.85 113.794C205.821 113.681 206.566 113.277 207.1 112.583L207.084 112.566Z" fill="#096641"/>
<path d="M231.563 99.4174L226.269 115.684L219.955 116.427L214.774 101.372L219.971 100.774L223.144 111.177L226.366 100.031L231.563 99.4336V99.4174Z" fill="#096641"/>
<path d="M238.767 102.487V104.409L243.608 103.844V107.543L238.751 108.108V110.321L244.256 109.675V113.584L233.846 114.796L233.894 99.1428L244.288 97.9313V101.84L238.767 102.487Z" fill="#096641"/>
<path d="M105.493 51.231C73.6796 69.6623 51.1757 102.083 46.3835 140.27L48.3263 140.512C52.9404 103.795 74.2139 72.5377 104.392 54.2033C104.537 53.1371 104.91 52.1194 105.493 51.2148V51.231Z" fill="#096641"/>
<path d="M199.135 39.4711C199.07 40.1334 198.924 40.7796 198.698 41.3934C233.587 51.2795 262.987 76.8023 276.83 112.146L278.659 111.436C264.59 75.4777 234.655 49.5026 199.151 39.4711H199.135Z" fill="#096641"/>
<path d="M168.617 275.428C128.45 275.282 90.8247 256.932 68.3208 225.868L69.9074 224.721C94.2407 258.321 136.593 276.817 180.435 272.989C224.002 267.222 260.705 239.26 276.182 200.022L278.012 200.733C262.275 240.617 224.957 269.047 180.646 274.927C176.615 275.282 172.6 275.444 168.617 275.428Z" fill="#096641"/>
<path d="M107.177 64.477C81.969 80.8568 63.8363 107.349 58.8984 138.17L60.8412 138.477C65.7629 107.736 84.0412 81.3576 109.411 65.3493C109.216 65.2524 109.055 65.1393 108.876 65.0262C108.261 64.9131 107.695 64.7193 107.177 64.477Z" fill="#096641"/>
<path d="M203.393 53.6379C203.603 54.3648 203.716 55.1079 203.716 55.8671C230.462 65.947 252.901 86.4783 264.493 113.907L266.306 113.148C254.358 84.8629 231.093 63.7662 203.393 53.6379Z" fill="#096641"/>
<path d="M165.735 263.232C132.158 263.119 98.9036 248.015 78.812 220.134L80.3986 218.987C112.438 263.442 178.541 274.782 224.763 243.766C239.885 233.622 252.399 219.536 260.964 203.011L262.712 203.915C253.986 220.715 241.245 235.06 225.864 245.398C207.78 257.529 186.685 263.296 165.735 263.232Z" fill="#096641"/>
<path d="M148.93 3.73924L157.754 13.1245L158.434 13.8514L159.421 13.7707L166.464 13.2214L163.08 35.3843L161.979 42.6373L166.723 37.0481L176.615 25.3851L180.856 31.0551L181.455 31.8466L182.459 31.8789L195.33 32.3312L192.076 44.7857L191.817 45.7549L192.416 46.5464L196.642 52.1841L174.963 61.6178L172.502 62.684L174.154 64.8001L178.541 70.3893L159 71.8915L156.928 72.0531L157.09 74.1208L158.126 87.5121L152.848 87.916L151.812 74.5246L151.65 72.4569L149.578 72.6185L129.648 74.1531L133.113 67.9985L134.424 65.6562L131.817 64.9778L108.86 58.9686L112.163 52.7495L112.632 51.861L112.228 50.9402L107.079 39.1319L119.756 36.7089L120.744 36.515L121.213 35.6266L124.5 29.3751L136.593 39.8104L142.147 44.608L139.945 37.6296L133.032 15.7737L140.107 15.2245L141.094 15.1437L141.661 14.3199L148.93 3.69077M148.671 0.427734L139.945 13.1891L130.263 13.9322L137.97 38.2758L123.901 26.1282L119.4 34.6897L104.181 37.6135L110.366 51.7964L105.833 60.3417L131.316 67.0131L125.941 76.56L149.74 74.7184L150.938 90.1775L160.36 89.4506L159.162 73.9915L182.573 72.1823L175.789 63.5563L199.863 53.0725L194.067 45.3349L197.969 30.3766L182.508 29.8274L176.712 22.0575L165.12 35.7073L168.908 10.9599L159.259 11.703L148.671 0.443888V0.427734Z" fill="#096641"/>
<path d="M13.162 227.968C11.4621 227.968 10.0536 227.936 9.03361 227.904L8.19173 227.871L7.90032 225.578L8.79076 225.4C15.9305 223.946 32.9784 221.281 39.3895 220.279L40.1343 220.166C41.9961 219.924 44.1332 219.568 44.6836 219.358C44.8779 219.294 45.0236 219.213 45.1207 219.148C44.1655 219.003 41.1219 219.471 38.8553 219.811L38.3534 219.891C23.993 221.588 12.7411 222.121 8.35363 222.185H7.47938L7.18797 219.891L8.04603 219.698C18.3913 217.291 37.9648 214.561 43.7122 213.785C44.4893 213.688 44.6512 213.478 44.6512 213.462L44.6027 213.317C44.6027 213.317 44.4408 213.317 44.117 213.317C43.9713 213.317 43.7932 213.317 43.5665 213.349C37.9648 214.157 18.0837 216.176 7.64128 216.354H6.76703L6.47561 214.108L7.33367 213.915C11.3973 212.994 24.673 210.199 37.2525 208.519C39.4705 208.293 40.6847 208.164 42.3199 207.905C42.5142 207.857 42.757 207.825 42.9999 207.792C43.178 207.76 43.3399 207.744 43.4694 207.712C43.3884 207.712 43.3075 207.695 43.2103 207.679C42.6275 207.598 40.4257 207.792 38.661 208.002L37.8515 208.083C31.3918 208.681 14.2144 210.28 6.94512 210.619L6.03849 210.668L5.74707 208.374L6.55656 208.148C10.7012 206.968 22.0179 204.109 30.5337 202.849C32.2984 202.591 34.225 202.268 36.2325 201.929C47.4521 200.039 60.1773 197.906 65.7466 202.235C72.1092 207.162 89.1571 204.19 91.0837 203.835L91.4398 205.757C88.1533 206.371 71.4292 209.117 64.5323 203.77C59.643 199.974 46.8369 202.122 36.5401 203.851C34.5164 204.19 32.5898 204.513 30.8089 204.772C25.5149 205.563 19.1199 206.968 14.0848 208.196C22.2121 207.582 32.865 206.581 37.641 206.128L38.4343 206.048C39.0657 205.983 42.3685 205.612 43.4208 205.725C44.1332 205.805 44.9427 205.951 45.4283 206.565C45.7198 206.936 45.8331 207.405 45.7683 207.954C45.7036 208.535 45.1855 208.988 44.9588 209.165C44.2951 209.569 43.7284 209.65 43.2265 209.715C43.0323 209.747 42.8542 209.763 42.6599 209.812C40.8466 210.118 39.4705 210.248 37.4468 210.458C30.0156 211.459 22.3255 212.848 16.4647 213.995C26.7129 213.317 39.0334 212.025 43.2427 211.427C44.3274 211.265 45.1855 211.427 45.8007 211.895C46.2055 212.202 46.4645 212.638 46.5131 213.075L46.5454 213.317C46.5778 213.511 46.7397 215.336 43.9389 215.724C39.5838 216.305 27.2472 218.018 17.08 219.859C22.5359 219.52 29.7728 218.938 38.0458 217.953L38.5153 217.888C43.5827 217.129 46.0759 216.822 46.934 218.147C47.2416 218.615 47.3226 219.148 47.1607 219.649C46.9502 220.311 46.335 220.828 45.3474 221.2C44.3922 221.571 41.3161 221.991 40.3933 222.121L39.6648 222.234C34.9211 222.977 24.3492 224.624 16.3028 226.014C21.4836 225.965 28.0243 225.771 33.3507 225.238C35.1316 225.061 37.0906 224.899 39.1305 224.738C49.5244 223.881 62.4762 222.831 66.2808 217.953C71.1054 211.766 86.6315 210.829 92.476 210.49L93.4312 210.425L93.5607 212.38L92.5893 212.445C87.5219 212.751 72.093 213.672 67.8189 219.165C63.48 224.721 50.6253 225.771 39.2762 226.692C37.2525 226.854 35.3097 227.015 33.5288 227.193C26.9719 227.855 18.6018 228.017 13.0973 228.001L13.162 227.968Z" fill="#096641"/>
<path d="M153.625 235.221L155.341 235.027L155.373 235.27L153.657 235.464L153.819 236.917L155.713 236.707L155.746 236.95L153.576 237.192L153.172 233.654L155.309 233.412L155.341 233.654L153.479 233.864L153.641 235.221H153.625Z" fill="#096641"/>
<path d="M158.66 234.979L157.689 236.724L157.349 236.756L158.466 234.769L157.025 233.202L157.365 233.17L158.611 234.543L159.518 232.911L159.858 232.879L158.806 234.737L160.36 236.417L160.02 236.449L158.676 234.963L158.66 234.979Z" fill="#096641"/>
<path d="M161.72 232.669L162.708 232.556C163.452 232.475 163.987 232.863 164.051 233.444C164.116 234.026 163.695 234.527 162.95 234.607L162.254 234.688L162.432 236.174L162.141 236.207L161.736 232.669H161.72ZM162.934 234.365C163.468 234.301 163.808 233.945 163.76 233.477C163.711 233.008 163.29 232.734 162.756 232.798L162.044 232.879L162.222 234.446L162.934 234.365Z" fill="#096641"/>
<path d="M166.221 233.784L167.937 233.59L167.969 233.832L166.253 234.026L166.415 235.48L168.309 235.27L168.342 235.512L166.172 235.754L165.767 232.217L167.904 231.974L167.937 232.217L166.075 232.427L166.237 233.784H166.221Z" fill="#096641"/>
<path d="M169.896 231.732L170.835 231.619C171.628 231.522 172.13 231.894 172.211 232.475C172.292 233.234 171.596 233.525 171.32 233.574L172.599 234.995L172.259 235.027L170.997 233.606L170.43 233.67L170.608 235.205L170.317 235.237L169.912 231.7L169.896 231.732ZM171.045 233.38C171.628 233.315 171.952 232.992 171.903 232.524C171.855 232.055 171.45 231.813 170.883 231.877L170.22 231.958L170.398 233.46L171.061 233.38H171.045Z" fill="#096641"/>
<path d="M174.105 231.247L174.396 231.215L174.801 234.753L174.51 234.785L174.105 231.247Z" fill="#096641"/>
<path d="M177.1 232.524L178.816 232.33L178.849 232.572L177.133 232.766L177.295 234.22L179.189 234.01L179.221 234.252L177.052 234.494L176.647 230.957L178.784 230.714L178.816 230.957L176.955 231.167L177.116 232.524H177.1Z" fill="#096641"/>
<path d="M181.067 230.44L183.803 233.25L183.447 230.165L183.738 230.133L184.143 233.67L183.851 233.703L181.115 230.876L181.472 233.977L181.18 234.01L180.775 230.472L181.067 230.44Z" fill="#096641"/>
<path d="M189.097 232.394L189.323 232.556C189.032 232.96 188.546 233.234 187.963 233.315C186.846 233.444 185.956 232.717 185.843 231.7C185.729 230.682 186.425 229.777 187.543 229.648C188.109 229.584 188.611 229.729 188.983 230.036L188.805 230.23C188.498 229.971 188.061 229.858 187.575 229.907C186.62 230.02 186.037 230.795 186.15 231.667C186.264 232.54 186.976 233.17 187.947 233.057C188.465 232.992 188.87 232.734 189.113 232.41L189.097 232.394Z" fill="#096641"/>
<path d="M191.25 230.908L192.966 230.714L192.999 230.957L191.283 231.151L191.444 232.604L193.339 232.394L193.371 232.637L191.202 232.879L190.797 229.341L192.934 229.099L192.966 229.341L191.104 229.551L191.266 230.908H191.25Z" fill="#096641"/>
<path d="M143.409 239.615L144.445 248.596L141.936 248.887L141.369 243.928L140.252 249.081L138.164 249.323L135.881 244.526L136.464 249.517L133.954 249.808L132.918 240.827L135.946 240.471L138.876 246.044L140.414 239.954L143.425 239.615H143.409Z" fill="#096641"/>
<path d="M150.727 246.383L147.538 246.755L147.214 248.273L144.591 248.58L146.841 239.227L149.723 238.888L154.03 247.498L151.391 247.805L150.743 246.4L150.727 246.383ZM149.885 244.558L148.574 241.763L147.959 244.784L149.885 244.558Z" fill="#096641"/>
<path d="M163.889 244.429L166.69 244.106L166.917 246.012L161.623 246.626L160.587 237.644L163.096 237.354L163.906 244.429H163.889Z" fill="#096641"/>
<path d="M168.892 238.71L169.054 240.18L171.92 239.857L172.146 241.747L169.281 242.07L169.475 243.686L172.729 243.314L172.956 245.317L167.208 245.98L166.172 236.998L171.92 236.336L172.146 238.339L168.892 238.71Z" fill="#096641"/>
<path d="M180.322 238.371C180.144 238.145 179.934 237.984 179.658 237.887C179.383 237.79 179.092 237.757 178.752 237.79C178.12 237.854 177.651 238.129 177.343 238.565C177.036 239.017 176.906 239.583 176.987 240.277C177.084 241.053 177.343 241.618 177.764 241.974C178.201 242.329 178.784 242.474 179.529 242.377C180.403 242.28 180.986 241.812 181.261 240.972L178.752 241.263L178.541 239.47L183.204 238.937L183.479 241.36C183.333 241.86 183.107 242.329 182.767 242.797C182.443 243.25 181.99 243.653 181.455 243.993C180.921 244.332 180.257 244.542 179.529 244.623C178.622 244.72 177.813 244.623 177.068 244.316C176.323 244.009 175.724 243.524 175.271 242.878C174.818 242.232 174.526 241.457 174.429 240.568C174.332 239.68 174.429 238.872 174.72 238.145C175.012 237.402 175.498 236.804 176.129 236.336C176.777 235.867 177.554 235.593 178.444 235.48C179.577 235.35 180.549 235.512 181.342 235.964C182.135 236.417 182.686 237.111 182.977 238.032L180.29 238.339L180.322 238.371Z" fill="#096641"/>
<path d="M193.938 242.393C193.193 242.087 192.561 241.602 192.076 240.94C191.59 240.293 191.282 239.518 191.185 238.63C191.088 237.741 191.185 236.934 191.525 236.19C191.849 235.447 192.351 234.834 193.015 234.365C193.679 233.897 194.423 233.606 195.265 233.509C196.107 233.412 196.917 233.509 197.661 233.832C198.406 234.139 199.021 234.624 199.523 235.27C200.009 235.916 200.3 236.691 200.414 237.58C200.527 238.468 200.414 239.276 200.074 240.019C199.75 240.762 199.248 241.376 198.584 241.86C197.92 242.329 197.176 242.62 196.334 242.717C195.492 242.813 194.699 242.717 193.938 242.393ZM197.499 239.615C197.823 239.163 197.937 238.581 197.856 237.887C197.775 237.192 197.516 236.627 197.111 236.271C196.69 235.9 196.172 235.754 195.524 235.835C194.877 235.916 194.391 236.174 194.083 236.627C193.76 237.079 193.646 237.66 193.727 238.371C193.808 239.082 194.051 239.615 194.472 239.987C194.893 240.358 195.411 240.503 196.058 240.423C196.706 240.342 197.176 240.083 197.499 239.631V239.615Z" fill="#096641"/>
<path d="M208.233 232.168L206.161 241.505L202.955 241.877L198.811 233.251L201.498 232.944L204.283 239.195L205.562 232.475L208.233 232.168Z" fill="#096641"/>
<path d="M211.067 233.864L211.228 235.334L214.094 235.011L214.321 236.901L211.455 237.224L211.649 238.84L214.904 238.468L215.13 240.471L209.383 241.133L208.347 232.152L214.094 231.49L214.321 233.493L211.067 233.864Z" fill="#096641"/>
<path d="M160.02 239.163C159.712 238.743 159.291 238.436 158.757 238.242C158.223 238.048 157.591 237.984 156.863 238.064L153.123 238.5L154.159 247.482L156.669 247.191L156.312 244.154L157.543 244.009C158.271 243.928 158.87 243.718 159.356 243.395C159.826 243.072 160.166 242.668 160.376 242.2C160.57 241.731 160.651 241.214 160.587 240.665C160.522 240.083 160.328 239.583 160.02 239.163ZM158.142 241.86C158.142 241.973 158.142 242.07 158.142 242.183C157.834 242.135 157.51 242.087 157.203 242.038C157.203 242.167 157.203 242.28 157.203 242.41C156.96 242.28 156.717 242.151 156.491 242.038C156.377 242.2 156.28 242.345 156.167 242.507L155.875 242.361C155.989 242.2 156.086 242.054 156.199 241.893C155.956 241.763 155.713 241.634 155.471 241.505C155.6 241.44 155.713 241.392 155.843 241.327C155.649 241.101 155.454 240.891 155.26 240.665C155.373 240.617 155.471 240.552 155.584 240.503C155.632 240.326 155.681 240.164 155.73 239.987C155.892 240.051 156.07 240.116 156.231 240.18C156.345 240.132 156.442 240.067 156.555 240.019C156.604 240.213 156.636 240.423 156.685 240.617C156.798 240.342 156.911 240.051 157.025 239.777C157.122 239.825 157.219 239.873 157.316 239.938C157.494 239.873 157.672 239.809 157.867 239.728C157.867 239.906 157.899 240.067 157.915 240.245C158.012 240.293 158.11 240.342 158.207 240.407C157.98 240.617 157.753 240.827 157.527 241.037C157.737 240.972 157.964 240.923 158.174 240.859C158.174 240.972 158.174 241.085 158.174 241.182C158.32 241.279 158.466 241.376 158.611 241.489C158.466 241.602 158.304 241.731 158.158 241.844L158.142 241.86Z" fill="#096641"/>
<path d="M188.805 243.492L191.606 243.169L189.178 239.906C189.809 239.631 190.263 239.244 190.538 238.743C190.813 238.242 190.926 237.693 190.862 237.079C190.797 236.53 190.619 236.061 190.311 235.657C190.004 235.254 189.583 234.947 189.048 234.753C188.514 234.559 187.883 234.511 187.17 234.591L183.22 235.044L184.256 244.025L186.766 243.734L186.377 240.423L186.652 240.39L188.822 243.492H188.805ZM186.296 239.034L186.005 238.888C186.118 238.727 186.215 238.581 186.328 238.42C186.086 238.29 185.843 238.161 185.6 238.032C185.729 237.967 185.843 237.919 185.972 237.854C185.778 237.628 185.584 237.418 185.389 237.192C185.503 237.144 185.6 237.079 185.713 237.03C185.762 236.853 185.81 236.691 185.859 236.514C186.021 236.578 186.199 236.643 186.361 236.707C186.474 236.659 186.571 236.594 186.685 236.546C186.733 236.74 186.766 236.95 186.814 237.144C186.927 236.869 187.041 236.578 187.154 236.304C187.251 236.352 187.348 236.4 187.446 236.465C187.624 236.4 187.802 236.336 187.996 236.255C187.996 236.433 188.028 236.594 188.045 236.772L188.336 236.934C188.109 237.144 187.883 237.354 187.656 237.564C187.866 237.499 188.093 237.45 188.304 237.386C188.304 237.499 188.304 237.612 188.304 237.709C188.449 237.806 188.595 237.903 188.741 238.016C188.595 238.129 188.433 238.258 188.287 238.371C188.287 238.484 188.287 238.597 188.287 238.694C187.98 238.646 187.656 238.597 187.348 238.549C187.348 238.678 187.348 238.791 187.348 238.92C187.106 238.791 186.863 238.662 186.636 238.549C186.523 238.71 186.426 238.856 186.312 239.017L186.296 239.034Z" fill="#096641"/>
</svg>
