<?xml version="1.0" encoding="UTF-8"?>
<svg id="Layer_2" data-name="Layer 2" xmlns="http://www.w3.org/2000/svg" xmlns:xlink="http://www.w3.org/1999/xlink" viewBox="0 0 65.33 64.66">
  <defs>
    <style>
      .cls-1 {
        fill: url(#linear-gradient);
      }

      .cls-2 {
        fill: #7dc68d;
      }
    </style>
    <linearGradient id="linear-gradient" x1="0" y1="32.33" x2="65.33" y2="32.33" gradientUnits="userSpaceOnUse">
      <stop offset=".05" stop-color="#7dc68d"/>
      <stop offset="1" stop-color="#7dc68d" stop-opacity="0"/>
    </linearGradient>
  </defs>
  <g id="Layer_1-2" data-name="Layer 1">
    <g id="X1YFn9">
      <g>
        <path class="cls-1" d="M33.17.17v.24c.21.08.13-.14.21-.16.42-.1.53.14.74.2.68.16,1.44.55,1.94.66.22.05.32-.18.37.09h.16s.04-.16.04-.16h.11s.05.13.05.13c2.45.59,5.01.25,7.48.91.25.07.48.11.49.37l.59-.16-.08.15s.65.18.76.26c.43.31.81.64,1.24,1,.13.1.27.2.43.24l-.08.23.7.4-.07.22c.29.13.57.3.84.46.78.45,1.65.86,2.44,1.27.21.11.52.28.73.36.23.09.53-.05.55.28l.23-.16v.22c.58.23,1.11.6,1.63.93.15.09.28.18.44.27.26.16.5.46.84.46l-.23.16c.14.05.37.05.48.12.01,0,.08.16.15.25.39.54,1.15,1.57,1.62,1.99.88.79,1.24,1.84,1.59,3.05.2.68.17,1.05.52,1.68s1.32,2.29,1.87,2.61c.28.16.32.35.55.62.63.72.83,1.05,1.17,1.91.1.25.4.33.54.64.46,1.03.77,2.33.86,3.4.02.26-.03.69-.05.97l.16.05-.16.12c.06.21.18.56.16.78-.02.17-.18.31-.16.47,0,.03.22.1.21.5-.01.64-.08,1.28-.02,1.94,0,.12.13.22.14.4,0,.4-.4.66-.32,1.06l.31-.08c0,.86-.1,1.71-.13,2.57-.02.71-.1,1.61-.1,2.28,0,.3.31.63-.09.66.27.27.06.58.03.92-.04.67-.18,1.85-.47,2.46-.05.11-.24.18-.25.29-.01.08.08.19.05.25-.02.03-.15.03-.21.15-.29.59-.35,1.55-.76,2.21-.16.25-.44.52-.63.89-.28.55-.46,1.29-.78,1.73-.26.35-.27.21-.28.23-.02.03-.18.46-.21.54-.91,2.62-1.63,4.1-3.13,6.5-.48.77-.82.79-1.49,1.36-.35.3-.25.44-.31.53-.08.14-.45.12-.51.17-.15.13-.03.36-.35.16.04.14-.31.53-.42.6-.24.18-.71.25-.91.38-.16.1-.22.34-.4.47-.1.07-.52.18-.61.3-.22.3-.39.31-.74.49-1.02.53-1.68,1.28-2.54,2-.24.21-.51.49-.7.67-.28.28-.75.31-.76.74l-.2-.16c-.14.42-.31.32-.54.48-.49.33-.82.72-1.22,1.06-.32.27-.08.04-.42.12-.15.03-.66.43-.91.51-.33.11-.89.04-1.14.12-.15.05-.21.25-.35.29-.15.04-.28-.04-.38-.03-.11.01-.59.29-.8.34-.38.08-1.27.21-1.55.02l-.07.15c-.23-.1-.63-.14-.87-.11-.27.03-1.19.3-1.41.28-.05,0-.04-.14-.1-.16-.56-.17-1.62.08-2.24.03-.25-.02-.6-.17-.72-.17-.18,0-.41.21-.64.22-.32.02-1.06-.23-1.18.08-.32-.33-.61.18-.71-.16l-.2.16-.04-.16h-.16s-.24.24-.24.24l-.04-.16c-.21-.11-.26.16-.28.16-.13.01-.29-.11-.46-.09-.15.02-.21.17-.28.19-.21.06-1.01.26-1.16.27-.22.01-.36-.17-.52-.15-.03,0-.17.23-.54.17-.06-.01-.04-.15-.1-.16-.27-.04-1,.17-1.32.16-.49,0-.98-.29-1.5-.16l-.04-.24c-.61.12-1.11.02-1.7-.07-.65-.1-.34-.08-.91-.35-.65-.31-1.98-.52-2.53-.85-.3-.18-.95-.57-1.19-.77-.14-.12-.2-.3-.32-.38-.1-.06-.27-.06-.33-.1-.08-.06-.06-.24-.11-.29,0,0-.14.06-.25-.02-.26-.17-.39-.59-.75-.77-1.63-.84-3.4-1.53-5.18-2.12l-.02.14c-.31.05-.21-.13-.32-.19-.09-.05-.54-.21-.61-.29-.04-.05.01-.2-.04-.28-.13-.22-.88-.87-1.12-1.05-.08-.06-.18-.07-.28-.08l.16-.16c-.3.07-.51-.28-.75-.47-.07-.06-.2-.06-.25-.1-.1-.09-.11-.35-.2-.43-.12-.11-.41-.02-.38-.25l-.31.16.12-.32c-.14-.23-.49-.06-.51-.08-.02-.02-.1-.44-.17-.58-.27-.53-.89-1.08-.93-1.7h-.28c0-.49-.36-.78-.52-1.13-.32-.7-.59-1.57-.89-2.25-.17-.38-.41-.69-.58-1.07-.09-.19-.08-.44-.18-.6-.09-.13-.35-.24-.42-.44l-.12.16c.06-.33-.16-.22-.33-.33-.23-.15-.38-.32-.59-.47l.06-.14-.55-.08.16-.19c-.42-.19-.3-.4-.4-.69-.29-.84-.96-1.71-1.28-2.67-.25-.75-.33-1.69-.52-2.32-.15-.49-.04-.81.07-1.28l-.27.24-.12-.2.24-.08c-.11-.58-.02-1.08,0-1.65,0-.22-.12-.42.07-.63l-.16-.08c.26-.45-.17-.88.08-1.21-.21.03-.19-.28-.22-.45-.2-1.1-.22-2.29-.37-3.41-.05-.4-.25-.9-.27-1.31-.01-.29.13-.76.12-1.01,0-.14-.16-.42-.17-.55-.09-.96.39-3.66.74-4.58.02-.06.39-.42.44-.51.2-.38.32-1.09.51-1.53.41-.95,1.38-2.42,1.65-3.31.18-.62.35-1.2.55-1.8.03-.09.17-.18.18-.3l-.16-.2h.24c-.23-.5.08-.56.27-.87.26-.42.57-1.12.85-1.67.38-.77.97-1.64,1.53-2.33.19-.24.59-.26.43-.55.36-.08.53-.48.78-.68s.64-.11.47-.59c.29,0,1.01-.29,1.21-.47.08-.07.01-.2.1-.25.12-.06.62-.07.73-.12.33-.14.51-.5.87-.54v-.2s.22.07.22.07c.14-.3.4-.53.56-.81.15-.26.21-.45.5-.68.32-.24.88-.4.91-.86.3.17.33-.19.49-.29.98-.6,1.98-1.5,3.05-2.09.24-.13.8-.2.84-.23.79-.53,1.69-.63,2.61-.91.72-.22,1.56-.63,2.32-.73.11-.01.24.08.31.07.09-.02.1-.2.13-.22.03-.02.34.09.62-.06.07-.04.63-.56.68-.57.14-.05.31.02.45-.01.06-.01.05-.16.1-.16.12-.01.24.11.42.05.21-.06.25-.31.45-.42.08-.05.94-.29,1.04-.3.19-.02.66.09.82.04.03-.01.5-.27.56-.28.48-.08,1.09.06,1.57.04.7-.02,1.71-.21,2.36-.15.28.02.49.46.75.15ZM31.99,3.78l-.16.23-.19-.17c-.58.06-1.16.21-1.73.24-.52.03-.82-.01-1.26.06-1.54.26-3.69.37-4.97,1.06-1.1.59-2.47,1.02-3.73,1.58-.88.39-1.97.77-2.76,1.31-.7.47-1.53.95-2.08,1.52-.14.15-.34.44-.54.6-.06.05-.55.19-.59.24l.07.14c-.88.37-1.58,1.13-2.24,1.81-1.24,1.27-2.44,2.9-3.41,4.36-2.08,3.12-4.02,8.6-4.33,12.35-.34,4.18.3,7.92,1.19,11.78.08.36.44.97.52,1.37.03.14-.07.31-.06.32.01.02.15.04.22.14.08.11.02.32.09.45.1.17.22.29.33.53.22.47.36,1.04.68,1.38-.18.3.26.12.09.56,2.8,5.36,7.3,9.61,12.63,12.35,2.98,1.53,5.58,2.31,8.9,2.79,1.05.15,2.05.19,3.1.29l.09-.17c3.46.47,7.16-.27,10.48-1.31,3.48-1.09,5.62-2.51,8.38-4.75,5.07-4.11,8.1-8.92,9.83-15.24,1.36-4.97,1.35-10.62-.05-15.67-.09-.34-.17-.74-.29-.99-.31-.69-.53-1.39-.85-2.1-.96-2.14-2.58-4.68-4.03-6.52-1.09-1.38-2.12-2.26-3.37-3.39-.72-.65-1.34-1.27-2.19-1.84-.56-.37-1.14-.56-1.73-.95-.38-.25-.81-.42-1.16-.7l-.16.16c-.08-.09-.11-.19-.22-.26-1.19-.83-2.52-.99-3.57-1.54-.61-.32-.72-.42-1.38-.49-.4-.04-.36-.3-.46-.37-.02-.02-.38.08-.57.06-.49-.04-.98-.26-1.45-.37-.6-.14-1.37-.28-2.05-.39-.96-.16-1.96-.2-2.89-.42-.12.39-.81-.03-1.02.01-.12.02-.19.13-.3.13-.06,0-.55-.18-.65-.22l-.07.16c-.19.07-.23-.03-.12-.16Z"/>
        <path class="cls-2" d="M25.65,20.2s.19,0,.05.18c.61.19,1.16.16,1.69.55.21.16.34.49.65.45.42-.34.21-.79.26-1.27.15-1.46.57-2.69,2.24-2.79,1.38-.08,2.49,1.25,2.72,2.51.64.13,1.01-.39,1.48-.58.73-.29,1.31-.14,2.03.03.64-2.02,4.16-4,4.79-.8.04.22,0,1.02.09,1.09.2.11.4-.05.59-.04.25.01.94.41,1.15.58.11.09.37.64.55.39.1-.13.16-.36.31-.54.56-.67,1.27-1.39,2.2-1.03.64.25,1.35,1.64,1.41,2.32l1.52-.8c.85-.4,2.12-.82,2.99-.29,1.26.76-.06,3.66-.58,4.63.61-.01,2.14.34,2.43.92.44.87-.48,1.78-.84,2.49.78.81,1.64.98,1.99,2.18.4,1.35,0,2.25-.19,3.5-.09.55-.08,1.13-.19,1.7-1.04,5.78-4.93,10.79-10.24,13.27-.21.61-.08,1.2-.37,1.83-1.42,3.08-8.41,3.14-11.27,3.11s-8.19-.24-10.03-2.63c-.55-.72-.44-1.46-.74-2.24-4.96-2.31-8.43-6.77-9.95-11.99-.46-1.6-1.28-5.07-.72-6.6.16-.45.73-.82.77-1.04.06-.28-.02-.86.03-1.23.1-.77.39-1.34,1.03-1.8.08-.06.57-.37.63-.4.22-.1.53-.18.77-.21-.52-1.08-1.4-1.94-1.25-3.25.09-.76.91-1.62,1.63-1.83.24-.07,1.24-.16,1.32-.26.19-.32.03-.62.03-.9.03-1.53.58-3.03,2.25-3.34,1.69-.31,2.61.49,3.62,1.7,1.31-.36,2.23-.03,2.81,1.21.22.47.2.77.31,1.23ZM21.71,19.01c-.49-.53-.47-1.19-1.37-1.58-.55-.24-1.49-.14-1.88.33-.79.95-.3,2.69-.94,3.6-.45.64-2.27.05-2.5,1.2-.28,1.39,2.07,2.36,1.21,3.88-.38.67-1.73.7-2.21,1.33-.4.53-.33,1.44.22,1.84.74.53,1.64.19,2.28.62.68.45.94,1.65.45,2.29.16.37.15.63.59.75.14.04.14-.11.16-.21.09-.44.02-.85.2-1.3.37-.95,1.57-2.22,2.65-2.26-.4-.39-1.03-.48-1.49-.83-.38-.29-1.02-.94-.64-1.41.45-.56,1.17.17,1.6.37.24.11.58.27.82.36.2.07,1.12.41,1.19.13-.23-1.06-.42-1.92-1.33-2.58-.48-.35-2.16-1.16-2.26-1.75-.07-.37.37-.78.73-.73l1.69,1.1c.22-.29-1.24-3.17-1.32-3.84-.07-.57.24-1.06.85-.85.57.19,1.19,2.66,1.41,3.27.18.03.13,0,.17-.1.23-.43.21-1.47,1.01-1.2.96.32-.26,2.46-.32,3.15-.08.94.4,1.79.48,2.72l.53-.29.69-2.22c.4-.6,1.09-.17,1.13.44.01.14-.06.76-.08.93-.05.33-.23.59-.23.91.85-.18,2.5.32,1.72-1.05-.43-.75-1.08-1.13-1.07-2.14,0-.4.39-1.32.69-1.58.08-.07.14-.09.24-.03v-.23c-.54-.28-1.83-.16-2.18-.66-.2-.29-.3-1.43-.52-1.88-.25-.54-.75-.58-1.25-.43-.38.11-.36.41-.75.23-.06-.03-.34-.23-.39-.28ZM39.92,18.03c-.65-.41-1.93,1.48-2.18,1.93-.15.28-.15.64-.41.85-.37.18-.99-.37-1.46-.43-.35-.04-.63.1-.98.07l.49.57c.39.57.4.92.38,1.6,0,.23-.2.7,0,.86h1.34c.42-.28.97-1.7,1.38-1.77.5-.08.73.28.66.74-.04.31-.84,1.4-.7,1.54.45.03.85.33,1.26.51.14.06.3.07.42.12.09.04.01.18.13.15.48-1.03.09-2.81,1.77-1.67.4-.3.95-1.16.82-1.65-.01-.06-.12-.05-.14-.08-.03-.06.05-.16.02-.22-.01-.02-.31-.3-.33-.32-.19-.11-.75-.11-.97-.04-.34.11-.49.72-.98.21s-.01-1.69-.2-2.4c-.01-.04-.29-.56-.32-.58ZM32.32,21.38c-.06-.06-.33-.6-.36-.7-.19-.65-.14-1.41-.8-1.87-.55-.38-1.12-.15-1.41.4-.46.89-.14,1.68-.2,2.55-.1,1.4-1.04.71-1.73,1.02-.07.03-.33.32-.38.4-.68,1.09.51,1.83.92,2.67.17.35.16.79.53,1.05.18.04.7-.85.85-.99.38-.39,1.33-.7,1.3-1.31-.03-.55-.56-2.02-.43-2.41.12-.36.63-.36.9-.19.5.3.44,1.86.8,2.39,1.26-.15,3.11-1.71,1.79-2.93-.62-.57-1.45.26-1.78-.07ZM51.47,21.26s-.2-.09-.27-.09c-.47-.04-2.07.84-2.56,1.12-.42.25-1.17,1.08-1.6.68-.27-.25-.42-1.51-.61-1.99-.06-.14-.37-.83-.49-.83-.95.76-1.8,1.95-2.26,3.08-.16.4-.43,1.89-.96,1.84-.59-.06-.6-.5-1.04-.75-.18,0-.54.97-.58,1.19.7.53,1.17,1.29,1.56,2.07.06.12.29.96.48.81l1.86-4.38c.42-.56,1.15-.55,1.13.25,0,.27-.38,1.25-.5,1.56-.11.28-.37.51-.37.84.87-.69,1.64-1.57,2.5-2.28.47-.39,1.38-1.31,1.86-.55.43.68-.77,1.24-1.17,1.57-.74.61-1.59,1.31-2.24,2-.11.12-.43.47-.07.41s.79-.29,1.22-.36c.55-.09,2.06-.31,1.99.58-.03.39-.39.48-.7.56-.69.17-1.44.09-2.2.31-.57.17-2.33,1.36-2.63,1.85-.22.37-.16.87-.44,1.22l1.73-.47c.56-.08,2.01-.52,2.36.07.1.16.13.43.03.59-.17.31-1.74.48-2.16.59-.48.12-2.09.56-2.43.79-.04.03-.5.72-.58.83-.05.08-.08.11-.06.23,2.08-.36,4.07-.74,6.03-1.56.36-.15,1.57-.73,1.75-1.01.33-.52-.09-.67-.29-.95-.22-.29-.74-.95-.78-1.27-.11-.81,1.32-1.16,1.87-1.47.68-.37,1.98-1.24,1.84-2.1-.34-.08-.75-.21-1.1-.23-.61-.04-.62.11-1.31-.1-.09-.03-.21.03-.29-.02-.31-.17-.27-.63-.11-.9.4-.7,1.01-1.02,1.34-1.96.13-.37.47-1.5.25-1.8ZM40.11,26.4c-4.47-4.1-12.63.22-11.33,6.34.23,1.09,1.15,2.59,2.42,2.42-1.44-1.72-1.93-3.75-1.04-5.88.18-.42,1.08-1.78,1.43-2.03.21-.15.59-.23.82-.1.21.12,1.04.78,1.2.96.2.23.65.92.48,1.21-.25.13-.31.31-.63.24-.38-.08-1.2-1.07-1.42-1-.2.06-.89,1.74-.96,2.04-.33,1.47.25,3.07,1.38,4.05.41.36.85.43,1.38.51s2.86.1,3.18-.12c.08-.06.1-.09.08-.19-.06,0-.11-.01-.15-.06-.37-.45-1.58-1.83-.95-2.35.87-.72,1.43,1.04,1.94,1.46,1.15-.64,1.86-2.09,1.76-3.42-.12-1.56-1.47-3.15-2.96-3.57-.19-.05-1.24-.32-1.29-.04.41.53.35,2.07-.57,1.85-.19-.04-.7-1.74-.75-2.02s-.1-.46,0-.74l.14.06c4.01-2.19,8.74,3.72,5.9,7.36l-1.32,1.55c.49,0,1.36-.04,1.77-.31.17-.11.67-.89.79-1.1,1.36-2.56.82-5.19-1.27-7.11ZM28.53,34.92c-1.5-1.76-1.38-4.27-.63-6.33-.06-.08-.09-.1-.19-.11-1.22-.19-2.18-.46-3.43.03-1.73.68-1.85,2.04-1.16,3.6.88,1.98,2.93,2.85,4.99,2.86.14,0,.28-.06.42-.05ZM53.74,31.59c.33-.42.26-1.14-.13-1.51-.9-.84-2.01-.68-2.99-.08.83.65,1.57,2.06.63,2.95.02.01.44-.06.49-.08.15-.07.26-.13.43-.21.41-.19,1.31-.73,1.57-1.07ZM21.52,30.68c-.51-.23-1.12.14-1.52.47-.55.44-1.42,1.78-.99,2.46.18.29,3.69.75,4.25.92l-1.05-1.42c-.41-.76-.77-1.53-.68-2.42ZM13.32,30.68c-.36.31-.07.72.2.97.32.29,1.62,1.01,2.03,1.11.09.02.14.07.2-.04.09-.15.21-1.21.04-1.38-.32-.3-1.98-.35-2.47-.66ZM53.85,33.51c-1.04.37-2.03.88-3.09,1.2-2.41.75-5.28,1.13-7.8,1.39-7.06.73-14.08.75-21.14-.25-2.39-.34-5.15-.95-7.34-1.94-.33-.15-.91-.57-1.17-.64-.15-.04-.1.02-.12.11-.17,1.27,1.22,5.1,1.83,6.35,3.34,6.84,9.2,9.05,16.45,9.58,8.56.63,16.43-1.48,20.57-9.54.95-1.85,1.57-4.2,1.8-6.26ZM43.07,49.55c-1.54.51-3.15.86-4.77,1.09-3.82.54-7.56.34-11.33-.44-1.03-.21-2.04-.56-3.06-.79-.13-.03-.19-.06-.18.1,0,.13.34.71.43.83.14.18.48.38.68.5,3.42,2.11,12.02,1.89,15.78.77.88-.26,2.54-.95,2.46-2.06Z"/>
        <path class="cls-2" d="M31.93,31.36c-.18-.22-.02-.75.13-.95.39-.49,2.61,0,1.78,1.05-.29.36-.89.42-1.3.27-.06-.02-.57-.34-.6-.38Z"/>
        <path class="cls-2" d="M37.37,28.11c.13,0,.49.24.55.36.45,1-1.26,2.04-1.57,1.18-.14-.39-.09-.83.21-1.14.12-.12.66-.41.82-.41Z"/>
        <path class="cls-2" d="M37.39,30.53c1.13-.22,1.71,1.31.34,1.59-1.11.23-1.51-1.37-.34-1.59Z"/>
        <path class="cls-2" d="M33.86,32.42c.32-.03.54.09.69.37.07.22-.14.65-.29.82-1.23,1.36-2.02-1.02-.4-1.2Z"/>
      </g>
    </g>
  </g>
</svg>