<?xml version="1.0" encoding="UTF-8"?>
<svg id="Layer_2" data-name="Layer 2" xmlns="http://www.w3.org/2000/svg" xmlns:xlink="http://www.w3.org/1999/xlink" viewBox="0 0 65.58 65.14">
  <defs>
    <style>
      .cls-1 {
        fill: url(#linear-gradient);
        opacity: .15;
      }

      .cls-2 {
        fill: #dc5a61;
      }
    </style>
    <linearGradient id="linear-gradient" x1="-2584.39" y1="59.49" x2="-2627.92" y2="6.64" gradientTransform="translate(-2573.92) rotate(-180) scale(1 -1)" gradientUnits="userSpaceOnUse">
      <stop offset="0" stop-color="#ef4d5d" stop-opacity="0"/>
      <stop offset=".8" stop-color="#ef4d5d"/>
    </linearGradient>
  </defs>
  <g id="Layer_1-2" data-name="Layer 1">
    <g id="gvxVnx">
      <g>
        <path class="cls-1" d="M34.53.14l-.24.28c-.02.16.18.44.32.31l-.24-.28c.22-.06.64-.06.63.24l-.24.08.24.32.08-.24.31.16.04-.55.51.24-.24.31c.22.04.3.08.47-.08v.39c.18.04.29-.18.43-.2.43-.06,1.09.12,1.31.51l.22-.07.17.38.39-.12.24.25-.24.08.55.59.16-.31-.24.08-.16-.47c.14.25.63.05.69.09.05.03.07.27.29.35.11.04.48,0,.43-.2h.15c-.05.15.3.31.3.33.03.07-.06.14-.05.18,0,.03.22.09.14.28l.31-.31-.08.31.47.24-.16-.31.31-.12-.24-.12.3-.04c-.14-.49.46-.58.56-.12l.08-.24.31.08-.32.24c.09.27.4.03.63.08l-.08-.24c.28.08.55.16.67-.16l.12.31-.47.16c.25-.03.63.02.55-.31.15.21.46.06.47.08.04.05-.08.26.08.24l.16-.31.12.45s.56-.03.61-.05c.11-.04.09-.25.25-.24l.6.16-.08.47.42.07c.09-.02.18-.17.13-.23-.14-.16-.16.17-.2.16-.11-.04-.18-.19-.04-.28.4-.17.74.12.79.51l-.47-.39c-.09.31-.08.55,0,.87.23,0,.15-.26.47-.16l.08-.47.47.16c-.07.19-.42-.15-.39.24.19-.15.59.05.55-.24h.08c-.02.2.2.18.35.24l.08-.16c.2.13.03.29.04.47h.39s-.16-.12-.16-.12l.12-.2.28.35c-.21.06-.15.15-.17.35h-.23c-.03.35.25.37.24.71l.23-.12-.16-.2c.34.08.31-.14.47-.24-.04.18.38.71.43.31l.51.4-.16.23c.36-.08.29.38.32.63l.2-.23.2.16.16-.16-.08.39s.25-.14.36.08l-.04.31.32-.08-.32.55c.11.01.57.05.62.1.03.03,0,.15.03.2.03.04.16,0,.22.07.09.09.22.47.25.49.12.08.39-.1.38.33l-.31-.24.24.35c-.55.02.07.54.32.39l.07.28.08-.24h.16c.21.27.02.5.47.56-.21.42.26.19.32.35l-.39.2c.26.06.73.04.97.17.02.01.31.28.32.3.03.07-.04.18,0,.24.07.08.29.04.29.22l.3-.14v.32s.28-.23.28-.23c.16.22.31.44.2.71l.47-.31.08.47.31-.08-.16.2.08.2.23-.16.16.47.12-.24.18.12-.06.12.39-.08.07.28.4.03c-.03.37-.3.6-.32.94l.27-.16.04.23h.15s.04-.16.04-.16l.2.16.16-.16-.08.31.2-.16.04.24c.51-.15.22.01.33.14.05.06.28,0,.3.18l-.32.16.55.08c-.17.2-.01.38-.01.52,0,.02-.25.17-.23.35l.39-.24.04.47.2-.28c.07-.13-.32-.12-.16-.28.19-.19.43.67.39.79l-.24-.08c-.07.21.11.12.15.21.12.22.09.9.47.81l-.05.16-.18.08.31.08c-.09.29-.02.43.08.71.33-.1-.11-.58.16-.71l.17.66c-.18.12-.37.16-.32.44l.16-.16c.36.17.3.54,0,.75l.39.24c-.02.06.04.18-.04.2-.21.04-.02-.23-.27-.16.13.22.06.29-.08.47.48.12.16-.23.47-.23l-.24.51.16.08c-.12.23-.37-.11-.31.2h.31s-.07.23-.07.23l.39.17-.31.08c.4.46.13.99,0,1.5.11,0,.29-.5.39-.2.08.23-.15.19-.16.25-.02.16.12.33,0,.5l.31-.16c-.08.3.27.35.31.41.03.04,0,.84-.07.93l.24-.08v.63s.32-.31.32-.31c-.19.25.07.35.08.51,0,.02-.32.15-.24.36l.31-.08-.16.55.24.04c-.46.21.07.2.18.27.1.07.05.34.29.32l-.31.24h.47s-.31.24-.31.24c.31-.08.26.31.55.32v.16s-.24-.08-.24-.08c-.01.1.1.21.06.3-.05.12-.51.21-.46.41.38.08.52-.37.79-.55v.39s-.31.08-.31.08l.63.24c-.13.27.05.59,0,.81-.01.08-.24,0-.16.21l.31.04-.31.28.24.04-.16.2.14-.07.09.18c.28-.09.04.15.17.45.09.23.55.21.33.38h-.18c0,.33.08.28.24.51l-.32.52.39-.08c-.11.23.15.71-.24.71l-.08-.24-.08.31.39.16c-.32-.22-.01.23-.17.38-.14.12-.38,0-.46.3-.06.26.25-.03.4.07l.07.36c-.18-.08-.14-.42-.39-.12-.06.16.36.15.24.43l-.24-.08v.71s-.24-.08-.24-.08l.03.61c-.07.18-.32.15-.34.18-.04.05.06.2.05.27-.02.1-.2.15-.21.39-.01.2.12.39.09.59l-.2-.47-.2-.24c.13.38-.12.64,0,.95l-.24.04c0,.29.13.7.05.99-.04.15-.22.18-.29.34-.09.21.06.4-.39.44l.04.14h.16s.12.33.12.33l-.24-.08v1.29s-.31.32-.31.32c.53.28-.05.32-.08.4-.09.27.06.21.15.35l-.3.2.06.2.31-.08c.06.25-.14.34-.15.37-.05.15.21.43.15.5l-.23-.16v.31s-.24.08-.24.08l.23.12-.16.16.24.08-.39.04.31.24-.24.08c.54.37,0,.43.01.83,0,.3.29.22.22.51l-.08-.15-.39.07.47.16c.08.23-.28.35-.3.44,0,.02-.01.4,0,.42.06.1.3,0,.14.48l-.24-.16-.04,1.1h-.28s.16-.24.16-.24l-.28.16c.23.51.04.31-.07.48-.15.23-.11.51-.52.67.18.14.51-.4.63-.12l-.2.12-.32.59c-.05-.2.09-.45-.2-.55,0,.3-.1.55.24.67-.15.21-.34.08-.55.04l.16.16-.12.16-.27-.16c0,.1,0,.21.05.3.04.08.31.14.18.25-.1.08-.28-.2-.31-.16l-.08.6-.55-.12c-.02.3-.04.37.16.63-.27-.07-.36.14-.53.22-.08.03-.21,0-.28.02-.08.04-.1.25-.37.15l.24.24c-.35,0-.24.33-.71.16l.08.39-.2-.16-.09.16h-.5s.08.47.08.47c-.37-.07-.59-.03-.95.08l.16.28-.24.17c.28.63-.21.34-.31.66h-.08c.07-.3-.08-.35-.32-.47l.08.27c-.39.14-.04.46-.23.72l-.39.15c.18.33-.18.06-.17.35-.41-.37-.26.21-.54.35l.07.2c-.35-.18-.68.18-.55.47l-.23-.16c0,.23-.42.31-.52.47-.08.15.18.28-.12.36l.08.35-.31-.08v.31c-.37-.07-.16.44-.55.56v-.15s-.3.14-.31.16c-.11.17.14.14.16.21.03.12-.02.29,0,.42l-.39-.08.16.31-.32.08.24.08h-.39s.24.08.24.08l-.32.16.08.55c-.18-.11-.04-.4-.39-.31l-.04.31-.2-.16v.46s-.47.01-.47.01l.08-.31-.39.08.24.2.07.73-.5.08-.05.25-.15-.04-.17-.2.08.39c-.1,0-.22.03-.28-.08-.06-.09.18-.29-.11-.24l-.08.51.16.12c-.37.2-.77.21-1.18.16l.31.28-.2.12c-.12-.32-.48-.22-.75-.32-.06.24.2.52-.04.71l-.04-.32-.08.24c-.26-.16-.46-.3-.79-.24.14.23-.05.43.16.63h-.39c-.07-.16.14-.64-.04-.71l-.31.39-.16-.39-.2.08.16.55c.05.04.32-.31.39,0-.18.08-.56.07-.71.13-.1.04-.15.23-.31.19l.16-.39c-.3-.02-.53.42-.79.27-.14-.08-.1-.27-.23-.27.02.29.06.4-.24.47v-.23s-.4,0-.4,0l.12-.47.04.39h.39s-.19-.62-.19-.62c-.37.06-.33.1-.48.36-.02.04-.12.03-.12.07s.12.29.15.32c.12.13.31.05.32.19-.35.09-.37-.12-.63-.24-.03.75-.33.24-.37.24-.44-.08-.53.13-.69.17-.2.04-.8.06-.87.09-.06.03,0,.17-.07.14l-.46-.24-.13.24.24.16h-.55s.12-.31.12-.31l-.67.24v.31s-.12-.16-.12-.16c-.27.16-.44.27-.75.16l.16.24-.39-.08.08.24c-.42-.2-.51.43-.94,0-.03.27-.54.62-.75.63-.06,0-.05-.15-.11-.19-.36-.25-.16.14-.18.18,0,.01-.08.01-.1.04-.1.16-.09.28-.31.36-.35-.58-.17,0-.38.14-.12.08-.36.06-.49.18l-.2-.39c-.15-.02-.02.17-.12.25-.09.07-.8.2-.66-.05.06-.11.25-.07.24-.2l-.31.06-.04.1-.2-.16v.39s.31,0,.31,0v.23s-.54.07-.54.07l-.13-.31-.66.09v.17s-.16.06-.16.06c.09-.32-.24-.31-.16-.63h-.31s.24.08.24.08l-.16.55c-.27-.05-.53-.51-.63,0l.31.16c-.26-.13-.75.09-.82-.15l-.2.07.08-.39-.79.24.16-.23h-.24s.06-.19.06-.19l-.11-.11-.42-.02.16.35-.16.04-.08-.39-.08.16c-.11-.1-.38-.06-.39-.08-.03-.05.15-.22-.04-.31-.16-.04-.17.2-.2.23-.05.03-.95-.07-.86-.38h-.12s-.08.16-.08.16l-.12-.28.16-.08c-.36-.44-.31-.02-.47.08-.24.15-.37-.27-.47-.32-.08-.04-.2.04-.31,0-.17-.05-.28-.31-.56-.12l.08-.31c-.1-.09-.73.3-.71-.16l.16-.04-.38.03-.14-.23-.39.15-.04-.31h-.24s.04.24.04.24c-.23-.09-.24-.25-.28-.47l-.2.24-.39-.09-.04-.22-.08.24c-.27-.14-.5,0-.73-.02-.16-.01-.81-.3-.97-.38-.13.37-.35.03-.2-.24-.45.65-.6.16-.68.15-.15-.02-.47.17-.5.16l-.28-.39.04.39c-.26-.17-.05.13-.31.08l.08-.31c-.32,0-.57.2-.83,0l-.09.17-.42-.09.39-.24-.55.08v-.24c-.28.21-.35-.24-.55-.12l.16.35c-.15,0-.35.02-.39-.16.26-.03.18-.63.39-.87v.39c.15.11.4-.41.19-.47-.3-.09-.28.15-.31.15l-.36-.07c.14.18.31.15.24.47l-.24-.08.16.39-.27-.09-.09.17c-.37-.01-.49-.47-.82-.32v-.24s-.28.16-.28.16c-.12-.06-.05-.18-.09-.24s-.15-.06-.18-.09c-.05-.06.18-.34-.05-.46l-.04.51-.15.04c-.12-.25-.52-.49-.78-.64l.07-.23.31.04c-.09-.12-.25-.1-.36-.2-.14-.13-.02-.3-.04-.31-.19-.13-.11.26-.31.16l.05-.23-.28-.16.12-.31-.15.07-.2-.07c-.07.07.14.56-.16.47.04-.4-.44-.3-.32-.71l-.24.08c.01-.39-.09-.55-.39-.75l.15-.12.2.16.04-.16-.52-.23-.07-.4-.04.31h-.24s0-.31,0-.31l-.24.08-.03-.32-.36-.07c-.08-.29.34-.1.4-.16v-.24s-.16.08-.16.08v-.31s-.47-.09-.47-.09l.08-.16c-.23.08-.39.08-.55-.12l.16-.2-.3-.02c-.07-.28-.36-.46-.49-.66s.28.05.16-.16c-.04-.06-.28-.24-.24-.28.16-.05.2.12.28.16.3.13-.07-.65-.32-.47l.04-.23-.22.2.29.23-.35.28-.43-.67.16-.12-.39.16c0-.22-.08-.37.16-.43l-.2-.28-.2.24c.01-.15-.18-.28-.2-.39s.23-.23.05-.36l-.24-.12c.16.26,0,.19-.12.39-.17-.08-.04-.27-.06-.3-.06-.09-.34-.1-.22-.49l-.2.24-.12-.39-.31.16s.36-.34.13-.53l-.53-.25.24.31h-.47s.08-.31.08-.31l-.35.16-.12-.12.16-.08-.12-.2-.28.16.16-.31h-.63s.08-.32.08-.32h-.39s-.15-.4-.15-.4h-.41s.08-.39.08-.39l-.27.16-.12-.16.16-.08h-.32s.32-.2.32-.2l-.35-.12-.08.16c-.06-.03-.34-.4-.41-.5-.05-.07,0-.19-.05-.27-.06-.09-.4-.24-.37-.49l-.31.16c-.09-.18.18-.43.16-.51-.01-.05-.46-.27-.39-.55l.32-.04v-.28c-.3-.04-.24-.18-.39-.4l-.23.05c.02-.45-.45-.27-.48-.71l.39-.08-.28-.08.05-.24-.31.08c.14-.38-.21-.48-.06-.92,0-.02.13-.02.14-.07.03-.16-.21-.58-.16-.66.16.16.41-.27.39-.35-.04-.23-.53.04-.63-.04.13-.23.02-.41-.08-.63l.24.16c.09-.25-.17-.21-.16-.35,0-.2.19-.38.17-.55,0-.03-.38-.2-.16-.52l.16.08c.07-.34-.53-.35-.16-.75l.24.04-.16-.39.39.04c-.16-.21-.33-.16-.55-.12v-.39c.47.16-.05-.15-.07-.21-.08-.26,0-.74-.25-1.02l.23-.04c.07-.3-.14-.4-.15-.45-.03-.11-.02-.39-.04-.41-.15-.16-.41-.02-.32-.47.4-.05.46-.42.36-.78-.28-.06-.12.31-.16.47-.25-.13-.19-.53-.55-.47v-.16s.16,0,.16,0l-.16-.23.23-.11c-.05-.4-.46-.37-.62-.72l.31-.2-.31.08.08-.39-.47-.08c.49-.46-.16-.81-.24-1.34l.31-.12-.31-.12.16-.2c-.06-.12-.25-.08-.3-.14s0-.2-.02-.22c-.02-.02-.37.2-.46-.14-.04-.15.04-.27.03-.38,0-.06-.09-.12-.09-.18-.01-.17.05-.32-.02-.49h.23c.05-.29.01-.5-.23-.67l.16-.23c-.06-.15-.23-.03-.23-.04-.1-.17.31-.13.08-.44l.11-.19.43.23-.39-.43.31.04c-.05-.29-.32-.22-.47-.43l.47-.12-.07-.28.16-.08-.05-.43.2-.08c.07.25-.2.07-.16.27.04.17.47-.13.39-.31l-.24-.08.31-.04v-.24s-.24-.04-.24-.04l.04-.12c-.31.04-.14.5-.51.39,0-.14.17-.05.2-.23.02-.12-.04-.21-.05-.32l.31.08c.03-.36-.24-.75.16-.94.13.19-.03.43,0,.58,0,.04.34.19.36.37h.16s-.04-.16-.04-.16l.32.08-.05-.24-.35-.07.08-.39c-.21.04-.01.55-.31.47.17-.18,0-.43.02-.52.02-.11.24-.06.22-.19h-.39c-.07-.28.55-.17.63-.24l-.16-.39.31.08v-.24s-.55,0-.55,0l.31-.08c.04-.21-.06-.12-.16-.2l.09-.27.16.04-.08.2h.39s.04-.55.04-.55h.35s-.1-.18-.1-.18l-.29.02.08-.47c.28-.06.04.16.17.3s.33.08.3-.14l-.23-.04c.12-.18.23-.11.39-.04-.1-.22.07-.61.32-.43l.08.35c-.06-.21.16-.42-.04-.55-.23.11-.43.21-.59-.04.2-.09.23-.33.47-.28l-.16-.35c.08-.2.28,0,.31-.04.19-.19-.06-.64-.23-.79l.79.55-.47-.63.24.16c.12-.16-.05-.39-.05-.43,0-.08.12-.12.13-.24,0-.06-.26,0-.16-.2l.16-.04-.16-.31c.36-.15.12-.68.25-1.02.11-.28.1.11.14-.41.01-.16.16-1.02.32-.99l-.23-.47.31.08-.08-.39.24.08c.06-.1-.01-.31.02-.37.04-.07.47-.25-.02-.34l-.16.32c-.06-.37.35-.37.24-.75l-.16.04.15-.83c.09-.07.46.07.58.13.09.05.02.18.14.15l.08-.47-.27.22c-.73-.31-.15-.23-.11-.49.03-.2-.07-.28-.16-.43h.24c-.22-.5.28-.38.16-.87l.39.08c.09-.29-.35-.22-.04-.47l.28.39-.24-.63h.23c.02-.14,0-.26.05-.39.36-.83,1.84-1.58,2.58-2.07.47-.3.89-.84,1.55-.78l-.16-.24h.71s-.08-.39-.08-.39h.32s.04-.32.04-.32l.12.24.12-.31.04.24c.47.08.26-.46.55-.47l-.16-.08c.11-.26.37-.2.4.08l.12-.16c.29.06.42.1.43.43.07.17.37-.06.32-.11-.36.08-.2-.24-.33-.38-.12-.12-.41,0-.53-.13.35-.23.9.12,1.26.2.05-.28-.52-.24-.59-.31-.24-.23.05-.59.23-.77.17-.15.33-.35.55-.59.04-.05.03-.15.06-.21h.3c-.19-.32.12-.28.2-.4.04-.06-.06-.18-.03-.22.06-.1.44-.07.23-.49h.63s-.31-.31-.31-.31c.25,0,.12-.39.47-.32l-.08-.31c.34.16.3-.29.63-.24.04-.21-.05-.11-.16-.2l.24-.28.08.39s.28-.18.24-.35c-.03-.12-.31-.06-.24-.28l.47.39-.16-.47h.79s0-.32,0-.32l.39.16-.08-.16.35.08.08-.16.44.16c.08-.28-.27-.11-.32-.16.06-.34-.19-.43-.16-.79.4,0,.33.45.67.48l.08-.16.12.16c.01-.18.17-.2-.07-.27l.08-.51.78.07-.08-.31.31.24v-.39s.08.24.08.24l.55-.08-.04-.32h.51c.13.38-.46.24-.36.55.08-.1.26-.04.34-.1.09-.06.09-.43.25-.45l.16.79c-.14-.08-.33.02-.42,0-.08-.02,0-.24-.21-.16v.47c.25.05.11-.19.35-.24s.21.29.36.16c.03-.03-.24-.15.16-.2,0-.25-.02-.28-.16-.47l.2-.19.19.11-.16.08.12.2c.14-.04.4-.29.49-.3.12-.02.26.24.42.11l.08-.2-.24.04.16-.2-.16-.16c.27-.08.25.18.38.24s.32,0,.45.08l.08-.15-.28-.23.35-.16.04.32c.35.03.43.03.63-.24v.32s.28-.16.28-.16l.08.16c.06-.21.15-.17.35-.16l-.08-.31.16.31.12-.24c.22,0,.11.31.35.24v-.35s.31-.2.31-.2c-.03.29.34.02.58.23.11.09-.02.26.13.24-.06-.54.1-.13.32-.36l-.08-.43c.22-.05.15.08.16.24.24,0,.45-.17.67,0,.3-.29-.19-.04-.12-.31l.28-.08c-.08-.29.02-.1.21-.13.2-.03.25-.18.46.04l.12-.23.35.07c-.1-.18-.31-.11-.24-.39.1.17.34.07.38.09.08.05.25.56.41-.01l-.31-.04.91-.51.04.31c.16-.01.69-.14.63-.35-.03-.1-.26-.07-.24-.2l.35-.08.16.16c.42-.32.38-.05.45-.02.06.03.12-.03.18-.05l.08.15V.22c.12.13.18.24.35.16l-.08.31h.2c.07-.44.35-.26.43-.33.02-.02-.03-.35.36-.31l.05.16h.15c-.02-.29.18-.08.34-.1.11-.01.22-.22.44-.04v.3s.4,0,.4,0l.08-.31.16.2-.16.28h.23s0,.32,0,.32h.31s-.31-.51-.31-.51l.16-.08-.08-.19c.26-.05.4-.05.63.08ZM27.95,1.79c-.25-.05-.57.28-.82.32l.23.23-.16.16.39.16v-.31s.47,0,.47,0l-.16-.24c.25.05.44.11.63-.12-.02-.19-.13,0-.4-.15-.14-.08-.06.03-.08.12-.13.04-.04-.15-.13-.16ZM37.85,2.53c.13.03.12.13.18.18.05.04.17.01.19.04.07.08-.06.6.33.62l-.08-.7h-.31s.08-.32.08-.32c-.35-.02-.55-.13-.87.08.07.22.28.05.48.11ZM42.92,3.11s.08.03.12.09c.03.05,0,.15.01.17.02.02.33-.16.47.12,0,.29-.49-.17-.47.27.14,0,.27-.1.42-.08.05,0,.07.26.29.16l-.16-.39.31.16-.08-.28c-.13-.11-.27.03-.36.03-.02,0-.09-.23-.27-.15l.16-.31c-.19.01-.47-.17-.55.08.22-.03.09.1.11.14ZM33.59,3.84l-.04.16-.31-.16.04.16h-1.13s-.09-.16-.09-.16c-.21.29-.55,0-.83.24l-.04-.24c-.44.5-1.24.17-1.8.27-.17.03-.32.15-.51.19-.37.06-.76,0-1.08.18l-.12-.16c0,.29-.5.21-.73.25-.12.02-.41.29-.37.03,0-.05.16-.5-.08-.28-.14.13.19.44-.38.54-.24.04-.47-.16-.49-.14s-.24.32-.35.37c-.13.06-.57.01-.59.03-.03.02-.04.15-.09.19-.09.07-.2-.05-.27-.05-.05,0-.03.15-.09.15-.09.02-.44,0-.35-.15l-.67.55.04-.39-.2.24-.2-.16-.04.24-.2-.08.08.24-.2-.07c-.18.33-.6-.01-.78.44l-.6-.05c.21.54-.36.16-.47.2-.15.05-.38.32-.51.43l-.08-.16c-.26-.05-.55.43-.82.52l.16.27c-.24-.14-.47-.07-.71.04s.27.13,0,.24c-.18.07-.38.13-.55.04l.08.24-.39-.16c.1.36-.3.22-.4.37-.21.3.11.53-.67.57l-.11-.15.07.28-.12.11-.19-.07s.19.31-.12.47c-.2.11.03-.25-.22-.23-.22.02-.44.33-.29.54h-.39s.24.24.24.24c-.31.05-.62.02-.79-.24l-.16.63c-.15.03,0-.21-.2-.16-.09.03,0,.16-.08.16-.2-.07.07-.61-.35-.47-.09.08.35.72.39.83.08.22-.36-.04-.38.23l.14.28-.27-.07-.12.31c-.21.09-.12-.16-.2-.16-.11.27-.35.04-.28.46l-.38.1-.02.37c-.25-.01-.26.17-.39.28-.09.08-.3-.02-.23.28l-.47-.08.24.08-.31.16v.23s.15.08.15.08h-.32s.24.24.24.24c-.37-.08-.62-.04-.47.39l-.23-.16-.08.2.16.12c-.27.1-.54.43-.55.71l-.23-.08c.1.47-.23.59-.63.47l.16.47-.39.08c.17.32-.09.36-.21.57-.03.05.16.25-.34.14l.16.31-.24-.08v.39s-.24,0-.24,0l.07.36-.39.16.04.27-.28-.23.31.35c-.17.23-.34.06-.55.04.35.41.18.4,0,.69-.11.18,0,.47-.4.33-.08.29.2.16.16.39l-.39.08c.1.05-.02.6-.04.63-.08.11-.18-.02-.26.02-.26.11-.1.32-.1.41,0,.06-.25,0-.16.2l.24.16-.23.04c.07.13-.07.45-.16.54-.07.07-.2.03-.25.1-.12.17-.08.62-.15.71l-.24.04-.08.39.31-.04-.47.47.24.04-.16.71h-.39s.31.16.31.16c-.02.17-.22.11-.3.17-.01.01-.1.32-.1.34,0,.03.29.05.16.2-.15.16-.35-.07-.47-.16-.08.18.24.55.24.59-.03.14-.19.23-.08.43l-.31.09v.31s.31-.04.31-.04l-.39.32.16.12-.47.2c.35.08.46.06.31.43l-.24-.08v.31s.24-.04.24-.04l-.03.44-.28.08.15.52-.14.04.06.23-.31-.31c0,.25.1.41.31.51l-.24.16.16.31-.24.2.24.08-.24.08.24.04-.23.13.08.26-.16.08v.12s.24.04.24.04l-.31.16.24.04c-.14.16.04.28.05.37.04.5-.09.86-.44,1.21l.28-.06c.27.17.01.41-.04.61l-.12-.16-.12.2c.29.08.18.27.24.37s.19,0,.15.18l-.16.08.08.27-.31-.08.15.19v.52s-.27-.16-.27-.16c-.22.43.38.18.47.31l.04.32-.31.04.24.16-.31.2h.55s-.47.24-.47.24h.39c-.25.41.38.59,0,.79l-.16-.32c-.01.11.02.24,0,.34-.02.08-.24,0-.16.21l.22-.07.06.15.27-.08c-.32.27-.1.42-.08.79l.16-.08.08,1.1.24.04c-.06.2-.22.31-.39.2v.24s.39-.08.39-.08c.04.04-.4.66,0,.79l.08-.31c.02.18.09.29-.03.45-.03.04-.18,0-.13.14.37.32.43.39.24.86l.31.13s-.12.44,0,.66c.06.1.23,0,.24.09.09.45-.33.52-.32.55l.3.13c-.04.19.09.28-.14.34l.39.16-.23.32c.09.19.4.07.46.13.02.02,0,.13.04.19.02.04.12.04.13.09.06.32-.05.66.16.97l.15-.08c-.01.27.22.51.28.7.04.13-.05.34.03.49.08.14.3.11.32.14.05.06-.19.37.24.51l-.24.04c.25.31.45.39.16.79l.2-.16.12.24.24-.08c.08.2-.26.22-.24.28.16.39.35.21.47.28.02,0-.08.21.08.31l-.24.16c.25-.05.11.23.17.3.02.03.39.2.46.09l-.08.24c.36-.04.23.18.31.28.12.15.27.23.38.41.26.45,0,.24.42.63.1.09.09.35.15.38.1.05.25.01.3.06.05.04.5.85.64,1.03.27.32.62.56.87.82s.05.45.09.56c.07.19.38.1.51.2.14.11.54.71.5.92.12-.01.24-.23.35-.08.17.22-.15.1-.12.24l.38.09v.38s.29-.16.29-.16c-.08.25.19.3.15.64.06.12.25-.03.28,0,.16.16-.32.16-.16.31.1.1.31-.31.43-.31l-.03.23.27.17c.08-.16.07-.19.27-.16l-.08.24.24.08-.32.16.22.06.02-.14h.16s.24.55.24.55c.02.02.2-.12.29-.15.11-.03.5.31.53.38.06.12.04.27.04.4l.23-.24.08.55c.35.02-.05-.44.39-.31l.09.31.15-.07c-.05.06.14.38.16.39s.24-.22.39-.08c-.19.19-.09.32-.08.55l.08-.16c.15,0,.6-.14.55.16l-.32.16.6-.15.23.15-.04.63c.29.08.71-.31.74,0l.28-.07c-.09.15.02.31.2.32l.08-.24.51.67c.27,0,.4-.11.63.11l-.04-.31c.13.28.43.18.59.28.11.07.08.31.47.19l-.16.12c.2.22.47.27.59-.04.04.07.15.06.18.1.12.16-.11.38.45.05l.24.39c.22-.43.16.02.2.24l.08-.39c.18,0,.3.28.33.3.06.03.23-.1.4,0,.08.05.08.19.18.23.2.07.49.03.62-.14l.12.15-.23.32c.18-.28.49-.07.47-.31.33.12.02.4.39.31v-.24s.32.08.32.08l-.16.23c.47-.03.9-.15.95.47.29.08.1-.33.16-.39l.19.08.16-.16.2.16.03-.15.36.07-.24.16c.28.05.56-.1.83-.09.17,0,.08.27.27.17.02,0-.2-.22.08-.16v.24s.24-.16.24-.16v.24c.11-.04.2-.1.32-.12.29-.05.83,0,.91.2.41-.27.55-.06.9-.04.13,0,.21-.1.33-.08.39.05.3.49.86-.04l.08.31c.28-.21.28-.08.55,0l-.08-.24.39.16v-.24c.3.24.48.13.79,0l.04.24c.32-.27.96-.05,1.1-.32.54.18,1.39-.19,1.98-.31l-.12.23c.34.01.53-.27.9-.24.09,0-.01.19.12.16l.04-.16.23.09-.04-.24c.27-.1.06.32.27.24.17-.07.12-.36.56-.39.28-.02-.13.27.15.23.09-.01.18-.08.28-.08l-.16-.24.39.15.22-.4.31.08c.24-.31,1.2-.34,1.61-.51.18-.07.22-.42.63-.19v-.24s.15.04.15.04c-.07.41.45.06.25-.2l.31.31c-.04-.28.34-.45.51-.63.07.15.16.25.35.24l-.16-.31.75-.32.07.16.43-.47.04.39.43-.24-.24-.23c.2-.01.29-.05.36.16l.43-.16-.08-.31c.15.08.6.02.69-.1.06-.07-.02-.3.14-.38l.35.16.04-.31.08.24c.2-.32.69-.93,1.06-1.06.08-.03.22.05.24.03s-.03-.16.02-.21c.03-.04.26-.08.36-.15.17-.12.21-.34.57-.26l-.08-.24.24.08v-.24s.39.16.39.16v-.31s.16.16.16.16l.08-.39.23.07c.05-.12.15-.32.24-.41s.51-.3.54-.32c.25-.23.52-.92.96-.76l-.08-.24.16.04.08-.28.24.08.04-.31.12.16.2-.55.35.16-.16-.39c.32-.11.53-.19.39-.55.31.26.38-.33.51-.39l.2.31-.08-.51.08-.08s.13.04.14.02c.14-.19.38-.48.52-.7.09-.15.15-.45.29-.62l.23.07-.08-.24c.3.06.4-.3.4-.55h.55s-.47-.12-.47-.12c.14-.22.25-.16.47-.12-.16-.36.26-.58.41-.86l.22.07c.1-.33-.18-.27-.16-.51.3-.04.38-.39.42-.42.05-.04.18,0,.2-.03.03-.03.16-.62.09-.7h.32s-.24-.31-.24-.31l.39-.08-.16-.16c.44-.05.13-.39.15-.58.01-.08.23-.09.29-.21.07-.13-.05-.28-.03-.31.04-.06.28-.02.15-.25.24.14.3-.1.55-.2l-.24-.2-.08.16c-.27.07-.15-.24-.01-.31.11-.06.26.11.09-.2l.16.04c-.1-.28.07-.59.17-.88.02-.07.12-.05.15-.12.06-.15.06-.6.18-.79.04-.07.21-.08.26-.18s-.05-.23-.03-.34c.06-.28.16-.72.53-.69.07-.36-.37.08-.32-.2.04-.2.24-.5.25-.74h.31c.06-.27-.16-.12-.24-.17l.16-.43-.16-.08c.33-.25-.18-.76.32-.83l-.16-.12c.16-.38,0-.99.4-1.17l-.24-.04c.07-.13.05-.34.24-.32l-.16-.2c.06-.37.42-.16.48-.32-.35-.08-.46-.06-.31-.43l.16.08c.06-.08-.25-.31.16-.43l-.16-.04c-.04-.13.15-.03.16-.13.01-.07-.06-.19-.06-.29,0-.13.07-.26.06-.41-.02-.29-.38-.46.02-.72.08-.05.2,0,.21-.07.05-.34-.3-.4-.32-.47l.24-.24c-.31-.16-.03-.62-.31-.59l.32-.08v-.24s-.24.08-.24.08l-.07-.28.15-.07c-.27-.38.31-.63-.15-.79.05-.27.31-.3.23-.6l-.24.08c0-.11.01-.23-.02-.34-.06-.22-.3-.4.02-.49-.28-.24-.13-.74-.17-1-.08-.56-.41-1.26-.46-1.84l.16-.22c-.05-.21-.63-.49-.15-.6l-.29-.33c.04-.26-.08-.43-.24-.63-.03-.03.08-.44-.1-.79-.04-.07-.34-.86-.35-.96-.01-.13.09-.29.03-.46-.02-.05-.37-.63-.47-.85-.03-.07-.4-.26,0-.3v-.08c-.26-.1-.6-.38-.39-.66-.46-.27-.19-1.11-.79-1.27l.16-.2h-.28s-.04-.24-.04-.24l.24.08v-.24s-.2.07-.2.07l-.19-.15.16-.2-.16-.04v-.47s-.39,0-.39,0l.16-.12-.32-.12.16-.23c-.23-.03-.36-.06-.32-.32l-.15.08-.08-.39c.16,0,.34-.07.39-.24l-.51.13-.12-.37h-.31c-.04-.14.11-.19.14-.29.1-.49-.45-.49-.59-.75-.01-.02.06-.31-.02-.38-.17-.16-.12.2-.23.16.13-.52-.33-.47-.54-.76-.09-.12-.18-.55-.21-.59-.08-.09-.46.04-.11-.47h-.35c-.03-.43-.43-.23-.52-.32-.15-.15.32-.17.16-.31-.17-.15-.26.21-.31.16l-.87-1.06.16-.12-.31.08-.09-.31h-.3c.1-.22.07-.44-.2-.48l.04.24c-.06.06-.28-.28-.1-.32.14-.02.21.08.18-.16-.14.05-.42.08-.53-.02-.11-.09-.01-.42-.25-.38l.16-.24-.24.04-.07-.32-.32-.03c.07.55-.53-.07-.48-.32l-.39.16.12-.39c-.19.06-.14.24-.43.16l-.08-.55-.23.16.08-.39-.16.04.08-.27h-.24s.08.16.08.16c-.23-.03-.27,0-.24.24l-.22-.09v-.46s-.25.08-.25.08l-.08-.28-.31.04-.17-.35c-.06-.28.56.07.47-.28h-.5s-.28.31-.28.31l.16-.31-.31.08c.06-.29.11-.4-.16-.59-.02-.06.4-.09.12-.27-.56-.04.03.53-.24.63-.21.08-.08-.27-.12-.31l-.47.24.08-.23c-.19-.02-.38-.1-.4-.32l-.2.16c-.06.13-.2,0-.2-.04,0-.07.37-.25.31-.43l-.55.31.08-.47-.55.16c-.08-.28.14-.22.16-.24.21-.3-.57.06-.63-.08l-.08.32-.04-.32-.23.08-.2-.28h-.31s.31-.11.31-.11l-.28-.31-.12.39c-.21-.22-.56-.13-.67-.4l-.43.24.08-.24-.39.08-.04-.24-.12.16v-.39s-.51.13-.51.13l-.39-.37-.16.23c-.17-.23-.25-.22-.51-.16l.08-.16h-.87s.32-.16.32-.16l-.12-.31-.04.24-.43.08-.16-.16-.28.16c0-.05.01-.13-.05-.15-.33-.1-.76-.11-1.09-.17-1.02-.18-2.02-.33-3.08-.45-.47-.06-1.06.33-1.42-.25l.12.31-.31-.24ZM13.65,8.93l-.16.43c.22-.1.33-.2.39-.44l-.31-.35-.23.32.32.04ZM2.52,31.35l-.06.21c.4.06.04.35.31.48.09-.23.12-.86-.16-.75l-.15-.19-.06.22.12.03ZM63.33,32.83c.11-.06.42.5.52.2.01-.03-.17-.09-.24-.15-.06-.06-.09-.2-.16-.24-.33-.21-.72.27-.63.35l.51-.16Z"/>
        <path class="cls-2" d="M41.74,18.62l.04,2.09c1.11.04,2.24-.04,3.35-.04.79,0,2.75-.09,3.38.03.06.01.04.15.1.16.05,0,.15-.06.22-.05.78.16.78,1.03.84,1.67.86,8.74,1.27,17.67,2.12,26.47,0,1.35-1.07,2.66-2.33,3.02-1.14.32-2.77.07-3.96.18l-.04-.16-.15.17h-17.02s-.08-.24-.08-.24l-.08.24h-11.04c-1.48-.21-2.81-.92-3.22-2.45-.3-1.13.05-2.52.14-3.68.57-7.13,1.18-14.27,1.86-21.41.1-1.07.06-2.21.26-3.28.12-.34.54-.64.89-.69.56-.09,1.21.12,1.73.12.05,0,.13-.11.23-.11.76,0,1.53.06,2.29-.02l.04.24.21-.23c.34.13.75-.18,1.02.16l.09-.16c.21.02,1.19.14,1.28,0-.02-1.1-.07-2.2.13-3.3.41-2.27,1.89-4.41,3.78-5.72,5.78-3.99,13.72.09,13.95,7.02ZM26.21,20.71c1.64.16,3.82-.01,5.52-.01,2.47,0,5.01-.09,7.49-.03.1,0,.3,0,.38.04.1.03,0,.22.21.16.11-.91.13-1.95-.02-2.85-1.44-8.29-13.22-7.85-14,.53-.06.67.06,1.35-.07,2,.18.09.28.15.5.17ZM41.74,25.27c1.92.73,2.31,3.51.43,4.53-.65.35-1.75.52-2.42.14-.13-.07-.15-.21-.2-.23-.19-.11-.37-.06-.61-.3-.48-.49-.8-1.71-.61-2.35.03-.1.15-.15.19-.27s.02-.26.08-.39c.22-.45.86-.86,1.28-1.1v-2.7s-14.11,0-14.11,0v2.84c.33.01.65.28.87.51,1.38,1.5.5,4-1.54,4.22-3.04.32-4-3.78-1.22-4.86l-.08-2.78-6.07.08.12.24c-.71,8.27-1.57,16.5-2.17,24.78-.05.67-.25.99.02,1.71.21.55.8.81,1.36.85,1.77.14,3.89-.01,5.68,0,5.92.03,11.87.05,17.81.08.23,0,1.16-.14,1.29-.06.04.02-.02.15.05.14l.09-.17c.68.04,1.45.1,2.12.09,1.29-.01,2.76.03,4.02-.03,1.13-.05,1.76-.56,1.77-1.74s-.28-2.72-.37-3.96c-.51-6.81-1-13.65-1.59-20.46-.04-.49-.16-.98-.15-1.47h-5.72s-.27.12-.27.12c-.01.79.02,1.58,0,2.36,0,.03-.11.09-.05.2ZM40.84,28.35c.38,0,.69-.31.69-.69,0-.38-.31-.69-.69-.69s-.69.31-.69.69c0,.38.31.69.69.69ZM24.84,28.36c.39,0,.7-.31.7-.7s-.31-.7-.7-.7-.7.31-.7.7c0,.39.31.7.7.7Z"/>
      </g>
    </g>
  </g>
</svg>