<?xml version="1.0" encoding="UTF-8"?>
<svg id="Layer_2" data-name="Layer 2" xmlns="http://www.w3.org/2000/svg" xmlns:xlink="http://www.w3.org/1999/xlink" viewBox="0 0 65.78 64.95">
  <defs>
    <style>
      .cls-1 {
        fill: url(#linear-gradient-8);
      }

      .cls-2 {
        fill: url(#linear-gradient-7);
      }

      .cls-3 {
        fill: url(#linear-gradient-5);
      }

      .cls-4 {
        fill: url(#linear-gradient-6);
      }

      .cls-5 {
        fill: url(#linear-gradient-9);
      }

      .cls-6 {
        fill: url(#linear-gradient-4);
      }

      .cls-7 {
        fill: url(#linear-gradient-3);
      }

      .cls-8 {
        fill: url(#linear-gradient-2);
      }

      .cls-9 {
        fill: url(#linear-gradient);
      }

      .cls-10 {
        fill: #de853d;
      }

      .cls-11 {
        fill: url(#linear-gradient-43);
      }

      .cls-12 {
        fill: url(#linear-gradient-40);
      }

      .cls-13 {
        fill: url(#linear-gradient-41);
      }

      .cls-14 {
        fill: url(#linear-gradient-42);
      }

      .cls-15 {
        fill: url(#linear-gradient-49);
      }

      .cls-16 {
        fill: url(#linear-gradient-48);
      }

      .cls-17 {
        fill: url(#linear-gradient-45);
      }

      .cls-18 {
        fill: url(#linear-gradient-47);
      }

      .cls-19 {
        fill: url(#linear-gradient-44);
      }

      .cls-20 {
        fill: url(#linear-gradient-46);
      }

      .cls-21 {
        fill: url(#linear-gradient-10);
      }

      .cls-22 {
        fill: url(#linear-gradient-11);
      }

      .cls-23 {
        fill: url(#linear-gradient-12);
      }

      .cls-24 {
        fill: url(#linear-gradient-13);
      }

      .cls-25 {
        fill: url(#linear-gradient-19);
      }

      .cls-26 {
        fill: url(#linear-gradient-14);
      }

      .cls-27 {
        fill: url(#linear-gradient-21);
      }

      .cls-28 {
        fill: url(#linear-gradient-20);
      }

      .cls-29 {
        fill: url(#linear-gradient-22);
      }

      .cls-30 {
        fill: url(#linear-gradient-23);
      }

      .cls-31 {
        fill: url(#linear-gradient-28);
      }

      .cls-32 {
        fill: url(#linear-gradient-25);
      }

      .cls-33 {
        fill: url(#linear-gradient-32);
      }

      .cls-34 {
        fill: url(#linear-gradient-31);
      }

      .cls-35 {
        fill: url(#linear-gradient-33);
      }

      .cls-36 {
        fill: url(#linear-gradient-30);
      }

      .cls-37 {
        fill: url(#linear-gradient-15);
      }

      .cls-38 {
        fill: url(#linear-gradient-16);
      }

      .cls-39 {
        fill: url(#linear-gradient-17);
      }

      .cls-40 {
        fill: url(#linear-gradient-18);
      }

      .cls-41 {
        fill: url(#linear-gradient-35);
      }

      .cls-42 {
        fill: url(#linear-gradient-34);
      }

      .cls-43 {
        fill: url(#linear-gradient-36);
      }

      .cls-44 {
        fill: url(#linear-gradient-38);
      }

      .cls-45 {
        fill: url(#linear-gradient-27);
      }

      .cls-46 {
        fill: url(#linear-gradient-24);
      }

      .cls-47 {
        fill: url(#linear-gradient-26);
      }

      .cls-48 {
        fill: url(#linear-gradient-29);
      }

      .cls-49 {
        fill: url(#linear-gradient-37);
      }

      .cls-50 {
        fill: url(#linear-gradient-39);
      }

      .cls-51 {
        fill: url(#linear-gradient-57);
      }

      .cls-52 {
        fill: url(#linear-gradient-58);
      }

      .cls-53 {
        fill: url(#linear-gradient-59);
      }

      .cls-54 {
        fill: url(#linear-gradient-53);
      }

      .cls-55 {
        fill: url(#linear-gradient-54);
      }

      .cls-56 {
        fill: url(#linear-gradient-55);
      }

      .cls-57 {
        fill: url(#linear-gradient-56);
      }

      .cls-58 {
        fill: url(#linear-gradient-50);
      }

      .cls-59 {
        fill: url(#linear-gradient-51);
      }

      .cls-60 {
        fill: url(#linear-gradient-52);
      }

      .cls-61 {
        fill: url(#linear-gradient-67);
      }

      .cls-62 {
        fill: url(#linear-gradient-68);
      }

      .cls-63 {
        fill: url(#linear-gradient-69);
      }

      .cls-64 {
        fill: url(#linear-gradient-63);
      }

      .cls-65 {
        fill: url(#linear-gradient-64);
      }

      .cls-66 {
        fill: url(#linear-gradient-65);
      }

      .cls-67 {
        fill: url(#linear-gradient-66);
      }

      .cls-68 {
        fill: url(#linear-gradient-60);
      }

      .cls-69 {
        fill: url(#linear-gradient-61);
      }

      .cls-70 {
        fill: url(#linear-gradient-62);
      }

      .cls-71 {
        fill: url(#linear-gradient-71);
      }

      .cls-72 {
        fill: url(#linear-gradient-70);
      }
    </style>
    <linearGradient id="linear-gradient" x1="0" y1="33.63" x2="18.28" y2="33.63" gradientUnits="userSpaceOnUse">
      <stop offset=".07" stop-color="#de853d"/>
      <stop offset=".89" stop-color="#de853d" stop-opacity="0"/>
    </linearGradient>
    <linearGradient id="linear-gradient-2" x1=".87" y1="40.32" x2="1.79" y2="40.32" xlink:href="#linear-gradient"/>
    <linearGradient id="linear-gradient-3" x1="45.55" y1="38.87" x2="65.78" y2="38.87" xlink:href="#linear-gradient"/>
    <linearGradient id="linear-gradient-4" x1="22.25" y1="62.28" x2="35.55" y2="62.28" xlink:href="#linear-gradient"/>
    <linearGradient id="linear-gradient-5" x1="34.75" y1="2.8" x2="47.53" y2="2.8" xlink:href="#linear-gradient"/>
    <linearGradient id="linear-gradient-6" x1="51.15" y1="13.03" x2="60.54" y2="13.03" xlink:href="#linear-gradient"/>
    <linearGradient id="linear-gradient-7" x1="21.73" y1="2.15" x2="30.68" y2="2.15" xlink:href="#linear-gradient"/>
    <linearGradient id="linear-gradient-8" x1="38.38" y1="62.27" x2="41.92" y2="62.27" xlink:href="#linear-gradient"/>
    <linearGradient id="linear-gradient-9" x1="38.05" y1="61.17" x2="38.87" y2="61.17" xlink:href="#linear-gradient"/>
    <linearGradient id="linear-gradient-10" x1="40.71" y1="60.78" x2="41.51" y2="60.78" xlink:href="#linear-gradient"/>
    <linearGradient id="linear-gradient-11" x1="41.1" y1="61.41" x2="45.55" y2="61.41" xlink:href="#linear-gradient"/>
    <linearGradient id="linear-gradient-12" x1="13.98" y1="7.22" x2="17.03" y2="7.22" xlink:href="#linear-gradient"/>
    <linearGradient id="linear-gradient-13" x1="35.65" y1="62.61" x2="37.88" y2="62.61" xlink:href="#linear-gradient"/>
    <linearGradient id="linear-gradient-14" x1="49.57" y1="7.55" x2="50.9" y2="7.55" xlink:href="#linear-gradient"/>
    <linearGradient id="linear-gradient-15" x1="18.5" y1="5.77" x2="19.99" y2="5.77" xlink:href="#linear-gradient"/>
    <linearGradient id="linear-gradient-16" x1="20.66" y1="4.25" x2="22.47" y2="4.25" xlink:href="#linear-gradient"/>
    <linearGradient id="linear-gradient-17" x1="59.81" y1="17.02" x2="60.88" y2="17.02" xlink:href="#linear-gradient"/>
    <linearGradient id="linear-gradient-18" x1="50.48" y1="8.78" x2="51.31" y2="8.78" xlink:href="#linear-gradient"/>
    <linearGradient id="linear-gradient-19" x1="35.91" y1="2.89" x2="36.9" y2="2.89" xlink:href="#linear-gradient"/>
    <linearGradient id="linear-gradient-20" x1="1.29" y1="26.88" x2="2.2" y2="26.88" xlink:href="#linear-gradient"/>
    <linearGradient id="linear-gradient-21" x1="58.49" y1="13.05" x2="59.23" y2="13.05" xlink:href="#linear-gradient"/>
    <linearGradient id="linear-gradient-22" x1="51.24" y1="6.6" x2="52.14" y2="6.6" xlink:href="#linear-gradient"/>
    <linearGradient id="linear-gradient-23" x1="19.09" y1="58.57" x2="20.16" y2="58.57" xlink:href="#linear-gradient"/>
    <linearGradient id="linear-gradient-24" x1="16.54" y1="5.15" x2="17.52" y2="5.15" xlink:href="#linear-gradient"/>
    <linearGradient id="linear-gradient-25" x1="33.68" y1="2.93" x2="34.59" y2="2.93" xlink:href="#linear-gradient"/>
    <linearGradient id="linear-gradient-26" x1="17.77" y1="58.81" x2="19.18" y2="58.81" xlink:href="#linear-gradient"/>
    <linearGradient id="linear-gradient-27" x1="45.18" y1="60.63" x2="47.03" y2="60.63" xlink:href="#linear-gradient"/>
    <linearGradient id="linear-gradient-28" x1="19.18" y1="3.46" x2="19.92" y2="3.46" xlink:href="#linear-gradient"/>
    <linearGradient id="linear-gradient-29" x1="30.71" y1="1.94" x2="31.21" y2="1.94" xlink:href="#linear-gradient"/>
    <linearGradient id="linear-gradient-30" x1="14.54" y1="5.7" x2="15.71" y2="5.7" xlink:href="#linear-gradient"/>
    <linearGradient id="linear-gradient-31" x1="33.75" y1="1.85" x2="34.61" y2="1.85" xlink:href="#linear-gradient"/>
    <linearGradient id="linear-gradient-32" x1="60.72" y1="19.48" x2="61.42" y2="19.48" xlink:href="#linear-gradient"/>
    <linearGradient id="linear-gradient-33" x1="18.19" y1="59.51" x2="19.09" y2="59.51" xlink:href="#linear-gradient"/>
    <linearGradient id="linear-gradient-34" x1="20.49" y1="2.68" x2="21.32" y2="2.68" xlink:href="#linear-gradient"/>
    <linearGradient id="linear-gradient-35" x1="29.15" y1=".83" x2="30.22" y2=".83" xlink:href="#linear-gradient"/>
    <linearGradient id="linear-gradient-36" x1="19.27" y1="59.47" x2="20" y2="59.47" xlink:href="#linear-gradient"/>
    <linearGradient id="linear-gradient-37" x1="60.14" y1="15.22" x2="60.89" y2="15.22" xlink:href="#linear-gradient"/>
    <linearGradient id="linear-gradient-38" x1="16.61" y1="60.6" x2="17.45" y2="60.6" xlink:href="#linear-gradient"/>
    <linearGradient id="linear-gradient-39" x1="19.99" y1="3.76" x2="20.99" y2="3.76" xlink:href="#linear-gradient"/>
    <linearGradient id="linear-gradient-40" x1="44.73" y1="5.19" x2="45.38" y2="5.19" xlink:href="#linear-gradient"/>
    <linearGradient id="linear-gradient-41" x1="19.01" y1="4.58" x2="20" y2="4.58" xlink:href="#linear-gradient"/>
    <linearGradient id="linear-gradient-42" x1="48.58" y1="8.03" x2="49.67" y2="8.03" xlink:href="#linear-gradient"/>
    <linearGradient id="linear-gradient-43" x1="32.75" y1="2.39" x2="33.26" y2="2.39" xlink:href="#linear-gradient"/>
    <linearGradient id="linear-gradient-44" x1="10.44" y1="7.83" x2="11.26" y2="7.83" xlink:href="#linear-gradient"/>
    <linearGradient id="linear-gradient-45" x1="19.52" y1="5.31" x2="20.76" y2="5.31" xlink:href="#linear-gradient"/>
    <linearGradient id="linear-gradient-46" x1="12.75" y1="6.8" x2="13.41" y2="6.8" xlink:href="#linear-gradient"/>
    <linearGradient id="linear-gradient-47" x1="52.72" y1="8.45" x2="53.71" y2="8.45" xlink:href="#linear-gradient"/>
    <linearGradient id="linear-gradient-48" x1="9.12" y1="9.24" x2="9.61" y2="9.24" xlink:href="#linear-gradient"/>
    <linearGradient id="linear-gradient-49" x1="64.25" y1="32.02" x2="64.92" y2="32.02" xlink:href="#linear-gradient"/>
    <linearGradient id="linear-gradient-50" x1="23.13" y1="1.24" x2="23.87" y2="1.24" xlink:href="#linear-gradient"/>
    <linearGradient id="linear-gradient-51" x1="12.18" y1="8.12" x2="12.83" y2="8.12" xlink:href="#linear-gradient"/>
    <linearGradient id="linear-gradient-52" x1="63.75" y1="32.94" x2="64.67" y2="32.94" xlink:href="#linear-gradient"/>
    <linearGradient id="linear-gradient-53" x1="49.22" y1="5.36" x2="49.77" y2="5.36" xlink:href="#linear-gradient"/>
    <linearGradient id="linear-gradient-54" x1="1.78" y1="30.76" x2="2.61" y2="30.76" xlink:href="#linear-gradient"/>
    <linearGradient id="linear-gradient-55" x1="18.52" y1="3.86" x2="19.09" y2="3.86" xlink:href="#linear-gradient"/>
    <linearGradient id="linear-gradient-56" x1="3.02" y1="31.83" x2="3.56" y2="31.83" xlink:href="#linear-gradient"/>
    <linearGradient id="linear-gradient-57" x1="31.62" y1="61.7" x2="32.36" y2="61.7" xlink:href="#linear-gradient"/>
    <linearGradient id="linear-gradient-58" x1="58.23" y1="12.17" x2="58.98" y2="12.17" xlink:href="#linear-gradient"/>
    <linearGradient id="linear-gradient-59" x1="51.73" y1="7.96" x2="52.23" y2="7.96" xlink:href="#linear-gradient"/>
    <linearGradient id="linear-gradient-60" x1="22.8" y1="4.13" x2="23.22" y2="4.13" xlink:href="#linear-gradient"/>
    <linearGradient id="linear-gradient-61" x1="57.83" y1="11.95" x2="58.42" y2="11.95" xlink:href="#linear-gradient"/>
    <linearGradient id="linear-gradient-62" x1="17.57" y1="5.05" x2="18.28" y2="5.05" xlink:href="#linear-gradient"/>
    <linearGradient id="linear-gradient-63" x1="16.95" y1="7.33" x2="17.61" y2="7.33" xlink:href="#linear-gradient"/>
    <linearGradient id="linear-gradient-64" x1="61.82" y1="20.63" x2="62.24" y2="20.63" xlink:href="#linear-gradient"/>
    <linearGradient id="linear-gradient-65" x1="31.31" y1="2.93" x2="31.87" y2="2.93" xlink:href="#linear-gradient"/>
    <linearGradient id="linear-gradient-66" x1="17.03" y1="6.68" x2="17.62" y2="6.68" xlink:href="#linear-gradient"/>
    <linearGradient id="linear-gradient-67" x1="20.25" y1="4.42" x2="20.91" y2="4.42" xlink:href="#linear-gradient"/>
    <linearGradient id="linear-gradient-68" x1="16.79" y1="5.87" x2="17.67" y2="5.87" xlink:href="#linear-gradient"/>
    <linearGradient id="linear-gradient-69" x1="65.04" y1="25.32" x2="65.47" y2="25.32" xlink:href="#linear-gradient"/>
    <linearGradient id="linear-gradient-70" x1="9.7" y1="8.84" x2="10.44" y2="8.84" xlink:href="#linear-gradient"/>
    <linearGradient id="linear-gradient-71" x1="35.69" y1="1.07" x2="36.26" y2="1.07" xlink:href="#linear-gradient"/>
  </defs>
  <g id="Layer_1-2" data-name="Layer 1">
    <g id="kSgoHd">
      <g>
        <g>
          <path class="cls-9" d="M1.78,40.06c.04-.15.03-.38.09-.52.04-.1.19-.01.16-.14-.29.03-.43-.02-.41-.33-.12.01-.2.3-.31.33-.28.08-.44.03-.27-.24l-.17.33-.08-.16c-.56.39-.15-.21-.17-.24,0,0-.14.02-.19-.11-.02-.05-.12-.35-.13-.37-.04-.13,0-.29-.09-.43.22-.02.5.08.66-.12-.12-.48-.51-.21-.66-.41-.03-.03-.21-.55-.21-.58,0-.13.18-.23.19-.33s-.17-.86-.14-1.15c.01-.11.25-.94.33-.87.14.31-.06.53-.16.82.49.06.19-.66.74-.7.03-.18-.27-.26-.33-.21-.04.04.11.32-.17.25l.03-.25-.11-.08.16-.08H.14c.1-.27-.01-.34-.08-.58.5.04.24-.39.49-.58l.04.58.08-.25c.26.17.28.18.29.49l.13-.25c.1.01.22-.02.31,0s0,.2.14.17v-.33s-.2.09-.2.09l-.1-.17-.16.08-.04-.24-.08.16-.25-.12.41-.12c-.15-.31-.25-.55-.25-.91.22-.03.15.03.18.18.05.24-.08.54.31.48l-.16.41c.48.04.95-.78.25-.49-.06-.14.15-.21.14-.29,0-.06-.25-.22-.23-.37l-.08.25c-.18-.06-.25-.24-.25-.41l-.58.25.04-.23c.09.09.18.07.13-.06-.04-.1-.19.03-.16-.12.39.09.31-.47.33-.74l.33.25-.25.33.53-.17.42.34c.18-.23-.25-.16-.2-.37.01-.06.18-.17.25-.12l.08.25.16-.45c-.13-.21-.23,0-.4-.05l-.09-.16v.41s-.25-.08-.25-.08l.04.16c-.27.06-.3-.32-.54-.45l.15-.05c-.12-.19.06-.69.27-.52l.08.21-.25.08.17.41c.1.09.15,0,.18-.1.01-.03-.02-.64-.03-.67s-.29-.16-.16-.47c-.39-.07.16.47-.25.41v-.62s.25-.25.25-.25l-.16-.04c0-.09-.01-.17.04-.25.1-.16.42-.08.46-.24l-.21-.17-.21.13-.16-.08.07-.66.42-.29.08.33c.06-.29.2-.53.08-.82.05,0,.63.03.44.16-.05.03-.17-.05-.11.16.15-.02.26,0,.25.16l.41-.16c.06-.35-.29.03-.41-.21l.33-.12-.25-.25c.45.11.55-.5.7-.83h.2s-.08-.65-.08-.65l-.41.33.08-.41-.41.08.16-.66-.26.29-.15.04-.16-.16.13-.33-.25-.25c-.26-.04-.03.24-.06.36-.04.18-.48.3-.02.63l.12-.25.05.33c-.29.19-.71.16-.79-.21-.07-.36.24-.73-.08-.82l.25-.29c-.08.35.28.35.17.74.39-.17-.15-.56-.09-.85.02-.11.65-.18.44-.69-.12-.31-.28.09-.25.13.03.04.22-.03.15.18h-.58c-.05-.3.16-.08.33-.08-.03-.2.15-.38-.04-.49l-.08.17c-.25,0-.36-.43.04-.33-.3-.37.07-.82-.08-1.24l.15.06.14-.14.25.33.37-.21c.04-.25-.2-.04-.33-.09-.03-.01-.39-.3-.39-.32s.08-.46.09-.49c.05-.16.41-.72.45-.85.02-.07-.07-.19-.02-.28.08-.13.32-.11.43-.19.1-.07.28-.35.44-.43l-.24-.13.11-.32c.43.21.19.29.29.66-.31-.04-.39.39-.74.42l.07.23c-.23.05-.33.34-.07.43l.04-.33.08.25.53-.25c.01-.19-.26.05-.23-.19.05-.39.19-.24.35-.39.23-.21.29-.69-.11-.75l.08-.32-.25.08c.02-.28.28-.1.08-.49.27-.06.07.26.33.08v.19s.17.06.17.06c-.04-.79.55-.23.87-.28.18-.03.43-.4.16-.54l-.04.29-.17.04c-.06-.43-.39-.07-.55-.14-.09-.04-.27-.19-.19-.27.16-.17.13.29.33.16.02-.02-.28-.56.08-.49l-.08.33c.28.07.6.07.66-.29.03-.15-.27-.11-.17-.37l.33.16v-.49s.25.25.25.25l.08-.41-.33.08v-.33s.58.08.58.08c-.11-.35.33-.49.23-.86-.04-.14-.29-.07-.23-.25.19-.29.35.13.37.12l.29-.25-.41-.08.25-.58.33.25.08-.49-.25.04c.26-.06.31-.47.46-.53.24-.1.21.36.37.04.09-.19-.22-.1-.25-.12.27-.25-.01-.33.01-.6.02-.2.2-.2.23-.29.06-.17.03-.62.11-.74.05-.08.38-.12.32-.43h.24s-.06.15-.06.15l.14.05-.37.21c0,.24-.15.43-.21.62-.02.08-.14.27.04.28.2.02.25-.27.21-.41l.49.08c-.1-.58.3-.91.41-1.4l.33.08-.12.25c-.03.3.36.06.37.08-.09.75-.29.66-.91.5.27.24.64.46.99.33.06.28-.47.19-.12.49l.21-.25-.08.41-.39-.1c-.18-.16.08-.37.06-.4,0,0-.09.01-.13-.03s-.03-.13-.03-.13c-.02-.01-.25.22-.41.08-.1.44.31.22.33.29v.37s-.58-.33-.58-.33l.25.74c.25,0,.15-.28.49-.17-.19-.67.29,0,.41-.08.11-.28.12-.7.5-.66l-.25-.25.5.08c-.06.18-.1.34.16.33-.3-.6.28-.95.16-1.48-.31-.05.05.43-.29.58-.28-.14-.13-.35-.18-.49-.02-.06-.23-.63-.36-.49.16.26.29.55,0,.78l.16.12h-.24c-.18-.3.02-.42.08-.69-.28.03-.36-.65-.33-.7.15-.23.53-.09.56-.1s.03-.15.09-.19c.16-.11.44.08.25-.21l.33.25c-.07-.42.45-.32.74-.33l-.1-.23c-.26-.02-.53.04-.65-.26.37.14.44-.23.82-.25v.41c.29.05.24-.27.58-.17.03-.03-.15-.19-.14-.29.01-.11.34-.28-.19-.29l-.16.33-.17-.49.33.08-.04-.25.2-.09-.07-.65h.24s.13.41.13.41l.21-.04-.16-.45.41.25c-.03-.13-.39-.3-.41-.39-.03-.13.02-.3,0-.43.22-.01.07.48.29.41.08-.03.05-.16.12-.21.06-.04.37.03.49-.2l-.17.37.17.12h-.33s0,.25,0,.25c.09-.04.2-.34.25-.04.03.19-.43.43-.17.81.05.07.16.05.16.06.02.04-.13.2-.15.3-.06.36.71.26.98.35v-.33s-.25,0-.25,0l-.04.16-.12-.41c.19-.13.17.26.25.16,0,0-.02-.1.03-.13.08-.06.25,0,.22-.19.33.16.02.6.37.66l.04-.16c.19.08.25-.13.27-.14.03,0,.53.06.31-.27,0-.01-.11.07-.14.06-.11-.04-.21-.27-.1-.39-.12.02-.32.18-.33.29,0,.04.12.04.14.06.26.48-.44.41-.39-.31l.33-.04-.16-.08.04-.33.34.33c.33,0,.28-.36.4-.42.14.41.19,0,.37-.08-.06.26.14.25.24.38.28.38-.17.26-.22.5-.03.15.08.36.23.41v.16c-.25.11-.37.42-.66.37v-.33s-.37.41-.37.41c-.07-.21-.25-.21-.45-.25l.25.7-.33-.12.04.41-.53-.25.16-.16-.08-.13-.25.04c.06-.6.5-.29.45.16.39-.53-.09-.53-.45-.74.15.33-.36.42-.25.58.02.02.23.02.3.25.06.22-.16.31.12.37l-.25.62c-.29.04-.11-.35-.49-.16v-.25s.15.06.15.06l.06-.12.12.06c.12-.22-.05-.29-.08-.46-.05-.3.13-.71-.33-.53v-.32s-.29-.09-.29-.09c-.24.2.02.29.21.16v.25s-.41-.08-.41-.08c.05.27-.09.3-.33.33l.08.41c-.23-.05-.17-.39-.41-.33l-.17.41c.44-.1.58.18.58.58l-.25-.16c-.06.27.09.3.33.33.07-.33.15-.48-.16-.7l.08-.08c.36.13.23-.31.66-.2l-.17.21.17.37-.25.17.25.04-.08.21s.57-.28.49.08c-.3-.17-.38.45-.52.56-.1.08-.41.09-.56.1-.03.17.33-.02.25.2-.08.2-.68.46-.67.86l-.32-.07c.17.19-.23.51-.39.66-.42.38-.4.7-.72,1.07-.09.1-.24.06-.29.14-.13.19.03.36-.4.48l.16.08c-.36.55-.65,1.15-.99,1.71-.36.6-.76,1.12-1.1,1.72-.04.07-.06.15-.05.24l-.24-.08-.18.53.17.16-.42.95c-.14-.07-.23-.09-.32.05l.17.16c-.03.34-.31.44-.32.47-.01.04.1.23.05.42-.03.12-.19.26-.25.42-.09.25,0,.71-.4.64l.17.13c-.09.19-.05.47-.09.63-.02.06-.12.06-.13.09-.13.33-.2.57-.23.96l-.17-.08-.12.33.33.08-.41.29.25.08c-.24.16-.08.63-.1.69,0,.02-.25.18-.29.41-.03.18.1.45-.02.68l-.08-.41-.08.25-.41-.08.25.16h-.23c-.19.38.15.61.31.91h-.41s.08-.33.08-.33c-.28.12-.53.58-.16.7-.11.17-.3-.08-.25.2l.54.17.04.16h-.25s.08.25.08.25c-.22.05-.1-.11-.29-.17-.12-.04-.29-.09-.37.05l.34.08c0,.27.16.23.32.41l-.17.08v.16s.25.16.25.16c-.26.54-.27-.07-.39-.27-.1-.18-.33-.16-.27-.43-.24.04-.05.29-.08.33h-.41c0,.12.06.22.08.33.08-.05.15-.1.25-.08v.33s.21,0,.21,0c-.17.21.4.44.08.58-.02,0-.22-.23-.23-.25-.03-.04.03-.14.01-.15-.21-.14-.2.13-.32-.42-.11.07-.09.09-.08.25l-.16-.08v.25s-.25,0-.25,0l-.16-.25-.17.29c.43.22,0,.27-.25.04l.16.29-.17.09v.44c.18-.02.23.02.29.17l.37-.17v.25c.07-.01.22.02.25,0,.19-.15-.21-.15-.16-.25l.32.13-.08.28-.24-.08c-.01.1-.6.99-.17.74v.25c.34-.05.27-.47.16-.74.42.06.2-.33.5-.33.01-.25.06-.5.12-.74l.13.37-.17.28c.06.05.49-.27.41.08h-.21c.07.41-.12,0-.29,0-.01.19,0,.38,0,.57l.24.04-.33.7c-.28-.3-1.13.09-.66.41v-.33s.25,0,.25,0c-.03.26-.09.61-.41.41v.16c.23.07.33.25.58.08l.04.58c.27.08-.09-.3.17-.41.17-.08.06.26.29.16-.15-.21-.13-.34-.08-.58.54.2.39.65,0,.95l.41.29c-.21-.23-.07-.55.06-.8.09-.16.08-.11.27-.1l-.17.21.17.04c.15.48-.39.41-.16.74l-.33.09v.4c.29-.09.53-.12.65.21l-.17.08c.41.35.1.98.41,1.32l-.16.12.15.04c-.05.37-.02.91.18,1.24l-.25.04v.25s.33.04.33.04l-.16.29.25-.08-.18.56c-.44.01-.95.47-.23.42l-.08-.16c.14.01.23-.04.34-.12.26-.2-.08-.41.24-.38l-.09.53.17.09-.09.24c.31.08.14.46.18.52.1.14.39.23.31.6l-.16-.16c-.09.27.13.22.19.35s.11.56-.11.39c-.02-.02.07-.24-.16-.16-.09.37.23.22.33.41-.16-.02-.47.39-.4.49,0,.01.13,0,.16.06.09.16.04.39.2.52l.08-.25.25.25.12-.16c.14.26.17.49.1.79l.15.08-.35.21-.06.25c.15-.11.37-.1.52-.17.09-.04.01-.19.14-.16.16.54.06.55-.45.66l-.12-.25c.08.22-.14.25-.15.26-.02.06.1.17.06.22-.03.04-.19-.05-.16.09l1.07-.41-.05.25.3.08c-.15.41.06.3.16.48.22.39.33.84.59,1.22l-.33.41c.04.1,1.17.18.83.75l.15.08-.33.54.49-.33c.02.17.05.35.25.33v.08c-.18-.03-.18.09-.16.25l-.25-.04.25.17.25-.29.41.41-.33.12.29.29.12-.25c-.01.5.71.61.5,1.07h.33s-.16.12-.16.12c.26.15.52.48.41.78.27-.07.49.08.65.3.07.1.05.25.12.34.17.24.63.25.3.85l.33-.33-.04.33.37.2-.25.29c.21.09.15-.17.2-.17.11,0,.24.18.29.29l-.49.37.49.08.17-.33.08.33.17-.25v.49s-.33-.08-.33-.08c.2.3-.07.42-.08.47-.06.23.16.49.41.36l-.08.33c.14.14.26-.44.33-.04-.16.18-.37.17-.58.21,0-.12.11-.28,0-.37l-.58-.17.41-.16-.2-.21-.05.15-.24-.07c-.19.51-.36,1.24.37.66l.13.24s.12-.07.16-.08c.01.2.04.33.25.41v-.29s.48-.14.48-.14l.06-.32c-.27-.1-.44-.17-.46-.49l-.08.25c-.35.06-.06-.4-.08-.58h.58s-.08.17-.08.17l.5.08-.08.16c.33.02.45.02.41.41l.16-.25.02.24.22.02.02.31.56.26-.13.24.09.17.49-.17c.22.5.99.48.95,1.08l.08-.19.16-.06c.28.43.61.82,1.05,1.09l.02.22c.22-.1.04-.43.41-.33l-.08.66.29-.25.04.16c.28-.07.57-.11.49.25-.17-.15-.39.06-.45.05-.1,0-.14-.18-.29-.13v.33s.25-.04.25-.04l-.25.62-.12-.07-.04.23c.46-.12.4-.32.49-.74.15-.02.05.15.09.24,0,.01.29-.13.24.17l-.25-.08.08.33h-.41c-.02.17.03.37,0,.53-.08.44-.43.14-.54.29-.16.22.14.45.13.66l-.12-.17-.29.17.16-.24-.25-.25c-.2,0,.05.37,0,.41h-.25s0-.45,0-.45l.24-.04c0-.34-.18-.53-.41-.74l.25-.04-.07-.19.32-.38-.17-.04.13-.16.37.12-.08-.53c-.26-.06-.1.13-.22.25-.23.24-.73.06-.86-.14s-.05-.61-.24-.81l.16-.04.08.66.41-.08-.08.41c.29.15.5-.1.16-.21l.09-.45-.31.07-.18-.12.08-.44-.5.04v.28s-.49.3-.49.3c-.02.28.4-.18.33.2l-.74.08c-.02.45.52.51.33.99-.29-.05-.15-.35-.18-.39-.03-.04-.15-.04-.19-.1-.03-.05.01-.32-.05-.42l-.33.08v-.19s-.25-.06-.25-.06c-.02-.15.3-.13.33-.17.11-.17-.31-.39-.16-.57l-.33.29.25.04-.25.08v.37s.18.05.18.05l.06.16c-.17-.1-.36.2-.66.17l.25.17-.21.16-.14-.24-.15.07v-.21s.16-.08.16-.08c-.01-.04-.08-.1-.08-.13.09.03.19.06.28.09l.07-.14.15.06-.21-.66-.04.58-.25-.25c0,.11,0,.22,0,.33-.14-.04-.31-.1-.41-.21l.49-.21-.39-.35c-.07-.12.01-.29-.02-.42-.02-.09-.25,0-.17-.22h.25s-.33-.33-.33-.33l-.08.25-.25-.25c.05.24.14.45-.04.66-.22-.09-.02-.62-.05-.65l-.32-.09.25-.12c-.05-.12-.37-.17-.41-.12s.08.27-.08.25l-.17-.17c0-.14.23-.11.29-.24.04-.08-.07-.3-.04-.42l-.25.16.08-.25-.25-.08c0,.2.07.49-.16.58.13-.48-.2-.46-.26-.82h-.24s-.09.32-.09.32l-.16-.12.17-.24-.42-.58.17-.2-.49.08c1,1.03-.12.71-.17-.17h-.12c-.18.25-.29.22-.57.17l-.05-.25-.24.08-.17-.33c.12.02.43.16.46.15.06,0,.12-.34.37-.24.01-.15-.29-.12-.33-.17-.19-.19.25-.05.2-.25l.45.25c.02-.24-.21-.32-.41-.34l.04-.65-.29.17c-.08-.29.19-.37.23-.43.02-.03-.06-.11-.04-.13.03-.04.19.03.14-.14l-.54-.37c-.22.14-.07.3-.04.49l.33-.04c-.25.41-.23.78-.32,1.23l-.38.13-.08-.17-.12.21.49-.04-.16.33c-.17-.03-.33-.07-.49-.08l.08-.33-.17.25c-.32-.21-.21-.49.17-.5.06-.2-.12-.14-.16-.23-.2-.38.21-.62.22-.72,0-.08-.19-.31-.14-.45l-.08.25c-.07.08-.37-.35-.66-.04-.17.18.05.49-.24.29l.17.21c-.06.05-.17.41-.29.21-.14-.41-.19-.96.37-.74l-.08-.33-.33.16-.25-.66.21.16c.18-.12-.32-.37-.21-.49l.21.16.12-.25-.23-.02c-.04-.41-.32-.37-.43.02l.25.08-.26.04-.24-.33.33-.26c.04-.27.35-.66.21-.93-.07-.14-.15-.04-.2.05-.14.23.03.43,0,.69l-.49-.08.08.74c-.31-.07-.37-.4-.25-.66h-.58s0-.41-.02-.46c-.03-.07-.18.02-.15-.12.23-.08.19-.27.49-.08v-.41s.21-.09.21-.09l.04.17.16-.12c-.11-.37-.39-.25-.55-.31-.02,0-.03-.14-.07-.15-.12,0-.28.16-.46.13-.24-.04-.07-.31-.32-.29l.25-.12-.41-.12.25-.7-.33-.17c.2-.14.14-.25.08-.45.43-.01.39.29.47.33.13.08.38.04.52,0,.14.13-.29.34-.41.25-.04.3.29.01.29.41l.37-.21c-.21-.05-.06-.47.01-.53.04-.03.24.13.32-.05l-.41-.16.08-.37c.3-.07.11.27.16.33,0,0,.29.05.25-.08l-.16-.05v-.36c-.32.12-.39-.06-.58-.25.02.16-.04.37,0,.52.02.08.19.02.16.17-.06.25-.24.34-.49.3l.25-.29c-.31-.16-.28-.59-.74-.46v-.57s-.38,0-.38,0c0-.36-.09-.69-.37-.95.27-.07.15-.29.16-.53l-.25.08-.25-.66-.16.33c-.28-.08-.06-.29-.08-.44,0-.03-.42-.15,0-.38l.17.25v-.32s-.41-.1-.41-.1v.33s-.09-.15-.09-.15l-.16.07.08-.58.08.16.16-.12-.16-.29-.25.33c-.13,0-.12-.23-.22-.25-.12-.03-.35.05-.43,0-.04-.03-.03-.2-.09-.26-.1-.12-.36-.27-.42-.43-.08-.23.27-.03.25-.2l-.41-.08v-.24c.4-.25.94-.26.73.35-.07.21-.36.13-.4.3h.58s-.46.51.08.41v-.41c.32.07.37.19.58-.08,0,.08,0,.17,0,.25.47,0,.49-.36.74-.66-.24,0-.37-.08-.46.17l-.2-.08c.12.29,0,.23-.08.33-.02-.24.01-.5,0-.74h-.33s.17.22.17.22l-.09.53-.49-.08.25-.08-.25-.17.09-.24c.34.21.08-.2-.09-.29-.13-.07-.38.13-.32-.29.22-.08.14.16.21.17.27.03.58-.15.53-.46l-.24-.05v-.28s-.17-.05-.17-.05l-.33.49ZM10.25,11.85c.09-.28-.03-.53-.06-.8l-.33.09c-.08.39.23.1.33.45l-.24-.04.08.49s.21-.17.22-.19ZM6.4,14.34v-.33c-.5.43.38.7.74.41-.26-.45-.34-.04-.74-.08ZM8.13,14.67c.11-.23-.5-.65-.58-.58-.02.22.44.33.48.43.03.09-.11.19.02.27l.25-.04-.08.33.33-.49-.41.08ZM6.65,15.75l-.4.09-.09.49.25-.08c.01.3.13.32.37.41l.04-.49.49.25.16-.49-1.03.25-.12-.16.33-.25ZM5.49,17.23l-.33-.17-.09.41-.15-.06-.05.14-.21-.25-.17.41.74-.03.25-.46ZM6.98,17.97l.16-.12c-.2-.25-.54-.18-.82-.17-.09,0-.16.12-.27.11-.09,0-.38-.22-.55-.14l.16.17v.12s-.24.13-.24.13c.19.37-.14.25,0,.48l-.22-.12c-.02-.12.21-.43-.11-.37.09.33-.23.32-.18.65h-.24s.07.13.07.13l-.31.04.25.16c-.29.04-.45.4-.49.66.27-.36.75-.04.82-.58-.2-.06-.39.55-.49.12l.74-.58.25.13c.06-.19.1-.5.33-.5v-.12s-.25.04-.25.04c.12-.31.32-.17.58-.17v-.25s.25,0,.25,0v.25s.54-.25.54-.25l.04.17ZM3.76,20.12c-.16-.19-.69.21-.57.32l.33-.08v.33c.06-.26.36-.24.24-.57ZM4.09,20.11c-.4,0-.07.39-.33.54.21.07.18.15.17.37l.08-.36.33-.05-.24-.09v-.41ZM2.2,21.19v-.49c-.28.02-.04.62-.08.66l-.25-.04-.16.37.16-.25c.21-.1.14.17.21.17.12,0,.27-.15.45,0l-.16-.33.23-.12-.06-.29-.33.33ZM4.91,21.6h-.25s.08.82.08.82h.33s-.25-.49-.25-.49l.17.25.25-.12c-.15-.18-.39-.17-.33-.45ZM4.34,22.75l.12-.58-.53.7.24-.04.09.16c-.03-.24.14-.05.25-.21l-.16-.04ZM3.01,22.43c-.08-.13-.51-.08-.65-.01.07.31.34.31.54.49.11,0,.18-.38.11-.48ZM3.35,23.66h-.33c.18.41.07.58,0,.99h.25s-.08-.41-.08-.41h.33s-.17-.58-.17-.58ZM1.95,28.36l.16-.41c-.25.12-.35.39-.33.66.27-.29.49.08.82.08.06-.23-.14-.3-.27-.44l-.39.11ZM.71,36.93v-.41s-.25.08-.25.08c-.05.21.06.12.17.21l-.05.29.54.08-.17-.58c-.21.02.07.41-.25.33ZM3.27,37.59l-.49.12.32.05.09.2c-.21.06-.12.18-.17.37.2-.17.16-.32.49-.25-.35.22-.28.52-.21.91l.14-.24.15.07c-.12-.31.1-.57-.09-.86-.05-.08-.17-.1-.21-.16-.05-.07-.01-.21-.02-.22ZM2.76,38.59c-.06-.05-.33-.13-.39.03.04.18.49.3.5.33.09.28-.29.34-.17.45s.33-.32.41-.37c-.12-.09-.25-.18-.36-.29-.03-.03.02-.14.01-.15ZM4.75,42.86l-.17-.12c-.05.25-.17.13-.28.21s-.04.32-.38.17l.08.33h.28c.18-.06-.07-.36.24-.25.11.04.32.44.3.58l.33-.08c0-.15-.23-.09-.31-.18-.02-.02-.21-.49-.23-.56-.04-.14.02-.07.13-.08ZM6.32,45.09c-.24-.06-.16.19-.33.28-.11.06-.45-.05-.58-.03l.09.24c.19-.04.43-.03.59.09.07.05.07.35.27.33.32-.03.04-.14.02-.17-.06-.11-.1-.23-.23-.29l.17-.44ZM7.64,49.29l-.25-.41-.17.21.35.44.23-.07c.06.23-.18.2-.33.25l.21.58c.2-.23-.09-.53.37-.58l-.16-.33.25.08-.16-.41h.33c-.3-.13-.52-.06-.82,0l.16.25ZM8.77,49.56c-.04-.06-.28-.11-.27-.35-.27.1.18.49.12.66-.27.03-.08-.32-.41-.33l-.08.33c.27.03.32.2.66.17-.02-.14.05-.37-.02-.48ZM7.97,50.28c-.28-.05-.09.36-.41.33l.25.24c-.24,0-.25.24-.33.41.27.07.11-.17.18-.23.05-.04.18.01.24-.07.1-.13-.04-.53.07-.69ZM10.68,53.33c.22-.54-.41-.24-.63-.05-.02.02-.24.4-.19.46.41-.07.09-.43.49-.49l.05.16.04-.25.25.17ZM15.21,57.12c-.08-.29-.13-.48-.48-.4l-.17.74c.23-.13.29-.32.25-.58h.25s-.16.41-.16.41l.32-.17Z"/>
          <path class="cls-8" d="M1.78,40.06s.01.12,0,.16c-.02.05-.2.19-.17.33l-.28-.08.04.25c-.29.08-.11-.28-.16-.33h-.33c-.05-.35.4-.05.58-.08l-.16-.16.12-.25.37.16Z"/>
          <path class="cls-7" d="M59.4,18.05c-.25,0-.48.28-.5-.25l-.25.16.08-.25-.36.08-.13-.49.41.08-.12.16.45.16v-.66s.25.12.25.12c.1.25-.18.19-.16.25l.29.21.21-.36-.25-.21h.41c.12.3-.12.4-.14.44-.08.18-.15.37-.19.55.12,0,.26.07.41,0l-.08.41-.25-.08.29.49c.35-.27-.21-.21.06-.48.15-.14.42.08.55-.14l-.16-.08.17-.37h.41s0,.25,0,.25l.25-.08-.09.28.17.05-.12.16-.37-.33v.21c-.11.07-.41-.2-.3.46l.3.08v.66c-.14,0-.09-.22-.17-.35-.38-.66-1.06.43-.99.52.38-.34.3-.03.38,0,.06.02.25-.06.36,0,.09-.26-.36-.18-.41-.25.12-.22.36-.64.41-.16l-.25.04.66.41-.16.29.41-.25c.03.21.29.98.33.33.19.16.26.17.49.08l-.12.33-.2-.16-.17.41.2-.17.21.08c-.45.52-.11.43-.05.6.05.14.02.5.16.7.02.03.1.03.14.02-.31.25-.23.59.17.57-.09-.16-.07-.26.08-.37-.24-.05-.08-.24-.16-.45.26.08.29.14.25.41l.58-.25-.16.17c-.02.16.21-.01.17.2-.02.09-.24-.03-.17.21l.37-.08-.12-.25h.33s0-.06,0-.08c-.61-.07-.14-.04-.28-.25l-.22-.13.09-.36c.26-.01.22.14.16.33h.41c-.04.28-.13.07-.16.41.05,0,.11-.02.15.01.1.17.11.42.18.59.04.09.19.01.16.14-.21-.03-1.33-.09-1.15.25.24-.11.46.16.2.33l-.09-.17-.28.09-.08-.41-.24.95-.33-.04c.21-.18.42-.33.11-.56h-.35c-.17.52.05.33.18.59.07.13-.01.41-.02.56h.41s0-.25,0-.25l.16.08.08-.66c.33-.1.21.25.49.25v-.41s.49-.09.49-.09v.25s-.41,0-.41,0c.05.28.16.2.25.25-.03.16.13.4.08.58l-.29-.41.04.37-.25.04.33.17-.25.16.25.25-.17.33-.25-.25c-.02.19.13.43.25.58l-.91-.25.05.25h.36s0,.25,0,.25c.16-.15.56.04.49-.25,0,.01.11-.02.14.01.03.04-.08.18.07.21l.16-.06.05.25.21-.17.21.17c.12-.34-.17-.32-.22-.46-.05-.12.04-.5-.35-.36v-.66s.33.08.33.08c.15-.31-.17-.44-.17-.47,0-.08.09-.21.05-.28-.06-.09-.17-.06-.21-.08.01-.07.07-.13.13-.16.21-.04.28.29.53,0l.08.21-.16.04.16.32h.16s.08-.25.08-.25l.08.33c.12.09.27-.39.41-.04.07.18-.15.09-.22.14-.06.05-.1.22-.15.22l-.21-.29c-.23.36-.27.41-.16.87l.17-.41.12.33c.23-.27.24-.66.7-.58l-.25.21.25.08-.41-.04v.25c.17-.11.72.16.58.33-.1.11-.28-.26-.37-.25-.15.43-.22,0-.24,0-.23-.07-.23.22-.37.41l-.08-.25-.33.08c-.06.23.13.15.2.24.03.04-.07.19.19.28l-.06.46.37-.16.21.49.41-.54-.66-.45.41.08c.16-.18-.3-.3-.16-.41.1-.08.49.25.62.33l.54.91-.58-.25c.2.24.12.7-.25.66l.24.3-.2.28-.12-.82-.08.33-.29-.17-.04.25-.33-.08c.02.18.23.12.31.18.06.05.05.18.1.25.17.25.13.39.33.52l-.08.2c.32-.05.33.37.66.33l-.25-.33.41-.08c.06.23-.31.86-.3.95s.19.14.14.29c-.44-.44-.48.21-.08.08-.04.29.13.76-.16.91l-.08-.25c.08.34-.15.2-.22.27-.09.08-.18.43-.11.56l-.18-.24-.11.07.04-.24-.21.08.06.32.24.06-.17.33.17.12c-.35.16-.13-.05-.37-.08l-.21.37.16.12-.21.08-.04-.25-.25.08c.04-.29-.21-.2-.17-.53.01-.1.14-.6.34-.54-.04.3-.31.4-.16.74l.08-.25.25.16c.06-.25.05-.71.25-.79l-.09-.36-.29.41-.37-.24c.24.52-.18.17-.25.58-.13.12-.22-.32-.41-.16s.21.14.16.25c-.15,0-.36-.02-.41.16.37.07.35.27.25.58.15-.13.4-.73.49-.21.02.12,0,.25,0,.37l-.21-.25c-.15.19-.27.25-.21.54l.16-.04-.08.25.25-.06v-.26s.58-.05.58-.05l-.16.18-.33.12c.18.54-.04.41-.16.58,0,.01.07.17-.12.28l-.47-.05c-.05.34.36.12.41.33l-.66.09c-.01.05,0,.11,0,.16.07,0,.15-.04.21-.08l.04.16h.12c.13-.3.4-.23.21.08h.25s0-.19,0-.19l.16-.06c.22.26.06.26.08.44,0,.03.29.14.21.46l.45-.08c.02-.14-.16-.07-.25-.12-.08-.05,0-.15-.02-.19s-.17.04-.14-.1l.33-.08-.08.25h.24s.09-.41.09-.41c.07.03.17.08.24.05.19-.09.08-.35.25-.38.27.49-.56.73.17.82l.08-.25.25.41c-.27.03-.45.01-.66-.16-.16.43,0,.39.25.7-.24.11-.18.17-.25.29-.07,0-.14-.05-.21-.08l-.08.16-.37-.09c.07.17.14.28-.04.41l-.2-.33-.33.49-.21-.66c-.01.16-.29.35-.29.37-.04.3.56.36,0,.41l-.24-.21c-.02.32.52.51.62.17l.2.16.33-.49-.08.37.12.11.21-.06-.08.41.29-.33.12.41.25-.58c-.28.29-.59.02-.48-.36.05-.18.38-.03.48-.14.03-.04,0-.13,0-.15.29.03.53.06.82,0v.25s-.25,0-.25,0c.16.31-.12.24-.16.49l-.08-.33-.25.13c.48.65-.6.61-.4,1.31.06.21.2.04.32.05l-.25-.41c.15.02.26,0,.25-.16.39.08.44.61.17.77l.07.46.21-.16.37.41c.01-.24.1-.41-.06-.62l.43-.45c.24.08-.13.56.04.74h-.25s.16.21.16.21l-.24.13c-.05.07.37.39-.41.15v-.4s-.42.25-.42.25v-.49s-.33,0-.33,0l.16.33-.29-.16.21.74h-.25c.09-.25-.14-.44-.16-.61-.02-.14.22-.34-.09-.29.06.44,0,.36-.33.54l.25.08-.25.17.17.08-.17.29h.33s.04-.41.04-.41l.25.41.21-.16v.24s.28,0,.28,0l.09-.17.2.16.25-.49.09.37c-.12.09-.22,0-.17.21l.16.04c-.28.12-.25.57-.27.6-.04.06-.37.16-.31.43-.41-.06-.42-.35-.66-.62l.25-.13c-.12-.16-.2-.21-.08-.41-.09-.08-.61.28-.49.41l.25-.08c-.02.21-.02.4.17.54l-.25.21.33-.08-.08.66.33-.16-.08.41c.21-.11.24.09.41.16.03-.35.64-.8.08-1.03.08-.12.24-.09.33-.18.12-.12.09-.39.24-.44l.16.45-.16.13-.08-.25c-.05.15.08.33.08.45,0,.02-.27.19-.25.38.16,0,.29-.07.25.17h-.41s.21.25.21.25l.2-.12-.08.29-.21-.08c-.22-.06-.12.29.01.32l.28-.04c-.49.21-.34.67-.62,1.03l-.2-.12.16-.08c-.09-.2-.32-.03-.33-.04-.04-.05.08-.27-.08-.25l-.08.49.25-.16c.17.33-.06.53-.22.82-.1.18-.1.23-.15.33-.16.3-.51.37-.45.75l-.25-.08-.26.65-.15-.07.08.41c-.31-.22-.52-.38-.91-.25.12.17.17.47.41.49l-.33.21.17.41c-.12.2-.23.03-.41.04-.02-.02.27-.49-.08-.41l-.17.58.49.04c-.21.17-.4.26-.6.45-.08.07-.04.2-.08.23-.09.08-.32-.11-.23.35l-.08-.41-.58.08c-.06.24.19.15.35.25.12.07.28.29.14.41s-.39-.47-.49-.41l-.16.33.16.04-.33.21.05-.25-.29-.21.16-.12.16.04c-.18-.24-.44-.08-.66-.04-.1-.43.37-.06.25-.52-.02-.07-.32-.14-.25-.38h-.24s-.16.9-.16.9h.25s-.08.25-.08.25l.17-.04c-.14.6.18.36.58.29.04.14-.14.04-.17.14-.02.11.01.24,0,.36l.16-.16-.08.66-.25-.08v.16s-.15,0-.09-.2c.01-.04.17-.04.17-.09.01-.15-.16-.33,0-.53-.24-.03-.5.06-.49.33l.22.04-.06.73.17.09-.17.12c.36.09.29-.28.25-.49h.15s-.07.66-.07.66h-.33s.08.33.08.33h-.33s0-.99,0-.99l-.29.25-.21-.25c-.07.13-.08,1.46.25,1.24l.08-.33v.41s.25.05.25.05c-.31.34-.25-.06-.49-.04.14.39-.01.7-.41.37.39-.16.12-.27-.17-.12.06.19.28.41.04.58l-.04-.33-.49.16c.08-.19.01-.61-.08-.77-.06-.11-.34.04-.25-.3l-.62.58-.12-.21-.25.05-.08-.33-.08.99.16-.36.16-.05.58.79-.17.08.09.2c-.4.01-.48.13-.5.49l.37-.08-.04-.33h.33s-.08.41-.08.41l.33-.17c-.07-.16-.24-.03-.16-.33l.16.08c-.05-.39.36-.32.62-.5l.21.37c-.12.07-.21,0-.16.2h.86s-.04.25-.04.25c.36.05.16-.74.25-.82l.16.04c-.23.29.13.12.08.33-.29.09-.13.46-.33.67l-.33-.05.08-.33-.17.33-.16-.16-.09.45.17.13c-.21.01-.37.03-.45.24l-.87-.65c.06.35.29.62.66.66v.49s.33-.25.33-.25l-.09.32h-.27s-.07-.3-.22-.15c-.05.05.22.29-.04.25-.1-.31-.26-.19-.39-.25-.17-.09-.21-.32-.61-.08l-.04-.16-.33.16c.14.25.3.26.49.08-.05.26-.07.52-.07.79,0,.1.12.19.12.25,0,.14-.28.43-.05.7l-.41.08.04.17.2.04c-.05.1-.32.13-.41.12.03-.11.08-.21.08-.33-.49.18-.62-.78-.25-.95.14-.03.27.07.25.21.4.04-.05-.39,0-.58-.22-.08-.14.14-.17.16-.15.11-.28-.36-.53-.4l.29-.7c-.34-.06-.43.43-.91.29l.25.08-.17.13.09.44h-.41c.1.44-.19.77-.16,1.24.17-.07.67.15.74-.04l-.17-.29-.16.25-.25-.21.41-.29-.41-.04c.08-.14.39-.18.45-.29.1-.18-.08-.6.29-.58l-.08.33.49.21-.25.04c.13.32-.14.41-.16.47-.06.19.19.57.4.36v.24s.25.05.25.05l-.25.08c.09.14.2.11.33.12-.03.11.02.24-.12.33l-.04-.25-.21.16c.18.4.13.66-.28.33l.16.45-.58.12-.08-.25c0,.23.08.39-.17.45l.16.21c-.27-.07-.4.27-.54.33-.13.05-.18-.06-.08-.17.07-.08.27-.02.21-.24l-.33.05c-.14-.3-.2-.68-.49-.83l.25-.37c-.19-.02-.25.17-.41.25-.06-.13-.11-.28-.17-.41l-.65.33.21.16.04-.16c.2-.03.21-.01.28.16.08-.08.23-.05.29-.08.12.25.3.46.16.74l-.32-.1v-.32c-.32-.06-.03.25-.18.41.31.05.48.17.74-.08l-.08.33.25-.08.08.25c-.36.1-.34.04-.54-.24-.37.31.23.22.21.58h-.41s.04-.25.04-.25l-.29-.16c.28.54.01.69-.53.75l-.09-.17c-.16.02-.23.25-.29.29-.2.11-.42-.07-.25.21-.3.05-.12-.27-.33-.33l-.08.49.36-.07c.22.11.13.31.05.48l.37-.17.04.16-.74.17.12-.49-.29.08v.33c-.13-.51-.1-1.01-.74-1.07l.08-.21c.27.12.27-.14.49-.24l-.49-.04-.08-.25c-.04.53-.53.86.08,1.24l-.49-.16-.09.44.42.14.08.49-.21-.16-.08.16-.29-.41-.04.58-.13-.58-.41.16c-.05-.42-.2-.44-.41-.08l.25-.08.08.49h-.33s-.04-.33-.04-.33l-.36.09v.29s-.17-.04-.17-.04c-.06.21.11.13.16.23.09.19-.11.23.33.1l-.09.41h-.24c-.09-.35,0-.51-.42-.57-.05.15.14.21.15.3.01.1-.24.29-.07.52l-.29-.25-.12.16c.08-.39-.11-.32-.37-.49l-.2.33c.2-.14.66.13.49.33-.15.19-.14-.21-.25-.16-.02.34-.23.14-.48.22-.2.06-.46.31-.68.4l.24-.03c.15.46.15-.04.17-.05.16-.12.41-.11.58-.03v.32s-.2-.17-.2-.17l-1.03.33.17-.52-.29-.22-.04.33-.08-.16-.66.16c.12-.17.05-.36.08-.52.01-.05.32-.09.16-.22-.11-.09-.32.34-.49.04l.25-.08c0-.1-.33.08,0-.29h-.25s.14-.1.14-.1l.02-.23-.25-.12.7-.45.25.16-.04-.25.26.33.24-.08c-.05.61.45-.07.48-.31.02-.17-.1-.34-.07-.52l.25.08v-.24s.41,0,.41,0l-.08-.25.33.08-.06-.15c.31-.19.59-.58.97-.43l-.16-.12c.36-.28.75-.61,1.24-.54l-.08-.33.25.16.08-.3.25.05c-.02-.35.4-.45.62-.66.1-.09.1-.22.12-.25.08-.1.06.29.25.16-.01-.19,0-.34.17-.46.11-.08.31.22.25-.2l.33.66c-.04-.33-.27-.5-.07-.85.06-.1.7-.74.81-.63.22.21-.24.27-.25.29-.14.22-.02.44.25.45.1-.42.52-.49.25-1.07l.38-.08c.04-.05-.09-.39.14-.55.04-.03.34.11.15-.27l.33-.17-.08.41.58-.17c.05-.26-.11-.14-.28-.16l-.06-.21c.33-.19.32-.7.79-.29l.2-.16.04.25c.06-.12.08-.3-.04-.38-.14-.09-.64.25-.58-.12.3.06.2-.29.49-.08.07-.18.15-.54.25-.68.05-.07.17-.1.24-.19.11-.15.71-1.05.77-1.08.11-.07.34,0,.48-.02.05-.23-.08-.16-.25-.16v-.12c.09-.17.33-.84.56-.77.16.05.08.45.26.48.07-.4.33-.72.17-1.15.24-.01.41.06.49.29l-.33.04c-.06.26.08.24.25.37-.29.1-.16.38.07.5l-.07.28.5.08c-.05-.41-.63-.43-.08-.74l-.08.25h.25s-.08-.58-.08-.58l.17.41c.05-.07.53-.29.41-.41-.23.13-.35-.04-.54-.16l-.2.33c-.09-.15-.15-.62-.27-.72-.11-.09-.31.11-.21-.29.05-.23.31-.45.37-.57.06-.11-.09-.64.44-.23v-.33s-.25.08-.25.08v-.16s.15-.01.15-.01v-.44s.25-.06.25-.06v-.36s.18.04.18.04l-.04-.25.13-.08.08.25v-.49s.24.14.33-.04c.12-.25-.33.1-.25-.16l.41-.13-.16-.13.08-.94h.25c-.12-.1-.16-.4-.08-.5.01-.01.33.15.33-.04,0-.14-.25-.01-.25-.08.03-.24.19-.42.29-.62.04-.08.01-.21.04-.27.01-.03.43-.31.5-.14l-.09-.28c.39-.16.1-.33-.16-.05-.13-.38.26-.43.31-.51.04-.07.11-.97.15-1.13.08-.3.12.02.11-.46,0-.03.21-.08.23-.44s.01-1.33.1-1.7c.02-.07.17-.05.17-.1,0-.11-.12-.17-.13-.24-.02-.2.16-.53.05-.79l.25.08-.17-.37c.21-.08.15-.09.12-.29l.29-.08-.08.54c.13.23.22-.07.41.04.07-.24-.17-.13-.23-.3-.03-.09.01-.22-.02-.29-.15-.34-.56-.41-.24-1.05l.16.08c0-.08,0-.17,0-.25-.05,0-.11,0-.16,0,.02-.19-.04-.43,0-.6.02-.07.19-.02.17-.17-.02-.12-.14-.21-.16-.34-.09-.59.12-1.3-.08-1.89l.2-.13.25.25.12-.2-.37-.45-.12.33c-.1.02-.14-.17-.15-.23-.03-.35.12-.77-.02-1.12l.17-.05v-.12s-.16-.09-.16-.09v-.23s.17-.09.17-.09l-.33-.37.33.04c-.17-.2-.61-.7-.08-.74l-.33-.04v-.37s.33-.09.33-.09l-.13-.28h-.21s-.08.25-.08.25l-.08-.74h.19s.06-.17.06-.17c-.38.08-.32-.41-.42-.68-.02-.06-.16-.06-.16-.11,0-.09.1-.21.09-.31,0-.07-.18-.08-.25-.18-.1-.16-.08-.43-.24-.59l.23-.31-.17-.09.09-.28h-.2c-.07-.12-.03-.39-.07-.47,0-.02-.12-.03-.14-.09-.1-.26-.05-.55-.34-.72.43-.22.03-.27-.08-.41-.05-.05-.46-1.24-.48-1.34-.02-.13.09-.28.06-.34,0-.02-.19-.09-.29-.25-.31-.51-.49-1.2-.85-1.7.17-.1.51-.02.49.21h.08c-.03-.24,0-.27.24-.26.04-.03,0-.11.01-.16ZM60.88,21.1l.08-.53-.49-.3v.49s.2-.25.2-.25c.32.25-.31.53.21.58ZM63.85,26.79c.11-.2-.12-.46-.33-.49-.04.27-.04.49-.25.7l.41.2-.25-.29c.11-.25.4-.1.41-.12ZM63.19,26.96c-.8-.13-.64.44-.58.99l.39-.1.1-.56.25.08-.2-.24.04-.17ZM64.34,28.44c-.27-.06-.08.17-.17.33l-.41-.08v.41s.82-.45.82-.45l-.2.04-.04-.25ZM63.19,29.68c-.25-.12-.39.06-.58.21.52.15.63.33.41.86.36.02.21-.55.5-.62.05-.19-.45-.23-.58-.29l.25-.16ZM63.27,34.13c-.27.02-.49-.16-.66.12.1.09.32-.14.41.08s-.35,0-.25.29l.41-.08-.49.33h.74c-.06-.34.11-.45-.33-.49l.16-.25ZM63.42,37.69s-.43-.3-.48-.26c-.05.25.37.19.25.45-.07.16-.33.05-.33.21.26-.06.19.1.33.17l.08-.49h.08s.08.41.08.41c-.02-.14.05-.37-.02-.48ZM63.6,39.24l-.17.05-.24.45.46.23c.34-.37.13-.42-.05-.72ZM63.52,40.31v-.33s-.33.41-.33.41l.62.17.13-.21-.15-.06.07-.23-.33.25ZM62.89,40.86l-.11-.55-.25.16.16.25c-.1-.07-.46.18-.41.29l.16.12.04-.16.21.16.04-.25c.05.1.24.23.29.04.02-.07-.11-.02-.14-.07ZM61.89,41.03c-.05-.07.16-.48-.35-.56l.16.25-.25.04v.29s.21-.08.21-.08l.12.12-.16.16.2.13c.06-.19.31-.14.15-.33-.01-.01-.07,0-.09-.02ZM63.19,41.71l-.24-.16c-.09.28-.16.47.12.66l.05-.4.32-.13c.04-.21-.34-.1-.25.04ZM64.18,42.86l-.12-.58-.45-.08c.2.26-.09.26-.08.29.12.29.36-.18.41-.12-.08.28-.05.41.25.49ZM61.46,42.95l-.04-.33c-.37.43.47.89.62.45-.27-.02-.02-.39-.29-.45-.23-.05-.13.34-.29.33ZM62.69,43.61c-.26-.04-.39.37-.08.33l-.15.09.07.32c-.21-.16-.45.09-.33.25.13.16.17-.13.18-.13.1-.05.44-.21.54-.3.07-.06.11-.2.17-.28l-.15-.19-.25.41v-.49ZM61.7,44.84l-.49.08.17.33h-.33s.54.49.54.49l.04-.58-.16.16v-.2c.05-.12.16-.02.25-.29l.14.17c.59.08-.02-.36.19-.74-.29.11-.26.36-.33.58ZM58.24,51.02h-.12s.04.16.04.16l-.25-.08.09.45s-.37.1-.11.21h.18s0,.33,0,.33l.25-.14-.09-.36-.16.08v-.32s.25,0,.25,0l-.08-.33ZM56.62,51.33c-.04-.07-.02-.15-.03-.22l-.33.17.25.12-.41.41.33.45h.16c-.2-.3.08-.23.09-.3l-.1-.4c.43-.18.05-.2.03-.24ZM57.25,51.77c-.19-.19-.39.61-.25.74l.12-.33c.05.23.1.33.37.33l-.25-.74ZM56.43,52.34l-.25.29.25.08-.33.04v.33s.56-.55.56-.55l-.06-.19-.25.25.08-.25ZM54.78,54.16c-.33-.16-.21.06-.3.08-.11.03-.24-.02-.35,0l-.34.82h.41s0-.33,0-.33l.33-.04c-.11-.17-.4.09-.33-.21.32.04.48-.01.58-.33ZM56.02,54.65h-.33s.08.33.08.33c-.34-.22-.63.15-.4.48h.32s-.07-.31-.07-.31c.23-.08.44-.24.4-.51ZM52.85,55.43c-.49-.38-.03.51.36.46.03.03-.36.3,0,.41l.25-.58c-.38.2-.36-.11-.61-.3ZM51.73,55.72h-.41s.25.08.25.08c.07.14-.26.42-.41.41.42.55.25.14.36-.06.03-.05.29-.2.22-.43ZM52.72,55.72l-.25.04.17.53-.33-.25c.22.29-.15.21-.08.37.05.13.21.14.33.12l-.08-.16.49-.08c0-.17-.22.01-.16-.2.02-.08.1-.03.17-.04l-.08-.13-.25.04.08-.25ZM52.97,56.63l-.24-.08c-.05.21-.29.34-.18.57h-.25s.08.25.08.25l.34-.21v-.36c.15,0,.29.07.24-.16ZM49.01,57.7c.42.08.6.15,1.02.17.07,0,0,.26.21.16l.16-.82-.24-.03.08-.3.25.25v-.41c-.43.06-.51.43-.49.82.25-.17.42.04.1.1l.07.15c-.21-.1-.6-.05-.77-.08-.04,0-.15-.33-.39-.12,0,.04,0,.08,0,.12-.1-.02-.21,0-.29-.08l-.08.16c-.12-.19-.26-.1-.45-.08l.16.33-.33-.16-.17.33.29.07c.1-.26.54-.21.78-.15l.08.16c.08-.23.02-.38,0-.58ZM48.27,58.77c0,.05,0,.11,0,.17l.16-.08.08.25c-.03-.27.24-.17.29-.24l.04-.25.33.08.08-.49-.52.47c-.17.02-.31.06-.47.11-.01-.08,0-.17,0-.25h-.25s.08.16.08.16l-.58.17.08-.41-.24.09.07.16h-.25s.21.41.21.41l.2-.16v.49c.18-.09-.04-.33.33-.25v-.29c.1-.14.22-.09.33-.12ZM46.13,58.61l-.25.25c.43.07.48.63.41.99l.37-.17.21.17-.25-.3.16-.4c-.28-.29-.56.04-.65-.53Z"/>
          <path class="cls-6" d="M32.77,64.79s-.04.15-.2.08c-.31-.14-.07-.81-.13-1.07l-.33.25-.04-.33c-.08.38-.16-.1-.37.04l.26.53.32-.08c.09.34-.3.21-.25.54,0,.05.26,0,.17.21-.49-.11-1.01-.03-1.5-.1-.21-.03-.47-.05-.48-.31l-.25.25.08-.41c-.24,0-.56.13-.49.41-.28-.05-.44-.28-.74-.08l-.07-.46-.42-.12c-.13-.12.25-.5.41-.41l-.09-.24h-.24s-.29.57-.29.57l.04-.25-.33.08.1-.64.48-.1c-.14-.33-.46,0-.62,0-.05,0,0-.27-.21-.17.09.39.3.33-.08.7l.16.12c-.22-.02-.2.24-.25.41l-.17-.28.17-.13-.25-.17-.17.21.17.12-.17.17c-.22-.02-.1-.44-.16-.49l-.49.33c-.06-.07.31-.63-.01-.82-.05-.03-.64.22-.24-.21l-.25-.04.33-.49-.41.08.17-.21-.17-.21-.16.33-.07-.32.15-.18c-.47-.02-.23.17-.24.36,0,.02-.28.19-.29.3l-.16-.23-.25.07-.08-.25c-.15.22.01.34-.21.58l-.16-.12.17-.25s0-.05,0-.08-.42-.14-.01-.33l-.07-.21h.33s-.09-.45-.11-.48c-.02-.04-.17.03-.13-.1l.33-.17.04.33.29-.21-.25-.04c.29-.27.06-.54-.25-.66l.16.49h-.49s.08.16.08.16c-.17,0-.35.15-.41-.08.13-.01.41-.15.29-.33-.2-.31-.23.24-.45.17l-.04-.23-.28-.1-.12.41-.21-.41c.45.12.16-.42-.08-.41v.33s-.33-.16-.33-.16l-.21.58c-.19-.1-.04-.49.03-.6.14-.21.53.06.5-.3l-.41.08.08-.16c-.18.04-.32.07-.45-.08-.12-.19.56-.24.59.09.2-.14.59.07.52.32.5-.39,1.16.23,1.73.25l-.16.25.49-.16.13.33.08-.25,1.7.36c.16.04.68.29.78.29s.32-.23.45-.08c.16.18-.28.13-.16.33.42-.19.79.19,1.15-.16l-.08.25.21-.08.04.25.21-.17s.09.43.24,0l.46.25c.02-.12-.07-.24-.16-.29-.19-.09-.46.07-.41-.21l1.24.08c-.31.32-.09.56.25.25l.08.5.33-.08.08.58-.37-.16c-.21.14-.08.3-.04.49.13.02.04-.13.19-.18.25-.1.34.18.06.23l.25.29-.33-.16v.25c.28-.03.43.02.41.33.16.01.03-.2.1-.31.03-.05.19-.06.23-.14l-.17-.08c-.07-.2.44-.39,0-.46v-.16s.16,0,.16,0l-.33-.29c.22-.06.17-.21.28-.35.03-.04.13-.02.14-.03.02-.03-.47-.45.25-.41l-.29.91.25-.25.29.16.08-.25h-.41s.18-.32.18-.32l.15.07v-.33s.25,0,.25,0l-.16.49.17-.25.21.16.16-.16.21.07c0-.11-.08-.17,0-.29.15-.22.41.03.08.08.08.2.23.45.13.66-.07.16-.23.15-.3.26-.05.07-.34.77,0,.68.02-.3.02-.7.41-.66l-.08-.25h.33s-.25-.91-.25-.91c.22-.09.14.17.21.17.14,0,.17-.13.27-.15.1-.02.21.05.3.04.13-.02.29-.14.38-.1.11.04.22.2.04.29l-.24-.09-.06.17c-.15-.1-.34-.23-.49-.04l.25.04.02.23c.27,0,.46.31.15.39l.24.41.17-.04c.07.11-.19.38-.33.33.04-.11-.16-.94-.33-.74l-.07.32.19.09c.02.34.26.66.54.87l-.33.08.33.45c-.16,0-.33,0-.49,0-.04-1-.28-.75-.41,0,.15-.07.29,0,.41,0-.03.2-.38.05-.49.13-.55.35-1.05.42-1.73.53l-.08-.33c.15-.03.27.25.29.25.18-.08.38-.17.55-.25.15-.08.21-.38.56-.16l-.05-.25-.36-.08.08-.57c-.44.33-.26-.09-.65-.09v-.32c-.15,0-.19-.05-.17.12.03.32.12.63.32.87-.28-.11-.48.04-.33.33h-.25s.25-.66.25-.66h-.32c-.06.32-.08.64-.02.96.03.15-.05.23.18.2ZM26.9,62.46c.04-.07.1-.33-.05-.31,0,.19.07.32-.16.16.03.39-.23.33-.33.58v-.41c-.32.19-.18.55.13.66.07-.17.07-.2.29-.16-.15.19-.18.26-.08.49l.16-.41.25.08.08-.33-.21-.08-.12.17c-.2-.4,0-.35.05-.43ZM30.71,63.39c-.06-.34.05-.53.16-.82l-.25.41c-.19-.1-.2-.41-.49-.33l.16.12-.24.79-.25-.08.08.66c.09.01.19-.02.27,0,.11.03,0,.2.14.17l-.06-.25-.1-.08.17-.17.2.16-.04-.33c.26-.03.26.23.25.45l-.25.21.66-.12-.16-.25.41-.12c.01-.14-.19-.07-.24-.22-.07-.19.09-.41.08-.61l-.49.41ZM34.51,62.81v-.25c-.54.03-.28.33-.4.63-.09.23-.3.13-.26.36h.32c0-.27.09-.59.33-.74l-.13.41.33.17.06-.15.15.06c-.04-.28-.02-.72-.41-.5ZM29.81,63.22c-.02-.24-.13-.5-.37-.58-.26-.08.08.33-.16.41l-.54-.16c-.07.29.23.11.33.17v.33s.16-.04.16-.04l-.08-.21c.29.05.32-.02.45-.25l.21.33ZM29.64,63.31l-.33.33-.16-.16.08.49-.33-.08-.08.21c.25.09.23.22.17.45.19.04.13-.02.19-.1.23-.37.2-.72.31-.99.04-.11.19,0,.16-.14ZM31.21,64.38l-.29.25c-.07-.36-.48-.06-.37.08.21-.16.14.08.22.08.02,0,.38-.02.4-.02.05-.01.05-.3.45.02v-.25s.16.16.16.16v-.25s-.62.08-.62.08l.04-.16Z"/>
          <path class="cls-3" d="M40.85,2.39c.04.07-.13.32.25.25l-.16.28.22.26-.31.29c-.07-.08.27-.48-.08-.41l-.23.62.14.2c-.85-.16-.1-.55.04-.91.11-.29.06-.62-.28-.37-.25.25.24-.06.24.16,0,.07-.61.47-.62-.2,0-.13.22-.24,0-.33-.2-.09-.09.22-.12.25l-.17-.04-.04-.2-.66.58-.16-.17-.38.21.33-.04v.25s.41-.17.41-.17l.17.91-.31-.13.07-.53c-.36-.03-.73.51-.66-.16-.14-.02-.06.12-.11.22-.03.06-.38.29.03.4.72-.52.46.32.33.2l-.04-.17c-.18-.05-.09.14-.17.16-.21.05-.36-.06-.51-.17.09-.1.07-.44.09-.46.03-.06.35-.2.23-.52l-.16.33-.33-.16s.22.17.08.43c-.1.19-.2-.05,0,.47l-.49-.08c.09-.19.16-.41-.08-.49l-.08.16v-.66c.32-.04.04.52.45.41l.12-.16-.25.04v-.5s.9.13.9.13l.08-.3h.25s-.08-.53-.08-.53c-.56.53-.8.2-1.32-.08l.41-.16c0,.15.03.36.25.33.01-.19-.2-.3-.21-.49-.01-.15.27-.23-.06-.36-.13-.05-.3.06-.39-.1l.25-.08c.1-.22-.44-.19-.33.25.05.19.3.04.41.04.03.13-.09.05-.13.11-.04.05-.02.15-.06.19-.05.04-.87.36-.92.36-.02,0-.08-.29-.37-.17.12.33-.2.3-.17.45l.17.16-.25.21-.04-.25-.29.29.25.17-.25.17.08.37-.41-.08.07-.12-.15-.04v.29s.41.12.41.12h-.82c.11-.33.05-.54.49-.5l.09-.6-.16-.06.11-.23.08.17c.22-.12.27-.19.54-.09.02-.01-.24-.26-.08-.41.18-.16.13.21.25.16v-.33s.21.07.21.07l.29-.16-.04.16h.37s0-.25,0-.25l.16.16c.28-.59-.26-.11-.25-.49l.41-.25-.25.16.07-.4-.4-.17-.17.25c.22-.56-.15-.26-.49-.25l.16.09-.08.24.17-.16.16.12-.08.21c-.35.1-.49-.41-.54-.41-.13-.01-.09.25-.04.33h-.49c-.08.3.16.38.24.61l-.26.37c-.3-.04-.57-.11-.48-.48h.25s-.08.25-.08.25l.41-.12c-.09-.17-.07-.32-.3-.36-.15-.03-.1.25-.36.16l.08-.24-.16-.09h.48s.1-.33.1-.33c.15.06.04.28.33.13.26-.19-.11-.52-.09-.54.35.08.8-.02,1.1,0,.28.02.7.2,1.04.16l-.16.09.07.32.37-.16-.04-.25c.21-.08.14.14.2.15.09.01.48-.04.54.02-.03.2-.19.41.04.58.17.06.09-.22.08-.3,0-.1-.03-.18-.04-.28.89.1,1.74.35,2.61.56.31.07.83.02,1.1.31.09.1.07.26.09.28.03.03.15-.05.2-.04.19.06.24.27.34-.05l.86.25c.16.16.05.11-.09.13-.18.03-.47.09-.41-.13l-.21.16-.04-.25-.17.29c.12.06.21.02.17.21l-.25.08c.19-.02.23,0,.29.17l.12-.17v.74c-.07.01-.17,0-.25,0l.08,1.32c.23-.11.12-.44,0-.58l.33.08-.25-.17.21-.16-.05-.25.41-.04-.43-.12-.06-.08c.85-.16.23-.22.18-.38s.03-.66.32-.61l-.09.28.24.27-.15.36.54.08-.04.57.24.09-.16-.25c.31-.14.33-.45.82-.33-.44.65.36.27.5.41v.58s.89-.64.66-.17l.28.09c.09-.23.62-.46.38,0h.41s-.33.08-.33.08v.25s.16-.08.16-.08v.33c-.28-.31-.37,0-.66-.03-.37-.05-.39-.28-.41-.29-.03-.02-.4.3-.77.09-.12-.07.03-.27-.13-.25-.03.15.02.25.08.38.08.18.21.15.25.28-.31.06-.56.09-.7-.25-.24,0-.58,1-.66,1.24-.32-.05.02-.37.03-.39.17-.49,0-.34-.07-.49-.06-.14-.08-.3-.17-.43l.25-.08.08.49c.13-.02.22-.27.21-.37,0-.09-.48-.72-.5-.95l-.04.16c-.54-.12-.34.2-.66.45l.21.12c.19-.18.15-.44.45-.49l-.08.33.25.04c-.06.42-.39.02-.41.04v.25s-.25-.05-.25-.05l-.07.53.31.14-.08.36s.54-.44.32.24h-.31c-.2-.14-.1-.51-.13-.57-.06-.1-.44-.34-.46-.58-.24.1.18.5.08.66l-.49-.08.33-.16c0-.19-.65-.3-.35-.41h.19s0-.25,0-.25c-.22-.14-.32.08-.45.09-.04,0-.04-.11-.08-.14-.07-.04-.15-.03-.22-.09-.15-.12-.22-.5-.57-.15l.16.04v.25s-.33,0-.33,0l.06-.15c-.14-.01-.17-.19-.23-.22-.1-.06-.57.15-.57-.08s.57.03.66-.04l-.04-.25.37.33c-.04-.32-.16-.66.1-.89.07-.02.16.06.23.06-.04.27-.2.07-.16.33l.28.09c.12-.24.21-.24.46-.17-.05.19-.19.15-.33.08l-.17.49.33-.05.08.3c.09-.14.47-.23.49-.25.18-.19-.31-.39-.33-.45l.12-.2.12.16.08-.33c-.29.13-.52-.05-.79-.07-.09,0-.17.07-.2.07.01-.08,0-.17,0-.25l.25.08-.16-.66.41.08v-.21s-.25-.04-.25-.04l.16-.49-.45-.33-.04.41.25.17-.32-.02-.09-.15.08.49.33-.04c-.68.28-.11,1.04-.99.87v-.41s-.41,0-.41,0l.17-.5.25.08c0-.41-.16-.56-.58-.41l.16.33h-.25c.22.13.07.45.1.48.03.04.14,0,.15.01ZM40.13.89l-.35-.31c-.08.22.15.15.16.17.1.16-.41.25-.24.57l.37-.33c.12.21.29.15.12.41.35,0,.3-.32.33-.58l-.39.07ZM39.7.66l-.25.06v.19c-.2-.15-.13.05-.22.08-.09.03-.21-.02-.33.02-.02,0-.2.29-.31.31l-.04-.27-.24-.31c-.16.24-.26,1.16.2,1.07.14-.03.13-.29.13-.41h.82s-.25-.21-.25-.21l.33-.04.17-.49ZM39.06,1.62s.02-.17-.11-.13c-.02.15,0,.25.07.38.04.08.38.48.46.45l.12-.16-.17-.04v-.17c.23-.13.3-.16.25-.45l-.16.04.08.21c-.2-.04-.36,0-.55-.11ZM40.25,1.84c-.07-.04-.36-.14-.39-.11v.33s.25-.17.25-.17v.24s.25.01.25.01l.04.25.12-.41c-.2.14-.2-.09-.27-.14Z"/>
          <path class="cls-4" d="M56.76,14.51c-.07-.08-.12-.23-.25-.25l-.08.25-.17-.25-.04.49c-.23-.23-.11-.51-.54-.41l.17-.33c-.35.02-.48-.35-.66-.6-.13-.17-.34-.08-.17-.48-.5.21-.79-.49-1.02-.8-.05-.06-.18-.08-.22-.14-.16-.21,0-.57-.44-.39l-.13-.11.08-.32-.33-.34.16-.08-.24-.46-.17.25-.04-.33.29-.17c-.08-.36-.36-.32-.66-.2-.17.06-.16.18-.2.19-.12.03-.27-.18-.33.1-.11-.2-.34-.27-.28-.52.02-.08.23-.01.16-.22l-.25-.17.17-.17-.41-.25h.58s0,.58,0,.58c.31.02.28-.34.45-.49.05,0,.59.92.7.25-.52.04-.49-.27-.08-.41-.18.35.24.24.17.58l.17-.06.16-.27c-.14.42.11.79.5.93.07.03.15-.03.22,0,.02,0,.21.41.27-.02l.33.33-.78.09-.06-.15-.22.06-.17-.24.08.41-.25-.16v.33s.25-.08.25-.08v.16c-.2-.02-.18.2-.25.33l.29-.16.04.33.66-.08v-.32c-.3-.03-.48-.19-.17-.34-.03.29.18.04.29.16.2.21.25.83.31.9.05.05.25.01.31.14l-.25.04-.04.33c-.05-.38-.24.12-.37,0-.14-.14.1-.3.25-.29l-.33-.21c.06.17-.09.41-.08.53,0,.02.29.1.17.38l.08-.33h.33s-.16.08-.16.08l-.08.49.17-.25.16.08.09-.49.4-.13-.25-.21.15.06v-.14s.18,0,.18,0c0,.19.07.18.25.16v-.41s.25.25.25.25l-.17-.82-.33.16.08-.41-.12.16-.29-.16c.21.06.34-.24.39-.25.17-.04.74-.12.77.08l-.25.04c.2.26-.07.41-.08.57,0,.15.16.32.14.49-.04.32-.3.23.14.63l.04-.37.16-.04c.17.31-.17.53.08.7l-.16.12-.17-.25v.49s.33-.08.33-.08l-.25.29c.54.2.22-.67.66-.54l-.16-.41.33.08c.05-.34-.4-.32-.33-.74l-.09.16-.41-.07c.4-.41-.49-.85.24-1.06l.42.57c.01-.11.02-.28.08-.36.01-.02.35-.23.42-.18.3.23.06.37-.25.21l-.25.74.17-.04-.08.29.25-.16c-.23.5.15.34.17.74.51-.13.08-.17.08-.21-.03-.13.03-.25.17-.29.06.33.46.36.25.74l-.24-.25c-.27.13-.26.48-.25.74l-.25-.08.08.33-.41-.25.08.41.25-.04c-.25.18-.15.37-.08.62l-.25.08.08-.25h-.25s.09.32.09.32l.53-.16.04.16h.16s.05-.17.05-.17c.33.2.48-.08.78-.16l-.04-.16-.78.25c.42-.3-.08-.76.41-.99-.16.55.57.27.5.74l.17-.06.04-.19c.2.31.41.57.82.49.14-.03.21-.17.33-.17.06,0,0,.23.16.17l.21-.33.17.41c-.4-.19-.37.13-.08.29.15.08.47,0,.39.41-.04.18-.48.29-.23.59l-.16.04-.08-.58.16-.04c-.1-.24-.22-.33-.49-.29l.04-.25-.37-.16.25.33-.29.08-.16-.16-.29.25-.04-.41c-.23.15-.16.26-.13.49l-.41-.08c-.02.14.19.07.24.22.12.36.09.94-.4.85-.01-.41-.13-.84.08-1.24l-.25.04.08.17c-.27.06-.09.39-.07.61l-.41-.08.24-.2v-.54s-.2.16-.2.16l-.05-.21-.15-.04v.24s-.33,0-.33,0l.08.16-.25.16c-.09.01-.09-.09-.16-.16l-.16.49c.36-.19.21.08.37.16s.23-.43.29-.52l.25-.06-.16.58c.08.08.47-.42.49.08l-.16.08h.33s-.08.66-.08.66l.12-.17.37.17.08-.25h-.33s0-.25,0-.25c.1.07.55,0,.62-.03.1-.05.09-.17.13-.2s.7.07.77-.35c.28,0,.13.26.15.31,0,.01.11.02.13.08.03.07.19.57.17.6-.13.15-.3-.42-.49-.33l.16-.25c-.31.2-.04-.13-.25-.16l-.08.58.25-.08c.09.23-.21.15-.24.3-.03.11.09.24.08.31,0,.04-.34.14-.25.38l-.25-.08c.05.46-.54.14-.5.74l-.08-.25c-.12.09-.69.13-.74.08-.03-.03-.08-.54-.33-.65l.41.25.17-.58-.25.08-.12-.41-.07.16-.53-.09-.09-.48-.25.08c.03-.27-.26-.3-.22-.61,0-.06.18-.54.31-.38ZM55.63,12.17c-.08-.1-.13-.22-.24-.3l-.21.41-.25-.16v.32s.4,0,.4,0l.17.41c-.08-.4.08-.27.33-.45.04-.15-.16-.16-.22-.23ZM55.85,12.61c-.22-.02-.13,0-.17.13-.09.3.09.6.33.78l-.16-.91ZM59.08,15.89c-.04-.11.18-.32-.1-.39l-.12.23-.29-.06.09.2-.17.09.36.13.13-.17.04.41.37-.08c.13-.13-.3-.3-.31-.35ZM58.72,16.39c.13-.32-.38-.2-.56.08-.12.19.02.37-.34.39l.33.21.08-.29c.25.09.27-.1,0-.16.05-.12.41-.05.48-.22Z"/>
          <path class="cls-2" d="M26.1,2.64c-.08-.03-.13-.11-.25-.08l.12.49c-.36-.16-.27-.24-.21-.58l-.25.08.25-.41-.25-.13v-.12c.2-.02.34-.22.33-.41l-.66.25c.02.26.33.24.31.55,0,.1-.49.42-.23.6.2.14.23-.15.33-.16v.41s-.49-.08-.49-.08c.17-.09-.16-.42-.25-.33l.08.33-.33-.08c-.03.2.17.31.33.33.07.42-.49-.09-.49-.12.02-.21.31-.31.16-.42-.18-.13-.67-.09-.73.1-.05.14.16.39-.18.48l.06.21.18.04c-.18.34-.4.57-.58.08l.16-.45-.36-.09-.13.17c0-.2-.16-.38-.21-.54-.05-.17.11-.29-.12-.53l-.17.21.17.21c-.35-.06-.54.1-.91-.08l.09-.2-.17-.09.58-.21-.06.25-.27.12.28.11.51-.57.04.33c.25-.19.46-.36.66,0-.33-.01-.03.53-.41.62l.25.12.33-.25-.25-.08c.08-.26.29-.08.49-.08l-.35-.56c-.66.03.36-.89.35-.47,0,.11-.5.13-.41.37l.33.17.04-.25.21.49.21-.08c-.14-.29.17-.22.12-.37-.03-.09-.73-.47-.08-.29-.11-.38.2-.26.17-.49h-.25s.16-.08.16-.08l-.08-.25c.43.1.99-.33.58.41l.41.17-.25.08c-.08.33.39.08.47-.03.26-.34-.15-.4-.14-.43.36-.11.14-.3.24-.42.36-.46.84.45.18-.04l-.08.5.16-.08c-.02.22.03.37.21.49l.08-.16.37.49.17-.29-.17-.08c.13-.22.25-.46.41-.12l-.16.04.58.62.17-.41-.33.04.41-.54-.25-.05-.07-.28c.01.27.02.55-.21.74-.17-.1-.04-.25-.09-.39-.04-.1-.17-.09-.19-.16-.03-.1.05-.46,0-.61l.66-.08.29.66.05-.4h.49s-.16.49-.16.49h.91s-.08-.33-.08-.33l-.33.12c-.27-.02-.24-.26-.16-.45.48.2.79-.02.59.71l-.38.28-.29-.17-.16.54-.58.03.45.25.08-.17.33.24.22-.49h.32s-.17-.21-.17-.21l.33-.29c-.07.16,0,.35-.05.49-.06.2-.22.19-.28.33l.33.08.25-.5c-.12.23.5.57.5.63,0,.12-.1.26-.08.4,0,.11.22.49.29.62.11-.19.01-.46-.12-.62.11-.18.17-.07.33-.04-.13-.21-.56-.53-.29-.82.27.15.04.49.29.58.02-.03-.07-.34.12-.25.34.17-.13.12-.04.33.36-.23.36.21.19.25-.1.02-.21-.08-.27-.09.12.18.18.2.23.26.01.02-.04.38.02.48l-.21-.07c-.08.26-.3.14-.53.15l-.04-.24c-.28.06-.32.22-.5.41l-.37-.25.08.25-.28-.09-.09.18-.33-.25c-.29.12-.43.39-.78.33v-.25s.16.16.16.16l-.08-.41.25.08-.25-.49.25.08.08-.16-.16-.21.17-.37-.49-.08-.08.5.25-.08-.08-.21.16-.04c.12.52-.43.39-.16.91h-.33s.15-.36.15-.38c0-.16-.26-.3-.06-.56l-.33-.3c.18.4-.05.17-.15.27-.03.04,0,.13-.03.16-.07.08-.17.07-.15.11.1.28.32-.06.41-.12.17.4.04.75,0,1.15.19-.1.12-.32.41-.25.1.32-.21.31-.17.58h-.16c.03-.29-.36-.13-.58-.16.16.1-.04.38-.1.39-.1.03-.2-.2-.27.1-.3.02.03-.29.02-.37l-.15-.17c-.31-.17-.49.52-.66,0,.21-.13.14-.26.41-.12v-.25s.29,0,.29,0c.08-.13.03-.35.04-.5.03.01.11-.03.16,0v.32c.27.05.57-.13.59-.41h-.33s.08.2.08.2l-.16.04c0-.12-.12-.21-.14-.31-.05-.2.09-.58-.19-.51.05.22.02.44,0,.66ZM24.7,1.4l-.09-.16v.57c.33-.19.44.82.74.58.14-.11-.16-.19-.19-.26-.05-.11-.02-.28-.08-.37-.08-.12-.3-.02-.14-.43l-.24.08Z"/>
          <path class="cls-1" d="M38.87,60.92c.14-.25.41-.06.62-.25l.08.25c.12-.18.2-.34.45-.33l.08.21-.16.12.45.25c.08-.17.07-.19.29-.16l-.08.33h.33s-.16.17-.16.17c.03.15.13.13.25.08l-.08.41.33-.29v-.11c-.26.01-.1-.27-.08-.51.08-.05.14-.11.25-.08l-.04.17.37-.08v-.33c.11.32.33.73-.08.91,0-.18.29-.38,0-.49.09.28-.24.42-.25.45-.07.22.28.08.33.12l-.09.33c-.47-.17-.36.23.08.17v.32c-.21.07-.14-.12-.17-.14-.18-.12-.51.23-.69.3l.09.91-.21.08-.17-.25.16.41c-.28.02-.84.14-1.09,0-.17-.1-.17-.38-.26-.47-.06-.06-.43-.15-.46-.2-.09-.14.33-.63.53-.24l.12-.12-.04-.21c.33.27.41.66.13.99l.29.17.21-1.24c-.22-.09-.15.16-.21.17-.14.02-.25-.02-.29-.17l.91-.58c-.62-.21-.55.45-.88.48-.31.03-.16-.17-.35-.23-.06.27.08.43-.25.49-.16-.3.13-.43.08-.74l-.25.25.16-.66-.16.25-.25-.08.16.41-.49-.25.04-.16c.08.13.32-.03.43-.11.05-.03.02-.14.03-.14.12-.08.22.07.3-.17l.2.04-.17-.45-.08.16s-.17-.14-.25-.16Z"/>
          <path class="cls-5" d="M38.87,60.92c-.09.17-.1.4,0,.58-.33.07-.13-.36-.29-.41l-.08.17-.21-.17v.25s-.25-.13-.25-.13v-.2s.17.16.17.16v-.25s.2.09.2.09l.08-.16c.11.1.29.05.38.08Z"/>
          <path class="cls-21" d="M41.18,61.08c-.09.05-.13.26-.37.09-.15-.41-.23-.99.36-.82v.24c.14.03.23-.04.33-.08v.33s-.21-.17-.21-.17c-.28.24-.11.24-.12.41Z"/>
          <path class="cls-22" d="M41.51,60.5c.07-.03.14-.11.25-.08l-.08-.25c.38-.24.45.38.66,0l-.25-.17c.52,0,1-.66,1.48-.25l.12-.33.25.16.25-.33.29.21-.25-.04.12.33.37-.33-.08.33c.53-.08.06.39.08.41l.33.17-.66-.08c-.02.14.2.07.24.22.02.08-.07.21-.03.28.01.02.32.32.35.33.2.05.41-.06.6-.08.04.39-.42.09-.49.17v.23s-.25.01-.25.01l.16.33h-.33s.16-.82.16-.82c-.19-.02-.25.1-.16.25h-.33s.08.16.08.16c-.26.05-.33-.08-.33-.33l-.25.25-.25-.41-.25.25.41.25-.33.25.16.49h-.33c.14-.28-.09-.43-.14-.63-.01-.06.06-.18.05-.19-.02-.02-.18.02-.25,0,0,.02.11.19-.08.33.21-.06.37.12.29.33-.1.27-.17-.17-.23-.23-.27-.27-.46.23-.8.14.02.18.35.08.16.33.05-.02.17.02.25,0l-.08-.24.33-.17c-.09.35-.08.5.08.82-.32-.07-.2.13-.27.22-.05.07-.16.06-.2.16-.03.08.1.25-.1.28l-.08-.49-.08.58-.25-.16v.33s-.2-.09-.2-.09l-.08.16h-.46c.1-.29-.08-.6.33-.65.04-.15-.19-.04-.16-.12.08-.27.35.1.41.16-.27.02-.25.14-.33.37l.29-.25.12.16.04-.23.21-.05v-.21s-.16.08-.16.08v-.41s.33.25.33.25l-.09-.36s.16-.13.17-.13l-.49-.04c.34-.15.16-.45.19-.52,0,0,.1,0,.13-.08.03-.07.01-.34.13-.35.19-.01.03.32.04.33h.49s-.45-.5-.45-.5c-.23-.27.26-.58.45-.45l.08.21-.25-.08c-.05.32.04.5.33.58.03-.12.04-.21.16-.29l-.17-.09v-.16s.17-.37.17-.37l.49.16c-.03-.46.36-.23.41-.58l-.45.09-.05-.16h-.12s-.14.23-.14.23l-.28-.07-.08.16c-.12-.05-.07-.33-.29-.25.03.22.11.3-.08.46l-.42.04.06.15-.15.06c-.01.15.26.32.09.41-.15.08-.13-.19-.19-.27-.03-.04-.13-.01-.14-.02-.06-.06-.02-.31-.25-.25Z"/>
          <path class="cls-23" d="M16.51,5.96s.04.13.13.16c.13.05.29-.09.39.1l-.33.45v-.33s-.21,0-.21,0l-.04-.33h-.32s-.09.99-.09.99c-.32-.16-.44.07-.2.33.14.15.3.06.21.49l.16-.16v.33c-.26-.05-.62.23-.74-.08h.41s0-.25,0-.25c-.28-.07-.39.21-.53.3-.07.05-.2.02-.22.03-.03.03.18.54-.08.58-.02-.17.03-.36,0-.52-.02-.1-.11-.04-.16-.5,0-.07-.29,0-.08-.3l-.7.07c-.3-.29.03-.57.37-.56,0,.16-.07.29.17.25v-.33c0,.31.28.49.58.49l-.16-.41c.39-.11.66.12.82-.3l-.16-.16.11-.34c.13-.15.53-.06.69,0Z"/>
          <path class="cls-24" d="M36.81,61.25v.25s-.25.08-.25.08l.57.08v-.23c.26.1.62-.31.75-.09l-.16.33-.08-.16h-.16c-.02.24-.18.34-.41.33l.08.21.25-.04-.09.45c0,.08.33-.02.05.21-.13-.06-.09-.26-.14-.31-.1-.09-.34.13-.14-.26-.24-.06-.23.25-.25.41l.33.16-.42.05c-.12-.08-.14-.78-.57-.42l.08.53-.25.04.17.09-.17.49c.02.12.68.07.45.54-.08-.16-.53-.35-.58-.41-.07-.08.05-.28,0-.42-.05-.15-.22-.25-.21-.44.02-.23.24-.22.31-.32.13-.18.08-.63.52-.55l-.16.25.37.05c.16-.05.22-.21.2-.38l-.33.16.07-.23-.28-.26s-.19.69-.54.45l.3-.46.69-.16Z"/>
          <path class="cls-26" d="M50.5,6.67h.24c-.25.3.18.46.16.61-.06.33-.65.23-.16-.07-.26-.01-.26-.62-.49-.33.42.15.04.2,0,.27-.08.17-.09.41-.08.6l.08-.33.25.29c-.16.21-.48.22-.41.54.49-.25.4.56-.04.42-.12-.04-.12-.66-.05-.78l-.17-.13.25-.13c-.15-.14-.11-.46-.16-.56-.07-.12-.44-.03-.33-.39l.29.25-.04-.41h.25s-.08.25-.08.25l.21.08.21-.41c.16.03.12.12.09.24Z"/>
          <path class="cls-37" d="M19.19,5.35c.05.03.16-.08.22-.06.05.02.3.45.26.56l.2-.25.12.4c-.3.19-.23-.25-.61,0l-.11-.12c.13-.21-.12-.22-.14-.44-.24.13-.11.35-.13.44-.01.05-.11.04-.15.12-.07.14.03.33-.33.43-.03-.27-.01-.27.25-.25l-.09-.28.17-.09-.17-.45.33.08-.16-.17.12-.16c.17-.04.17.22.22.24Z"/>
          <path class="cls-38" d="M21.81,3.71l.08-.16.16.12-.24.78c-.35.07-.02-.33-.08-.41-.12.03-.51.28-.41.41l.25-.16-.16.33.41.04-.25.04v.33c.44.09.45-.37.5-.41.02-.02.4.19.41.25-.56-.14-.36.35-.82.5.06-.31-.16-.3-.41-.33.07-.16.24-.03.16-.33-.14.09-.77-.13-.74-.21.07-.25.27.06.37.04.22-.05.02-.38.04-.41h.41s-.12-.26-.12-.26l-.29-.11.33-.21.17.21.08-.62c.39,0,.14.35.17.58Z"/>
          <path class="cls-39" d="M60.71,16.24l.17.24h-.4c-.18.26.05.52.07.71,0,.02-.24.02-.16.32.06.21.49-.1.42.21l-.54.07-.2-.2.08-.2s-.3.15-.33-.08l.25-.04-.16-.21h.49c.04-.14-.14-.04-.17-.14-.09-.36.19-.32.17-.61l.15.06.02-.14h.16Z"/>
          <path class="cls-40" d="M50.74,8.41l.25-.16.09.28-.17.13c.26-.04.12.21.18.35.08.19.38.27.11.47,0-.34-.29-.16-.29-.41l-.09.15c-.09.07-.28,0-.32-.11-.1-.24.41,0,.33-.25l-.21-.12-.12-.58.25-.08v.33Z"/>
          <path class="cls-25" d="M36.73,2.31l.16.58c-.22-.14-.43-.23-.66-.04l.29.45.33-.33.04.2c-.15.06-.19.12-.17.29h-.49c.01-.25-.17-.38-.33-.53.21-.2.44-.34.74-.29l-.25-.21.33-.12Z"/>
          <path class="cls-28" d="M2.2,27.2l-.57-.08c-.05.23.04.68-.33.57l.17-.2-.17-.29.49-.17c.05-.23-.09-.16-.25-.16.08-.38-.04-.62.37-.82.14.12-.11.21-.11.35.01.28.16.64.4.8Z"/>
          <path class="cls-27" d="M59.22,12.77l-.13.02.06.22-.24.22c.17,0,.35.06.33.29-.39.15-.51-.13-.66-.45l.33-.08-.35-.13-.06-.25.2.16.41-.25.11.24Z"/>
          <path class="cls-29" d="M52.14,5.94l-.17.21.09.36-.25-.16c.11.38.09.41-.25.62l.16.2-.25.08c-.02-.2-.06-.3-.25-.37.11-.13.25-.21.41-.12v-.25s-.33.04-.33.04c.05-.12.26-.16.31-.22.01-.02-.06-.11-.04-.13.14-.15.34-.22.55-.27Z"/>
          <path class="cls-30" d="M19.58,58.2l-.08.16c.35,0,.18.29.58,0l.08.48-.24.09-.04-.25-.17.33-.26-.24-.36.08c.2-.24.41-.1.33-.52-.02-.08-.24,0-.16-.22l.32.09Z"/>
          <path class="cls-46" d="M17.52,5.18l-.24.18-.17-.33c.08.32-.15.21-.24.29-.11.09-.07.35-.33.37l.17-.45c-.27-.07-.1-.31-.17-.54.28.16.09.51.49.33l-.16-.33.29.16.2-.25.16.56Z"/>
          <path class="cls-32" d="M34.35,3.12s.29-.1.23.18l-.91-.08v-.57s.33.25.33.25l.16-.33c.05.12.11.49.18.56Z"/>
          <path class="cls-47" d="M19.18,58.36l-.18.32-.15-.06-.09.2.17.2-.49-.08.16.25c-.1.08-.56-.22-.5.08l-.18-.24-.15.07c.22-.68.36-.1.54-.08.16-.29.53-.18.46-.66h.41Z"/>
          <path class="cls-45" d="M46.79,61.16l-.33-.08-.08.25c.03-.38-.17-.38-.38-.57-.15-.14-.03-.32-.37-.2-.12-.33-.11-.35-.45-.37l.05-.74c.7-.09,0,.28,0,.57l.33-.16c-.1.6.67.44.58.99.29.06.06-.15.08-.16.23-.1.19.36.41.25l-.08-.25.41.08v.41c-.05,0-.11,0-.16,0l-.08.33.33-.16v.49c-.14.02-.08-.21-.21-.24-.26-.06-.4.32-.53.24v-.33s.33,0,.33,0v-.33c.05,0,.11,0,.16,0Z"/>
          <polygon class="cls-31" points="19.59 3.55 19.92 3.59 19.51 4.04 19.34 3.87 19.49 3.67 19.18 3.26 19.67 2.89 19.59 3.55"/>
          <polygon class="cls-48" points="31.12 1.41 31.04 1.6 31.19 1.66 31.04 1.98 31.21 2.03 31.04 2.64 31.04 2.06 30.8 2.14 30.71 1.24 31.12 1.41"/>
          <path class="cls-36" d="M15.14,5.52l.25-.25v.41s-.49-.25-.49-.25c-.08.29.17.54.44.48.16-.03.22-.37.39-.11-.21.26-.78.32-.74.69-.12.11-.53-.11-.41-.24.16-.17.14.29.33.16-.08-.3.22-.18.17-.41-.18.15-.43-.38-.41-.41,0,0,.11.02.16-.06.14-.21.13-.52.37-.68l-.04.66Z"/>
          <path class="cls-34" d="M34.59,1.81s-.12-.02-.17.06c-.05.08-.07.27-.08.28-.02.02-.41-.12-.57,0-.09-.35.23-.26.31-.35.05-.05-.02-.21.06-.23.17-.04.57.06.45.25Z"/>
          <path class="cls-33" d="M61.36,19.23c.24.19-.23.68-.39.56l-.04-.33-.21.16.14-.42c.1-.08.41-.05.5.03Z"/>
          <path class="cls-35" d="M19.09,59.68c-.43-.06-.84.64-.91-.08l.2.25.29-.29c-.22,0-.41.01-.41-.29.43.22.51.13.82-.16-.07.3-.28.29,0,.58Z"/>
          <path class="cls-42" d="M21.07,2.89l.25.08-.66.17c.01-.21.05-.31-.16-.37l.33-.29-.08.33h.25c-.02-.24,0-.48.25-.58l-.16.66Z"/>
          <path class="cls-41" d="M30.22.99l-.25-.08-.16.25c-.18-.34-.16-.5-.61-.41l-.05-.25c.34.16.95.04,1.07.49Z"/>
          <path class="cls-43" d="M19.53,59.24c.07.09.28.11.39.11l.08-.33c-.03.43-.18.56,0,.99-.28.02-.21-.29-.33-.46-.04-.06-.31-.24-.4-.3l.07-.31c.17.02.12.23.19.31Z"/>
          <path class="cls-49" d="M60.55,14.84v.41s.33-.16.33-.16c.04.22,0,.21-.17.29l.09.2c-.3,0-.62.18-.66-.25l.3-.08c.06-.07-.22-.49.12-.42Z"/>
          <path class="cls-44" d="M17.43,60.49c-.24,0-.14.23-.15.42l-.41-.09v-.24s.24-.08.24-.08c-.11.01-.25-.03-.36,0-.1.02,0,.2-.14.17-.16-.5,1-.45.81-.17Z"/>
          <path class="cls-50" d="M20.33,3.79c.16.02.17.02.18-.15l.48-.02v.41c-.23.07-.13-.23-.37-.22-.25.02-.2.24-.37.3l-.08-.58-.16.25c-.08-.61.49-.47.33,0Z"/>
          <path class="cls-12" d="M45.22,4.78c.03.25-.13.54.16.62l-.49.21c.01-.21.05-.31-.16-.37l.33-.12-.08-.33h.25Z"/>
          <path class="cls-13" d="M19.51,4.37l.16-.16.08.41.16-.08.09.24h-.41s-.04-.33-.04-.33c-.17.16-.35.25-.21.49h-.33c-.05-.37.37-.34.41-.7l.08.12Z"/>
          <path class="cls-14" d="M49.24,7.9s-.04-.22.18-.15l-.08.33c.21-.15.12.07.33.08l-.04.16c-.16.01-1.2-.41-1.03-.58.07.12.59.18.64.15Z"/>
          <path class="cls-11" d="M33.19,1.82c-.13.25.1.45.07.68,0,.05-.14.45-.23.47-.12-.18.06-.41.04-.5-.03-.19-.42-.22-.29-.57l.25.17.17-.25Z"/>
          <path class="cls-19" d="M11.26,7.5c-.36-.05-.38.09-.49.38l.16.08-.25.04.25.33c-.27-.12-.42-.14-.49-.45l.24-.04-.08-.24.45-.26.21.17Z"/>
          <path class="cls-17" d="M19.75,4.95v.32c.25.14.38.1.58-.07.01.41.52.06.41.49-.27-.26-.74-.13-.94-.26-.16-.1-.53-.61-.05-.49Z"/>
          <path class="cls-20" d="M13.41,6.27c0,.43-.56.68-.16,1.07h-.25c-.16-.46.15-.59.25-.99l-.37.25-.12-.25.66-.08Z"/>
          <path class="cls-18" d="M53.3,8.24c.27-.08.42-.17.41.25-.34.03-.53.27-.74.5-.2-.46.39-.33.33-.74-.05.01-.31.09-.32.1-.06.08,0,.36-.26.31.04-.3.12-.56.37-.74.12.1.18.17.21.33Z"/>
          <path class="cls-16" d="M9.4,8.95c.23.24.16.38.21.7-.27.05-.59-.12-.45-.41l.29.25c.06-.29-.17-.3-.33-.45l.2-.21c.06-.02.03.07.08.13Z"/>
          <path class="cls-15" d="M64.34,32.23s.06-.21.04-.29c-.02-.11-.17-.14-.13-.29l.66.37-.2.36-.37-.16Z"/>
          <path class="cls-58" d="M23.79.91l.09.49c-.34-.09-.38.15-.66.17l.08-.33.33.08.08-.33-.28.16-.29-.24h.65Z"/>
          <path class="cls-59" d="M12.7,7.89s.09.04.13.03c-.16.19-.16.26-.08.49l-.28-.09-.18.25c-.29-.23.02-.65.29-.33l-.16-.29.15-.05-.07-.24c.1.01.13.14.2.22Z"/>
          <path class="cls-60" d="M64.42,32.64l.08.29.17-.04v.33c-.31.08-.3-.28-.54-.41l-.04.16-.33.08c-.06-.21.11-.13.16-.23.03-.06,0-.16,0-.18.02-.02.37.14.49,0Z"/>
          <path class="cls-54" d="M49.59,5.44s.24-.04.16.25h-.49c-.08-.14-.06-.43.09-.48.11-.04.17.19.4-.18l-.16.41Z"/>
          <path class="cls-55" d="M2.61,30.5v.25s-.21-.16-.21-.16c-.05,0-.43.73-.62.29-.05-.12.26-.16.17-.36h.65Z"/>
          <path class="cls-56" d="M19.09,3.79h-.25c.33.75-.03.45-.33.04l.23-.14-.07-.15.33-.09.08.33Z"/>
          <path class="cls-57" d="M3.02,32.31c0-.33.42-.36.33-.69-.02-.08-.25,0-.17-.22l.25-.08c-.1.18.16.51.13.58-.04.09-.4.54-.54.41Z"/>
          <path class="cls-51" d="M31.94,61.42l.43.48c-.29-.04-.42-.15-.66.08l.09-.28-.17-.21.32-.07Z"/>
          <path class="cls-52" d="M58.24,12.2l.49.16.08-.58.16.12c-.23.14-.03.52-.3.61-.25.08-.51-.02-.44-.32Z"/>
          <path class="cls-53" d="M52.14,7.5c-.19.37.05.55.08.91h-.25c-.03-.24.01-.35-.25-.45.38-.07.1-.47.41-.45Z"/>
          <path class="cls-68" d="M23.22,3.88c-.05.25-.05.65-.41.57v-.66s.41.08.41.08Z"/>
          <path class="cls-69" d="M58.27,11.67c.06.06.19-.01.13.2h-.24s-.09.49-.09.49l-.25-.74c.29-.06.06.15.08.16.19.11.19-.2.29-.25.07-.01.02.08.07.13Z"/>
          <path class="cls-70" d="M17.72,4.92s.28.31.3.32c.11.06.31-.18.25.12l-.49.04.08-.17c-.09-.18-.25.07-.28-.2-.01-.12.03-.22.04-.34.15-.03.05.14.11.22Z"/>
          <path class="cls-64" d="M17.61,7.09v.33c-.35-.19-.28.37-.66.04l.16-.12-.16-.08.66-.17Z"/>
          <path class="cls-65" d="M62.2,20.28l-.25.29.29.29-.12.16c-.01-.23-.13-.19-.29-.24l.12-.55.25.05Z"/>
          <path class="cls-66" d="M31.87,2.89l-.26.05v.36s-.3-.2-.3-.2c.04-.29.23-.38.43-.54l.12.33Z"/>
          <path class="cls-67" d="M17.48,6.65c.05.06.19-.01.13.2l-.41.17c-.06-.26.04-.45-.17-.66.23-.02.32.16.45.3Z"/>
          <path class="cls-61" d="M20.91,4.29l-.33-.08.06.15c-.35.06.1.62-.39.51l.17-.29-.17-.16.33-.45.33.33Z"/>
          <path class="cls-62" d="M17.36,5.94c.27.19-.02-.5.25-.25.04.04.13.35-.04.41l-.78-.2.54-.21.04.25Z"/>
          <path class="cls-63" d="M65.33,25.72l-.25-.62c-.16-.27.15-.19.29-.04.22.26.02.38-.04.65Z"/>
          <path class="cls-72" d="M10.44,8.57l-.17.58-.16-.04.16-.37-.58-.08c.12-.3.5,0,.74-.08Z"/>
          <path class="cls-71" d="M35.82.91c.23.12.12-.25.25-.12.55.52-.25.9-.25.29l.33.12c0-.22-.23-.17-.35-.23-.29-.12.09-.38.02-.06Z"/>
        </g>
        <g>
          <path class="cls-10" d="M37.68,15.96c.29.24.53.54.83.78.07-.06.13-.15.21-.2.45-.23,1.41-.66,1.88-.75.28-.05.55-.07.83,0,.87.23.69.98.9,1.65.11.34.43,1.07.86,1.03.1,0,.19-.13.32-.14.13-.02,1.17-.04,1.24-.03.06.01.05.15.11.16.81.2.99.17,1.73.64,1.17.74,1.42,1.63,1.8,2.83.2.63.56.54,1.02.86,3.36,2.39,5.53,6.47,6.49,10.32.72,2.88.95,6.54-2.37,7.88-1.18.22-2.78.98-3.91,1.11-.45.05-.17-.08-.63.11-.57.24-1.55.39-2.15.5-.89.17-1.95.48-2.91.7-.24.06-1.15.41-1.26.25l-.09-.32v.4s-1.87.48-1.87.48c-1.06.07-2.09.41-3.11.68l-.12-.17c.05.17-.41.27-.56.31-.4.09-.86.12-1.27.21-.29.07-.63.27-.97.23l-.08-.25c.08.24-.36.42-.56.47-1.94.52-4.08.82-6.06,1.28-3.84.89-7.13,2.09-11.3,1.54-.7-.09-1.34-.38-1.88-.5-.67-.15-2.38-1.53-2.87-2.09-.29-.32-.55-.81-.82-1.22-.06-.09-.23,0-.17-.22l.16-.08c-.09,0-.19.03-.26-.05-.16-.19-.67-1.63-.76-1.94-.37-1.31-.44-3.62-.27-4.95.04-.29.11-.34.15-.65.52-3.83,1.79-7.07,4.1-10.16.25-.33.54-.62.81-.93v-.13c-.14-.19-.32-.36-.42-.58-.83-1.76,1.03-3.48,2.69-3.64l1.24.2c.07-.12.06-.7.03-.86-.03-.21-.19-.34-.22-.52-.27-1.27.98-1.2,1.84-1.47.37.21,1.09.09,1.28.54l.08-.16.66.25c.06-.04.2-1.23.44-1.46.04-.04.16-.03.21-.08.08-.07.09-.16.2-.22.76-.4,1.96-.1,2.67.26.23.11.36.42.66.29.03-.01.47-.44.52-.5.41-.46,1.34-2.1,1.81-2.29.89-.35,2.09.68,2.84,1.09.24-.17.52-.29.77-.45.12-.08.17-.22.24-.27,1.89-1.12,3.53-1.23,5.25.21ZM38.25,18.43c-.66-1.06-1.88-2.41-3.21-2.4-1.07,0-2.73,1.17-3.46,1.94l-.78.95c.27.1.84.54,1.05.6.17.05,1.12.2,1.28.17.77-.15,2.1-2.15,2.97-2.03.82.12,1.28,1.69,1.66,2.3.1.1,1.21.01,1.2-.05-.22-.5-.43-1.05-.7-1.48ZM29.17,16.54s-.03-.09-.02-.13c-.08-.07-.3.39-.36.46-.44.6-.99,1.19-1.44,1.82-.23.32-.19.54.26.5.12-.01,1.2-.43,1.38-.51.26-.12.95-.55,1.15-.75.11-.12.16-.39.42-.49-.06-.3-.43-.33-.57-.41-.12-.07-.19-.2-.31-.27-.16-.09-.36-.1-.5-.21ZM45.2,19.55c-.05-.03-1.08-.08-1.2-.07s-.19.11-.29.12c-1.09.04-1.9-.31-2.33-1.38-.19-.48-.14-.99-.41-1.4-.36.23-.79.29-1.17.44-.02,0-.04.13-.13.16-.18.07-.43-.05-.55.18l1.17,2.21c.79.03,1.6.11,2.39.24.49.08,1.41.24,1.84.39.15.06.22.13.33.23l.21-.15v.25c.31-.1.5-.17.5.25l.2-.25c.39.2.84.47,1.28.49-.26-.42-.6-.67-.95-.99s-.47-.33-.78-.55c-.06-.04-.06-.16-.1-.18ZM24.84,18.74s-.77-.18-.84-.19c-1.34-.14-.47,1.89-1.12,2.27s-.93-.11-1.42-.38c-.64-.35-1.39-.58-2.12-.4.17.28.4.89.41,1.2.01.49-.58.98.09,1.31.93.45,2.04.46,3.01.2l.2.17c.34-.86,1.11-1.98,2.1-2.16.14-.03.78-.13.85-.13.1,0,.18.12.23.12.07,0,.15-.18.29-.14l.08.16.33-.58c-.69-.08-1.11-.76-1.6-1.12-.06-.05-.46-.33-.49-.34ZM36.07,18.96c-.32-.04-.47.31-.7.5-.38.31-.75.62-1.14.96-.14.12-.36,0-.3.4.06.43.45.22.72.15.64-.17,1.26-.52,1.91-.69l-.49-1.31ZM32.6,21.92l.15-.94c-.03-.3-1.4-.33-1.65-.39-.2-.05-.29-.23-.45-.29-.28-.11-1.1-.33-1.39-.35s-1.01.23-1.19.45c-.03.03-.35.66-.37.71-.03.08.1.18.12.29.19,1.1.11,2.2-1.33,1.77-.2-.12-.25-.73-.12-.89.1-.12.49-.07.39-.43-.49.26-.67-.04-.98-.13-.21-.06-.25.17-.28.18-.12.05-.27.01-.39.06-.3.12-.65.64-.74.95l-.16-.08c0,1.01-1.51,1.17-2.28,1.31-.24.51-.47,1.18-.05,1.66,1.09.27,2.1-.56,2.9.54.16.22.74,1.75,1.13,1.25.03-.04,0-.16.04-.2.14-.13.1-.05.31-.31,1.2-1.48,2.39-2.53,3.89-3.67.13-.1.25-.33.44-.41l.03-.11c-.39-.42-1.01-1.16-.1-1.36.43-.09.42.12.63.29.15.12.39.08.39.44l1.06-.34ZM48.24,23.77c-3.26-2.18-7.41-3.02-11.13-2.08-3.94,1.01-7.13,3.15-9.68,6.3-.65.8-1.6,2.11-2.01,2.93-.06.11-.04.27-.1.4l-.46.08.24.2c-.43.84-.95,1.7-1.16,2.62-1.12,2.24-1.54,4.81-2.3,7.29-.26.86-.63,2.1-1.3,2.69-.24.21-.5.85-.9,1.16-1.35,1.07-2.72,1.24-4.4,1.08.33.24.84.43,1.21.48,2.87.89,6.08-.09,8.84-.72,1.38-.32,2.93-.61,4.2-.91,2.1-.49,4.13-.95,6.21-1.38.1-.02.19-.07.27-.14l.12.16c-.04-.27.31-.15.5-.2,1.14-.33,2.76-.78,3.92-.95.18-.03.4-.07.37.16.12.03.08-.13.16-.21.15-.16,1.33-.36,1.64-.43.82-.19,1.96-.58,2.86-.52.04,0,.02-.13.09-.15.34-.09.73-.12,1.06-.25l.2.17.04-.25c.45.19.55-.13.77-.21.47-.17,1.36-.26,1.9-.41.26-.07.52-.11.69-.15,1-.27,3.54-.93,4.2-1.62.05-.06.51-.93.54-1.04.53-1.91-.53-5.88-1.34-7.71-1.01-2.3-3.19-4.99-5.28-6.39ZM20.74,23.99c-.64-.09-1.19-.21-1.76-.51-.68-.36-1.06-.98-1.91-.89-.71.07-1.75.91-1.61,1.69.09.5.81.12,1.12.12.29,0,1.2.26,1.49.4.85.41,1.3,1.31,2.41.91.08-.58.06-1.18.26-1.72ZM17.75,25.91c-.15-.09-.62-.12-.83-.25-.23.24-.72.42-.94.59-.24.19-.86,1.04-1.1,1.36-.28.38-.5.78-.82,1.14-.05.26.88.62,1.13.51.05-.02.39-.46.46-.53.27-.27.55-.5.86-.71.05-.03.06-.16.2-.24.33-.18.75-.12,1.1.01.71.28.87,1.46.99,1.49.65-.07.93-.77,1.48-1.07,1.36-.76,1.98.49,2.83,1.23.28.25.69.74,1.09.54.09-.05.62-.93.67-1.07.13-.35-.1-.32-.24-.51-.36-.47-.69-.94-.92-1.47-.26-.11-.47.11-.69.13-.2.02-1.05.02-1.24,0-.17-.03-.67-.3-.83-.29-.07,0-.38.17-.6.19-.3.03-.86.07-1.12.02-.19-.04-1.04-.67-1.31-.83-.09-.05-.11-.18-.16-.21ZM17.36,28.77h-.24c.03.24-.14.26-.22.36-.26.33-.64.95-1.01,1.18-.42.26-1.18.11-1.54.44-.05.04-.71.94-.74.99-.04.1-.16.85-.12.9.23,0,.45.19.65.22.4.06,1.72-.7,1.91-1.11.49.11.22.05.36-.16.23-.33,1.02-.35,1.3-.1.07.06.36.7.44.75.1.06.91.39.99.39.13,0,.24-.18.4-.15l.12.17c.42-.67.84-1.88,1.84-1.62.64.17.47,1.22.36,1.72s-.58.91.06,1.22c.51.24.48-.49.61-.81.08-.2.3-.33.34-.42.13-.27.27-.93.43-1.2.05-.09.13-.12.23-.15-.04-.31-.42-.31-.6-.48-.21-.2-.49-.38-.63-.54s-.37-.61-.52-.76c-.13-.14-.66-.51-.85-.51-.68.56-1.55,1.71-2.56,1.31-.45-.18-.98-1.17-1.03-1.65ZM17.61,33.39l-.57.71c.14.68.58.14.9-.1-.03-.34-.58-.27-.33-.61ZM14.34,34.9c.04-.07.19-.05.22-.23.13-.67-.63-.53-.95-.21-.24.24-.24.54-.38.76-.18.29-.7.71-.65,1.01.54.81.6.16.91-.22.36-.43.52-.61.85-1.11ZM19.73,34.48c-.33-.18-1.41,1.41-1.38,1.83.01.2.22.4.25.61.16.1.55-.17.65-.3.18-.24.23-.68.42-.96.24-.35.63-.43.43-.96-.13-.22-.26-.05-.34-.1-.03-.02-.02-.11-.04-.12ZM15.78,37.03s-.6-.1-.67-.09c-.03,0-.41.29-.43.32-.15.18.08.16.1.19.33.72.64.82,1.15,1.37.1.11.09.29.17.34.03.02.77.25.81.24.18-.04.15-.74.1-.87-.02-.05-.45-.46-.54-.57-.2-.26-.33-.39-.54-.62-.08-.08-.09-.28-.14-.31ZM20.64,39.13c.07-.09.18-.65.15-.8-.05-.32-.38-.65-.59-.9-.24.26-.33.54-.74.57-.21.13.06.17.12.23.19.22.4.71.43.75.03.04.16.02.22.07.08.06.17.38.4.09ZM14.04,43.17c.13-.08.21-.43.19-.59-.04-.24-.53-1.49-.66-1.74-.34-.7-.87-.85-1.06.02-.14.67.28.68.52,1.17.19.39.34,1.56,1,1.13ZM18.34,40.98c-.7-.03-.83.4-1.28.81-.23.21-.36.37-.55.56-.09.08-.28.08-.35.19-.14.24-.09.75.05.99.49-.07.62-.3.95-.58.23-.2.29-.3.45-.45.48-.44,1.22-.68.73-1.51Z"/>
          <path class="cls-10" d="M31.42,28.74c-.23.24-.61.53-.84.77-.15.15-.27.49-.41.59-.1.08-.28.07-.29.08,0,0,.09.14.04.24-.07.15-.29.19-.35.27-.58.73-1.37,1.98-1.84,2.82-.43.79-.81,1.94-1.32,2.62-.23.31,0,.16-.09.49-.1.39-.53,1.03-.68,1.47-.44,1.29-.6,2.83-1.16,4.11-.23.52-.57.64-1.11.49-.04-.68.28-1.25.45-1.89.05-.18,0-.4.05-.53.04-.12.2-.11.23-.14.02-.02-.09-.31-.07-.52.07-.65.62-2.2.86-2.85,1.28-3.47,3.32-6.64,6.02-9.15.07-.07.11-.21.14-.23.15-.09.8-.03.88.2.18.53-.2.82-.51,1.15Z"/>
          <path class="cls-10" d="M35.85,25.83c-.16.06-.3.14-.54.22-.07.02-.04.15-.18.16-.43.05-.67-.07-.61-.52.07-.48.47-.51.83-.73.83-.51,2.81-1.16,3.81-1.07.51.04.66.39.41.82-.22.39-.61.17-.87.21-.91.15-1.98.55-2.84.89Z"/>
          <path class="cls-10" d="M35.22,37.46c.64.35-.04,1.4-.71.83-.37-.31.04-1.19.71-.83Z"/>
          <path class="cls-10" d="M48.48,28.31c.12-.04.59,0,.66.12.29,2.16-1.67.25-.66-.12Z"/>
          <path class="cls-10" d="M40.78,40.3s-.03-.14-.09-.18c-.05-.04-.18.02-.21-.04-.12-.22-.16-.74.13-.87.68-.31,1.01.75.66.99-.02.01-.47.12-.49.11Z"/>
          <path class="cls-10" d="M40.21,34.56c.44-.25,1.05-.23.97.43-.12.9-1.39.31-.97-.43Z"/>
          <path class="cls-10" d="M50.31,36.79c.23.4-.04,1.05-.56.94-.05-.01-.39-.33-.4-.35-.15-.46.56-.88.96-.59Z"/>
          <path class="cls-10" d="M51.63,32.91c.4.41.03,1.31-.59.88-.21-.14-.39-.87.03-.74l.06-.23c.12-.03.42,0,.51.1Z"/>
          <path class="cls-10" d="M36.22,30.84c.06.09-.14.69-.17.71-.29.25-1-.13-.88-.58.14-.5.73-.42,1.04-.13Z"/>
          <path class="cls-10" d="M29.53,40.78c-.35.43-.5.14-.86-.07-.12-.56.33-.93.85-.64.19.24.21.47.01.71Z"/>
          <path class="cls-10" d="M43.8,25.04c-.36.2-.88-.02-.8-.51.1-.6,1.01-.53.99.08,0,.1-.13.39-.19.43Z"/>
          <path class="cls-10" d="M46.1,35.62c.26-.07.88.44.6.77-.23.27-.47.31-.77.11-.36-.23-.11-.81.17-.88Z"/>
          <path class="cls-10" d="M46.6,26.44c-.29.33-.99-.02-.88-.5.3-.29.33-.49.75-.28.29.14.29.59.13.78Z"/>
          <path class="cls-10" d="M31.52,34.3c.65-.1.64.89.15.98-.69.13-.8-.88-.15-.98Z"/>
          <path class="cls-10" d="M46.17,31.37s.11.03.11.07c-.1.26,0,.54-.28.71l-.07-.16c-1.15.39-.51-1.47.24-.62Z"/>
          <path class="cls-10" d="M40.96,28.05c.39-.32.97.12.68.64-.34.61-1.21-.2-.68-.64Z"/>
          <path class="cls-10" d="M25.46,25c.36-.42,1.47-.31,1.32.29-.01.05-.33.74-.37.79-.33.49-1.12.36-1.28-.19-.02-.09.25-.81.32-.89Z"/>
        </g>
      </g>
    </g>
  </g>
</svg>