<?xml version="1.0" encoding="UTF-8"?>
<svg id="Layer_2" data-name="Layer 2" xmlns="http://www.w3.org/2000/svg" xmlns:xlink="http://www.w3.org/1999/xlink" viewBox="0 0 125.36 74.38">
  <defs>
    <style>
      .cls-1 {
        fill: url(#linear-gradient-5);
      }

      .cls-2 {
        fill: url(#linear-gradient-6);
      }

      .cls-3 {
        fill: url(#linear-gradient-4);
      }

      .cls-4 {
        fill: url(#linear-gradient-3);
      }

      .cls-5 {
        fill: url(#linear-gradient-2);
      }

      .cls-6 {
        fill: url(#linear-gradient);
      }
    </style>
    <linearGradient id="linear-gradient" x1="-10.98" y1="-11.54" x2="160.13" y2="63.3" gradientUnits="userSpaceOnUse">
      <stop offset="0" stop-color="#60bed2"/>
      <stop offset=".09" stop-color="#5db8cf"/>
      <stop offset=".21" stop-color="#57a9c9"/>
      <stop offset=".34" stop-color="#4d90be"/>
      <stop offset=".47" stop-color="#3f6daf"/>
      <stop offset=".5" stop-color="#3c66ac"/>
      <stop offset=".6" stop-color="#3d6599"/>
      <stop offset=".81" stop-color="#416469"/>
      <stop offset="1" stop-color="#46633a"/>
    </linearGradient>
    <linearGradient id="linear-gradient-2" x1="-19.77" y1="8.56" x2="151.34" y2="83.4" xlink:href="#linear-gradient"/>
    <linearGradient id="linear-gradient-3" x1="-13.81" y1="-5.06" x2="157.29" y2="69.78" xlink:href="#linear-gradient"/>
    <linearGradient id="linear-gradient-4" x1="-18.01" y1="4.54" x2="153.09" y2="79.38" xlink:href="#linear-gradient"/>
    <linearGradient id="linear-gradient-5" x1="-28.63" y1="28.82" x2="142.47" y2="103.66" xlink:href="#linear-gradient"/>
    <linearGradient id="linear-gradient-6" x1="-23.75" y1="17.67" x2="147.35" y2="92.51" xlink:href="#linear-gradient"/>
  </defs>
  <g id="Layer_1-2" data-name="Layer 1">
    <g id="aCyNuf">
      <g>
        <path class="cls-6" d="M98.97,1.58l-.11.25c.8.43,1.49,2.37,1.91,2.86.13.15.41.12.58.29.32.33.94,1.44,1.32,1.48,1.02-.36,2.09-.7,3.1-1.09.38-.15,1.32-.75,1.57-.81.17-.04.26.2.42.15.27-.08,1.38-.85,1.88-1.05.59-.24,2.68-.96,3.19-.81.82.25.51,2.43.51,3.12,0,1.94-.08,3.78-.14,5.72-.06,1.72.5,2.28,2.1,2.79.8.26,1.91.42,2.75.74,1.46.55,2.27.73.81,2.11-3.16,3.01-6.01,6.38-9.07,9.5-.25.26-1.21.91-1.26.97-.27.38-.5.84-.85,1.24-.48.54-1.77,1.79-1.94,2.39-.05.18-.1.36-.06.56.74.35,1.08-.02,1.61-.12,2.23-.41,4.49-.87,6.66-1.28.9-.17,1.85-.3,2.68-.69l.07.32.28.1c0-.12,0-.33.07-.42.08-.11,2.34-.54,2.58-.48.49.12.6.65.56,1.09-.1.99-1.01,2.38-1.33,3.29-.07.19-.45,2-.43,2.1.12.49.63.53.91.78,1.59,1.43,3.24,2.69,4.83,4.1.34.3.68.85,1.11,1.13.11.19.08.37.01.56-.11.32-2.18,1.77-2.63,2.12-1.69,1.33-3.67,2.58-5.27,3.94-.17.15-.47.17-.63.35-.14.22.07.9.15,1.19.29.97.63,1.09.62,2.22,0,.1.23.08.28.18.29.59,1.08,2.23-.18,2.23-1.02,0-2.23-.21-3.23-.24-2.07-.06-4.28.14-6.29.01-.48-.03-1.02-.3-1.4-.29s-.82.56-1.11-.13c-.07.41-.61.34-.97.27-1.41-.26-2.62-.09-4.05-.12-.91-.02-1.95-.29-2.91-.16-.34.08-1.53,3.86-1.71,4.47-.06.2.05.43,0,.57-.04.13-.49,1.06-.57,1.08-1,.36-1.42-.93-1.91-1.34-.42-.34-.95-.62-1.51-1.08-1.59-1.31-2.96-2.3-4.36-3.81-.28-.3-.92-.43-1.29-.87-.18-.21-.16-.48-.22-.55-.01-.02-.25.1-.45-.02-.25-.15-.29-.42-.42-.51-.54-.37-1.33-.5-1.49-1.25-.56.17-.31-.26-.76-.19-.06.02-.6.84-.69.98-1.77,2.98-3.76,6.13-5.52,8.99-.72,1.18-1.67,3.12-2.46,4.11-1.17,1.46-2.69-1.17-3.84-1.58-.24-.29-.14-.91.15-1.12.27-.19.74-.69,1.07-1.09,2.47-3.06,4.98-6.74,7.44-9.84.15-.19.75-1.23.86-1.48.65-1.42-.86-1.67-1.75-2.21-.34-.21-.69-.52-1.06-.75-2.6-1.64-5.8-2.91-8.62-4.36-.45-.23-1.11-.63-1.03-1.2s2.98-2.85,3.57-3.43c.41-1.1-.57-1.72-.93-2.56-1.41-3.22-3.33-6.51-4.89-9.77-.93-1.94-1.85-4.14-3.09-6.06-.06-.1-.31-.12-.36-.27-.07-.23.24-.8.47-.84l5.52-.11c.28-.2.8-2.38.91-2.87.04-.17-.08-.38-.05-.48.06-.19.37-.17.4-.31.05-.23-.17-.55-.15-.81.02-.21.28-.48.35-.77.35-1.35.6-2.72.92-4.08,1.09-1.28,1.64-.41,2.73,0,1.85.69,3.68,1.48,5.5,2.32.22.1.25.3.37.35,1.19.56,1.21-.76,1.77-1.25s1.57-1.69,2.11-2.41c.12-.16.38-.89.55-1.05.23-.22.82-.55,1.05-.2.2.3.89,2.31,1.06,2.81.4,1.18.68,2.39,1.03,3.6l-.28.47.42.09,1.98,6.37c1.1,1.04,1.54-.46,1.98-1.32,1.06-2.08,1.61-4.07,2.49-6.17.09-.21.35-.19.39-.33.06-.24-.01-.49.11-.84.17-.5.5-.51.57-.61.02-.02-.14-.34-.1-.57.1-.6.7-1.47.92-2.03.71-1.82,1.3-3.79,2.26-5.44.24-.41-.04-.65.63-1.02.43-.23.74.15,1.19.15ZM72.23,13.24c-.06-.06-.07-.22-.13-.22-.27.03-.4.44-.49.49-.15.09-.87-.24-.7.41.13.49.9-.37,1.25.07l-.13-.41.41-.22c.05-.09-.14-.05-.22-.13ZM74.82,14.28l.07-.98-.2.49c-.77-.09-1.11.09-.85.9l.56-.14-.42-.14c.11-.38.55-.24.83-.14ZM82.93,13.71c.11-.27.04-.44-.29-.41l.14.56-.7.28.56.14-.56.42.42.07c.12-.25.12-.37.42-.28l.14-.14c-.37-.77.05-.2.28-.63h-.41ZM73.14,14.57l-.61-.3-.23.41h-.54c.44.25.63.29,1.12.16l-.28.35c.22.3.65-.47.55-.61ZM84.24,15.6c-.06-.05-.09-.21-.13-.21l-.35.14.14.42-.42.14.9.42c.34-.32.14-.67-.15-.91ZM74.93,18.16c.23-.43-.96-.82-1.23-.53-.36.39.73.13.84.28l-.14.84c.47.1.17-.29.32-.52.03-.05.2-.03.21-.06ZM71.05,18.74c.18-.38.12-.95-.42-.98l-.28.9.28.14.28-.63.14.56ZM78.59,18.04l-.84.06-.13.78.35-.56.63.55v-.84ZM72.03,24.6l-.4.23c.27.65-.16.27-.15.74h1.12s-.56-.98-.56-.98ZM72.03,27.95c-.34-.03-.73-.02-.7.42l.42-.14c.08.1-.09.98.42.84l-.14-1.12ZM90.04,30.47c-.29,0-.53-.09-.59.24l-.25-.1v.7s.7-.14.7-.14l-.13-.35.26-.34ZM78.73,31.72l-1.23.31v.93s.67.15.67.15l-.42-.28v-.7s.42.28.42.28v-.42s.56.14.56.14v-.42ZM89.48,31.86c-.3-.12-.46.4-.49.55s-.04.92.14.98l.21-.28.14.28v-1.53Z"/>
        <path class="cls-5" d="M14.66,2.97c-.32-.02-.6,0-.9-.14-.11.39-.27.14-.33.18s-.07.22-.18.3c-.13.1-.37.06-.41.1-.05.05.08.2.07.25-.06.47-.57.25-.71.02-.08-.14.27-.53-.13-.42-.33.09-.57.51-.63.83-.4-.44-.89-.03-1.35-.04-1.08-.03-2.63-.26-3.75-.11-.26.03-.18.28-.28.29-.53.04-1.35-.21-1.45.63l.28-.07v.28c-.34.03-.85,1.29-.94,1.64-.24.95.01,1.99.1,2.9.02.15-.13,1.84-.16,1.93-.06.21-.27.29-.46.23s-.12-.45-.35-.42l-.13.35c.1.32.61.21.66.25.52.38.18,1.24.19,1.71.03,1.41.02,2.75.03,4.1,0,2.44,0,4.67.01,7.07.01,1.47.23,3.29.1,4.73-.06.63-.57.49-.71,1.05h.7c-.11.43-.15,1.13-.15,1.6,0,.24.17.49.15.69,0,.04-.43.24-.29.65l.28-.14c.2.3-.48,1.67.14,1.74-.16.16-.38,1.21-.39,1.42,0,.18.24.38.26.67.05.5-.22.64-.25.95-.07.65.47,3.47.07,3.84-.01.01-.31-.13-.39.1-.06.16-.06.43.21.35.16-.05-.03-.43.21-.21.02.57.18,1.37.11,1.96-.03.24-.26.37-.25.67,0,.36.38,1.14.27,1.54-.03.11-.26.08-.26.15,0,.63.11,1.47.13,2.23.11,4.98.32,10.36.12,15.35-.03.72-.08,1.18-.4,1.83l.38.14c-.1.61,0,1.35.21,1.92.26.68.94,1.02.8,1.78l.35-.26,1.39.92c.43-.48,1.26-.02,1.68-.01.29,0,.56-.27.83-.24.1.01.02.4.43.29.05-.01.08-.28.14-.29.3-.03.45.26.67.26.23,0,.52-.29.79-.25,0,.23.03.57.35.57.79-.8,1.61-.37,2.54-.34.62.02,1.23-.12,1.86-.08v.56c.39-.04.45-.51.77-.57,1.08-.17,2.87.26,4.06,0l.27.29c.33-.52.73-.11,1.1-.15,1.12-.11,2.61-.36,3.64.15l.27-.29.57.43.07-.28c.95-.45,1.93-.02,2.87,0,.7.01,1.51-.34,2.29-.14l-.07.56c.32.09.18-.33.41-.37.44-.09,1.31,0,1.82-.05,2.61-.29,5.66.3,8.37-.12.51-.08,1.8-.19,2.5-.01.11.03.1.28.17.28.25,0,.44-.29.7-.35,1.08-.28,4.17.17,5.47.16,2.08,0,4.08-.11,6.24-.1,1.59,0,3.64-.15,5.03.26.47.14.8-.25.85-.26.16-.02,1.24-.03,1.39-.02.3.03.16.34.27.29.74-.8,1.75-.19,2.64-.15,1.14.04,2.47-.26,3.64-.27.43,0,1.34.22,1.68.22.29,0,1.31-.52,1.39.06.37-.34,1.23-.12,1.82-.13.44,0,.83,0,1.26,0,7.33.01,14.83-.14,22.19.14l.13-.28.78.27v-.42s1.6.14,1.6.14c.1-.49.63-.18.77-.3.04-.04-.02-.27.04-.36.08-.12.65-.21.93-.55,1.07-1.28,1.09-3.94,1.1-5.56,0-.52-.24-1.36-.22-1.83.01-.29.31-.52.27-.82-.01-.09-.26-.07-.29-.18-.06-.23-.05-1.66,0-1.93.14-.76,1.69-.77,2.02-.08l.23-.4c.51-.26,1.03.74,1.09.68-.05-.33.32-.31.54-.4l.29.48c-.07.64-.38-.35-.69-.08-.24.21.66.49.56.9l-.42.22c-.06.23.24.06.28.23.14.61.02,1.21,0,1.8-.01.41.2.62-.14,1.11l.28-.07c.08.1-.2,1-.21,1.19-.02.28.46.94-.35,1.25l.07.21c.63.1.22,1.52-.06,1.89v.2s.27.14.27.14c-.1-.01-.24-.03-.28.1-.08.28-.14,1.73-.29,1.85h-.55c.77.86-.51,1.94-1.39,1.97h.56s0,.28,0,.28c-.33-.03-.38.28-.42.56l-.69-.56.28.62c-.2.29-.35.25-.56,0l-.27.14.14.62-.48-.14c-1.27,1.01-3.46.81-5.17.83-4.01.05-8.04,0-12.15.02-1.46,0-2.91.07-4.37-.06-2.32-.22-4.82.35-7.08.07-.27-.03-.19-.28-.26-.28-.65.04-1.45.23-2.1.27-.38.02-.89.15-.98-.29-.09.48-.68.15-1.1.16-.23,0-.46.13-.72.13-.59,0-1.14-.19-1.74-.01v-.56c-.6.51-1.99.67-2.73.57-.33-.04-.07-.36-.41-.29l.07.28h-3.69s-.22-.63-.22-.63l.42-.07c.02-.21.06-.33-.21-.28-.62.1-.33.6-.47.78s-1.14.2-1.47.21c-4.46.18-9.21-.07-13.69-.11-.6,0-2.78.28-3.11.07-.08-.05-.1-.35-.23-.37-.15-.02-.71.38-.99.39-.44.03-.83-.37-.97-.36-.19,0-1.04.27-1.54.29-1.54.06-3.24.13-4.73.06-.68-.03-1.57-.24-2.24-.24-.35,0-2.47.34-2.59.26l.14-.27-.35-.15s-.05.25-.16.28c-.63.17-2.42.33-2.83-.27h.98s-.28-.84-.28-.84c.06-.07,1.14.55,1.39.07l-.9-.59-1.16.56c-.22.44-.27.74-.17,1.22l-.84-.06-.14-.64c-.56-.13-.1.53-.14.56-.94-.22-1.89.19-2.86.15l-4.17-.17-.3-.54-.2.5c-.78-.05-1.11.33-1.9-.1l-.27.27c-3.49-.18-6.72.17-10.13-.32-.19-.03-.39-.09-.57-.15v-.35c-.37.12-.65.14-1.03,0-1.01-.38-2.85-2.3-3.22-3.35-.15-.43-.74-2.54-.75-2.87,0-.05.35.02.28-.55-.48-.66-.24-1.91-.18-2.68.03-.34.11-.88-.25-.94.67-1.04.16-2.5.17-3.77,0-.34.22-.74.21-1.01-.01-.34-.52-.51.03-1.01l-.29-.09c-.01-.14.11-.31.11-.45.01-.58-.08-1.41-.05-2.03.01-.3.27-.72.24-.98-.01-.09-.26-.08-.28-.18-.14-.55.26-.89.27-1.23,0-.26-.23-.56-.26-.85-.09-1.13.1-1.76.22-2.76.08-.66-.44-1.43.05-1.84l-.26-.13c-.05-.32.26-.99.27-1.13,0-.05-.36-.01-.24-.8s-.02-.43-.04-.88c0-.2.21-.38.23-.58.08-.78-.07-1.39-.23-2.14l.28.07c-.63-1.21.11-2.9-.03-4.05,0-.05-.36-.49-.24-.96.03-.1.28-.09.28-.16,0-.16-.2-.39-.23-.62-.22-1.67.26-3.55.12-5.28-.04-.53-.03-.84-.04-1.48-.08-3.76.22-7.74-.28-11.45.19.04.52-1.32.51-1.4-.02-.18-.39-.46-.34-.88.04-.33.29-.56.26-.79,0-.08-.25-.06-.28-.17-.14-.47.11-3.01.14-3.74.02-.66-.11-1.47-.07-2.06.02-.23.47-1.01.76-.81-.2-.43-.13-1.15-.23-1.54s-.66-.4-.46-.97l.28.14c.3-.56-.54-1.13.42-.84,0-.16.04-.93.06-.97.07-.11.3-.14.41-.29.04-.06-.04-.21-.01-.24.2-.2.68-.36.85-.6.14-.19.12-.52.25-.66.19-.2.61-.04.9-.13.34-.11.64-.52.84-.57.15-.04.35.11.47.04.12-.07.04-.47.47-.36.1.03.23.63.49.42.07-.05-.23-.19-.04-.27.32-.14.36-.3.39-.29.23.09.55.63.7.56.41-.19.04-.68.07-.7h1.26s-.28.35-.28.35c.35.27.56-.28.91-.35.16-.03,1.97-.16,2.07-.13.11.03.09.27.17.28.19.01.56-.27.84-.28.35-.01.61.29.8.25.16-.03.26-.33.51-.25-.05.47.25.65.49.98l-.21-.84c.65-.26.51.09.66.13.57.17.89-.03,1.39-.08,1.27-.12,3.15-.24,4.56-.14.34.02.61.02.72.36.35-.58.72-.23,1.26-.27,1.1-.08,2.9-.35,3.77.27.1-.37.48-.33.84-.34,2.1-.04,4.17.14,6.29.07.63-.02,1.24-.24,1.88-.14-.5.36-.66.65.14.7l.28-.42c-.19.34-.07.54.28.7.09-1.32,1.21-.83,2.03-.84.7,0,1.22-.53,1.68.42.3,0,.33-.2.21-.42.41.09.83-.1,1.2-.11,1.02-.02,2.27.13,3.33.12,1.42-.02,2.84-.15,4.26-.15l-.42.35.35.48.35-.84,1.25.14-.28.56h.35s.2-.5.2-.5c.27-.2.86.13,1.04.08.11-.03.04-.28.3-.29.4-.02.62.27.82.27.17,0,.38-.19.61-.2,1.87-.08,3.87.19,5.77-.05l-.07.28c.9-.42,1.97-.2,2.94-.13.22.01.47-.12.56-.11.23.04.36,1.46.98-.04l2.85.15-.07.28c.31.09.19-.26.34-.35.45-.28,1.62.08,2.17.08,5.06,0,10.16-.12,15.22,0,.87.02,1.75-.32,2.57.21.51.33.05.34.04.66,0,.24.23.58.24.88.02.47-.26,1.12-.13,1.66-.03.19-.04.24-.23.31-.42.15-2.8.23-3.2.15-.07-.01-.12-.68-.43.03l-1.09-.29-.15.29c-1.43-.32-2.84.07-4.32,0-.89-.04-2.05-.38-2.93-.39-1.31-.03-2.85.24-4.18.26-1.11.01-2.15-.3-3.29,0l-.07-.28c-.2.51-1.31.19-1.82.21-.35.01-.74.43-1.05.01-.18-.24,0-.73-.34-.64l-.14.84-.56-.42-.14.42c-.62-.14-1.07-.63-1.54,0l-.14-.28-.35.28-.28-.42-.22.41c-.43-.31-.99.27-1.11-.27h-.21s-.09.29-.09.29c-1.08-.15-2.24-.28-3.34-.29-1.27,0-2.66.31-3.91.21-.27-.02-.82-.08-.83-.35-.3.59-.22.29-.55.31-.36.02-.42.27-.57-.18-1.39.28-3.21-.13-4.56-.09-.64.02-1.67.37-2.13.36-1.26-.03-2.54-.11-3.77-.12-1.61-.02-3.23-.16-4.81,0l.28-.42h-.34c-.05.01-.07.22-.18.27-.19.09-2.51.15-2.74.09-.31-.07-.3-.08-.44-.37l-.27.39c-.61-.28-1.2.03-1.82.04s-1.37-.33-2.11.11l-.14-.28c-1.07.33-2.48-.24-3.48.29l-.15-.28h-1.17c.05-.25.21-.38-.07-.56l-.62.28.28.41c-.57-.06-1.14.06-1.7.06-.23,0-.53-.21-.75-.19-.49.03-.23.13-.98.06-.34-.03-.68.08-1.04-.07-.15-.34.43-.36.42-.49-.03-.5-.63-.91-1.12-.62l.28-.98c-.19.28-1.06.39-1.1.43-.03.03-.05.56-.15.83.36.02.91,0,1.21.04.17.02.29.05.32.24-.28-.16-.87.55-.94.56-.28.05-.58-.25-.81.14l-.15-.28c.18-.21.27-.44.36-.69ZM11,1.14s.06-.55.17-.68l-.49.56c-.45.03-.6-.83-1.15-.12-.04.05.16.63.11.67-.81.17-.55-.98-1.26-.84l.28.77-.28.14.56.28-1.25.28,1.12.49h-.9s-.08.42-.08.42c.52-.19.95-.44,1.39,0,.08-.33.29-1.1.7-.84l-.14-.7c.46,0,.63-.2.9-.37.12-.07.28-.04.33-.07ZM15.33,1.82c.14-.08.81-1.22.38-1.36l-.56.7-.42-.42-.35.35.28.48-.42.28c.29-.05.86.1,1.09-.03ZM19.84,1l-.16-.33c-.52.03-.07.28-.05.42.01.16-.28.37-.13.59l.32.18c0,.24-.64.86-.7.49-.08-.52.37-.17.28-.63-.39,0-.65-.14-.77.28l-.33-.46.26-.51-.7.14.28.42-.42.28c.38-.28.27.14.56.35-.2.04-.44.32-.28.49.24.25.76-.65.98-.42.03.03-.06.29.03.38.11.12.57.08.6.46l.49-.56.28.84h.27s.22-.41.22-.41l.48.13c.08-.47-.18-.76-.42-1.11l1.39-.28.28.7v-1.26s-.56.42-.56.42l-.14-.7c-.22.3-.24.87-.7.84v-.7c-.42-.09-.29.27-.34.35-.33.53-1.43,0-.21.07v-.7s-.82.26-.82.26ZM61.98.74l-1.06.41.08.57-.42-.28-.07.84-.07-.42c-.49.19-.61.32-1.12,0v.42c-.26.04,0-.34-.34-.27-.38.07-.32.26-.43.55l-.28-.56c-.26.2-.28.56-.14.84l.55.28.42-.42.14.28.28-.56c.3.13,0,.51.2.63.5.3.76-.27,1.26-.21-.06.34.3.63.56.83l-.22-.7.28-.25.63.39v-.35c-.4-.08-.14-.33-.27-.53-.17-.27-.82-.57-.7-1.08l.56.14-.28-.28.42-.28ZM36.35,1.62c.09-.11.55-.21.23-.4-.85-.51-.77.08-1.37.37-.1.28-.04.67.32.68.47-.03.58-.37.83-.65ZM64.49,1.3l-.28.07.12.33-.25.02v.28c.48-.03.23.81-.28.42v.98c.46-.28.07-.46.48-.28.59.27.74-.34.07-.35.02-.75.44-.61.68-.78.03-.02-.03-.72-.26-.68l-.07.42-.21-.42ZM7.12,1.57l-.84.14c-.17.7.59.23.77.83l.35-.35-.42-.07.14-.56ZM11.73,1.57c-.53.03-.98.26-.84.84-.28.04-.65-.17-.56.28l.83.14v-.42s.56.14.56.14c.18-.47-.36-.34-.28-.63.04-.15.41.05.28-.35ZM4.19,2.27c.15-.82-.62-.34-.28.28l-.98-.42.14.42-.28-.07c-.12.41.61.14.7.49-.41-.07-.44.13-.63.42-.11-.51-.49-.28-.49.14l.63.14.14-.28.35.35-.28.35.57.08c.17-.38.18-.7.69-.64.23-.42-.74-.18-.42-.55.27-.32,1.03-.18.84-1.12h-.42s.14.42.14.42h-.42ZM6.73,3.37c-.03-.05.21-.87-.38-1.1-.65.53.09.67.06,1.33l.57.06c.13-.37-.21-.24-.25-.3ZM3.74,5.12l-1.22-.62c-.15.45-.73.89-1.12,1.19.26.4.32-.03.49-.02.18.01.23.37.63-.05l.14.98c.11-.21.18-.73.28-.88.11-.17.5-.02.42-.37l.43.54c.15.08.35-.07.4-.19.2-.49-.4-.23-.46-.57ZM2.71,8.22c-.19-.44-.16-.74-.33-1.15-.49-.36-1.43.65-.15.42l.14.36-.28.07c.74.45.35.21.06.48s-.31.88-.2,1.27h.55s-.42-.84-.42-.84l.84.14c-.18-.22.01-.48,0-.61-.02-.12-.2-.09-.21-.13ZM2.24,10.51c-.23-.89-.89-.83-1.25-.07.31.19.54.11.63-.21l.63.28ZM2.79,15.11c.06-.08-.27-.23-.25-.46.05-.65,1.31-1.48-.3-1.63l-.42.83c.77-.16.41,1.18.56,1.68.24.04.08-.22.18-.38.04-.07.22-.03.23-.05ZM3.21,25.44c.09-.58-.28-.58-.47-.84-.15-.2.02-.77-.68-.39-.64.34-.33.92.18,1.15.24.11.68-.13.97.07ZM1.97,27.67c.72.12.64-.77.55-1.25l-.35.42-.62-.28.43,1.11ZM1.45,45.76c-.09-.08.02-.27-.19-.22.03.35-.27.34-.54.44l.12,1.24.42-.28c.34.58-.41,1.12.07,1.53.11-.37.27-.3.63-.28l-.21-1.27-.35-.2.84-.42c-.26-.18-.55-.33-.79-.55ZM2.15,64.01c.13-.14.44-.19.49-.41l-.32-.75c-.05.33-.4.23-.49.37-.17.27-.13.97-.13,1.3.25-.06.32-.35.47-.51ZM106.37,66.34c.16-.6-.55-.71-.28-1.26-.27.14-.75.15-.7.56l.42-.14-.14.98.7-.14ZM6.98,71.22l-.42.35.91.91.35-.48-.81-.39-.02-.39ZM10.28,71.43c-.24-.11-.44-.3-.64,0,.03.29,1.41.89,1.39.42,0-.18-.49-.18-.65-.26-.05-.03-.07-.15-.11-.16ZM12.83,71.68c-.58.09-.81-.33-1.38.18-.19.17.03.88.43.7.5-.24.71-.44,1.4-.42l.14-.49-.56.28-.02-.24ZM39.93,71.5c-.24-.23-.58.84-.98.7-.01.3.62.82.7.48.1-.41-.45-.04-.42-.35.41-.16.98-.3.7-.84ZM23.59,71.64c-.1-.11-.79.32-.83.5-.05.22.43.78.72.16.1-.21.12-.43.1-.66ZM16.53,72.29c-.11-.19-.14-.51-.33-.51-.08.48-.44,1.03-.98.97.28-.64-.72-.51-.56.07.74.52,1.4-.27,2.09-.07.13-.43-.18-.39-.22-.46ZM63.79,71.78l-.56.14.28.56-.7.28,1.4-.28c.04-.33-.15-.39-.41-.29v-.4ZM9.91,73.04c.17-.6.24-1.13-.56-1.11l.26.35-.33.35-.14-.42c-.25.48-.59.23-.9.49l.49.76h.47s.09-.42.09-.42l.49-.27.14.28ZM37.41,71.92c-.25-.26-.53.66-.57.76l.25.1-.1.25h.84s-.35-.7-.35-.7l-.21.28.14-.7ZM20.24,72.21h-.41s.15.75.15.75l-.29.08c.25.51.85.58.92-.07.03-.29-.51-.38-.37-.76ZM55.34,72.42c-.06-.06-.06-.19-.12-.19l-.63.12c-.15.53.29.26.28.63l-.42.14c.47.58.67-.45,1.12-.56.05-.09-.13-.05-.22-.13ZM33.5,72.48c-.56-.09-.69.47-1.11,0l-.03.4-.4.1.03.61.96.3.56-1.4ZM34.46,72.65c-.11-.17-.62-.06-.8-.01-.05.48-.1.95.34,1.24.44-.21.72-.83.46-1.23ZM75.1,73.18l-1.18-.14-.07.42.42-.14.07.42c.18-.4.87-.07.77-.56Z"/>
        <path class="cls-4" d="M44.21,8.73c.38.74,1.13,1.3.74,2.2l.56-.14c0,.18.03.34.13.49.78,1.09,2.09,2.58,2.71,3.71.28.52.28,1.14.71,1.52.53-.46.6-1.38,1.46-1.26l-.42-.35,1.27-1.43c-.16-.93.51-1.06.87-1.57s.74-1.38,1.15-1.94c.59-.8,1.02-1.37,2.08-1.42,1.25-.05,2.66.16,3.91.16.55,0,2.11-.46,2.38.13.16.36-1.69,2.82-2.01,3.31-.24.38-.4.88-.61,1.21-.51.79-1.84,2.17-2.15,2.89-.12.28.05.43.07.69-.23-.01-.44-.01-.64.13-.33.24-1.62,2.45-2.03,2.99-.22.3-.45.57-.67.87-.11.14-.36.17-.4.22-.03.04.09.8-.12,1.03l.98,1.05c.3,1.34,1.91,2.31,2.05,3.6.71-.03.46.52.68.9.25.43,1.15,1.35,1.47,1.77.2.27.21.72.34.89.09.13.31.05.44.18.23.23.4.94.61,1.25.18.26.75.53.85.75.22.5.13.38.41.84.12.2.03.47.08.55,0,.01.18-.13.33,0,.33.3.4.72.55,1.08.04.09.5,0-.05.6l.42.14c-1.12.44-2.3.08-3.42.08-.73,0-3.86.19-4.3-.07-.32-.19-.9-1.4-1.12-1.78-.1-.16-.54-.11-.23-.6-.17,0-.35,0-.48-.15-.32-.35-.89-1.64-1.21-2.14-.75-1.17-1.48-2.21-2.21-3.34-.12-.19-.4.05-.14-.52l-.91-.14c-.18.1.21.21.15.43-.03.11-.4.73-.5.9-.2.34-.56.65-.69.87-1.27,2.07-2.52,4.14-3.87,6.18-.82.62-1.53.26-2.35.29-.28,0-.54.12-.83.13-.64.02-4.67.07-4.82-.15-.05-.4.24-.71.44-1.02,1.49-2.24,3.21-4.29,4.81-6.42.25-.33.31-1.12.96-1.07v.28s.35-.21.35-.21l-.4-.68c.52-.46.76-.97,1.11-1.52.11-.18.4.04.14-.52.49.25.48-.43.7-.73.52-.73.32-.5.59-1.18.03-.09.53-.27.54-.53.02-.52-1.26-2.4-1.63-2.99-.33-.53-.98-1.67-1.3-2.04-1.87-2.17-3.26-4.79-5.03-7.11-.27-.35-.83-.55-.68-1.09.18-.62.98-.24,1.44-.23,1.35.02,2.7-.22,3.97.06.31-.23,2.57-.2,2.76-.04ZM41.62,12.49l.62-.03c.19-.85-.36-1.15-1.05-.63.16.04.18,1.13.41.81l.02-.15ZM55,13.02c-.37.34-1.01-.2-1.11-.13-.01,0,.01.2-.1.28-.17.11-.49.05-.47.27.15.08.44,0,.53.05.06.03-.06.3.16.24l.07-.56.63.7.28-.84ZM55.56,13.3c-.21-.05-.22.03-.34.15-.14.14-.91.99-.78,1.11.39-.21,1.07-.32.98-.84l.42.42-.28-.84ZM44.25,13.86l-.56-.28c-.58,1.54,1.68,1.39.14.35l.42-.07ZM49.87,18.71c-.37-.37.39-1.36-.24-1.22-.37.08-.07,1.15-.07,1.39l-.56-.56c-.05.54.56.71.28,1.26l-.42-.14v.41s-.7.08-.7.08l1.11.49-.14-.63.28-.07.21.7c.32-.37.58-.62.35-1.11h.49c-.18-.52.32-.29.35.14.47-.16.05-.43.07-.86.02-.5.4-.26.34-.68l-.78.13.08.85c-.2,0-.52-.03-.66-.17ZM47.32,24.04l-.56-.56c.12.34.06.43-.14.7.44,0,.38.39.27.7l-.55-.14c.62,1.79.51.36.73.16l.38-.03v-.42s-.27.14-.27.14l-.13-.5.27-.06ZM43.97,28.51c-1.12-.17-.27.87-1.19.97-.04.47.4.08.68.13.05,0,.18.49.65.29l-.13-.36.27-.06v-.28s-.83-.14-.83-.14l.56-.56ZM43.28,30.05h-.82s-.16.35-.16.35l.69.47c-.02-.42.5-.18.71-.48l-.56-.07.14-.28ZM43.28,31.16c-.67.17-1.09-.22-1.54.52-.35.57,0,.51.09.66.07.12.05.3.14.37.23.16,1.17.22,1.17-.08l-.23-.34-.32.12c-.14-.28-.5-.89.05-.97l.42.7.35-.35-.42-.21.28-.42ZM55.84,32.84l.07-.56-.28.42-.35-.28v.84s.56-.14.56-.14c-.07.24-.23.52.07.69l.21-.7.42-.07c-.22-.32-.35-.33-.7-.21Z"/>
        <path class="cls-3" d="M13.96,8.97l.07-.43.98.29c.09.02-.01-.26.27-.29.72-.1,2.2-.08,2.81.29.09.02-.01-.26.27-.29.82-.11,1.88.11,2.69.1l8.84-.09v.56c.31-.02.25-.53.28-.56.02-.02.28.14.47.13.72-.04,1.54-.31,2.15.18l.14,5.47c-.15.55-2.79.39-3.4.38-.27,0-.46-.24-.55-.24-.12,0-.58.4-.91.23l.07-.28c-1.39.55-2.91.11-4.33.02-.07,0,0,.24-.26.28-.39.05-5.19-.18-5.11.2l.27.13c-.39.55-.03,1.12-.03,1.52,0,.7-.11.87-.01,1.73.02.19-.13.41-.07.64.32,1.22,2.84.06,3.54.8.21-.59.91-.06,1.31-.04.64.05,1.34-.22,1.9-.24,1.11-.04,2.86-.16,3.89-.09,1.11.08.59.9.59,1.47,0,.86.13,1.8.14,2.6,0,.29-.23,1.13-.64.91l.42.14c-.04.74-.88.31-1.31.32-.61.02-.69.06-1.39,0-.59-.05-.95.21-1.42-.46-.48.36.18.27.21.55-.67.41-.83-.1-.93-.13-.05-.01-.87-.13-.97-.14-.06,0-.22.43-.98.42-.52-.01-.36-.36-.54-.39-.44-.08-1.3.32-1.69.35s-1.82-.17-2.03-.05l-.1.14c.07.55.04,1.12.04,1.68,0,.35.14.75.05,1.25-.07.39-.56.47.14.64.09.43-.39.14-.28.62,0,.04.57.29.42.63-.28,0-.5-.11-.42.28.43-.24.9-.11,1.36-.1,2.58.07,5.61-.15,8.46-.17.46,0,.95.02,1.42.02s2.57-.04,2.77.1c.57.41.12.83.11,1.06s.19.44.2.61c.02.44.07,1.86-.07,2.15-.07.15-.39.01-.27.38.79-.51.24.91.11,1.16-.24.46-1.42.5-1.99.53-1.62.08-3.99.05-5.6.01-.27,0-.14-.3-.41-.31-.43-.01-.57.25-.85.29-.3.04-.92-.18-1.32,0l.21-.28-.77.28.07-.28c-.39-.02-.79.19-1.16.2-2.16.06-4.3-.02-6.51-.05-1.19-.02-1.9.79-2.02-.91-.13-1.95-.01-4.48,0-6.57,0-.5.02-.79.01-1.41,0-.54-.07-3.24.02-3.38.04-.07.27.03.25-.09l-.28-.16c.02-.57-.14-1.13.28-1.58l-.42-.21.29-.15-.16-5.13.28-.09v-.2c-.65-.1,0-1.37-.02-1.51-.09-.6-.29-.81-.25-1.7s.14-1.96.08-3.05c0-.11-.18-.21-.16-.38.07-.96,1.21-.81,1.75-.27ZM23.45,10.51l.08-.56-.78-.13.28,1.67c.59-.59.44-.24.79-.18s.4-.25.56-.38c.11-.09.38-.08.43-.16.08-.11.06-.74.16-.95-.06-.06-.79.4-.81.44-.17.27.29.59-.09.81l-.2-.48-.43-.07ZM18.99,10.93l-1.53.21.7.49.07-.28.09.26.68.02v-.7ZM16.2,12.32c.1-.11-.16-.81-.42-.84l.14.56c-.71-.05-1.47-.04-1.12.84l-.98.21c.21.04.71.45.79.47.19.04.69-.39,1.03-.26l-.28-.84.84-.14ZM16.75,15.25c.1-.45-.38-.27-.48-.41-.09-.14-.09-.41-.21-.5-.04-.03-.77.13-.99-.2-.13.8.46,1.48,1.25,1.4-.6.45-.84.94,0,1.25l-.28-.84.7-.15c.18-.81-.5.06-.56-.69l.56.14ZM15.22,16.79l-.56-.14.08.57-.58.26v.43c.39-.03.67.41.72.41.32.01,1.44-.19,1.59-.49-.31-.21-.52-.46-.77-.07l-.21-.69-.63.97c-.5-.29.57-1.03.35-1.25ZM15.24,19.13c-.1-.05-.08-.5-.44-.39v.49s.42.13.42.13l-.35.07-.07.28.47.15.51-.63c-.13-.31-.49-.07-.54-.1ZM17.38,21.2c-.09-.09-.03-.25-.13-.22l-.07.7-.42.07.75.36.23-.36c-.51-.11-.12-.31-.17-.46,0-.02-.14-.03-.18-.08ZM25.97,22.93c.23-.25-.9-1.27-1.05-1.53-.35.17-.27.56-.4.79-.19.31-.84.37-.92.88.55-.27,1.62-.04,1.54-.84l.84.7ZM27.36,21.95c-.5-.13-.19.43-.28.56l-.27-.13-.15.34.42.07-.28.7c.68.06.73-.1.56-.7l.7-.21c-.02-.59-.66.19-.84.07l.14-.7ZM13.7,22.82c.95.41.76-.69.12-.53-.4.14-.62.47-.21.78l.08-.25ZM21.78,22.79l-.98-.08-.66.8.11.39.21-.28.49.42v-.56s.42.14.42.14l-.14-.56.56-.28ZM18.99,24.33c.32-.3.93-.45.83-.98l-1.25.28.42.7ZM17.08,24.01s.11-.29-.12-.39l-.49.35c.01.38.7.55.15,1.04l.98-.14c.13-.55-.34-.65-.51-.87ZM15.92,25.72l-.14-.78-.98-.2.14.7c-.34-.2-1.2.7-1.26.32-.02-.14.1-.35-.14-.31-.13.54-.3.94-.11,1.51l.53.17v-.98c.47-.21.6.28.64.28.2,0,.6-.24.9-.14l-.7-.14.64-.27-.08-.42.56.28ZM16.95,28.32c-.24-.36-.35-.77-.68-1.06-.19,0-.2.69-.18.77.03.09.18.07.19.1.3.62-.36.26-.64.59l.35.49c.17-.32.51-.13.73-.23.03-.01.44-.31.45-.33.19-.28-.18-.27-.22-.33ZM16.2,30.75l-.98-.14c.13.44.24.48.7.42-.08.58-.32.74,0,1.31-.45.28-.63.66-.81,1.14.04.22.75.47.93.27,0-.23-.6-.7-.42-.91.27-.31.23.48.55.27.02-.01.29-.34.29-.37.02-.22-.2-.49-.14-.74l1.12.06c.4-.19-.04-.71.41-.97l-1.04-.35c-.51.4.32.23.21.7h-.56s-.07.42-.07.42c-.24-.49-.41-.51-.21-1.11ZM15.22,32.28c.07-.08-.3-.3-.35-.42-.03-.08.04-1.17-.23-.45l-.26-.11c-.03.38-.07.49.28.64l-.14.34h.7ZM24.68,32.32c-.36-.39-.41.06-.45.08-.11.04-1.24-.31-1.05.09l.64.36c.78-.72.47.07,1.03.41l.07-.27.35.13v-.84s-.14.56-.14.56c-.42.11-.26-.31-.45-.52ZM17.59,32.28l-.69.14.28.42-.7.28c.39.17.93-.02,1.05.42h.26s.36-.42.36-.42c-.39-.01-.53-.5-.56-.84ZM20.94,32.7l-.64-.1-.28.39-.61-.14c.11.6.15,1.14.49,1.67l.15-.29.75.15v-.42c-.73.35-1.33-.49-.42-.42.02-.16-.06-.42.02-.54s.56-.04.54-.3ZM18.75,33.35c-.05-.03-.06-.16-.05-.23-.53.22.02.29,0,.7-.08.08-.99-.08-.84.42l.84.14c-.11-.6.42-.59.42-.98-.13.01-.25.02-.37-.05Z"/>
        <path class="cls-1" d="M16.75,39.12c.17.28.07.9.17,1.09.02.04.37.18.53.38.5.61,2.06,3.06,2.27,3.74.06.2-.05.49-.03.51.03.02.24-.02.36.06.21.13,2.44,3.91,2.5,4.15s-.03.34-.07.55h.42s-.14.56-.14.56l.42-.14c.03.23.13.46.25.66.55.87,1.17,2.1,1.74,2.87.98,1.33,1.01-.21,1.38-.8,1.45-2.34,2.93-4.73,4.29-7.15.14-.25,1.67-3.42,1.83-3.26l.28.42c-.35-1.07.51-1.93,1.04-2.8.24-.41-.11-.56.62-.74.46-.11,2.84-.12,3.44-.1s.28.63.9.29c-.18.68.16,1.68,0,2.28-.03.11-.29.08-.28.16,0,.18.25.36.29.69.26,1.83-.13,4.81-.13,6.72,0,5.14.4,10.6.01,15.62-.03.33.29.59-.23.92-.42.26-.58-.23-.7.27-.72-.65-2.25.41-2.73-.62l.15-17.31.42.07-.39-.3-.13-1.87.38-.48c-1.17-.18-1.44,1.52-1.9,2.36-2.21,4.06-4.69,8.36-7.15,12.25-.36.57-.2,1.11-1.12,1.15l-2.14-3.52.03-1.08-.7.28c-.22-1.05-.96-1.98-1.48-2.92-1.35-2.47-2.67-5.01-4.11-7.48l.28-.07c.17-.31-.85-1.82-1.39-1.4,0,.29.54.39.56.42.05.08-.18.18-.19.27-.12.71-.21.34-.33.64-.18.42.05,2.08-.03,2.48-.02.09-.22.09-.24.13-.04.07.22.29-.18.25.05.41.52.1.56.14-.2.83-.26,1.85-.24,2.7.05,1.47.18,2.79.09,4.35-.01.23.13,1.06,0,1.18-.05.05-.73-.25-.69.07.04.37.61.32.83.07.09.46-.14.89-.15,1.33-.02.75.27,1.6.16,2.38-.07.48-.57.66,0,.84-.34.76.3,2.72-.21,3.27-.69.75-.92.05-1.14,0-.14-.03-.35.26-.67.28-.17,0-.37-.12-.57-.12-.39,0-.71.29-1.11-.17-.46-.55-.07-1.09-.07-1.61,0-1.43-.27-3.07.28-4.38-.67-.05-.17-.83-.18-1.22-.01-.5-.23-1.24-.2-1.88.02-.42.29-1.3.25-1.69-.01-.11-.28-.02-.3-.29-.04-.49.23-.95.23-1.26,0-.61-.01-1.43-.01-2.1,0-.54-.34-2.38-.18-2.79.05-.12.45-.23.53-.42l-.42-.07.28-1.19-.28-.07v-.28s.28-.07.28-.07l-.29-.15c.02-.37.11-.54.43-.68l-.56-.07.29-2.16-.29-.14c.56-.46.08-.86.07-1.12-.01-.31-.09-1.62-.07-1.8.01-.08.45-.12.28-.5l-.28-.07.24-.35c.68-.03,1.36-.13,2.04-.13.48,0,.45.06,1.11,0,.55-.05.82.4,1.2-.01ZM15.08,43.17l-.31.18-.11.66c-.15.11-.9-.38-.98,0,.41-.11,1.04.49,1.32.42.43-.1-.19-.9.07-1.26ZM16.48,43.31c-.3-.38-.55.81.12,1.11.22.1.49.04.71.14l.15-.55c-.43-.06-1.11-.15-.98-.7ZM36.02,43.31l-.42.09c.07.42-.35.88.07,1.16l1.05-.28c-.07-.38-.41-.14-.53-.19-.03-.01-.12-.36-.45-.23l.28-.56ZM14.8,47.35c-.08-.1,1.29-.68,0-1.11.16.9-.35.4-.54.58-.04.04,0,.26-.07.34-.23.27-.62.32-.51.76l.28-.14s-.13.67.35.42c.19-.1.12-.44.35-.42l-.28.7c.79.29,1.02-1.04.42-1.12ZM29.88,51.12l-.84-.22c-.3.28-.6.61-.56,1.06.29-.02.58-.55.73-.61.37-.14.75.27.66-.23ZM14.38,53.08l-.7-.14c.3.55-.23.45-.28.66-.13.46.11.93.57.54.02-.6.08-.57.41-1.05ZM14.02,55.23c.09-.08,1.41-.89.71-1.04-.48-.1-1,.82-.9,1.26.21.06.11-.15.19-.22ZM15.5,55.45l-.35-.56c-.49.49-1.02.39-1.33,1.11l.35.28c.33-.58.74-.61,1.33-.84ZM13.86,60.72c-.05-.19.06-.44-.04-.66-.69.13-.6.98-.21,1.39.25-.08.48-.38.48-.63,0-.06-.22-.06-.23-.1Z"/>
        <path class="cls-2" d="M53.95,66.34c-1.53-.18-5.02-1.59-6.22-2.58-2.98-2.48-4.16-5.67-4.6-9.36-.31-2.66.18-4.48.8-7.01s2.78-5.45,5.22-6.78c.82-.45,1.65-.79,2.46-1.17.86-.4,2.49-.37,3.47-.72l.62.41v-.42c.38-.08.2.09.35.28.53-.64,1.1-.06,1.68,0,.48.05.97-.19,1.43-.05,1.7.51,4.72,1.91,5.99,3.17.19.19,1.39,1.87,1.48,2.08.1.23.12.39.01.63-.47.27-.88.62-1.32.93-.18.12-.44.12-.58.22-.34.23-.87,1.26-1.46.67-.26-.26,0-.64-.03-.66-.03-.02-.24.06-.43-.1-.26-.21-.52-1.03-.89-1.3-1.68-1.2-3.53-1.85-5.6-1.96-3.27-.16-6.5,1.88-8.22,4.62-.13.2-.19.46-.22.69l-.28-.14v.84s-.42-.14-.42-.14c.37.81-.12,1.31-.24,2.06-.55,3.2.23,7,2.48,9.46,1.98,2.16,4.7,2.42,7.33,3,.04-.43.93-.56,1.12-.28.15.21-.13.68.34.56-.11-1.26.5-.74,1.15-.86.44-.08,3.81-2.08,3.95-2.35-.04-.82.17-1.76.16-2.56,0-.45-.29-1.48-.24-1.96.01-.12.47-.01.29-.36-.52.21-1.12-.23-1.43-.24-.38-.02-.99.25-1.43.25-.69,0-1.02-.1-1.79-.06-1.1.06-2.55.5-2.74-.87-.05-.4-.11-2.19.06-2.43.3-.4.94-.15,1.38-.16.46-.01,1.24-.43,1.41.16.45-.56,1.12-.16,1.66-.16,1.52,0,3.1-.15,4.61-.13.49,0,1.49-.06,1.73.38.41.74.06,3.43.07,4.42.02,1.46.24,3.12.2,4.63-.03.87-.62,1.4-1.32,1.87-.19.13-.52.11-.59.17-.02.01.08.2.04.26-.33.52-4.15,2.25-4.91,2.47-.71.21-1.49.17-2.18.47l-.29-.42c-.51.44.18.07.07.55-.78-.12-1.77.35-2.23-.42l.14.42c-.65-.05-1.39.08-2.02,0Z"/>
      </g>
    </g>
  </g>
</svg>